<?xml version="1.0" encoding="UTF-8" standalone="no"?>
<svg
   xmlns:dc="http://purl.org/dc/elements/1.1/"
   xmlns:cc="http://creativecommons.org/ns#"
   xmlns:rdf="http://www.w3.org/1999/02/22-rdf-syntax-ns#"
   xmlns:svg="http://www.w3.org/2000/svg"
   xmlns="http://www.w3.org/2000/svg"
   xmlns:sodipodi="http://sodipodi.sourceforge.net/DTD/sodipodi-0.dtd"
   xmlns:inkscape="http://www.inkscape.org/namespaces/inkscape"
   viewBox="0 0 188.44568 326.44403"
   height="326.44403"
   width="188.44568"
   xml:space="preserve"
   id="svg2"
   version="1.1"
   sodipodi:docname="5_nosafety_2.svg"
   inkscape:version="0.92.2 5c3e80d, 2017-08-06"><sodipodi:namedview
     pagecolor="#ffffff"
     bordercolor="#666666"
     borderopacity="1"
     objecttolerance="10"
     gridtolerance="10"
     guidetolerance="10"
     inkscape:pageopacity="0"
     inkscape:pageshadow="2"
     inkscape:window-width="1217"
     inkscape:window-height="1413"
     id="namedview10615"
     showgrid="false"
     inkscape:zoom="9.4192877"
     inkscape:cx="100.15393"
     inkscape:cy="214.21711"
     inkscape:window-x="537"
     inkscape:window-y="338"
     inkscape:window-maximized="0"
     inkscape:current-layer="g126" /><metadata
     id="metadata8"><rdf:RDF><cc:Work
         rdf:about=""><dc:format>image/svg+xml</dc:format><dc:type
           rdf:resource="http://purl.org/dc/dcmitype/StillImage" /><dc:title></dc:title></cc:Work></rdf:RDF></metadata><defs
     id="defs6"><clipPath
       id="clipPath18"
       clipPathUnits="userSpaceOnUse"><path
         id="path16"
         d="M 0,0 H 425.197 V 425.197 H 0 Z"
         inkscape:connector-curvature="0" /></clipPath><clipPath
       id="clipPath26"
       clipPathUnits="userSpaceOnUse"><path
         id="path24"
         d="m 187.302,108.534 h 123.021 v -7.691 H 187.302 Z"
         inkscape:connector-curvature="0" /></clipPath><clipPath
       id="clipPath114"
       clipPathUnits="userSpaceOnUse"><path
         id="path112"
         d="m 221.483,301.815 c -5.578,-0.487 -8.176,-2.07 -10.306,-3.44 v 0 c -2.13,-1.371 -6.193,-3.098 -10.108,-8.774 v 0 c -3.915,-5.677 -7.682,-15.304 -11.22,-21.791 v 0 c -3.54,-6.49 -5.872,-12.837 -3.813,-21.127 v 0 c 0.264,-1.059 0.475,0.124 1.025,1.306 v 0 c 0.263,0.565 0.635,1.139 1.062,1.697 v 0 c -0.003,-0.047 -0.008,-0.094 -0.01,-0.141 v 0 c -0.157,-2.332 0.833,-5.629 1.366,-6.727 v 0 c 0.533,-1.099 0.61,0.003 1.141,1.141 v 0 c 0.225,0.483 0.53,0.971 0.884,1.449 v 0 c 6.324,-13.888 16.977,-24.139 26.668,-24.778 v 0 c 12.028,-0.793 19.05,-0.92 36.503,19.263 v 0 c 0.111,-0.416 0.126,-0.267 0.245,-1.219 v 0 c 0.119,-0.953 -0.087,-2.765 0.891,-1.742 v 0 c 0.98,1.024 2.996,3.933 3.866,6.534 v 0 l 0.11,0.094 c 0.107,0.093 0.211,0.186 0.315,0.28 v 0 c 0.2,-0.629 0.287,-0.762 0.421,-1.841 v 0 c 0.135,-1.078 -0.135,-2.915 0.697,-1.887 v 0 c 0.835,1.029 2.835,4.433 3.941,7.758 v 0 c 2.511,7.552 -0.508,14.481 -2.98,21.875 v 0 c -3.696,11.051 -8.565,25.759 -20.585,29.894 v 0 c -4.69,1.613 -10.975,2.335 -16.159,2.335 v 0 c -1.419,0 -2.755,-0.054 -3.954,-0.159"
         inkscape:connector-curvature="0" /></clipPath><clipPath
       id="clipPath130"
       clipPathUnits="userSpaceOnUse"><path
         id="path128"
         d="M 0,0 H 425.197 V 425.197 H 0 Z"
         inkscape:connector-curvature="0" /></clipPath><clipPath
       id="clipPath346"
       clipPathUnits="userSpaceOnUse"><path
         id="path344"
         d="m 229.837,343.912 h 2.876 v -12.151 h -2.876 z"
         inkscape:connector-curvature="0" /></clipPath><clipPath
       id="clipPath362"
       clipPathUnits="userSpaceOnUse"><path
         id="path360"
         d="m 235.008,343.414 h 2.141 v -11.843 h -2.141 z"
         inkscape:connector-curvature="0" /></clipPath><clipPath
       id="clipPath378"
       clipPathUnits="userSpaceOnUse"><path
         id="path376"
         d="m 247.897,337.093 h 1.501 v -6.879 h -1.501 z"
         inkscape:connector-curvature="0" /></clipPath><clipPath
       id="clipPath394"
       clipPathUnits="userSpaceOnUse"><path
         id="path392"
         d="m 218.323,340.499 h 1.408 v -6.834 h -1.408 z"
         inkscape:connector-curvature="0" /></clipPath><clipPath
       id="clipPath410"
       clipPathUnits="userSpaceOnUse"><path
         id="path408"
         d="m 200.072,344.928 h 61.229 v -43.6 h -61.229 z"
         inkscape:connector-curvature="0" /></clipPath><clipPath
       id="clipPath414"
       clipPathUnits="userSpaceOnUse"><path
         id="path412"
         d="m 200.061,344.938 h 61.24 v -44.046 h -61.24 z"
         inkscape:connector-curvature="0" /></clipPath><clipPath
       id="clipPath418"
       clipPathUnits="userSpaceOnUse"><path
         id="path416"
         d="m 200.072,301.327 h 61.229 v 43.601 h -61.229 z"
         inkscape:connector-curvature="0" /></clipPath><linearGradient
       id="linearGradient424"
       spreadMethod="pad"
       gradientTransform="matrix(9.649991,92.580002,92.580002,-9.649991,221.03027,230.49023)"
       gradientUnits="userSpaceOnUse"
       y2="0"
       x2="1"
       y1="0"
       x1="0"><stop
         id="stop420"
         offset="0"
         style="stop-opacity:1;stop-color:#ffffff" /><stop
         id="stop422"
         offset="1"
         style="stop-opacity:1;stop-color:#1d1d1b" /></linearGradient><mask
       id="mask426"
       height="1"
       width="1"
       y="0"
       x="0"
       maskUnits="userSpaceOnUse"><g
         id="g450"><g
           id="g448"
           clip-path="url(#clipPath410)"><path
             id="path428"
             style="fill:#000000;fill-opacity:1;fill-rule:nonzero;stroke:none"
             d="m 200.061,344.938 h 61.24 v -44.047 h -61.24 z"
             inkscape:connector-curvature="0" /><g
             id="g446"><g
               id="g430" /><g
               id="g444"><g
                 id="g442"
                 clip-path="url(#clipPath414)"><g
                   id="g440"><g
                     id="g438"
                     clip-path="url(#clipPath418)"><g
                       id="g436"><g
                         id="g434"><path
                           id="path432"
                           style="fill:url(#linearGradient424);stroke:none"
                           d="m 200.072,301.327 h 61.229 v 43.601 h -61.229 z"
                           inkscape:connector-curvature="0" /></g></g></g></g></g></g></g></g></g></mask><clipPath
       id="clipPath458"
       clipPathUnits="userSpaceOnUse"><path
         id="path456"
         d="m 200.072,344.928 h 61.229 v -43.6 h -61.229 z"
         inkscape:connector-curvature="0" /></clipPath><clipPath
       id="clipPath474"
       clipPathUnits="userSpaceOnUse"><path
         id="path472"
         d="m 202.109,309.774 h 30.519 v -20.52 h -30.519 z"
         inkscape:connector-curvature="0" /></clipPath><clipPath
       id="clipPath522"
       clipPathUnits="userSpaceOnUse"><path
         id="path520"
         d="m 278.622,227.206 h 11.714 V 122.582 h -11.714 z"
         inkscape:connector-curvature="0" /></clipPath></defs><g
     id="g12"
     transform="matrix(1.3333333,0,0,-1.3333333,-225.31831,460.90163)"><g
       id="g14"
       clip-path="url(#clipPath18)"><g
         id="g20"><g
           id="g22" /><g
           id="g34"><g
             clip-path="url(#clipPath26)"
             id="g32"
             style="opacity:0.119995"><g
               transform="translate(248.8125,108.5342)"
               id="g30"><path
                 inkscape:connector-curvature="0"
                 d="M 0,0 C 33.972,0 61.511,-1.722 61.511,-3.846 61.511,-5.97 33.972,-7.691 0,-7.691 c -33.971,0 -61.51,1.721 -61.51,3.845 C -61.51,-1.722 -33.971,0 0,0"
                 style="fill:#000000;fill-opacity:1;fill-rule:evenodd;stroke:none"
                 id="path28" /></g></g></g></g><g
         id="g36"
         transform="translate(221.6943,168.8535)"><path
           inkscape:connector-curvature="0"
           d="m 0,0 c 4.667,-1.281 9.335,-2.565 13.714,-4.051 4.505,-1.528 8.689,-3.272 12.229,-5.445 3.299,-2.025 5.963,-4.381 8.103,-6.847 2.543,-2.929 4.353,-6.04 5.611,-8.943 1.066,-2.458 1.689,-4.626 2.266,-6.636 0.586,-2.041 1.12,-3.899 1.951,-5.38 0.696,-1.241 1.669,-2.364 2.759,-3.319 1.255,-1.101 2.623,-1.955 3.888,-2.501 2.277,-0.983 4.559,-0.983 6.84,-0.983 l 0.001,0 0,-6.786 -0.001,0 c -3.071,0 -6.143,0 -9.957,1.646 -1.961,0.846 -4.024,2.121 -5.848,3.72 -1.649,1.446 -3.138,3.174 -4.23,5.122 -1.203,2.142 -1.835,4.341 -2.528,6.758 -0.535,1.863 -1.112,3.872 -1.978,5.868 -1.008,2.325 -2.47,4.831 -4.544,7.22 -1.707,1.967 -3.822,3.84 -6.429,5.441 -2.956,1.814 -6.635,3.334 -10.672,4.704 -4.164,1.413 -8.723,2.666 -13.28,3.918 z"
           style="fill:#e98622;fill-opacity:1;fill-rule:nonzero;stroke:none"
           id="path38" /></g><g
         id="g40"
         transform="translate(221.6943,168.8535)"><path
           inkscape:connector-curvature="0"
           d="m 0,0 c 4.667,-1.281 9.335,-2.565 13.714,-4.051 4.505,-1.528 8.689,-3.272 12.229,-5.445 3.299,-2.025 5.963,-4.381 8.103,-6.847 2.543,-2.929 4.353,-6.04 5.611,-8.943 1.066,-2.458 1.689,-4.626 2.266,-6.636 0.586,-2.041 1.12,-3.899 1.951,-5.38 0.696,-1.241 1.669,-2.364 2.759,-3.319 1.255,-1.101 2.623,-1.955 3.888,-2.501 2.277,-0.983 4.559,-0.983 6.84,-0.983 l 0.001,0 0,-6.786 -0.001,0 c -3.071,0 -6.143,0 -9.957,1.646 -1.961,0.846 -4.024,2.121 -5.848,3.72 -1.649,1.446 -3.138,3.174 -4.23,5.122 -1.203,2.142 -1.835,4.341 -2.528,6.758 -0.535,1.863 -1.112,3.872 -1.978,5.868 -1.008,2.325 -2.47,4.831 -4.544,7.22 -1.707,1.967 -3.822,3.84 -6.429,5.441 -2.956,1.814 -6.635,3.334 -10.672,4.704 -4.164,1.413 -8.723,2.666 -13.28,3.918 z"
           style="fill:none;stroke:#2f1305;stroke-width:1.5;stroke-linecap:butt;stroke-linejoin:miter;stroke-miterlimit:2.61299992;stroke-dasharray:none;stroke-opacity:1"
           id="path42" /></g><g
         id="g44"
         transform="translate(252.6455,170.0215)"><path
           inkscape:connector-curvature="0"
           d="m 0,0 c 0.413,-6.53 1.239,-19.551 0.454,-26.404 -0.784,-6.853 -3.18,-7.537 -3.613,-10.804 -0.434,-3.268 1.095,-9.116 2.809,-12.416 1.715,-3.3 3.616,-4.051 5.77,-4.52 2.155,-0.469 4.563,-0.656 5.92,-1.816 1.356,-1.161 1.661,-3.295 1.44,-5.248 -0.219,-1.953 -0.966,-3.725 -6.106,-4.357 -5.141,-0.635 -14.677,-0.13 -19.155,0.959 -4.48,1.089 -3.902,2.763 -4.81,7.291 -0.908,4.528 -3.304,11.91 -3.754,15.938 -0.45,4.028 1.044,4.705 1.316,7.228 0.273,2.521 -0.677,6.89 -1.381,9.443 -0.704,2.552 -1.163,3.287 -3.222,3.452 -2.06,0.166 -5.719,-0.24 -7.782,0.572 -2.063,0.812 -2.531,2.84 -0.066,5.449 2.464,2.607 7.86,5.795 12.43,8.301 4.57,2.507 8.314,4.333 11.399,6.477 3.086,2.143 5.512,4.604 6.726,5.815 C -0.412,6.57 -0.413,6.53 0,0"
           style="fill:#e98622;fill-opacity:1;fill-rule:evenodd;stroke:none"
           id="path46" /></g><g
         id="g48"
         transform="translate(252.6455,170.0215)"><path
           inkscape:connector-curvature="0"
           d="m 0,0 c 0.413,-6.53 1.239,-19.551 0.454,-26.404 -0.784,-6.853 -3.18,-7.537 -3.613,-10.804 -0.434,-3.268 1.095,-9.116 2.809,-12.416 1.715,-3.3 3.616,-4.051 5.77,-4.52 2.155,-0.469 4.563,-0.656 5.92,-1.816 1.356,-1.161 1.661,-3.295 1.44,-5.248 -0.219,-1.953 -0.966,-3.725 -6.106,-4.357 -5.141,-0.635 -14.677,-0.13 -19.155,0.959 -4.48,1.089 -3.902,2.763 -4.81,7.291 -0.908,4.528 -3.304,11.91 -3.754,15.938 -0.45,4.028 1.044,4.705 1.316,7.228 0.273,2.521 -0.677,6.89 -1.381,9.443 -0.704,2.552 -1.163,3.287 -3.222,3.452 -2.06,0.166 -5.719,-0.24 -7.782,0.572 -2.063,0.812 -2.531,2.84 -0.066,5.449 2.464,2.607 7.86,5.795 12.43,8.301 4.57,2.507 8.314,4.333 11.399,6.477 3.086,2.143 5.512,4.604 6.726,5.815 C -0.412,6.57 -0.413,6.53 0,0 Z"
           style="fill:none;stroke:#2f1305;stroke-width:1.5;stroke-linecap:butt;stroke-linejoin:miter;stroke-miterlimit:2.61299992;stroke-dasharray:none;stroke-opacity:1"
           id="path50" /></g><g
         id="g52"
         transform="translate(255.167,113.8135)"><path
           inkscape:connector-curvature="0"
           d="M 0,0 C 1.142,-0.457 2.283,-0.913 3.544,-1.437 4.806,-1.962 6.187,-2.554 6.786,-3.837 7.385,-5.119 7.2,-7.093 6.48,-8.168 5.76,-9.244 4.504,-9.422 3.247,-9.6"
           style="fill:none;stroke:#2f1305;stroke-width:1.5;stroke-linecap:round;stroke-linejoin:round;stroke-miterlimit:2.61299992;stroke-dasharray:none;stroke-opacity:1"
           id="path54" /></g><g
         id="g56"
         transform="translate(199.5737,170.0215)"><path
           inkscape:connector-curvature="0"
           d="m 0,0 c -0.413,-6.53 -1.239,-19.551 -0.454,-26.404 0.785,-6.853 3.18,-7.537 3.516,-10.518 0.335,-2.98 -1.388,-8.257 -2.956,-11.399 -1.568,-3.144 -2.981,-4.156 -4.89,-4.895 -1.909,-0.74 -4.315,-1.209 -5.784,-2.646 -1.469,-1.438 -2,-3.844 -1.703,-5.625 0.296,-1.782 1.421,-2.938 6.528,-3.451 5.106,-0.513 14.194,-0.383 18.449,0.519 4.254,0.902 3.677,2.576 4.586,7.104 0.908,4.528 3.303,11.91 3.753,15.938 0.451,4.028 -1.045,4.705 -1.317,7.228 -0.271,2.521 0.678,6.89 1.383,9.443 0.704,2.552 1.162,3.287 3.222,3.452 2.058,0.166 5.717,-0.24 7.781,0.572 2.063,0.812 2.53,2.84 0.065,5.449 -2.464,2.607 -7.859,5.795 -12.429,8.301 -4.57,2.507 -8.314,4.333 -11.4,6.477 C 5.265,1.688 2.838,4.149 1.626,5.36 0.413,6.57 0.413,6.53 0,0"
           style="fill:#e98622;fill-opacity:1;fill-rule:evenodd;stroke:none"
           id="path58" /></g><g
         id="g60"
         transform="translate(199.5737,170.0215)"><path
           inkscape:connector-curvature="0"
           d="m 0,0 c -0.413,-6.53 -1.239,-19.551 -0.454,-26.404 0.785,-6.853 3.18,-7.537 3.516,-10.518 0.335,-2.98 -1.388,-8.257 -2.956,-11.399 -1.568,-3.144 -2.981,-4.156 -4.89,-4.895 -1.909,-0.74 -4.315,-1.209 -5.784,-2.646 -1.469,-1.438 -2,-3.844 -1.703,-5.625 0.296,-1.782 1.421,-2.938 6.528,-3.451 5.106,-0.513 14.194,-0.383 18.449,0.519 4.254,0.902 3.677,2.576 4.586,7.104 0.908,4.528 3.303,11.91 3.753,15.938 0.451,4.028 -1.045,4.705 -1.317,7.228 -0.271,2.521 0.678,6.89 1.383,9.443 0.704,2.552 1.162,3.287 3.222,3.452 2.058,0.166 5.717,-0.24 7.781,0.572 2.063,0.812 2.53,2.84 0.065,5.449 -2.464,2.607 -7.859,5.795 -12.429,8.301 -4.57,2.507 -8.314,4.333 -11.4,6.477 C 5.265,1.688 2.838,4.149 1.626,5.36 0.413,6.57 0.413,6.53 0,0 Z"
           style="fill:none;stroke:#2f1305;stroke-width:1.5;stroke-linecap:butt;stroke-linejoin:miter;stroke-miterlimit:2.61299992;stroke-dasharray:none;stroke-opacity:1"
           id="path62" /></g><g
         id="g64"
         transform="translate(250.0117,213.8823)"><path
           inkscape:connector-curvature="0"
           d="m 0,0 c 2.335,-1.978 5.832,-7.418 8.781,-10.748 2.95,-3.328 5.352,-4.545 8.754,-3.404 3.403,1.142 7.807,4.643 10.81,6.773 3.002,2.13 4.602,2.892 6.375,3.102 1.772,0.209 3.716,-0.132 4.665,-0.89 0.949,-0.759 0.904,-1.934 1.237,-4.82 0.332,-2.886 1.043,-7.481 0.827,-9.234 -0.215,-1.752 -1.355,-0.662 -3.928,-1.64 -2.572,-0.976 -6.575,-4.02 -10.628,-6.627 -4.053,-2.606 -8.157,-4.775 -11.443,-5.536 -3.286,-0.761 -5.755,-0.114 -9.124,2.568 -3.369,2.683 -7.638,7.401 -9.758,10.673 -2.118,3.273 -2.085,5.099 -2.158,6.696 -0.072,1.597 -0.252,2.965 -0.119,4.944 0.134,1.978 0.58,4.567 1.39,6.603 C -3.509,0.496 -2.335,1.979 0,0"
           style="fill:#e98622;fill-opacity:1;fill-rule:evenodd;stroke:none"
           id="path66" /></g><g
         id="g68"
         transform="translate(250.0117,213.8823)"><path
           inkscape:connector-curvature="0"
           d="m 0,0 c 2.335,-1.978 5.832,-7.418 8.781,-10.748 2.95,-3.328 5.352,-4.545 8.754,-3.404 3.403,1.142 7.807,4.643 10.81,6.773 3.002,2.13 4.602,2.892 6.375,3.102 1.772,0.209 3.716,-0.132 4.665,-0.89 0.949,-0.759 0.904,-1.934 1.237,-4.82 0.332,-2.886 1.043,-7.481 0.827,-9.234 -0.215,-1.752 -1.355,-0.662 -3.928,-1.64 -2.572,-0.976 -6.575,-4.02 -10.628,-6.627 -4.053,-2.606 -8.157,-4.775 -11.443,-5.536 -3.286,-0.761 -5.755,-0.114 -9.124,2.568 -3.369,2.683 -7.638,7.401 -9.758,10.673 -2.118,3.273 -2.085,5.099 -2.158,6.696 -0.072,1.597 -0.252,2.965 -0.119,4.944 0.134,1.978 0.58,4.567 1.39,6.603 C -3.509,0.496 -2.335,1.979 0,0 Z"
           style="fill:none;stroke:#2f1305;stroke-width:1.5;stroke-linecap:butt;stroke-linejoin:miter;stroke-miterlimit:2.61299992;stroke-dasharray:none;stroke-opacity:1"
           id="path70" /></g><g
         id="g72"
         transform="translate(209.502,203.8193)"><path
           inkscape:connector-curvature="0"
           d="m 0,0 c -2.041,-2.014 -7.379,-4.829 -10.722,-7.306 -3.342,-2.476 -4.689,-4.613 -3.956,-7.875 0.733,-3.259 3.545,-7.643 5.226,-10.612 1.681,-2.969 2.232,-4.521 2.085,-7.391 -0.148,-2.87 -0.993,-7.057 -2.048,-10.184 -1.054,-3.128 -2.318,-5.195 -5.106,-5.635 -2.789,-0.439 -7.101,0.748 -8.428,3.396 -1.327,2.647 0.331,6.754 -0.054,10.795 -0.386,4.041 -2.815,8.015 -4.835,12 -2.022,3.986 -3.635,7.982 -4.028,11.103 -0.393,3.121 0.434,5.367 3.22,8.287 2.787,2.92 7.533,6.513 11.868,9.958 4.335,3.445 8.258,6.742 10.859,8.418 2.6,1.676 3.877,1.733 4.565,-0.29 0.688,-2.022 0.786,-6.123 1.463,-8.78 C 0.786,3.227 2.042,2.014 0,0"
           style="fill:#e98622;fill-opacity:1;fill-rule:evenodd;stroke:none"
           id="path74" /></g><g
         id="g76"
         transform="translate(209.502,203.8193)"><path
           inkscape:connector-curvature="0"
           d="m 0,0 c -2.041,-2.014 -7.379,-4.829 -10.722,-7.306 -3.342,-2.476 -4.689,-4.613 -3.956,-7.875 0.733,-3.259 3.545,-7.643 5.226,-10.612 1.681,-2.969 2.232,-4.521 2.085,-7.391 -0.148,-2.87 -0.993,-7.057 -2.048,-10.184 -1.054,-3.128 -2.318,-5.195 -5.106,-5.635 -2.789,-0.439 -7.101,0.748 -8.428,3.396 -1.327,2.647 0.331,6.754 -0.054,10.795 -0.386,4.041 -2.815,8.015 -4.835,12 -2.022,3.986 -3.635,7.982 -4.028,11.103 -0.393,3.121 0.434,5.367 3.22,8.287 2.787,2.92 7.533,6.513 11.868,9.958 4.335,3.445 8.258,6.742 10.859,8.418 2.6,1.676 3.877,1.733 4.565,-0.29 0.688,-2.022 0.786,-6.123 1.463,-8.78 C 0.786,3.227 2.042,2.014 0,0 Z"
           style="fill:none;stroke:#2f1305;stroke-width:1.5;stroke-linecap:butt;stroke-linejoin:miter;stroke-miterlimit:2.61299992;stroke-dasharray:none;stroke-opacity:1"
           id="path78" /></g><g
         id="g80"
         transform="translate(250.3711,214.8325)"><path
           inkscape:connector-curvature="0"
           d="m 0,0 c 1.619,-6.544 2.465,-19.786 2.605,-30.44 0.141,-10.653 -0.422,-18.721 -3.168,-24.352 -2.746,-5.63 -7.674,-8.827 -15.137,-10.501 -7.463,-1.674 -17.46,-1.827 -23.655,0.685 -6.196,2.511 -8.59,7.686 -9.857,13.926 -1.267,6.24 -1.409,13.546 -0.905,20.589 0.503,7.044 1.651,13.824 3.169,19.992 1.517,6.169 3.406,11.724 8.605,14.726 5.199,3.001 13.71,3.45 19.585,3.293 C -12.884,7.762 -9.646,7.001 -6.829,6.696 -4.013,6.392 -1.619,6.544 0,0"
           style="fill:#e98622;fill-opacity:1;fill-rule:evenodd;stroke:none"
           id="path82" /></g><g
         id="g84"
         transform="translate(250.3711,214.8325)"><path
           inkscape:connector-curvature="0"
           d="m 0,0 c 1.619,-6.544 2.465,-19.786 2.605,-30.44 0.141,-10.653 -0.422,-18.721 -3.168,-24.352 -2.746,-5.63 -7.674,-8.827 -15.137,-10.501 -7.463,-1.674 -17.46,-1.827 -23.655,0.685 -6.196,2.511 -8.59,7.686 -9.857,13.926 -1.267,6.24 -1.409,13.546 -0.905,20.589 0.503,7.044 1.651,13.824 3.169,19.992 1.517,6.169 3.406,11.724 8.605,14.726 5.199,3.001 13.71,3.45 19.585,3.293 C -12.884,7.762 -9.646,7.001 -6.829,6.696 -4.013,6.392 -1.619,6.544 0,0 Z"
           style="fill:none;stroke:#2f1305;stroke-width:1.5;stroke-linecap:butt;stroke-linejoin:miter;stroke-miterlimit:2.61299992;stroke-dasharray:none;stroke-opacity:1"
           id="path86" /></g><g
         id="g88"
         transform="translate(243.1768,209.8174)"><path
           inkscape:connector-curvature="0"
           d="m 0,0 c 1.171,-5.41 1.782,-16.356 1.884,-25.163 0.101,-8.808 -0.306,-15.476 -2.291,-20.131 -1.986,-4.655 -5.549,-7.297 -10.946,-8.681 -5.396,-1.384 -12.625,-1.51 -17.104,0.566 -4.481,2.076 -6.211,6.353 -7.127,11.513 -0.917,5.158 -1.019,11.197 -0.655,17.019 0.364,5.822 1.194,11.429 2.291,16.527 1.098,5.099 2.464,9.692 6.223,12.173 3.759,2.482 9.913,2.852 14.162,2.723 4.247,-0.129 6.588,-0.758 8.625,-1.01 C -2.901,5.285 -1.171,5.411 0,0"
           style="fill:#ecaf45;fill-opacity:1;fill-rule:evenodd;stroke:none"
           id="path90" /></g><g
         id="g92"
         transform="translate(243.1768,209.8174)"><path
           inkscape:connector-curvature="0"
           d="m 0,0 c 1.171,-5.41 1.782,-16.356 1.884,-25.163 0.101,-8.808 -0.306,-15.476 -2.291,-20.131 -1.986,-4.655 -5.549,-7.297 -10.946,-8.681 -5.396,-1.384 -12.625,-1.51 -17.104,0.566 -4.481,2.076 -6.211,6.353 -7.127,11.513 -0.917,5.158 -1.019,11.197 -0.655,17.019 0.364,5.822 1.194,11.429 2.291,16.527 1.098,5.099 2.464,9.692 6.223,12.173 3.759,2.482 9.913,2.852 14.162,2.723 4.247,-0.129 6.588,-0.758 8.625,-1.01 C -2.901,5.285 -1.171,5.411 0,0 Z"
           style="fill:none;stroke:#2f1305;stroke-width:1.5;stroke-linecap:butt;stroke-linejoin:miter;stroke-miterlimit:2.61299992;stroke-dasharray:none;stroke-opacity:1"
           id="path94" /></g><g
         id="g96"
         transform="translate(180.4268,221.0225)"><path
           inkscape:connector-curvature="0"
           d="m 0,0 c 1.958,-3.35 0.776,-5.11 0.436,-5.961 -0.341,-0.851 0.107,-0.823 1.235,0.541 1.128,1.364 2.935,4.063 3.088,7.575 0.061,1.424 -0.149,2.98 -0.498,4.818 4.28,-4.538 8.83,-8.507 12.702,-11.581 7.224,-5.738 12.084,-8.367 14.533,-11.109 2.449,-2.744 2.487,-5.602 2.468,-7.116 -0.019,-1.515 -0.095,-1.685 -0.033,-1.683 0.062,10e-4 0.262,0.174 6.665,3.033 6.402,2.858 19.005,8.401 29.349,15.595 3.732,2.596 7.169,5.406 10.27,8.437 -0.203,-1.308 -0.487,-2.635 -0.904,-3.935 -1.045,-3.26 -2.923,-6.348 -3.513,-7.552 -0.59,-1.204 0.108,-0.522 1.815,0.796 1.707,1.318 4.423,3.273 8.119,8.235 3.696,4.962 8.371,12.929 10.652,21.062 0.209,0.744 0.397,1.491 0.567,2.238 0.388,-1.449 0.698,-2.963 0.837,-4.508 0.305,-3.402 -0.228,-6.951 -0.305,-8.282 -0.076,-1.331 0.305,-0.444 1.371,1.405 1.065,1.848 2.815,4.658 4.299,10.611 1.484,5.952 2.701,15.048 1.639,23.413 -1.062,8.365 -4.403,16.001 -8.189,22.571 -1.656,2.872 -3.396,5.54 -5.031,7.818 C 75.291,84.895 40.001,107.871 18.303,89.144 12.735,84.338 6.331,80.961 2.005,74.02 -16.379,44.519 -12.865,22.019 0,0"
           style="fill:#6e2512;fill-opacity:1;fill-rule:evenodd;stroke:none"
           id="path98" /></g><g
         id="g100"
         transform="translate(180.4268,221.0225)"><path
           inkscape:connector-curvature="0"
           d="m 0,0 c 1.958,-3.35 0.776,-5.11 0.436,-5.961 -0.341,-0.851 0.107,-0.823 1.235,0.541 1.128,1.364 2.935,4.063 3.088,7.575 0.061,1.424 -0.149,2.98 -0.498,4.818 4.28,-4.538 8.83,-8.507 12.702,-11.581 7.224,-5.738 12.084,-8.367 14.533,-11.109 2.449,-2.744 2.487,-5.602 2.468,-7.116 -0.019,-1.515 -0.095,-1.685 -0.033,-1.683 0.062,10e-4 0.262,0.174 6.665,3.033 6.402,2.858 19.005,8.401 29.349,15.595 3.732,2.596 7.169,5.406 10.27,8.437 -0.203,-1.308 -0.487,-2.635 -0.904,-3.935 -1.045,-3.26 -2.923,-6.348 -3.513,-7.552 -0.59,-1.204 0.108,-0.522 1.815,0.796 1.707,1.318 4.423,3.273 8.119,8.235 3.696,4.962 8.371,12.929 10.652,21.062 0.209,0.744 0.397,1.491 0.567,2.238 0.388,-1.449 0.698,-2.963 0.837,-4.508 0.305,-3.402 -0.228,-6.951 -0.305,-8.282 -0.076,-1.331 0.305,-0.444 1.371,1.405 1.065,1.848 2.815,4.658 4.299,10.611 1.484,5.952 2.701,15.048 1.639,23.413 -1.062,8.365 -4.403,16.001 -8.189,22.571 -1.656,2.872 -3.396,5.54 -5.031,7.818 C 75.291,84.895 40.001,107.871 18.303,89.144 12.735,84.338 6.331,80.961 2.005,74.02 -16.379,44.519 -12.865,22.019 0,0 Z"
           style="fill:none;stroke:#2f1305;stroke-width:1.5;stroke-linecap:butt;stroke-linejoin:miter;stroke-miterlimit:2.61299992;stroke-dasharray:none;stroke-opacity:1"
           id="path102" /></g><g
         id="g104"
         transform="translate(211.1772,298.375)"><path
           inkscape:connector-curvature="0"
           d="m 0,0 c -2.131,-1.37 -6.193,-3.097 -10.108,-8.774 -3.915,-5.677 -7.682,-15.304 -11.221,-21.791 -3.54,-6.489 -5.871,-12.837 -3.812,-21.127 0.264,-1.059 0.474,0.124 1.025,1.305 0.263,0.566 0.635,1.14 1.062,1.698 -0.004,-0.047 -0.008,-0.094 -0.01,-0.142 -0.157,-2.331 0.833,-5.628 1.366,-6.726 0.533,-1.098 0.61,0.003 1.141,1.141 0.224,0.482 0.53,0.971 0.883,1.45 6.325,-13.888 16.978,-24.14 26.669,-24.779 12.028,-0.793 19.049,-0.921 36.503,19.263 0.111,-0.416 0.126,-0.267 0.245,-1.22 0.119,-0.953 -0.087,-2.764 0.891,-1.741 0.98,1.023 2.995,3.933 3.866,6.534 l 0.11,0.094 c 0.106,0.093 0.211,0.186 0.314,0.28 0.201,-0.629 0.287,-0.761 0.422,-1.84 0.135,-1.079 -0.136,-2.916 0.697,-1.888 0.834,1.029 2.835,4.433 3.941,7.758 2.511,7.552 -0.508,14.481 -2.981,21.876 C 47.308,-17.579 42.439,-2.871 30.418,1.264 24.446,3.318 15.884,3.927 10.305,3.44 4.727,2.953 2.13,1.37 0,0"
           style="fill:#e98622;fill-opacity:1;fill-rule:evenodd;stroke:none"
           id="path106" /></g></g></g><g
     id="g108"
     transform="matrix(1.3333333,0,0,-1.3333333,-225.31831,460.90163)"><g
       id="g110"
       clip-path="url(#clipPath114)"><g
         id="g116"
         transform="translate(234.5889,254.9722)"><path
           inkscape:connector-curvature="0"
           d="m 0,0 c -3.726,0.504 -8.259,-0.86 -13.651,-1.224 -5.643,-0.38 -14.965,6.457 -22.321,-1.622 -6.538,-7.182 -2.708,-14.561 3.331,-22.464 2.312,-3.024 1.529,-6.001 2.773,-8.308 1.244,-2.308 2.806,-2.672 5.539,-3.112 1.059,-0.171 2.264,-0.298 3.629,-0.432 4.887,-0.481 13.463,-0.179 16.643,1.535 3.181,1.713 3.995,-1.387 5.182,-0.109 2.521,2.712 -0.962,3.208 1.963,4.883 8.269,4.739 11.619,18.661 7.516,25.61 C 8.193,-1.162 3.727,-0.504 0,0"
           style="fill:#f1b170;fill-opacity:1;fill-rule:evenodd;stroke:none"
           id="path118" /></g><g
         id="g120"
         transform="translate(234.5889,254.9722)"><path
           inkscape:connector-curvature="0"
           d="m 0,0 c -3.726,0.504 -8.259,-0.86 -13.651,-1.224 -5.643,-0.38 -14.965,6.457 -22.321,-1.622 -6.538,-7.182 -2.708,-14.561 3.331,-22.464 2.312,-3.024 1.529,-6.001 2.773,-8.308 1.244,-2.308 2.806,-2.672 5.539,-3.112 1.059,-0.171 2.264,-0.298 3.629,-0.432 4.887,-0.481 13.463,-0.179 16.643,1.535 3.181,1.713 3.995,-1.387 5.182,-0.109 2.521,2.712 -0.962,3.208 1.963,4.883 8.269,4.739 11.619,18.661 7.516,25.61 C 8.193,-1.162 3.727,-0.504 0,0 Z"
           style="fill:none;stroke:#2f1305;stroke-width:1.5;stroke-linecap:butt;stroke-linejoin:miter;stroke-miterlimit:2.61299992;stroke-dasharray:none;stroke-opacity:1"
           id="path122" /></g></g></g><g
     id="g124"
     transform="matrix(1.3333333,0,0,-1.3333333,-225.31831,460.90163)"><g
       id="g126"
       clip-path="url(#clipPath130)"><g
         id="g132"
         transform="translate(211.1772,298.375)"><path
           inkscape:connector-curvature="0"
           d="m 0,0 c -2.131,-1.37 -6.193,-3.097 -10.108,-8.774 -3.915,-5.677 -7.682,-15.304 -11.221,-21.791 -3.54,-6.489 -5.871,-12.837 -3.812,-21.127 0.264,-1.059 0.474,0.124 1.025,1.305 0.263,0.566 0.635,1.14 1.062,1.698 -0.004,-0.047 -0.008,-0.094 -0.01,-0.142 -0.157,-2.331 0.833,-5.628 1.366,-6.726 0.533,-1.098 0.61,0.003 1.141,1.141 0.224,0.482 0.53,0.971 0.883,1.45 6.325,-13.888 16.978,-24.14 26.669,-24.779 12.028,-0.793 19.049,-0.921 36.503,19.263 0.111,-0.416 0.126,-0.267 0.245,-1.22 0.119,-0.953 -0.087,-2.764 0.891,-1.741 0.98,1.023 2.995,3.933 3.866,6.534 l 0.11,0.094 c 0.106,0.093 0.211,0.186 0.314,0.28 0.201,-0.629 0.287,-0.761 0.422,-1.84 0.135,-1.079 -0.136,-2.916 0.697,-1.888 0.834,1.029 2.835,4.433 3.941,7.758 2.511,7.552 -0.508,14.481 -2.981,21.876 C 47.308,-17.579 42.439,-2.871 30.418,1.264 24.446,3.318 15.884,3.927 10.305,3.44 4.727,2.953 2.13,1.37 0,0 Z"
           style="fill:none;stroke:#2f1305;stroke-width:1.5;stroke-linecap:butt;stroke-linejoin:miter;stroke-miterlimit:2.61299992;stroke-dasharray:none;stroke-opacity:1"
           id="path134" /></g><g
         id="g136"
         transform="translate(254.8018,295.0825)"><path
           inkscape:connector-curvature="0"
           d="m 0,0 c -1.73,2.225 -1.962,3.243 -2.193,4.26 3.525,2.225 7.05,4.45 10.349,5.622 0.363,0.129 0.723,0.246 1.079,0.348 3.605,1.031 6.9,0.623 8.943,-0.141 2.043,-0.763 2.834,-1.881 3.527,-3.513 0.692,-1.632 1.287,-3.778 0.888,-6.451 -0.355,-2.38 -1.498,-5.179 -2.695,-7.291 -0.148,-0.26 -0.297,-0.511 -0.445,-0.749 -0.344,-0.552 -0.684,-1.036 -1.022,-1.469 -0.988,-1.266 -1.954,-2.102 -2.922,-2.938 l -0.696,-0.246 c -0.697,-0.246 -2.089,-0.738 -3.309,-0.2 -0.695,0.308 -1.335,0.95 -2.154,1.91 C 8.734,-10.136 8.017,-9.234 7.099,-8.16 4.96,-5.658 1.729,-2.225 0,0"
           style="fill:#e98622;fill-opacity:1;fill-rule:evenodd;stroke:none"
           id="path138" /></g><g
         id="g140"
         transform="translate(254.8018,295.0825)"><path
           inkscape:connector-curvature="0"
           d="m 0,0 c -1.73,2.225 -1.962,3.243 -2.193,4.26 3.525,2.225 7.05,4.45 10.349,5.622 0.363,0.129 0.723,0.246 1.079,0.348 3.605,1.031 6.9,0.623 8.943,-0.141 2.043,-0.763 2.834,-1.881 3.527,-3.513 0.692,-1.632 1.287,-3.778 0.888,-6.451 -0.355,-2.38 -1.498,-5.179 -2.695,-7.291 -0.148,-0.26 -0.297,-0.511 -0.445,-0.749 -0.344,-0.552 -0.684,-1.036 -1.022,-1.469 -0.988,-1.266 -1.954,-2.102 -2.922,-2.938 l -0.696,-0.246 c -0.697,-0.246 -2.089,-0.738 -3.309,-0.2 -0.695,0.308 -1.335,0.95 -2.154,1.91 C 8.734,-10.136 8.017,-9.234 7.099,-8.16 4.96,-5.658 1.729,-2.225 0,0 Z"
           style="fill:none;stroke:#2f1305;stroke-width:1.5;stroke-linecap:butt;stroke-linejoin:miter;stroke-miterlimit:2.61299992;stroke-dasharray:none;stroke-opacity:1"
           id="path142" /></g><g
         id="g144"
         transform="translate(218.3994,249.2324)"><path
           inkscape:connector-curvature="0"
           d="m 0,0 c 0.223,-2.203 0.446,-4.405 0.367,-5.962 -0.078,-1.558 -0.459,-2.472 -1.715,-3.195 -1.255,-0.722 -3.385,-1.255 -5.25,-1.293 -1.864,-0.038 -3.463,0.418 -4.642,1.331 -1.18,0.914 -1.941,2.284 -2.702,3.653"
           style="fill:none;stroke:#2f1305;stroke-width:1.5;stroke-linecap:round;stroke-linejoin:round;stroke-miterlimit:2.61299992;stroke-dasharray:none;stroke-opacity:1"
           id="path146" /></g><g
         id="g148"
         transform="translate(218.377,241.4116)"><path
           inkscape:connector-curvature="0"
           d="m 0,0 c 1.372,-1.346 2.744,-2.691 4.572,-3.403 1.827,-0.711 4.111,-0.786 6.152,-0.098 2.04,0.689 3.839,2.143 4.99,3.443 1.151,1.301 1.655,2.449 2.158,3.597"
           style="fill:none;stroke:#2f1305;stroke-width:1.5;stroke-linecap:round;stroke-linejoin:round;stroke-miterlimit:2.61299992;stroke-dasharray:none;stroke-opacity:1"
           id="path150" /></g><g
         id="g152"
         transform="translate(222.9492,238.0088)"><path
           inkscape:connector-curvature="0"
           d="M 0,0 C -1.828,0.711 -3.2,2.057 -4.572,3.403 -4.833,2.865 -5.248,2.44 -5.897,2.067 -7.152,1.344 -9.283,0.812 -11.148,0.773 c -0.411,-0.008 -0.809,0.008 -1.192,0.047 0.368,-0.12 0.716,-0.31 1.027,-0.636 0.647,-0.679 1.129,-1.947 1.237,-3.171 0.107,-1.224 -0.158,-2.404 -0.577,-3.089 -0.419,-0.685 -0.99,-0.875 -1.332,-1.008 -0.343,-0.133 -0.456,-0.209 0.761,-0.514 3.828,-0.956 7.13,-1.552 11.073,-1.313 9.096,0.553 5.739,6.13 12.234,13.484 C 9.669,1.272 7.934,0.684 6.089,-0.026 4.11,-0.787 1.827,-0.711 0,0"
           style="fill:#000000;fill-opacity:1;fill-rule:evenodd;stroke:none"
           id="path154" /></g><g
         id="g156"
         transform="translate(222.9492,238.0088)"><path
           inkscape:connector-curvature="0"
           d="M 0,0 C -1.828,0.711 -3.2,2.057 -4.572,3.403 -4.833,2.865 -5.248,2.44 -5.897,2.067 -7.152,1.344 -9.283,0.812 -11.148,0.773 c -0.411,-0.008 -0.809,0.008 -1.192,0.047 0.368,-0.12 0.716,-0.31 1.027,-0.636 0.647,-0.679 1.129,-1.947 1.237,-3.171 0.107,-1.224 -0.158,-2.404 -0.577,-3.089 -0.419,-0.685 -0.99,-0.875 -1.332,-1.008 -0.343,-0.133 -0.456,-0.209 0.761,-0.514 3.828,-0.956 7.13,-1.552 11.073,-1.313 9.096,0.553 5.739,6.13 12.234,13.484 C 9.669,1.272 7.934,0.684 6.089,-0.026 4.11,-0.787 1.827,-0.711 0,0 Z"
           style="fill:none;stroke:#2f1305;stroke-width:1.5;stroke-linecap:butt;stroke-linejoin:miter;stroke-miterlimit:2.61299992;stroke-dasharray:none;stroke-opacity:1"
           id="path158" /></g><g
         id="g160"
         transform="translate(256.668,292.8408)"><path
           inkscape:connector-curvature="0"
           d="M 0,0 C -1.117,1.437 -1.266,2.094 -1.415,2.75 0.86,4.187 3.136,5.623 5.266,6.38 5.5,6.463 5.732,6.538 5.963,6.604 c 2.326,0.666 4.453,0.403 5.772,-0.09 1.32,-0.493 1.829,-1.215 2.277,-2.269 0.448,-1.054 0.832,-2.438 0.574,-4.164 -0.23,-1.537 -0.968,-3.344 -1.74,-4.707 -0.096,-0.168 -0.192,-0.33 -0.287,-0.483 -0.222,-0.357 -0.442,-0.669 -0.661,-0.949 -0.636,-0.817 -1.261,-1.357 -1.886,-1.897 L 9.563,-8.113 C 9.113,-8.272 8.215,-8.59 7.427,-8.242 6.978,-8.044 6.564,-7.629 6.036,-7.01 5.639,-6.543 5.176,-5.961 4.583,-5.268 3.202,-3.652 1.117,-1.437 0,0"
           style="fill:#d46728;fill-opacity:1;fill-rule:evenodd;stroke:none"
           id="path162" /></g><g
         id="g164"
         transform="translate(256.668,292.8408)"><path
           inkscape:connector-curvature="0"
           d="M 0,0 C -1.117,1.437 -1.266,2.094 -1.415,2.75 0.86,4.187 3.136,5.623 5.266,6.38 5.5,6.463 5.732,6.538 5.963,6.604 c 2.326,0.666 4.453,0.403 5.772,-0.09 1.32,-0.493 1.829,-1.215 2.277,-2.269 0.448,-1.054 0.832,-2.438 0.574,-4.164 -0.23,-1.537 -0.968,-3.344 -1.74,-4.707 -0.096,-0.168 -0.192,-0.33 -0.287,-0.483 -0.222,-0.357 -0.442,-0.669 -0.661,-0.949 -0.636,-0.817 -1.261,-1.357 -1.886,-1.897 L 9.563,-8.113 C 9.113,-8.272 8.215,-8.59 7.427,-8.242 6.978,-8.044 6.564,-7.629 6.036,-7.01 5.639,-6.543 5.176,-5.961 4.583,-5.268 3.202,-3.652 1.117,-1.437 0,0 Z"
           style="fill:none;stroke:#2f1305;stroke-width:1.5;stroke-linecap:butt;stroke-linejoin:miter;stroke-miterlimit:2.61299992;stroke-dasharray:none;stroke-opacity:1"
           id="path166" /></g><g
         id="g168"
         transform="translate(202.4556,299.2686)"><path
           inkscape:connector-curvature="0"
           d="m 0,0 c 1.921,2.044 2.244,3.031 2.567,4.017 -3.286,2.531 -6.571,5.062 -9.732,6.53 -0.347,0.161 -0.693,0.31 -1.037,0.444 -3.475,1.355 -6.777,1.257 -8.871,0.69 -2.095,-0.567 -2.983,-1.602 -3.821,-3.154 -0.837,-1.553 -1.626,-3.623 -1.478,-6.309 0.132,-2.391 1.005,-5.269 1.995,-7.472 0.122,-0.272 0.246,-0.535 0.371,-0.784 0.289,-0.579 0.582,-1.089 0.876,-1.55 0.861,-1.346 1.742,-2.264 2.623,-3.182 l 0.667,-0.308 c 0.667,-0.308 2,-0.925 3.259,-0.505 0.718,0.24 1.411,0.817 2.311,1.692 0.677,0.659 1.472,1.486 2.481,2.465 C -5.438,-5.146 -1.92,-2.044 0,0"
           style="fill:#e98622;fill-opacity:1;fill-rule:evenodd;stroke:none"
           id="path170" /></g><g
         id="g172"
         transform="translate(202.4556,299.2686)"><path
           inkscape:connector-curvature="0"
           d="m 0,0 c 1.921,2.044 2.244,3.031 2.567,4.017 -3.286,2.531 -6.571,5.062 -9.732,6.53 -0.347,0.161 -0.693,0.31 -1.037,0.444 -3.475,1.355 -6.777,1.257 -8.871,0.69 -2.095,-0.567 -2.983,-1.602 -3.821,-3.154 -0.837,-1.553 -1.626,-3.623 -1.478,-6.309 0.132,-2.391 1.005,-5.269 1.995,-7.472 0.122,-0.272 0.246,-0.535 0.371,-0.784 0.289,-0.579 0.582,-1.089 0.876,-1.55 0.861,-1.346 1.742,-2.264 2.623,-3.182 l 0.667,-0.308 c 0.667,-0.308 2,-0.925 3.259,-0.505 0.718,0.24 1.411,0.817 2.311,1.692 0.677,0.659 1.472,1.486 2.481,2.465 C -5.438,-5.146 -1.92,-2.044 0,0 Z"
           style="fill:none;stroke:#2f1305;stroke-width:1.5;stroke-linecap:butt;stroke-linejoin:miter;stroke-miterlimit:2.61299992;stroke-dasharray:none;stroke-opacity:1"
           id="path174" /></g><g
         id="g176"
         transform="translate(200.7832,297.4478)"><path
           inkscape:connector-curvature="0"
           d="m 0,0 c 1.255,1.317 1.47,1.956 1.684,2.594 -2.121,1.657 -4.241,3.314 -6.285,4.281 -0.224,0.105 -0.448,0.204 -0.67,0.292 -2.249,0.895 -4.392,0.846 -5.753,0.488 -1.362,-0.359 -1.942,-1.027 -2.493,-2.03 -0.55,-1.003 -1.071,-2.343 -0.987,-4.086 0.074,-1.552 0.628,-3.423 1.26,-4.857 0.078,-0.177 0.158,-0.348 0.238,-0.51 0.185,-0.377 0.372,-0.71 0.562,-1.01 0.552,-0.876 1.119,-1.476 1.687,-2.075 l 0.431,-0.204 c 0.431,-0.202 1.294,-0.609 2.112,-0.341 0.467,0.152 0.92,0.523 1.507,1.086 0.442,0.425 0.961,0.958 1.621,1.589 C -3.551,-3.314 -1.255,-1.318 0,0"
           style="fill:#d46728;fill-opacity:1;fill-rule:evenodd;stroke:none"
           id="path178" /></g><g
         id="g180"
         transform="translate(200.7832,297.4478)"><path
           inkscape:connector-curvature="0"
           d="m 0,0 c 1.255,1.317 1.47,1.956 1.684,2.594 -2.121,1.657 -4.241,3.314 -6.285,4.281 -0.224,0.105 -0.448,0.204 -0.67,0.292 -2.249,0.895 -4.392,0.846 -5.753,0.488 -1.362,-0.359 -1.942,-1.027 -2.493,-2.03 -0.55,-1.003 -1.071,-2.343 -0.987,-4.086 0.074,-1.552 0.628,-3.423 1.26,-4.857 0.078,-0.177 0.158,-0.348 0.238,-0.51 0.185,-0.377 0.372,-0.71 0.562,-1.01 0.552,-0.876 1.119,-1.476 1.687,-2.075 l 0.431,-0.204 c 0.431,-0.202 1.294,-0.609 2.112,-0.341 0.467,0.152 0.92,0.523 1.507,1.086 0.442,0.425 0.961,0.958 1.621,1.589 C -3.551,-3.314 -1.255,-1.318 0,0 Z"
           style="fill:none;stroke:#2f1305;stroke-width:1.5;stroke-linecap:butt;stroke-linejoin:miter;stroke-miterlimit:2.61299992;stroke-dasharray:none;stroke-opacity:1"
           id="path182" /></g><g
         id="g184"
         transform="translate(188.9399,290.9072)"><path
           inkscape:connector-curvature="0"
           d="m 0,0 c -0.981,-1.252 -1.899,-2.485 -2.657,-3.501 0.747,-0.343 2.334,-0.819 3.35,-0.479 1.017,0.339 2.022,-0.04 2.983,0.895 0.274,0.266 0.566,0.558 0.881,0.875 0.346,0.21 0.709,0.527 1.14,0.94 0.473,0.454 0.902,0.576 2.075,1.698 1.173,1.122 4.01,4.271 4.865,5.168 0.855,0.898 0.654,0.719 0.877,1.012 0.329,0.329 -0.254,-0.305 0.91,0.934 1.164,1.239 2.113,4.095 2.458,5.149 -0.765,0.59 -1.531,1.179 -2.295,1.757 C 13.11,13.544 11.715,12.688 10.529,11.952 9.511,11.32 8.647,10.777 8.017,10.368 6.167,9.168 6.33,9.128 7.102,9.067 7.875,9.006 9.257,8.925 8.891,8.417 8.525,7.908 6.411,6.973 3.91,4.513 2.638,3.261 1.266,1.615 0,0"
           style="fill:#6e2512;fill-opacity:1;fill-rule:evenodd;stroke:none"
           id="path186" /></g><g
         id="g188"
         transform="translate(205.688,306.6479)"><path
           inkscape:connector-curvature="0"
           d="m 0,0 c -3.615,-2.207 -7.229,-4.414 -8.96,-5.536 -1.731,-1.123 -1.58,-1.161 -0.856,-1.218 0.722,-0.057 2.016,-0.133 1.674,-0.608 -0.343,-0.476 -2.321,-1.351 -4.661,-3.653 -2.341,-2.302 -5.042,-6.031 -6.64,-8.162 -1.598,-2.131 -2.093,-2.663 -2.549,-3.063 -0.457,-0.4 -0.876,-0.666 0.761,-0.437 1.636,0.228 5.327,0.951 9.017,1.674"
           style="fill:none;stroke:#2f1305;stroke-width:1.5;stroke-linecap:round;stroke-linejoin:round;stroke-miterlimit:2.61299992;stroke-dasharray:none;stroke-opacity:1"
           id="path190" /></g><g
         id="g192"
         transform="translate(267.2275,284.7783)"><path
           inkscape:connector-curvature="0"
           d="M 0,0 C 0.981,-1.252 1.899,-2.486 2.657,-3.502 1.91,-3.844 0.323,-4.32 -0.693,-3.98 c -1.016,0.339 -2.022,-0.041 -2.983,0.895 -0.274,0.266 -0.565,0.558 -0.881,0.875 -0.346,0.21 -0.709,0.526 -1.14,0.94 -0.473,0.454 -0.902,0.576 -2.074,1.698 -1.173,1.121 -4.011,4.271 -4.866,5.168 -0.854,0.897 -0.653,0.719 -0.877,1.011 -0.329,0.329 0.253,-0.304 -0.91,0.935 -1.163,1.238 -2.112,4.095 -2.458,5.149 0.766,0.589 1.531,1.179 2.295,1.757 1.478,-0.904 2.872,-1.76 4.058,-2.497 1.018,-0.632 1.883,-1.175 2.512,-1.583 1.85,-1.2 1.688,-1.241 0.915,-1.302 C -7.874,9.005 -9.257,8.924 -8.892,8.416 -8.525,7.908 -6.41,6.973 -3.909,4.512 -2.638,3.261 -1.266,1.615 0,0"
           style="fill:#6e2512;fill-opacity:1;fill-rule:evenodd;stroke:none"
           id="path194" /></g><g
         id="g196"
         transform="translate(250.4795,300.5186)"><path
           inkscape:connector-curvature="0"
           d="M 0,0 C 3.614,-2.207 7.229,-4.414 8.961,-5.536 10.692,-6.658 10.54,-6.697 9.817,-6.754 9.094,-6.811 7.8,-6.887 8.143,-7.362 c 0.342,-0.476 2.321,-1.351 4.661,-3.653 2.34,-2.302 5.041,-6.031 6.639,-8.162 1.599,-2.131 2.093,-2.663 2.549,-3.063 0.457,-0.399 0.876,-0.666 -0.761,-0.437 -1.635,0.228 -5.326,0.951 -9.017,1.674"
           style="fill:none;stroke:#2f1305;stroke-width:1.5;stroke-linecap:round;stroke-linejoin:round;stroke-miterlimit:2.61299992;stroke-dasharray:none;stroke-opacity:1"
           id="path198" /></g><g
         id="g200"
         transform="translate(225.1416,306.1421)"><path
           inkscape:connector-curvature="0"
           d="m 0,0 c -3.046,0.288 -6.711,0.458 -9.156,0.096 -2.447,-0.363 -3.674,-1.259 -4.848,-3.603 -1.174,-2.344 -2.295,-6.135 -0.355,-10.629 1.94,-4.494 6.941,-9.691 8.986,-11.227 2.045,-1.536 1.134,0.589 1.033,3.22 -0.101,2.63 0.608,5.767 1.501,8.566 0.895,2.8 1.975,5.262 5.166,6.41 3.193,1.149 8.496,0.986 11.635,0.83 3.138,-0.156 4.109,-0.303 2.739,0.571 -1.371,0.875 -5.085,2.772 -8.155,3.923 C 5.475,-0.692 3.047,-0.287 0,0"
           style="fill:#6e2512;fill-opacity:1;fill-rule:evenodd;stroke:none"
           id="path202" /></g><g
         id="g204"
         transform="translate(225.1416,306.1421)"><path
           inkscape:connector-curvature="0"
           d="m 0,0 c -3.046,0.288 -6.711,0.458 -9.156,0.096 -2.447,-0.363 -3.674,-1.259 -4.848,-3.603 -1.174,-2.344 -2.295,-6.135 -0.355,-10.629 1.94,-4.494 6.941,-9.691 8.986,-11.227 2.045,-1.536 1.134,0.589 1.033,3.22 -0.101,2.63 0.608,5.767 1.501,8.566 0.895,2.8 1.975,5.262 5.166,6.41 3.193,1.149 8.496,0.986 11.635,0.83 3.138,-0.156 4.109,-0.303 2.739,0.571 -1.371,0.875 -5.085,2.772 -8.155,3.923 C 5.475,-0.692 3.047,-0.287 0,0 Z"
           style="fill:none;stroke:#2f1305;stroke-width:1.5;stroke-linecap:butt;stroke-linejoin:miter;stroke-miterlimit:2.61299992;stroke-dasharray:none;stroke-opacity:1"
           id="path206" /></g><g
         id="g208"
         transform="translate(233.1895,304.2817)"><path
           inkscape:connector-curvature="0"
           d="m 0,0 c -1.917,0.385 -4.234,0.737 -5.812,0.669 -1.579,-0.068 -2.418,-0.556 -3.32,-1.967 -0.901,-1.411 -1.865,-3.746 -0.931,-6.731 0.934,-2.985 3.766,-6.619 4.964,-7.731 1.198,-1.112 0.76,0.299 0.87,1.978 0.111,1.678 0.769,3.624 1.523,5.344 0.754,1.719 1.604,3.211 3.709,3.73 2.104,0.518 5.464,0.062 7.448,-0.246 1.984,-0.307 2.591,-0.465 1.778,0.181 C 9.416,-4.125 7.183,-2.674 5.308,-1.739 3.433,-0.803 1.917,-0.385 0,0"
           style="fill:#6e2512;fill-opacity:1;fill-rule:evenodd;stroke:none"
           id="path210" /></g><g
         id="g212"
         transform="translate(233.1895,304.2817)"><path
           inkscape:connector-curvature="0"
           d="m 0,0 c -1.917,0.385 -4.234,0.737 -5.812,0.669 -1.579,-0.068 -2.418,-0.556 -3.32,-1.967 -0.901,-1.411 -1.865,-3.746 -0.931,-6.731 0.934,-2.985 3.766,-6.619 4.964,-7.731 1.198,-1.112 0.76,0.299 0.87,1.978 0.111,1.678 0.769,3.624 1.523,5.344 0.754,1.719 1.604,3.211 3.709,3.73 2.104,0.518 5.464,0.062 7.448,-0.246 1.984,-0.307 2.591,-0.465 1.778,0.181 C 9.416,-4.125 7.183,-2.674 5.308,-1.739 3.433,-0.803 1.917,-0.385 0,0 Z"
           style="fill:none;stroke:#2f1305;stroke-width:1.5;stroke-linecap:butt;stroke-linejoin:miter;stroke-miterlimit:2.61299992;stroke-dasharray:none;stroke-opacity:1"
           id="path214" /></g><g
         id="g216"
         transform="translate(228.1924,237.5278)"><path
           inkscape:connector-curvature="0"
           d="m 0,0 c -0.069,-0.732 -0.14,-1.372 -0.208,-1.774 -0.113,-0.657 -0.225,-0.681 -0.563,0.084 -0.162,0.366 -0.376,0.913 -0.558,1.503 C -0.881,-0.16 -0.436,-0.096 0,0"
           style="fill:#ffffff;fill-opacity:1;fill-rule:evenodd;stroke:none"
           id="path218" /></g><g
         id="g220"
         transform="translate(228.1924,237.5278)"><path
           inkscape:connector-curvature="0"
           d="m 0,0 c -0.069,-0.732 -0.14,-1.372 -0.208,-1.774 -0.113,-0.657 -0.225,-0.681 -0.563,0.084 -0.162,0.366 -0.376,0.913 -0.558,1.503 C -0.881,-0.16 -0.436,-0.096 0,0 Z"
           style="fill:none;stroke:#2f1305;stroke-width:0.21600001;stroke-linecap:butt;stroke-linejoin:miter;stroke-miterlimit:2.61299992;stroke-dasharray:none;stroke-opacity:1"
           id="path222" /></g><g
         id="g224"
         transform="translate(212.1611,238.7783)"><path
           inkscape:connector-curvature="0"
           d="m 0,0 c 0.221,-0.702 0.422,-1.313 0.574,-1.692 0.247,-0.619 0.362,-0.619 0.532,0.2 C 1.188,-1.1 1.284,-0.521 1.339,0.094 0.894,0.027 0.445,-0.003 0,0"
           style="fill:#ffffff;fill-opacity:1;fill-rule:evenodd;stroke:none"
           id="path226" /></g><g
         id="g228"
         transform="translate(212.1611,238.7783)"><path
           inkscape:connector-curvature="0"
           d="m 0,0 c 0.221,-0.702 0.422,-1.313 0.574,-1.692 0.247,-0.619 0.362,-0.619 0.532,0.2 C 1.188,-1.1 1.284,-0.521 1.339,0.094 0.894,0.027 0.445,-0.003 0,0 Z"
           style="fill:none;stroke:#2f1305;stroke-width:0.21600001;stroke-linecap:butt;stroke-linejoin:miter;stroke-miterlimit:2.61299992;stroke-dasharray:none;stroke-opacity:1"
           id="path230" /></g><g
         id="g232"
         transform="translate(233.9658,246.0342)"><path
           inkscape:connector-curvature="0"
           d="m 0,0 c 0.444,-0.017 0.889,-0.033 1.371,-0.183 0.482,-0.15 1,-0.432 1.431,-0.869 0.43,-0.436 0.773,-1.028 1.117,-1.619"
           style="fill:none;stroke:#2f1305;stroke-width:1.5;stroke-linecap:round;stroke-linejoin:round;stroke-miterlimit:2.61299992;stroke-dasharray:none;stroke-opacity:1"
           id="path234" /></g><g
         id="g236"
         transform="translate(229.2305,232.0684)"><path
           inkscape:connector-curvature="0"
           d="m 0,0 c -1.664,1.795 -4.24,1.354 -7.705,1.354 -3.466,0 -6.896,-0.492 -8.141,-3.409 3.155,-0.716 6.051,-1.119 9.413,-0.915 C -2.718,-2.744 -1.08,-1.681 0,0"
           style="fill:#881d1a;fill-opacity:1;fill-rule:evenodd;stroke:none"
           id="path238" /></g><g
         id="g240"
         transform="translate(229.2305,232.0684)"><path
           inkscape:connector-curvature="0"
           d="m 0,0 c -1.664,1.795 -4.24,1.354 -7.705,1.354 -3.466,0 -6.896,-0.492 -8.141,-3.409 3.155,-0.716 6.051,-1.119 9.413,-0.915 C -2.718,-2.744 -1.08,-1.681 0,0 Z"
           style="fill:none;stroke:#2f1305;stroke-width:0.21600001;stroke-linecap:butt;stroke-linejoin:miter;stroke-miterlimit:2.61299992;stroke-dasharray:none;stroke-opacity:1"
           id="path242" /></g><g
         id="g244"
         transform="translate(235.1133,260.5879)"><path
           inkscape:connector-curvature="0"
           d="m 0,0 c 2.267,0.514 4.534,1.027 6.467,1.284 1.931,0.257 3.53,0.257 5.129,0.257"
           style="fill:none;stroke:#2f1305;stroke-width:1.5;stroke-linecap:round;stroke-linejoin:round;stroke-miterlimit:2.61299992;stroke-dasharray:none;stroke-opacity:1"
           id="path246" /></g><g
         id="g248"
         transform="translate(210.1011,260.3896)"><path
           inkscape:connector-curvature="0"
           d="m 0,0 c -2.128,0.415 -4.256,0.83 -6.119,1.037 -1.863,0.208 -3.462,0.208 -5.06,0.208"
           style="fill:none;stroke:#2f1305;stroke-width:1.5;stroke-linecap:round;stroke-linejoin:round;stroke-miterlimit:2.61299992;stroke-dasharray:none;stroke-opacity:1"
           id="path250" /></g><g
         id="g252"
         transform="translate(213.0674,272.2876)"><path
           inkscape:connector-curvature="0"
           d="m 0,0 c 0.185,-1.313 0.369,-2.626 0.271,-4.557 -0.098,-1.931 -0.479,-4.481 -1.635,-6.456 -1.156,-1.975 -3.087,-3.376 -3.287,-4.545 -0.2,-1.169 1.331,-2.107 2.862,-3.045"
           style="fill:none;stroke:#2f1305;stroke-width:1.5;stroke-linecap:round;stroke-linejoin:round;stroke-miterlimit:2.61299992;stroke-dasharray:none;stroke-opacity:1"
           id="path254" /></g><g
         id="g256"
         transform="translate(198.0059,114.7539)"><path
           inkscape:connector-curvature="0"
           d="m 0,0 c -1.812,-0.531 -3.625,-1.062 -4.832,-1.955 -1.206,-0.894 -1.807,-2.149 -1.983,-3.508 -0.178,-1.36 0.07,-2.825 0.719,-3.585 0.649,-0.76 1.7,-0.813 2.75,-0.868"
           style="fill:none;stroke:#2f1305;stroke-width:1.5;stroke-linecap:round;stroke-linejoin:round;stroke-miterlimit:2.61299992;stroke-dasharray:none;stroke-opacity:1"
           id="path258" /></g><g
         id="g260"
         transform="translate(252.0762,172.5684)"><path
           inkscape:connector-curvature="0"
           d="m 0,0 c 0.209,-1.008 0.202,-4.182 0.275,-8.185 0.073,-4.002 0.225,-8.835 -0.421,-11.574 -0.647,-2.739 -2.093,-3.386 -4.7,-3.766 -2.606,-0.381 -6.373,-0.496 -8.086,-0.4 -1.712,0.095 -1.369,0.4 -1.117,0.68 0.252,0.281 0.414,0.538 0.494,0.754 0.08,0.217 0.079,0.392 0.015,0.571 -0.064,0.179 -0.191,0.359 -0.481,0.352 -0.292,-0.006 -0.745,-0.201 -1.028,-0.146 -0.283,0.055 -0.395,0.359 -0.262,0.7 0.135,0.342 0.515,0.723 1.39,1.54 0.875,0.819 2.245,2.075 3.768,3.863 1.521,1.788 3.195,4.109 4.737,6.582 1.541,2.473 2.948,5.099 3.865,6.99 C -0.635,-0.148 -0.209,1.009 0,0"
           style="fill:#e98622;fill-opacity:1;fill-rule:evenodd;stroke:none"
           id="path262" /></g><g
         id="g264"
         transform="translate(200.7759,174.2285)"><path
           inkscape:connector-curvature="0"
           d="m 0,0 c -0.32,-1.202 -0.681,-6.203 -0.827,-10.927 -0.146,-4.723 -0.077,-9.168 0.681,-11.714 0.757,-2.545 2.203,-3.192 4.809,-3.572 2.607,-0.381 6.374,-0.495 7.985,-0.309 1.611,0.185 1.067,0.67 0.822,1.037 -0.244,0.366 -0.19,0.614 -0.169,0.74 0.021,0.126 0.007,0.131 0.081,0.181 0.075,0.048 0.237,0.143 0.548,0.194 0.312,0.051 0.773,0.058 1.038,0.156 0.266,0.098 0.336,0.286 0.181,0.57 -0.155,0.285 -0.535,0.665 -1.41,1.483 -0.875,0.818 -2.245,2.074 -3.767,3.862 -1.522,1.788 -3.197,4.11 -4.738,6.582 -1.541,2.474 -2.948,5.1 -3.792,7.711 C 0.599,-1.395 0.32,1.203 0,0"
           style="fill:#e98622;fill-opacity:1;fill-rule:evenodd;stroke:none"
           id="path266" /></g><g
         id="g268"
         transform="translate(280.6943,113.9033)"><path
           inkscape:connector-curvature="0"
           d="m 0,0 c -4.263,1.584 -5.892,4.065 -4.509,8.135 -2.389,5.293 1.793,10.095 8.919,8.218 0.433,-0.079 0.874,-0.19 1.322,-0.335 0.33,-0.108 0.663,-0.233 0.997,-0.373 0.23,-0.078 0.453,-0.155 0.667,-0.228 1.733,-0.597 2.85,-1.005 4.049,-1.185 1.2,-0.179 2.483,-0.131 3.359,0.116 0.877,0.247 1.347,0.693 1.456,0.656 0.107,-0.037 -0.149,-0.557 -1.597,-2.334 -0.296,-0.363 -0.642,-0.78 -1.029,-1.228 1.477,-1.034 2.553,-1.765 3.759,-2.316 C 18.822,8.474 20.436,8.077 21.615,8.072 22.795,8.067 23.54,8.454 23.66,8.37 23.781,8.286 23.277,7.729 20.842,6.034 15.129,2.058 7.147,-2.656 0,0"
           style="fill:#6e2512;fill-opacity:1;fill-rule:evenodd;stroke:none"
           id="path270" /></g><g
         id="g272"
         transform="translate(280.6943,113.9033)"><path
           inkscape:connector-curvature="0"
           d="m 0,0 c -4.263,1.584 -5.892,4.065 -4.509,8.135 -2.389,5.293 1.793,10.095 8.919,8.218 0.433,-0.079 0.874,-0.19 1.322,-0.335 0.33,-0.108 0.663,-0.233 0.997,-0.373 0.23,-0.078 0.453,-0.155 0.667,-0.228 1.733,-0.597 2.85,-1.005 4.049,-1.185 1.2,-0.179 2.483,-0.131 3.359,0.116 0.877,0.247 1.347,0.693 1.456,0.656 0.107,-0.037 -0.149,-0.557 -1.597,-2.334 -0.296,-0.363 -0.642,-0.78 -1.029,-1.228 1.477,-1.034 2.553,-1.765 3.759,-2.316 C 18.822,8.474 20.436,8.077 21.615,8.072 22.795,8.067 23.54,8.454 23.66,8.37 23.781,8.286 23.277,7.729 20.842,6.034 15.129,2.058 7.147,-2.656 0,0 Z"
           style="fill:none;stroke:#2f1305;stroke-width:1.5;stroke-linecap:butt;stroke-linejoin:miter;stroke-miterlimit:2.61299992;stroke-dasharray:none;stroke-opacity:1"
           id="path274" /></g><g
         id="g276"
         transform="translate(232.6436,282.6206)"><path
           inkscape:connector-curvature="0"
           d="m 0,0 c -0.543,-0.056 -0.695,0.069 -1.062,0.497 -0.366,0.429 -0.947,1.162 -0.933,1.715 0.014,0.554 0.621,0.928 1.637,1.255 1.015,0.326 2.439,0.606 4.456,0.779 2.016,0.173 4.625,0.241 6.914,-1.641 2.289,-1.881 4.259,-5.711 5.145,-7.739 0.888,-2.028 0.693,-2.253 -0.542,-0.884 -1.234,1.37 -3.508,4.334 -5.883,5.69 C 7.358,1.029 4.883,0.779 3.179,0.536 1.476,0.292 0.542,0.056 0,0"
           style="fill:#2f1305;fill-opacity:1;fill-rule:evenodd;stroke:none"
           id="path278" /></g><g
         id="g280"
         transform="translate(213.8799,282.4399)"><path
           inkscape:connector-curvature="0"
           d="m 0,0 c 0.541,-0.068 0.696,0.053 1.072,0.473 0.376,0.421 0.974,1.14 0.973,1.694 -10e-4,0.553 -0.6,0.941 -1.608,1.291 -1.007,0.35 -2.424,0.662 -4.436,0.881 -2.012,0.22 -4.619,0.347 -6.951,-1.482 -2.331,-1.828 -4.387,-5.612 -5.321,-7.619 -0.934,-2.007 -0.744,-2.236 0.522,-0.896 1.265,1.341 3.606,4.252 6.011,5.554 2.405,1.302 4.874,0.995 6.572,0.712 C -1.469,0.326 -0.541,0.068 0,0"
           style="fill:#2f1305;fill-opacity:1;fill-rule:evenodd;stroke:none"
           id="path282" /></g><g
         id="g284"
         transform="translate(239.5293,274.8896)"><path
           inkscape:connector-curvature="0"
           d="m 0,0 c 8.296,1.516 10.785,-9.562 6.539,-13.593 0,0 -3.478,0.15 -5.157,0.062 -1.657,-0.087 -4.456,-0.503 -4.456,-0.503 C -4.968,-12.847 -8.26,-1.51 0,0"
           style="fill:#ffffff;fill-opacity:1;fill-rule:evenodd;stroke:none"
           id="path286" /></g><g
         id="g288"
         transform="translate(239.5293,274.8896)"><path
           inkscape:connector-curvature="0"
           d="m 0,0 c 8.296,1.516 10.785,-9.562 6.539,-13.593 0,0 -3.478,0.15 -5.157,0.062 -1.657,-0.087 -4.456,-0.503 -4.456,-0.503 C -4.968,-12.847 -8.26,-1.51 0,0 Z"
           style="fill:none;stroke:#2f1305;stroke-width:1.5;stroke-linecap:butt;stroke-linejoin:miter;stroke-miterlimit:2.61299992;stroke-dasharray:none;stroke-opacity:1"
           id="path290" /></g><g
         id="g292"
         transform="translate(237.5547,265.6147)"><path
           inkscape:connector-curvature="0"
           d="M 0,0 C -0.921,2.58 0.663,5.338 3.175,6.187 5.687,7.034 8.661,5.712 9.095,3.071 9.917,-1.943 6.83,-3.02 4.521,-3.441 2.531,-3.805 0.92,-2.58 0,0"
           style="fill:#2f1305;fill-opacity:1;fill-rule:evenodd;stroke:none"
           id="path294" /></g><g
         id="g296"
         transform="translate(238.9863,268.9458)"><path
           inkscape:connector-curvature="0"
           d="m 0,0 c 0.346,-0.086 0.519,-0.622 0.386,-1.196 -0.132,-0.574 -0.52,-0.97 -0.865,-0.883 -0.346,0.086 -0.519,0.622 -0.386,1.196 C -0.733,-0.309 -0.346,0.087 0,0"
           style="fill:#ffffff;fill-opacity:1;fill-rule:evenodd;stroke:none"
           id="path298" /></g><g
         id="g300"
         transform="translate(205.5068,275.0391)"><path
           inkscape:connector-curvature="0"
           d="m 0,0 c 8.423,0.423 9.447,-10.885 4.713,-14.329 0,0 -3.429,0.601 -5.106,0.733 -1.654,0.13 -4.483,0.082 -4.483,0.082 C -6.599,-12.09 -8.386,-0.421 0,0"
           style="fill:#ffffff;fill-opacity:1;fill-rule:evenodd;stroke:none"
           id="path302" /></g><g
         id="g304"
         transform="translate(205.5068,275.0391)"><path
           inkscape:connector-curvature="0"
           d="m 0,0 c 8.423,0.423 9.447,-10.885 4.713,-14.329 0,0 -3.429,0.601 -5.106,0.733 -1.654,0.13 -4.483,0.082 -4.483,0.082 C -6.599,-12.09 -8.386,-0.421 0,0 Z"
           style="fill:none;stroke:#2f1305;stroke-width:1.5;stroke-linecap:butt;stroke-linejoin:miter;stroke-miterlimit:2.61299992;stroke-dasharray:none;stroke-opacity:1"
           id="path306" /></g><g
         id="g308"
         transform="translate(202.8701,265.9565)"><path
           inkscape:connector-curvature="0"
           d="M 0,0 C -0.417,2.645 1.353,5.206 3.954,5.72 6.554,6.233 9.232,4.531 9.417,1.86 9.678,-1.894 7.299,-3.389 4.805,-3.541 2.498,-3.681 0.326,-2.071 0,0"
           style="fill:#2f1305;fill-opacity:1;fill-rule:evenodd;stroke:none"
           id="path310" /></g><g
         id="g312"
         transform="translate(204.6655,269.749)"><path
           inkscape:connector-curvature="0"
           d="M 0,0 C 0.332,-0.13 0.433,-0.684 0.227,-1.236 0.021,-1.788 -0.415,-2.129 -0.746,-1.999 -1.078,-1.868 -1.179,-1.314 -0.973,-0.762 -0.767,-0.21 -0.332,0.131 0,0"
           style="fill:#ffffff;fill-opacity:1;fill-rule:evenodd;stroke:none"
           id="path314" /></g><g
         id="g316"
         transform="translate(228.5469,256.458)"><path
           inkscape:connector-curvature="0"
           d="m 0,0 c -2.423,0.386 -7.503,0.494 -11.465,0.49 -3.962,-0.002 -6.806,-0.117 -8.208,-0.353 -1.403,-0.236 -1.362,-0.593 0.075,-1.918 1.438,-1.325 4.274,-3.618 6.146,-4.819 1.873,-1.201 2.782,-1.311 3.645,-1.234 0.863,0.077 1.68,0.341 2.921,0.876 1.241,0.535 2.908,1.341 4.452,2.261 1.545,0.919 2.969,1.951 3.797,2.799 C 2.191,-1.05 2.424,-0.386 0,0"
           style="fill:#2f1305;fill-opacity:1;fill-rule:evenodd;stroke:none"
           id="path318" /></g><g
         id="g320"
         transform="translate(263.0215,298.7417)"><path
           inkscape:connector-curvature="0"
           d="M 0,0 C 0.806,2.167 1.402,2.953 1.582,3.653 1.763,4.354 1.526,4.969 0.81,5.708 c -0.717,0.738 -1.914,1.601 -2.531,2.68 -0.617,1.079 -0.653,2.374 -0.6,4.527 0.052,2.152 0.194,5.163 -0.198,7.989 -0.391,2.827 -1.317,5.469 -2.953,8.093 -1.635,2.624 -3.981,5.229 -6.455,7.221 -1.002,0.807 -2.026,1.514 -3.064,2.134 -0.32,0.8 -0.795,1.739 -1.187,2.303 -0.531,0.766 -0.909,0.842 -1.24,0.858 -0.331,0.016 -0.614,-0.028 -1.02,-0.18 -0.407,-0.151 -0.937,-0.41 -1.35,-0.488 -0.198,-0.037 -0.37,-0.033 -0.471,-0.055 -2.078,0.722 -4.118,1.199 -5.606,1.515 -0.163,0.464 -0.648,0.865 -1.026,1.405 -0.452,0.645 -0.75,1.488 -1.035,1.942 -0.285,0.454 -0.557,0.519 -0.856,0.532 -0.299,0.013 -0.625,-0.027 -1.07,-0.479 -0.443,-0.452 -1.004,-1.315 -1.604,-1.917 -0.326,-0.328 -0.663,-0.578 -0.961,-0.795 -1.486,-0.002 -3.532,-0.044 -5.676,-0.306 -0.084,0.023 -0.181,0.052 -0.285,0.096 -0.388,0.161 -0.852,0.524 -1.22,0.756 -0.366,0.232 -0.634,0.334 -0.961,0.386 -0.327,0.053 -0.713,0.056 -1.391,-0.584 -0.456,-0.431 -1.046,-1.153 -1.51,-1.823 -1.293,-0.418 -2.593,-0.947 -3.894,-1.608 -2.831,-1.439 -5.663,-3.505 -7.805,-5.735 -2.141,-2.23 -3.591,-4.625 -4.558,-7.309 -0.967,-2.685 -1.448,-5.66 -1.84,-7.778 -0.393,-2.117 -0.695,-3.377 -1.522,-4.305 -0.826,-0.929 -2.175,-1.526 -3.028,-2.101 -0.854,-0.575 -1.212,-1.128 -1.18,-1.851 0.032,-0.723 0.454,-1.615 0.795,-3.901 1.667,-11.183 9.338,-17.03 33.698,-19.295 C -10.292,-14.458 -3.603,-9.7 0,0"
           style="fill:#fdca02;fill-opacity:1;fill-rule:evenodd;stroke:none"
           id="path322" /></g><g
         id="g324"
         transform="translate(263.0215,298.7417)"><path
           inkscape:connector-curvature="0"
           d="M 0,0 C 0.806,2.167 1.402,2.953 1.582,3.653 1.763,4.354 1.526,4.969 0.81,5.708 c -0.717,0.738 -1.914,1.601 -2.531,2.68 -0.617,1.079 -0.653,2.374 -0.6,4.527 0.052,2.152 0.194,5.163 -0.198,7.989 -0.391,2.827 -1.317,5.469 -2.953,8.093 -1.635,2.624 -3.981,5.229 -6.455,7.221 -1.002,0.807 -2.026,1.514 -3.064,2.134 -0.32,0.8 -0.795,1.739 -1.187,2.303 -0.531,0.766 -0.909,0.842 -1.24,0.858 -0.331,0.016 -0.614,-0.028 -1.02,-0.18 -0.407,-0.151 -0.937,-0.41 -1.35,-0.488 -0.198,-0.037 -0.37,-0.033 -0.471,-0.055 -2.078,0.722 -4.118,1.199 -5.606,1.515 -0.163,0.464 -0.648,0.865 -1.026,1.405 -0.452,0.645 -0.75,1.488 -1.035,1.942 -0.285,0.454 -0.557,0.519 -0.856,0.532 -0.299,0.013 -0.625,-0.027 -1.07,-0.479 -0.443,-0.452 -1.004,-1.315 -1.604,-1.917 -0.326,-0.328 -0.663,-0.578 -0.961,-0.795 -1.486,-0.002 -3.532,-0.044 -5.676,-0.306 -0.084,0.023 -0.181,0.052 -0.285,0.096 -0.388,0.161 -0.852,0.524 -1.22,0.756 -0.366,0.232 -0.634,0.334 -0.961,0.386 -0.327,0.053 -0.713,0.056 -1.391,-0.584 -0.456,-0.431 -1.046,-1.153 -1.51,-1.823 -1.293,-0.418 -2.593,-0.947 -3.894,-1.608 -2.831,-1.439 -5.663,-3.505 -7.805,-5.735 -2.141,-2.23 -3.591,-4.625 -4.558,-7.309 -0.967,-2.685 -1.448,-5.66 -1.84,-7.778 -0.393,-2.117 -0.695,-3.377 -1.522,-4.305 -0.826,-0.929 -2.175,-1.526 -3.028,-2.101 -0.854,-0.575 -1.212,-1.128 -1.18,-1.851 0.032,-0.723 0.454,-1.615 0.795,-3.901 1.667,-11.183 9.338,-17.03 33.698,-19.295 C -10.292,-14.458 -3.603,-9.7 0,0 Z"
           style="fill:none;stroke:#e98622;stroke-width:1.5;stroke-linecap:butt;stroke-linejoin:miter;stroke-miterlimit:2.61299992;stroke-dasharray:none;stroke-opacity:1"
           id="path326" /></g><g
         id="g328"
         transform="translate(220.418,339.3564)"><path
           inkscape:connector-curvature="0"
           d="m 0,0 c -0.294,-1.233 -0.701,-3.487 -0.85,-4.911 -0.148,-1.423 -0.038,-2.015 0.062,-2.242 0.1,-0.228 0.188,-0.09 0.301,0.678 0.112,0.768 0.247,2.165 0.412,3.495 0.166,1.329 0.362,2.59 0.489,3.352 C 0.542,1.134 0.602,1.395 0.539,1.419 0.478,1.444 0.295,1.233 0,0"
           style="fill:#ffffff;fill-opacity:1;fill-rule:evenodd;stroke:none"
           id="path330" /></g><g
         id="g332"
         transform="translate(247.1631,333.9219)"><path
           inkscape:connector-curvature="0"
           d="m 0,0 c 0.094,-0.959 0.203,-2.585 0.232,-3.538 0.03,-0.953 -0.021,-1.234 -0.135,-1.351 -0.114,-0.117 -0.292,-0.071 -0.371,0.458 -0.079,0.529 -0.059,1.542 -0.038,2.619 0.021,1.077 0.043,2.218 0.093,2.642 C -0.169,1.254 -0.093,0.96 0,0"
           style="fill:#ffffff;fill-opacity:1;fill-rule:evenodd;stroke:none"
           id="path334" /></g><g
         id="g336"
         transform="translate(233.0811,339.6323)"><path
           inkscape:connector-curvature="0"
           d="m 0,0 c -0.074,-1.588 -0.277,-4.564 -0.411,-6.16 -0.135,-1.595 -0.199,-1.81 -0.336,-1.837 -0.138,-0.027 -0.346,0.133 -0.302,1.691 0.045,1.559 0.342,4.516 0.554,6.132 0.211,1.615 0.336,1.888 0.426,1.924 C 0.021,1.788 0.074,1.588 0,0"
           style="fill:#ffffff;fill-opacity:1;fill-rule:evenodd;stroke:none"
           id="path338" /></g><g
         id="g340"><g
           id="g342" /><g
           id="g354"><g
             clip-path="url(#clipPath346)"
             id="g352"
             style="opacity:0.130005"><g
               transform="translate(230.209,336.0762)"
               id="g350"><path
                 inkscape:connector-curvature="0"
                 d="M 0,0 C 0.172,1.61 0.394,3.65 0.632,5.833 0.866,6.009 1.114,6.21 1.356,6.454 1.765,6.863 2.155,7.396 2.504,7.835 2.4,6.649 2.272,5.396 2.071,3.944 1.771,1.78 1.306,-0.828 0.858,-2.34 0.411,-3.852 -0.019,-4.269 -0.227,-4.312 c -0.134,-0.027 -0.176,0.102 -0.124,0.823 0.045,0.402 0.083,0.85 0.121,1.299 l 0,10e-4 c 0.014,0.145 0.031,0.3 0.048,0.465 C -0.131,-1.233 -0.069,-0.652 0,0"
                 style="fill:#545454;fill-opacity:1;fill-rule:evenodd;stroke:none"
                 id="path348" /></g></g></g></g><g
         id="g356"><g
           id="g358" /><g
           id="g370"><g
             clip-path="url(#clipPath362)"
             id="g368"
             style="opacity:0.130005"><g
               transform="translate(235.0439,337.5112)"
               id="g366"><path
                 inkscape:connector-curvature="0"
                 d="M 0,0 C 0.083,1.921 0.314,3.912 0.546,5.902 0.702,5.578 0.878,5.238 1.087,4.94 1.459,4.408 1.936,4.01 2.105,3.555 L 1.296,-3.199 C 1.033,-5.413 0.991,-5.814 0.819,-5.917 0.648,-6.019 0.347,-5.821 0.164,-4.796 -0.019,-3.772 -0.083,-1.921 0,0"
                 style="fill:#545454;fill-opacity:1;fill-rule:evenodd;stroke:none"
                 id="path364" /></g></g></g></g><g
         id="g372"><g
           id="g374" /><g
           id="g386"><g
             clip-path="url(#clipPath378)"
             id="g384"
             style="opacity:0.130005"><g
               transform="translate(247.8975,331.5249)"
               id="g382"><path
                 inkscape:connector-curvature="0"
                 d="M 0,0 C -0.006,1.213 0.063,3.391 0.133,5.568 0.592,5.294 1.048,5.004 1.501,4.694 1.269,3.346 1.05,2.114 0.867,1.188 0.571,-0.312 0.37,-1.011 0.229,-1.236 0.087,-1.461 0.006,-1.213 0,0"
                 style="fill:#545454;fill-opacity:1;fill-rule:evenodd;stroke:none"
                 id="path380" /></g></g></g></g><g
         id="g388"><g
           id="g390" /><g
           id="g402"><g
             clip-path="url(#clipPath394)"
             id="g400"
             style="opacity:0.130005"><g
               transform="translate(218.5371,335.356)"
               id="g398"><path
                 inkscape:connector-curvature="0"
                 d="m 0,0 c -0.072,1.236 -0.172,3.312 -0.214,4.469 0.413,0.156 0.826,0.302 1.238,0.434 0.056,0.08 0.112,0.16 0.17,0.24 C 1.147,4.912 1.102,4.668 1.056,4.411 0.791,2.898 0.558,0.893 0.414,-0.264 0.271,-1.421 0.217,-1.729 0.168,-1.687 0.119,-1.645 0.073,-1.253 0,0"
                 style="fill:#545454;fill-opacity:1;fill-rule:evenodd;stroke:none"
                 id="path396" /></g></g></g></g><g
         id="g404"><g
           id="g406" /><g
           id="g452"
           mask="url(#mask426)"><g
             id="g454" /><g
             id="g466"><g
               clip-path="url(#clipPath458)"
               id="g464"><g
                 transform="translate(201.3247,317.0977)"
                 id="g462"><path
                   inkscape:connector-curvature="0"
                   d="m 0,0 c 0.046,0.232 0.092,0.476 0.14,0.732 0.392,2.118 0.873,5.093 1.84,7.778 0.966,2.684 2.416,5.079 4.558,7.309 2.142,2.23 4.974,4.296 7.805,5.735 0.886,0.451 1.772,0.84 2.656,1.174 0.042,-1.158 0.141,-3.233 0.213,-4.47 0.074,-1.253 0.12,-1.645 0.168,-1.687 0.049,-0.042 0.103,0.266 0.246,1.423 0.144,1.157 0.377,3.162 0.642,4.675 0.046,0.258 0.092,0.501 0.139,0.732 0.431,0.598 0.937,1.204 1.34,1.584 0.677,0.64 1.064,0.637 1.391,0.584 0.326,-0.052 0.595,-0.154 0.961,-0.386 0.367,-0.232 0.832,-0.595 1.22,-0.756 0.103,-0.044 0.201,-0.073 0.285,-0.096 2.144,0.262 4.189,0.304 5.676,0.306 0.077,0.056 0.156,0.113 0.236,0.175 l -0.632,-5.833 c -0.434,0.026 -0.868,0.053 -1.469,0.19 -1.552,0.352 -3.147,1.097 -4.415,1.53 -0.465,0.159 -0.492,0.107 -0.923,-0.743 -0.432,-0.85 -1.269,-2.497 -1.929,-3.402 -0.855,-1.175 -1.551,-1.182 -1.638,-1.299 0.031,0.124 0.063,0.298 0.096,0.529 0.112,0.768 0.247,2.165 0.412,3.494 0.166,1.329 0.362,2.591 0.489,3.353 0.128,0.762 0.188,1.022 0.125,1.047 -0.061,0.025 -0.244,-0.186 -0.539,-1.419 -0.294,-1.233 -0.701,-3.487 -0.849,-4.911 -0.149,-1.423 -0.038,-2.015 0.061,-2.243 0.006,-0.013 0.012,-0.025 0.018,-0.036 -0.665,-0.974 -0.532,-2.227 0.471,-3.441 0.677,-0.818 1.826,-1.731 2.734,-2.176 0.909,-0.445 1.576,-0.422 2.811,-0.201 1.235,0.222 3.037,0.643 3.882,1.127 0.844,0.484 0.73,1.031 0.578,1.637 -0.402,1.611 -0.506,1.672 -0.303,3.173 l 0.06,0.59 0,-0.003 c -0.009,-0.103 -0.016,-0.199 -0.022,-0.285 -0.053,-0.721 -0.011,-0.85 0.124,-0.823 0.208,0.043 0.637,0.459 1.085,1.972 0.775,2.62 1.387,7.212 1.645,10.175 0.163,0.206 0.317,0.391 0.457,0.535 0.445,0.452 0.771,0.492 1.07,0.479 0.298,-0.013 0.571,-0.078 0.856,-0.532 0.153,-0.244 0.311,-0.602 0.494,-0.98 -0.231,-1.991 -0.463,-3.981 -0.546,-5.902 -0.083,-1.921 -0.018,-3.772 0.164,-4.797 0.183,-1.025 0.485,-1.222 0.656,-1.12 0.171,0.102 0.213,0.503 0.476,2.717 l 0.81,6.755 c 0.002,-0.007 0.005,-0.013 0.007,-0.02 1.488,-0.316 3.528,-0.793 5.606,-1.515 0.101,0.022 0.272,0.018 0.471,0.055 0.413,0.078 0.943,0.337 1.349,0.489 0.407,0.151 0.69,0.195 1.021,0.179 0.331,-0.016 0.709,-0.092 1.24,-0.858 0.392,-0.564 0.867,-1.503 1.187,-2.303 -0.07,-2.178 -0.139,-4.355 -0.133,-5.569 0.006,-1.213 0.087,-1.461 0.228,-1.236 0.142,0.226 0.343,0.924 0.639,2.424 0.183,0.926 0.401,2.158 0.634,3.507 0.571,-0.391 1.136,-0.81 1.696,-1.26 2.474,-1.992 4.819,-4.597 6.455,-7.221 1.636,-2.624 2.562,-5.266 2.953,-8.093 0.392,-2.826 0.25,-5.837 0.197,-7.989 -0.052,-2.153 -0.016,-3.448 0.601,-4.527 -0.847,-1.239 -1.693,-2.478 -3.786,-3.477 -5.5,-2.625 -26.108,-2.761 -32.681,-1.717 -7.764,1.233 -18.144,5.281 -20.886,6.687 -2.743,1.407 -3.689,2.899 -3.851,4.216 -0.036,0.3 -0.032,0.591 0.004,0.875 0.007,0.055 0.015,0.111 0.024,0.166 0.254,0.347 0.457,0.734 0.634,1.192 0.014,0.037 0.028,0.075 0.042,0.112 0.158,0.428 0.292,0.901 0.386,1.255 0.033,0.12 0.06,0.227 0.082,0.314 C 0,-0.129 0.023,-0.04 0,0 m 45.564,12.394 c 0.079,-0.53 0.258,-0.576 0.371,-0.459 0.114,0.117 0.165,0.398 0.136,1.351 -0.029,0.953 -0.139,2.579 -0.233,3.538 -0.092,0.96 -0.169,1.254 -0.218,0.83 -0.05,-0.424 -0.073,-1.565 -0.093,-2.642 -0.022,-1.077 -0.041,-2.09 0.037,-2.618 M 31.261,22.36 c -0.212,-1.615 -0.509,-4.572 -0.553,-6.131 -0.044,-1.559 0.164,-1.719 0.301,-1.691 0.137,0.027 0.201,0.241 0.336,1.837 0.134,1.596 0.337,4.572 0.411,6.16 0.075,1.588 0.021,1.787 -0.069,1.75 -0.09,-0.036 -0.215,-0.309 -0.426,-1.925"
                   style="fill:#a5a8ab;fill-opacity:1;fill-rule:evenodd;stroke:none"
                   id="path460" /></g></g></g></g></g><g
         id="g468"><g
           id="g470" /><g
           id="g482"><g
             clip-path="url(#clipPath474)"
             id="g480"
             style="opacity:0.16999799"><g
               transform="translate(205.4287,297.3457)"
               id="g478"><path
                 inkscape:connector-curvature="0"
                 d="M 0,0 C 0.518,1.061 3.417,5.984 1.679,7.665 1.059,8.264 0.263,9.306 -0.788,10.23 -1.618,10.96 -2.467,11.694 -3.32,12.428 0.56,9.394 5.162,8.404 8.72,7.319 14.574,5.535 18.788,4.143 27.199,4.029 23.903,3.951 18.636,4.313 15.695,4.037 9.452,3.45 14.864,-4.991 18.619,-8.092 11.012,-7.677 3.014,-5.095 -1.649,-1.844 -1.393,-1.411 -0.517,-1.062 0,0"
                 style="fill:#ffffff;fill-opacity:1;fill-rule:evenodd;stroke:none"
                 id="path476" /></g></g></g></g><g
         id="g484"
         transform="translate(260.6934,309.8149)"><path
           inkscape:connector-curvature="0"
           d="M 0,0 C 0.149,-0.038 0.449,-0.118 0.606,-0.17 0.764,-0.221 0.78,-0.244 1.001,-0.614 1.223,-0.983 1.648,-1.699 1.857,-2.076 2.065,-2.452 2.057,-2.487 1.922,-3.062 1.789,-3.637 1.53,-4.751 1.325,-5.217 1.119,-5.682 0.967,-5.498 0.733,-5.152 c -0.232,0.346 -0.546,0.853 -0.748,1.375 -0.202,0.521 -0.291,1.057 -0.296,1.693 -0.003,0.637 0.078,1.374 0.119,1.745 C -0.15,0.033 -0.15,0.038 0,0"
           style="fill:#f2c618;fill-opacity:1;fill-rule:evenodd;stroke:none"
           id="path486" /></g><g
         id="g488"
         transform="translate(260.3838,307.8506)"><path
           inkscape:connector-curvature="0"
           d="M 0,0 C 0.005,0.607 0.079,1.277 0.117,1.625 0.159,1.997 0.159,2.002 0.31,1.964 0.459,1.927 0.759,1.846 0.916,1.794 1.073,1.743 1.09,1.721 1.311,1.351 1.532,0.981 1.958,0.265 2.167,-0.111 2.263,-0.285 2.313,-0.386 2.325,-0.5 Z"
           style="fill:#e7ba0c;fill-opacity:1;fill-rule:evenodd;stroke:none"
           id="path490" /></g><g
         id="g492"
         transform="translate(201.3091,317.0186)"><path
           inkscape:connector-curvature="0"
           d="m 0,0 c -0.155,-0.001 -0.465,-0.008 -0.631,-0.021 -0.166,-0.012 -0.187,-0.03 -0.494,-0.335 -0.306,-0.306 -0.898,-0.9 -1.194,-1.215 -0.297,-0.315 -0.297,-0.352 -0.31,-0.941 -0.014,-0.59 -0.042,-1.732 0.041,-2.232 0.084,-0.5 0.277,-0.358 0.589,-0.078 0.313,0.28 0.744,0.697 1.07,1.155 0.325,0.458 0.546,0.956 0.709,1.572 0.163,0.616 0.268,1.351 0.321,1.72 C 0.154,-0.004 0.155,0.001 0,0"
           style="fill:#f2c618;fill-opacity:1;fill-rule:evenodd;stroke:none"
           id="path494" /></g><g
         id="g496"
         transform="translate(201.1191,315.0396)"><path
           inkscape:connector-curvature="0"
           d="M 0,0 C 0.146,0.59 0.242,1.257 0.291,1.604 0.344,1.975 0.345,1.98 0.19,1.979 0.035,1.978 -0.275,1.971 -0.441,1.958 -0.607,1.946 -0.628,1.928 -0.935,1.623 -1.241,1.317 -1.833,0.723 -2.129,0.408 -2.266,0.263 -2.34,0.177 -2.38,0.068 Z"
           style="fill:#e7ba0c;fill-opacity:1;fill-rule:evenodd;stroke:none"
           id="path498" /></g><g
         id="g504"
         transform="translate(272.5107,262.3735)"><path
           inkscape:connector-curvature="0"
           d="m 0,0 c -1.856,3.657 -5.144,10.267 -6.786,13.585 -1.644,3.319 -1.644,3.345 -2.115,2.687 -0.471,-0.658 -1.413,-1.999 -2.213,-3.96 -0.8,-1.96 -1.455,-4.539 -1.827,-7.183 -0.372,-2.644 -0.456,-5.353 -0.323,-7.78 0.134,-2.426 0.487,-4.568 0.971,-5.984 0.483,-1.415 1.098,-2.106 1.807,-2.403 0.709,-0.296 1.51,-0.201 2.553,0.162 1.045,0.364 2.33,0.995 3.758,1.666 1.428,0.671 2.997,1.381 4.183,1.894 1.185,0.513 1.984,0.829 2.369,1.171 0.387,0.343 0.357,0.71 0.131,1.247 C 2.281,-4.362 1.856,-3.657 0,0"
           style="fill:#c1b9b9;fill-opacity:1;fill-rule:evenodd;stroke:none"
           id="path506" /></g><g
         id="g508"
         transform="translate(282.8428,287.4146)"><path
           inkscape:connector-curvature="0"
           d="m 0,0 c 0.006,-0.072 0.092,-0.264 1.406,-3.159 1.313,-2.893 3.853,-8.491 4.894,-11.605 1.042,-3.114 0.585,-3.745 0.129,-4.377 -0.458,-0.631 -0.913,-1.264 -6.168,-3.894 -5.254,-2.632 -15.305,-7.261 -20.33,-9.577 -5.027,-2.315 -5.027,-2.315 -5.023,-2.321 0.005,-0.006 0.016,-0.016 1.844,-2.068 1.827,-2.053 5.472,-6.146 8.037,-9.825 2.565,-3.676 4.05,-6.94 5.192,-10.203 1.142,-3.262 1.942,-6.523 2.286,-26.162 0.344,-19.637 0.235,-55.647 0.317,-74.12 0.081,-18.474 0.355,-19.407 0.813,-20.519 0.459,-1.111 1.103,-2.402 2.551,-3.446 1.449,-1.047 3.706,-1.849 6.113,-1.914 2.405,-0.066 4.96,0.604 6.684,1.653 1.724,1.048 2.617,2.475 3.177,3.768 0.559,1.292 0.789,2.448 0.046,22.34 -0.743,19.89 -2.454,58.514 -3.142,79.193 -0.683,20.681 -0.342,23.418 2.628,28.838 2.971,5.42 8.567,13.523 11.192,19.101 2.628,5.578 2.286,8.63 1.201,11.682 -1.085,3.052 -2.913,6.104 -5.504,8.735 -2.591,2.632 -5.947,4.841 -9.107,6.082 -3.159,1.24 -6.125,1.51 -7.645,1.668 C 0.071,0.027 -0.004,0.073 0,0 m 2.723,-168.335 c 3.264,0 5.91,-2.439 5.91,-5.446 0,-3.009 -2.646,-5.447 -5.91,-5.447 -3.265,0 -5.911,2.438 -5.911,5.447 0,3.007 2.646,5.446 5.911,5.446 m -12.572,130.67 c 1.686,1.158 5.198,3.025 7.139,3.907 1.941,0.882 2.314,0.776 3.342,-1.012 1.027,-1.79 2.712,-5.263 3.611,-7.093 0.9,-1.827 1.015,-2.012 -0.613,-3.012 -1.628,-1 -4.998,-2.814 -6.868,-3.749 -1.87,-0.934 -2.242,-0.986 -3.326,0.645 -1.085,1.632 -2.885,4.946 -3.856,6.828 -0.972,1.881 -1.112,2.328 0.571,3.486"
           style="fill:#8d8478;fill-opacity:1;fill-rule:evenodd;stroke:none"
           id="path510" /></g><g
         id="g512"
         transform="translate(277.0693,242.7837)"><path
           inkscape:connector-curvature="0"
           d="M 0,0 C 1.951,1.055 5.509,2.981 7.049,4.426 8.588,5.87 8.107,6.833 7.417,7.997 6.728,9.163 5.828,10.529 5.212,11.2 4.596,11.871 4.266,11.845 2.55,10.941 0.835,10.037 -2.264,8.254 -3.84,7.271 -5.415,6.289 -5.469,6.108 -5.377,5.697 -5.284,5.288 -5.044,4.649 -4.563,3.424 -4.083,2.2 -3.358,0.389 -2.826,-0.425 -2.293,-1.238 -1.951,-1.055 0,0"
           style="fill:#c1b9b9;fill-opacity:1;fill-rule:evenodd;stroke:none"
           id="path514" /></g><g
         id="g516"><g
           id="g518" /><g
           id="g530"><g
             clip-path="url(#clipPath522)"
             id="g528"
             style="opacity:0.14999402"><g
               transform="translate(278.6426,207.7549)"
               id="g526"><path
                 inkscape:connector-curvature="0"
                 d="m 0,0 c 0.104,-16.174 0.632,-47.655 0.906,-64.023 0.275,-16.369 0.295,-17.625 0.84,-18.657 0.545,-1.03 1.613,-1.836 2.94,-2.224 1.326,-0.39 2.91,-0.363 4.157,0.132 1.247,0.496 2.157,1.459 2.58,2.486 0.422,1.026 0.356,2.115 -0.235,18.506 C 10.598,-47.389 9.482,-15.696 8.825,0.389 8.167,16.474 7.965,16.951 7.61,17.557 7.255,18.164 6.746,18.898 5.744,19.23 4.742,19.562 3.247,19.491 2.296,19.204 1.346,18.916 0.938,18.412 0.576,17.726 0.214,17.041 -0.104,16.173 0,0"
                 style="fill:#000000;fill-opacity:1;fill-rule:evenodd;stroke:none"
                 id="path524" /></g></g></g></g><g
         id="g532"
         transform="translate(284.2617,287.2842)"><path
           inkscape:connector-curvature="0"
           d="m 0,0 c 1.521,-0.158 4.486,-0.427 7.646,-1.668 3.16,-1.241 6.515,-3.45 9.106,-6.082 2.592,-2.631 4.419,-5.683 5.504,-8.735 1.086,-3.052 1.428,-6.104 -1.2,-11.682 -2.626,-5.577 -8.222,-13.681 -11.193,-19.101 -2.968,-5.42 -3.312,-8.156 -2.627,-28.836 0.686,-20.68 2.399,-59.304 3.141,-79.195 0.743,-19.891 0.514,-21.048 -0.046,-22.34 -0.56,-1.293 -1.453,-2.719 -3.177,-3.767 -1.724,-1.05 -4.279,-1.72 -6.685,-1.654 -2.406,0.066 -4.661,0.868 -6.112,1.914 -1.447,1.044 -2.091,2.335 -2.55,3.447 -0.458,1.111 -0.732,2.045 -0.814,20.518 -0.082,18.474 0.028,54.484 -0.317,74.12 -0.344,19.639 -1.143,22.9 -2.286,26.163 -1.142,3.262 -2.626,6.526 -5.192,10.202 -2.565,3.679 -6.21,7.772 -8.038,9.825 l -1.843,2.068 c -0.003,0.005 -0.004,0.007 2.501,1.16 -0.011,0.033 -0.022,0.065 -0.034,0.098 -0.483,1.416 -0.837,3.558 -0.971,5.983 -0.133,2.427 -0.048,5.136 0.323,7.781 0.372,2.644 1.027,5.222 1.827,7.182 0.8,1.961 1.742,3.302 2.213,3.96 0.471,0.659 0.471,0.632 2.115,-2.687 1.643,-3.317 4.931,-9.927 6.785,-13.584 0.529,-1.041 0.942,-1.843 1.266,-2.469 3.487,1.634 6.914,3.265 9.328,4.474 5.255,2.631 5.711,3.263 6.168,3.894 0.457,0.632 0.913,1.263 -0.129,4.378 -1.041,3.113 -3.581,8.711 -4.894,11.604 -1.314,2.895 -1.4,3.087 -1.405,3.159 C -1.595,0.203 -1.52,0.158 0,0 Z"
           style="fill:none;stroke:#231f20;stroke-width:2;stroke-linecap:butt;stroke-linejoin:miter;stroke-miterlimit:2.61299992;stroke-dasharray:none;stroke-opacity:1"
           id="path534" /></g><g
         id="g536"
         transform="translate(290.3604,206.6211)"><path
           inkscape:connector-curvature="0"
           d="M 0,0 C -1.175,-0.421 -3.181,-1.092 -4.869,-2.546 -6.558,-4 -7.929,-6.237 -8.365,-8.045 c -0.438,-1.808 0.06,-3.187 0.168,-4.757 0.108,-1.569 -0.172,-3.329 0.012,-4.732 0.184,-1.403 0.834,-2.449 1.7,-3.045 0.865,-0.595 1.948,-0.739 3.553,-0.559 1.606,0.181 3.735,0.686 5.593,1.823 1.858,1.135 3.445,2.904 4.041,5.014 0.595,2.112 0.198,4.565 0.054,6.477 C 6.611,-5.912 6.72,-4.541 5.946,-3.2 5.173,-1.858 3.518,-0.547 2.519,0.023 1.52,0.593 1.176,0.422 0,0"
           style="fill:#e98622;fill-opacity:1;fill-rule:evenodd;stroke:none"
           id="path538" /></g><g
         id="g540"
         transform="translate(290.3604,206.6211)"><path
           inkscape:connector-curvature="0"
           d="M 0,0 C -1.175,-0.421 -3.181,-1.092 -4.869,-2.546 -6.558,-4 -7.929,-6.237 -8.365,-8.045 c -0.438,-1.808 0.06,-3.187 0.168,-4.757 0.108,-1.569 -0.172,-3.329 0.012,-4.732 0.184,-1.403 0.834,-2.449 1.7,-3.045 0.865,-0.595 1.948,-0.739 3.553,-0.559 1.606,0.181 3.735,0.686 5.593,1.823 1.858,1.135 3.445,2.904 4.041,5.014 0.595,2.112 0.198,4.565 0.054,6.477 C 6.611,-5.912 6.72,-4.541 5.946,-3.2 5.173,-1.858 3.518,-0.547 2.519,0.023 1.52,0.593 1.176,0.422 0,0 Z"
           style="fill:none;stroke:#2f1305;stroke-width:1.5;stroke-linecap:butt;stroke-linejoin:miter;stroke-miterlimit:2.61299992;stroke-dasharray:none;stroke-opacity:1"
           id="path542" /></g></g></g></svg>