<?xml version="1.0" encoding="UTF-8" standalone="no"?>
<svg xmlns:dc="http://purl.org/dc/elements/1.1/" xmlns:cc="http://creativecommons.org/ns#" xmlns:rdf="http://www.w3.org/1999/02/22-rdf-syntax-ns#" xmlns:svg="http://www.w3.org/2000/svg" xmlns="http://www.w3.org/2000/svg" xmlns:sodipodi="http://sodipodi.sourceforge.net/DTD/sodipodi-0.dtd" xmlns:inkscape="http://www.inkscape.org/namespaces/inkscape" viewBox="0 0 241.90018 337.87308" height="337.87308" width="241.90018" xml:space="preserve" id="svg2" version="1.1" sodipodi:docname="2.svg" inkscape:version="0.92.2 5c3e80d, 2017-08-06"><sodipodi:namedview pagecolor="#ffffff" bordercolor="#666666" borderopacity="1" objecttolerance="10" gridtolerance="10" guidetolerance="10" inkscape:pageopacity="0" inkscape:pageshadow="2" inkscape:window-width="848" inkscape:window-height="551" id="namedview9593" showgrid="false" inkscape:zoom="0.41627764" inkscape:cx="96.657871" inkscape:cy="147.38011" inkscape:window-x="0" inkscape:window-y="0" inkscape:window-maximized="0" inkscape:current-layer="svg2"/><metadata id="metadata8"><rdf:RDF><cc:Work rdf:about=""><dc:format>image/svg+xml</dc:format><dc:type rdf:resource="http://purl.org/dc/dcmitype/StillImage"/></cc:Work></rdf:RDF></metadata><defs id="defs6"><clipPath id="clipPath18" clipPathUnits="userSpaceOnUse"><path id="path16" d="M 0,0 H 425.197 V 425.197 H 0 Z" inkscape:connector-curvature="0"/></clipPath><clipPath id="clipPath98" clipPathUnits="userSpaceOnUse"><path id="path96" d="m 192.6,300.459 c -5.579,-0.487 -8.176,-2.071 -10.306,-3.44 v 0 c -2.131,-1.37 -6.194,-3.098 -10.109,-8.774 v 0 c -3.914,-5.677 -7.681,-15.304 -11.22,-21.791 v 0 c -3.539,-6.49 -5.871,-12.838 -3.811,-21.127 v 0 c 0.262,-1.06 0.474,0.124 1.025,1.305 v 0 c 0.262,0.566 0.633,1.14 1.062,1.698 v 0 c -0.005,-0.047 -0.009,-0.094 -0.011,-0.142 v 0 c -0.157,-2.331 0.833,-5.628 1.366,-6.727 v 0 c 0.534,-1.098 0.61,0.004 1.141,1.142 v 0 c 0.224,0.482 0.53,0.971 0.883,1.45 v 0 c 6.325,-13.889 16.978,-24.141 26.669,-24.78 v 0 c 12.028,-0.793 19.049,-0.919 36.503,19.264 v 0 c 0.112,-0.417 0.125,-0.267 0.244,-1.221 v 0 c 0.12,-0.953 -0.087,-2.763 0.893,-1.74 v 0 c 0.979,1.022 2.995,3.933 3.865,6.533 v 0 l 0.109,0.094 c 0.108,0.094 0.212,0.187 0.316,0.28 v 0 c 0.199,-0.629 0.287,-0.761 0.421,-1.84 v 0 c 0.135,-1.078 -0.136,-2.915 0.698,-1.887 v 0 c 0.834,1.028 2.834,4.432 3.94,7.758 v 0 c 2.511,7.552 -0.508,14.48 -2.98,21.875 v 0 c -3.695,11.051 -8.564,25.759 -20.585,29.894 v 0 c -4.69,1.613 -10.975,2.334 -16.159,2.334 v 0 c -1.419,0 -2.755,-0.054 -3.954,-0.158" inkscape:connector-curvature="0"/></clipPath><clipPath id="clipPath114" clipPathUnits="userSpaceOnUse"><path id="path112" d="M 0,0 H 425.197 V 425.197 H 0 Z" inkscape:connector-curvature="0"/></clipPath><clipPath id="clipPath258" clipPathUnits="userSpaceOnUse"><path id="path256" d="m 256.171,207.251 h 11.483 v -4.016 h -11.483 z" inkscape:connector-curvature="0"/></clipPath></defs><g transform="matrix(1.3333333,0,0,-1.3333333,-186.80679,473.95765)" id="g10"><g id="g12"><g clip-path="url(#clipPath18)" id="g14"><g transform="translate(192.8115,167.4971)" id="g20"><path id="path22" style="fill:#e98622;fill-opacity:1;fill-rule:nonzero;stroke:none" d="m 0,0 c 4.667,-1.281 9.335,-2.564 13.713,-4.051 4.506,-1.528 8.689,-3.272 12.229,-5.445 3.3,-2.025 5.964,-4.381 8.104,-6.847 2.543,-2.929 4.352,-6.04 5.61,-8.943 1.067,-2.458 1.69,-4.626 2.267,-6.636 0.586,-2.041 1.12,-3.899 1.951,-5.38 0.695,-1.24 1.668,-2.364 2.758,-3.319 1.255,-1.101 2.624,-1.955 3.888,-2.5 2.278,-0.983 4.56,-0.983 6.841,-0.983 h 0.001 v -6.787 h -0.001 c -3.072,0 -6.143,0 -9.957,1.646 -1.961,0.846 -4.024,2.121 -5.848,3.72 -1.649,1.446 -3.138,3.175 -4.231,5.122 -1.202,2.142 -1.834,4.341 -2.528,6.758 -0.535,1.863 -1.112,3.872 -1.978,5.868 -1.007,2.325 -2.47,4.832 -4.543,7.22 -1.707,1.967 -3.823,3.84 -6.429,5.441 -2.957,1.814 -6.635,3.334 -10.672,4.704 -4.165,1.413 -8.723,2.666 -13.28,3.918 z" inkscape:connector-curvature="0"/></g><g transform="translate(192.8115,167.4971)" id="g24"><path id="path26" style="fill:none;stroke:#2f1305;stroke-width:1.5;stroke-linecap:butt;stroke-linejoin:miter;stroke-miterlimit:2.61299992;stroke-dasharray:none;stroke-opacity:1" d="m 0,0 c 4.667,-1.281 9.335,-2.564 13.713,-4.051 4.506,-1.528 8.689,-3.272 12.229,-5.445 3.3,-2.025 5.964,-4.381 8.104,-6.847 2.543,-2.929 4.352,-6.04 5.61,-8.943 1.067,-2.458 1.69,-4.626 2.267,-6.636 0.586,-2.041 1.12,-3.899 1.951,-5.38 0.695,-1.24 1.668,-2.364 2.758,-3.319 1.255,-1.101 2.624,-1.955 3.888,-2.5 2.278,-0.983 4.56,-0.983 6.841,-0.983 h 0.001 v -6.787 h -0.001 c -3.072,0 -6.143,0 -9.957,1.646 -1.961,0.846 -4.024,2.121 -5.848,3.72 -1.649,1.446 -3.138,3.175 -4.231,5.122 -1.202,2.142 -1.834,4.341 -2.528,6.758 -0.535,1.863 -1.112,3.872 -1.978,5.868 -1.007,2.325 -2.47,4.832 -4.543,7.22 -1.707,1.967 -3.823,3.84 -6.429,5.441 -2.957,1.814 -6.635,3.334 -10.672,4.704 -4.165,1.413 -8.723,2.666 -13.28,3.918 z" inkscape:connector-curvature="0"/></g><g transform="translate(223.7627,168.665)" id="g28"><path id="path30" style="fill:#e98622;fill-opacity:1;fill-rule:evenodd;stroke:none" d="m 0,0 c 0.413,-6.53 1.238,-19.551 0.454,-26.404 -0.784,-6.853 -3.18,-7.537 -3.613,-10.804 -0.434,-3.268 1.095,-9.116 2.808,-12.416 1.715,-3.3 3.617,-4.051 5.771,-4.52 2.155,-0.468 4.563,-0.656 5.92,-1.816 1.356,-1.161 1.661,-3.295 1.44,-5.248 -0.22,-1.952 -0.966,-3.725 -6.107,-4.357 -5.141,-0.634 -14.676,-0.13 -19.155,0.959 -4.479,1.089 -3.901,2.763 -4.81,7.291 -0.908,4.528 -3.303,11.91 -3.753,15.938 -0.451,4.028 1.045,4.705 1.316,7.228 0.273,2.521 -0.677,6.89 -1.382,9.443 -0.704,2.552 -1.163,3.287 -3.222,3.452 -2.059,0.166 -5.718,-0.239 -7.781,0.572 -2.063,0.812 -2.531,2.84 -0.066,5.449 2.464,2.607 7.86,5.795 12.43,8.301 4.57,2.507 8.314,4.333 11.399,6.477 3.086,2.143 5.512,4.604 6.725,5.815 C -0.413,6.57 -0.413,6.53 0,0" inkscape:connector-curvature="0"/></g><g transform="translate(223.7627,168.665)" id="g32"><path id="path34" style="fill:none;stroke:#2f1305;stroke-width:1.5;stroke-linecap:butt;stroke-linejoin:miter;stroke-miterlimit:2.61299992;stroke-dasharray:none;stroke-opacity:1" d="m 0,0 c 0.413,-6.53 1.238,-19.551 0.454,-26.404 -0.784,-6.853 -3.18,-7.537 -3.613,-10.804 -0.434,-3.268 1.095,-9.116 2.808,-12.416 1.715,-3.3 3.617,-4.051 5.771,-4.52 2.155,-0.468 4.563,-0.656 5.92,-1.816 1.356,-1.161 1.661,-3.295 1.44,-5.248 -0.22,-1.952 -0.966,-3.725 -6.107,-4.357 -5.141,-0.634 -14.676,-0.13 -19.155,0.959 -4.479,1.089 -3.901,2.763 -4.81,7.291 -0.908,4.528 -3.303,11.91 -3.753,15.938 -0.451,4.028 1.045,4.705 1.316,7.228 0.273,2.521 -0.677,6.89 -1.382,9.443 -0.704,2.552 -1.163,3.287 -3.222,3.452 -2.059,0.166 -5.718,-0.239 -7.781,0.572 -2.063,0.812 -2.531,2.84 -0.066,5.449 2.464,2.607 7.86,5.795 12.43,8.301 4.57,2.507 8.314,4.333 11.399,6.477 3.086,2.143 5.512,4.604 6.725,5.815 C -0.413,6.57 -0.413,6.53 0,0 Z" inkscape:connector-curvature="0"/></g><g transform="translate(226.2842,112.457)" id="g36"><path id="path38" style="fill:none;stroke:#2f1305;stroke-width:1.5;stroke-linecap:round;stroke-linejoin:round;stroke-miterlimit:2.61299992;stroke-dasharray:none;stroke-opacity:1" d="M 0,0 C 1.142,-0.457 2.283,-0.913 3.544,-1.437 4.806,-1.962 6.187,-2.554 6.785,-3.837 7.384,-5.119 7.2,-7.093 6.479,-8.168 5.76,-9.243 4.503,-9.422 3.247,-9.6" inkscape:connector-curvature="0"/></g><g transform="translate(170.6909,168.665)" id="g40"><path id="path42" style="fill:#e98622;fill-opacity:1;fill-rule:evenodd;stroke:none" d="m 0,0 c -0.413,-6.53 -1.239,-19.551 -0.454,-26.404 0.785,-6.853 3.18,-7.537 3.515,-10.518 0.336,-2.98 -1.387,-8.257 -2.955,-11.399 -1.568,-3.144 -2.981,-4.155 -4.89,-4.895 -1.909,-0.74 -4.316,-1.209 -5.784,-2.646 -1.469,-1.438 -2,-3.844 -1.703,-5.625 0.296,-1.782 1.421,-2.938 6.528,-3.451 5.106,-0.513 14.194,-0.383 18.449,0.519 4.254,0.902 3.677,2.576 4.586,7.104 0.908,4.528 3.303,11.91 3.753,15.938 0.45,4.028 -1.045,4.705 -1.317,7.228 -0.272,2.521 0.678,6.89 1.382,9.443 0.704,2.552 1.163,3.287 3.222,3.452 2.059,0.166 5.718,-0.239 7.782,0.572 2.063,0.812 2.53,2.84 0.065,5.449 -2.464,2.607 -7.859,5.795 -12.429,8.301 -4.57,2.507 -8.314,4.333 -11.4,6.477 C 5.264,1.688 2.838,4.149 1.625,5.36 0.412,6.57 0.413,6.53 0,0" inkscape:connector-curvature="0"/></g><g transform="translate(170.6909,168.665)" id="g44"><path id="path46" style="fill:none;stroke:#2f1305;stroke-width:1.5;stroke-linecap:butt;stroke-linejoin:miter;stroke-miterlimit:2.61299992;stroke-dasharray:none;stroke-opacity:1" d="m 0,0 c -0.413,-6.53 -1.239,-19.551 -0.454,-26.404 0.785,-6.853 3.18,-7.537 3.515,-10.518 0.336,-2.98 -1.387,-8.257 -2.955,-11.399 -1.568,-3.144 -2.981,-4.155 -4.89,-4.895 -1.909,-0.74 -4.316,-1.209 -5.784,-2.646 -1.469,-1.438 -2,-3.844 -1.703,-5.625 0.296,-1.782 1.421,-2.938 6.528,-3.451 5.106,-0.513 14.194,-0.383 18.449,0.519 4.254,0.902 3.677,2.576 4.586,7.104 0.908,4.528 3.303,11.91 3.753,15.938 0.45,4.028 -1.045,4.705 -1.317,7.228 -0.272,2.521 0.678,6.89 1.382,9.443 0.704,2.552 1.163,3.287 3.222,3.452 2.059,0.166 5.718,-0.239 7.782,0.572 2.063,0.812 2.53,2.84 0.065,5.449 -2.464,2.607 -7.859,5.795 -12.429,8.301 -4.57,2.507 -8.314,4.333 -11.4,6.477 C 5.264,1.688 2.838,4.149 1.625,5.36 0.412,6.57 0.413,6.53 0,0 Z" inkscape:connector-curvature="0"/></g><g transform="translate(221.1289,212.5259)" id="g48"><path id="path50" style="fill:#e98622;fill-opacity:1;fill-rule:evenodd;stroke:none" d="m 0,0 c 2.335,-1.978 5.832,-7.418 8.781,-10.747 2.949,-3.329 5.352,-4.546 8.754,-3.405 3.403,1.142 7.807,4.643 10.809,6.774 3.003,2.129 4.603,2.891 7.673,3.043 3.069,0.152 7.605,-0.304 10.664,-1.298 3.058,-0.995 4.638,-2.528 5.366,-5.154 0.727,-2.625 0.602,-6.343 -1.722,-7.86 -2.324,-1.517 -6.848,-0.832 -11.112,-2.011 -4.264,-1.179 -8.267,-4.223 -12.32,-6.83 -4.053,-2.606 -8.157,-4.775 -11.443,-5.536 -3.286,-0.761 -5.755,-0.114 -9.124,2.568 -3.369,2.683 -7.639,7.401 -9.758,10.673 -2.118,3.273 -2.085,5.099 -2.158,6.696 -0.073,1.597 -0.252,2.965 -0.119,4.944 0.134,1.978 0.58,4.567 1.39,6.603 C -3.509,0.496 -2.335,1.979 0,0" inkscape:connector-curvature="0"/></g><g transform="translate(221.1289,212.5259)" id="g52"><path id="path54" style="fill:none;stroke:#2f1305;stroke-width:1.5;stroke-linecap:butt;stroke-linejoin:miter;stroke-miterlimit:2.61299992;stroke-dasharray:none;stroke-opacity:1" d="m 0,0 c 2.335,-1.978 5.832,-7.418 8.781,-10.747 2.949,-3.329 5.352,-4.546 8.754,-3.405 3.403,1.142 7.807,4.643 10.809,6.774 3.003,2.129 4.603,2.891 7.673,3.043 3.069,0.152 7.605,-0.304 10.664,-1.298 3.058,-0.995 4.638,-2.528 5.366,-5.154 0.727,-2.625 0.602,-6.343 -1.722,-7.86 -2.324,-1.517 -6.848,-0.832 -11.112,-2.011 -4.264,-1.179 -8.267,-4.223 -12.32,-6.83 -4.053,-2.606 -8.157,-4.775 -11.443,-5.536 -3.286,-0.761 -5.755,-0.114 -9.124,2.568 -3.369,2.683 -7.639,7.401 -9.758,10.673 -2.118,3.273 -2.085,5.099 -2.158,6.696 -0.073,1.597 -0.252,2.965 -0.119,4.944 0.134,1.978 0.58,4.567 1.39,6.603 C -3.509,0.496 -2.335,1.979 0,0 Z" inkscape:connector-curvature="0"/></g><g transform="translate(180.6191,202.4629)" id="g56"><path id="path58" style="fill:#e98622;fill-opacity:1;fill-rule:evenodd;stroke:none" d="m 0,0 c -2.041,-2.014 -7.379,-4.829 -10.722,-7.306 -3.342,-2.476 -4.689,-4.613 -3.956,-7.874 0.732,-3.26 3.544,-7.644 5.225,-10.613 1.682,-2.969 2.233,-4.521 2.085,-7.391 -0.147,-2.87 -0.992,-7.057 -2.047,-10.184 -1.055,-3.127 -2.319,-5.195 -5.107,-5.635 -2.788,-0.439 -7.101,0.748 -8.427,3.396 -1.328,2.647 0.33,6.754 -0.055,10.795 -0.385,4.041 -2.814,8.015 -4.835,12 -2.021,3.986 -3.635,7.982 -4.027,11.103 -0.393,3.121 0.434,5.367 3.22,8.287 2.787,2.92 7.533,6.513 11.868,9.958 4.335,3.445 8.258,6.742 10.859,8.418 2.6,1.676 3.877,1.733 4.565,-0.29 0.687,-2.022 0.786,-6.123 1.462,-8.78 C 0.786,3.227 2.041,2.014 0,0" inkscape:connector-curvature="0"/></g><g transform="translate(180.6191,202.4629)" id="g60"><path id="path62" style="fill:none;stroke:#2f1305;stroke-width:1.5;stroke-linecap:butt;stroke-linejoin:miter;stroke-miterlimit:2.61299992;stroke-dasharray:none;stroke-opacity:1" d="m 0,0 c -2.041,-2.014 -7.379,-4.829 -10.722,-7.306 -3.342,-2.476 -4.689,-4.613 -3.956,-7.874 0.732,-3.26 3.544,-7.644 5.225,-10.613 1.682,-2.969 2.233,-4.521 2.085,-7.391 -0.147,-2.87 -0.992,-7.057 -2.047,-10.184 -1.055,-3.127 -2.319,-5.195 -5.107,-5.635 -2.788,-0.439 -7.101,0.748 -8.427,3.396 -1.328,2.647 0.33,6.754 -0.055,10.795 -0.385,4.041 -2.814,8.015 -4.835,12 -2.021,3.986 -3.635,7.982 -4.027,11.103 -0.393,3.121 0.434,5.367 3.22,8.287 2.787,2.92 7.533,6.513 11.868,9.958 4.335,3.445 8.258,6.742 10.859,8.418 2.6,1.676 3.877,1.733 4.565,-0.29 0.687,-2.022 0.786,-6.123 1.462,-8.78 C 0.786,3.227 2.041,2.014 0,0 Z" inkscape:connector-curvature="0"/></g><g transform="translate(221.4883,213.4761)" id="g64"><path id="path66" style="fill:#e98622;fill-opacity:1;fill-rule:evenodd;stroke:none" d="m 0,0 c 1.619,-6.544 2.464,-19.786 2.604,-30.44 0.142,-10.653 -0.421,-18.721 -3.167,-24.352 -2.746,-5.63 -7.674,-8.827 -15.137,-10.5 -7.463,-1.675 -17.46,-1.828 -23.656,0.684 -6.195,2.511 -8.589,7.686 -9.857,13.926 -1.267,6.24 -1.408,13.546 -0.904,20.589 0.503,7.044 1.65,13.824 3.168,19.992 1.518,6.169 3.407,11.724 8.606,14.726 5.199,3.001 13.71,3.45 19.585,3.293 C -12.884,7.762 -9.646,7.001 -6.829,6.697 -4.014,6.392 -1.619,6.544 0,0" inkscape:connector-curvature="0"/></g><g transform="translate(221.4883,213.4761)" id="g68"><path id="path70" style="fill:none;stroke:#2f1305;stroke-width:1.5;stroke-linecap:butt;stroke-linejoin:miter;stroke-miterlimit:2.61299992;stroke-dasharray:none;stroke-opacity:1" d="m 0,0 c 1.619,-6.544 2.464,-19.786 2.604,-30.44 0.142,-10.653 -0.421,-18.721 -3.167,-24.352 -2.746,-5.63 -7.674,-8.827 -15.137,-10.5 -7.463,-1.675 -17.46,-1.828 -23.656,0.684 -6.195,2.511 -8.589,7.686 -9.857,13.926 -1.267,6.24 -1.408,13.546 -0.904,20.589 0.503,7.044 1.65,13.824 3.168,19.992 1.518,6.169 3.407,11.724 8.606,14.726 5.199,3.001 13.71,3.45 19.585,3.293 C -12.884,7.762 -9.646,7.001 -6.829,6.697 -4.014,6.392 -1.619,6.544 0,0 Z" inkscape:connector-curvature="0"/></g><g transform="translate(214.2939,208.4609)" id="g72"><path id="path74" style="fill:#ecaf45;fill-opacity:1;fill-rule:evenodd;stroke:none" d="m 0,0 c 1.171,-5.41 1.782,-16.356 1.884,-25.163 0.101,-8.808 -0.306,-15.476 -2.291,-20.131 -1.986,-4.655 -5.55,-7.297 -10.946,-8.681 -5.396,-1.384 -12.625,-1.51 -17.105,0.566 -4.48,2.076 -6.21,6.353 -7.127,11.513 -0.916,5.158 -1.018,11.197 -0.654,17.019 0.364,5.823 1.194,11.429 2.291,16.527 1.098,5.1 2.463,9.692 6.223,12.173 3.759,2.482 9.913,2.853 14.161,2.723 4.248,-0.129 6.589,-0.758 8.626,-1.01 C -2.902,5.285 -1.171,5.411 0,0" inkscape:connector-curvature="0"/></g><g transform="translate(214.2939,208.4609)" id="g76"><path id="path78" style="fill:none;stroke:#2f1305;stroke-width:1.5;stroke-linecap:butt;stroke-linejoin:miter;stroke-miterlimit:2.61299992;stroke-dasharray:none;stroke-opacity:1" d="m 0,0 c 1.171,-5.41 1.782,-16.356 1.884,-25.163 0.101,-8.808 -0.306,-15.476 -2.291,-20.131 -1.986,-4.655 -5.55,-7.297 -10.946,-8.681 -5.396,-1.384 -12.625,-1.51 -17.105,0.566 -4.48,2.076 -6.21,6.353 -7.127,11.513 -0.916,5.158 -1.018,11.197 -0.654,17.019 0.364,5.823 1.194,11.429 2.291,16.527 1.098,5.1 2.463,9.692 6.223,12.173 3.759,2.482 9.913,2.853 14.161,2.723 4.248,-0.129 6.589,-0.758 8.626,-1.01 C -2.902,5.285 -1.171,5.411 0,0 Z" inkscape:connector-curvature="0"/></g><g transform="translate(151.5439,219.6665)" id="g80"><path id="path82" style="fill:#6e2512;fill-opacity:1;fill-rule:evenodd;stroke:none" d="M 0,0 C 1.958,-3.351 0.776,-5.11 0.436,-5.961 0.095,-6.812 0.543,-6.784 1.671,-5.42 2.799,-4.056 4.606,-1.357 4.758,2.155 4.82,3.578 4.61,5.134 4.261,6.973 c 4.28,-4.539 8.83,-8.507 12.702,-11.582 7.224,-5.737 12.084,-8.366 14.533,-11.108 2.449,-2.744 2.487,-5.602 2.468,-7.116 -0.019,-1.515 -0.095,-1.685 -0.033,-1.683 0.062,10e-4 0.262,0.174 6.665,3.032 6.402,2.859 19.005,8.401 29.349,15.596 3.732,2.595 7.168,5.405 10.27,8.437 -0.203,-1.309 -0.487,-2.635 -0.904,-3.935 -1.046,-3.26 -2.923,-6.348 -3.513,-7.552 -0.59,-1.204 0.108,-0.522 1.815,0.796 1.707,1.318 4.423,3.273 8.118,8.235 3.697,4.962 8.372,12.929 10.653,21.061 0.209,0.745 0.397,1.492 0.567,2.239 0.388,-1.45 0.698,-2.964 0.837,-4.509 0.305,-3.401 -0.228,-6.95 -0.305,-8.282 -0.076,-1.331 0.305,-0.443 1.371,1.405 1.065,1.849 2.815,4.659 4.299,10.611 1.484,5.953 2.701,15.048 1.639,23.414 -1.062,8.365 -4.403,16.001 -8.189,22.57 -1.656,2.872 -3.396,5.54 -5.032,7.818 3.554,2.298 5.42,5.205 6.544,9.851 1.198,4.96 1.55,11.903 1.502,16.079 -0.049,4.176 -0.496,5.585 -0.789,5.993 -0.291,0.408 -0.428,-0.185 -2.281,-2.278 -1.078,-1.218 -2.738,-2.943 -5.304,-4.636 -0.018,5.978 -1.112,12.704 -2.448,17.991 -1.569,6.214 -3.472,10.442 -4.566,12.738 -1.094,2.297 -1.379,2.663 -1.518,2.826 -0.139,0.164 -0.131,0.126 -0.397,-1.303 -0.266,-1.43 -0.806,-4.249 -2.717,-8.32 -1.911,-4.07 -5.192,-9.39 -14.671,-12.975 C 55.447,108.801 39.771,106.953 30.22,103.884 20.67,100.815 16.873,96.714 15.002,92.763 11.854,86.115 6.331,80.96 2.005,74.02 -16.38,44.519 -12.866,22.019 0,0" inkscape:connector-curvature="0"/></g><g transform="translate(151.5439,219.6665)" id="g84"><path id="path86" style="fill:none;stroke:#2f1305;stroke-width:1.5;stroke-linecap:butt;stroke-linejoin:miter;stroke-miterlimit:2.61299992;stroke-dasharray:none;stroke-opacity:1" d="M 0,0 C 1.958,-3.351 0.776,-5.11 0.436,-5.961 0.095,-6.812 0.543,-6.784 1.671,-5.42 2.799,-4.056 4.606,-1.357 4.758,2.155 4.82,3.578 4.61,5.134 4.261,6.973 c 4.28,-4.539 8.83,-8.507 12.702,-11.582 7.224,-5.737 12.084,-8.366 14.533,-11.108 2.449,-2.744 2.487,-5.602 2.468,-7.116 -0.019,-1.515 -0.095,-1.685 -0.033,-1.683 0.062,10e-4 0.262,0.174 6.665,3.032 6.402,2.859 19.005,8.401 29.349,15.596 3.732,2.595 7.168,5.405 10.27,8.437 -0.203,-1.309 -0.487,-2.635 -0.904,-3.935 -1.046,-3.26 -2.923,-6.348 -3.513,-7.552 -0.59,-1.204 0.108,-0.522 1.815,0.796 1.707,1.318 4.423,3.273 8.118,8.235 3.697,4.962 8.372,12.929 10.653,21.061 0.209,0.745 0.397,1.492 0.567,2.239 0.388,-1.45 0.698,-2.964 0.837,-4.509 0.305,-3.401 -0.228,-6.95 -0.305,-8.282 -0.076,-1.331 0.305,-0.443 1.371,1.405 1.065,1.849 2.815,4.659 4.299,10.611 1.484,5.953 2.701,15.048 1.639,23.414 -1.062,8.365 -4.403,16.001 -8.189,22.57 -1.656,2.872 -3.396,5.54 -5.032,7.818 3.554,2.298 5.42,5.205 6.544,9.851 1.198,4.96 1.55,11.903 1.502,16.079 -0.049,4.176 -0.496,5.585 -0.789,5.993 -0.291,0.408 -0.428,-0.185 -2.281,-2.278 -1.078,-1.218 -2.738,-2.943 -5.304,-4.636 -0.018,5.978 -1.112,12.704 -2.448,17.991 -1.569,6.214 -3.472,10.442 -4.566,12.738 -1.094,2.297 -1.379,2.663 -1.518,2.826 -0.139,0.164 -0.131,0.126 -0.397,-1.303 -0.266,-1.43 -0.806,-4.249 -2.717,-8.32 -1.911,-4.07 -5.192,-9.39 -14.671,-12.975 C 55.447,108.801 39.771,106.953 30.22,103.884 20.67,100.815 16.873,96.714 15.002,92.763 11.854,86.115 6.331,80.96 2.005,74.02 -16.38,44.519 -12.866,22.019 0,0 Z" inkscape:connector-curvature="0"/></g><g transform="translate(182.2939,297.0186)" id="g88"><path id="path90" style="fill:#e98622;fill-opacity:1;fill-rule:evenodd;stroke:none" d="m 0,0 c -2.131,-1.37 -6.193,-3.097 -10.108,-8.774 -3.915,-5.677 -7.682,-15.304 -11.221,-21.79 -3.539,-6.49 -5.871,-12.838 -3.812,-21.127 0.264,-1.06 0.474,0.123 1.025,1.304 0.263,0.566 0.635,1.14 1.063,1.698 -0.005,-0.047 -0.009,-0.094 -0.011,-0.141 -0.157,-2.332 0.833,-5.629 1.366,-6.727 0.533,-1.098 0.61,0.003 1.141,1.141 0.224,0.482 0.53,0.972 0.883,1.45 6.325,-13.888 16.978,-24.14 26.669,-24.779 12.028,-0.793 19.049,-0.92 36.503,19.263 0.111,-0.416 0.125,-0.267 0.244,-1.22 0.12,-0.953 -0.087,-2.764 0.893,-1.741 0.979,1.023 2.995,3.933 3.865,6.534 l 0.109,0.094 c 0.108,0.093 0.212,0.186 0.316,0.28 0.199,-0.629 0.287,-0.761 0.422,-1.84 0.134,-1.079 -0.137,-2.916 0.697,-1.888 0.834,1.029 2.834,4.433 3.94,7.758 2.511,7.552 -0.507,14.481 -2.98,21.876 C 47.309,-17.578 42.439,-2.871 30.419,1.264 24.445,3.318 15.884,3.927 10.306,3.44 4.727,2.953 2.131,1.37 0,0" inkscape:connector-curvature="0"/></g></g></g><g id="g92"><g clip-path="url(#clipPath98)" id="g94"><g transform="translate(205.7061,253.6157)" id="g100"><path id="path102" style="fill:#f1b170;fill-opacity:1;fill-rule:evenodd;stroke:none" d="m 0,0 c -3.726,0.504 -8.259,-0.86 -13.652,-1.224 -5.642,-0.38 -14.964,6.457 -22.32,-1.622 -6.539,-7.182 -2.708,-14.561 3.331,-22.464 2.312,-3.024 1.529,-6.001 2.772,-8.308 1.244,-2.308 2.807,-2.672 5.54,-3.112 1.059,-0.171 2.264,-0.298 3.628,-0.432 4.887,-0.481 13.464,-0.179 16.644,1.535 3.181,1.713 3.994,-1.387 5.182,-0.109 2.521,2.712 -0.963,3.208 1.962,4.884 8.27,4.738 11.62,18.66 7.516,25.609 C 8.193,-1.162 3.726,-0.504 0,0" inkscape:connector-curvature="0"/></g><g transform="translate(205.7061,253.6157)" id="g104"><path id="path106" style="fill:none;stroke:#2f1305;stroke-width:1.5;stroke-linecap:butt;stroke-linejoin:miter;stroke-miterlimit:2.61299992;stroke-dasharray:none;stroke-opacity:1" d="m 0,0 c -3.726,0.504 -8.259,-0.86 -13.652,-1.224 -5.642,-0.38 -14.964,6.457 -22.32,-1.622 -6.539,-7.182 -2.708,-14.561 3.331,-22.464 2.312,-3.024 1.529,-6.001 2.772,-8.308 1.244,-2.308 2.807,-2.672 5.54,-3.112 1.059,-0.171 2.264,-0.298 3.628,-0.432 4.887,-0.481 13.464,-0.179 16.644,1.535 3.181,1.713 3.994,-1.387 5.182,-0.109 2.521,2.712 -0.963,3.208 1.962,4.884 8.27,4.738 11.62,18.66 7.516,25.609 C 8.193,-1.162 3.726,-0.504 0,0 Z" inkscape:connector-curvature="0"/></g></g></g><g id="g108"><g clip-path="url(#clipPath114)" id="g110"><g transform="translate(182.2939,297.0186)" id="g116"><path id="path118" style="fill:none;stroke:#2f1305;stroke-width:1.5;stroke-linecap:butt;stroke-linejoin:miter;stroke-miterlimit:2.61299992;stroke-dasharray:none;stroke-opacity:1" d="m 0,0 c -2.131,-1.37 -6.193,-3.097 -10.108,-8.774 -3.915,-5.677 -7.682,-15.304 -11.221,-21.79 -3.539,-6.49 -5.871,-12.838 -3.812,-21.127 0.264,-1.06 0.474,0.123 1.025,1.304 0.263,0.566 0.635,1.14 1.063,1.698 -0.005,-0.047 -0.009,-0.094 -0.011,-0.141 -0.157,-2.332 0.833,-5.629 1.366,-6.727 0.533,-1.098 0.61,0.003 1.141,1.141 0.224,0.482 0.53,0.972 0.883,1.45 6.325,-13.888 16.978,-24.14 26.669,-24.779 12.028,-0.793 19.049,-0.92 36.503,19.263 0.111,-0.416 0.125,-0.267 0.244,-1.22 0.12,-0.953 -0.087,-2.764 0.893,-1.741 0.979,1.023 2.995,3.933 3.865,6.534 l 0.109,0.094 c 0.108,0.093 0.212,0.186 0.316,0.28 0.199,-0.629 0.287,-0.761 0.422,-1.84 0.134,-1.079 -0.137,-2.916 0.697,-1.888 0.834,1.029 2.834,4.433 3.94,7.758 2.511,7.552 -0.507,14.481 -2.98,21.876 C 47.309,-17.578 42.439,-2.871 30.419,1.264 24.445,3.318 15.884,3.927 10.306,3.44 4.727,2.953 2.131,1.37 0,0 Z" inkscape:connector-curvature="0"/></g><g transform="translate(225.918,293.7261)" id="g120"><path id="path122" style="fill:#e98622;fill-opacity:1;fill-rule:evenodd;stroke:none" d="m 0,0 c -1.729,2.226 -1.961,3.243 -2.192,4.26 3.525,2.225 7.05,4.45 10.349,5.623 0.363,0.128 0.723,0.245 1.079,0.347 3.604,1.031 6.9,0.623 8.943,-0.141 2.043,-0.762 2.834,-1.881 3.526,-3.513 0.693,-1.632 1.288,-3.778 0.889,-6.451 -0.356,-2.38 -1.498,-5.179 -2.696,-7.29 -0.147,-0.261 -0.296,-0.512 -0.444,-0.75 -0.344,-0.552 -0.684,-1.036 -1.022,-1.469 -0.988,-1.266 -1.955,-2.101 -2.923,-2.937 l -0.696,-0.247 c -0.696,-0.246 -2.088,-0.738 -3.308,-0.2 -0.696,0.308 -1.335,0.95 -2.154,1.91 -0.617,0.722 -1.333,1.624 -2.252,2.699 C 4.961,-5.658 1.73,-2.225 0,0" inkscape:connector-curvature="0"/></g><g transform="translate(225.918,293.7261)" id="g124"><path id="path126" style="fill:none;stroke:#2f1305;stroke-width:1.5;stroke-linecap:butt;stroke-linejoin:miter;stroke-miterlimit:2.61299992;stroke-dasharray:none;stroke-opacity:1" d="m 0,0 c -1.729,2.226 -1.961,3.243 -2.192,4.26 3.525,2.225 7.05,4.45 10.349,5.623 0.363,0.128 0.723,0.245 1.079,0.347 3.604,1.031 6.9,0.623 8.943,-0.141 2.043,-0.762 2.834,-1.881 3.526,-3.513 0.693,-1.632 1.288,-3.778 0.889,-6.451 -0.356,-2.38 -1.498,-5.179 -2.696,-7.29 -0.147,-0.261 -0.296,-0.512 -0.444,-0.75 -0.344,-0.552 -0.684,-1.036 -1.022,-1.469 -0.988,-1.266 -1.955,-2.101 -2.923,-2.937 l -0.696,-0.247 c -0.696,-0.246 -2.088,-0.738 -3.308,-0.2 -0.696,0.308 -1.335,0.95 -2.154,1.91 -0.617,0.722 -1.333,1.624 -2.252,2.699 C 4.961,-5.658 1.73,-2.225 0,0 Z" inkscape:connector-curvature="0"/></g><g transform="translate(189.5161,247.876)" id="g128"><path id="path130" style="fill:none;stroke:#2f1305;stroke-width:1.5;stroke-linecap:round;stroke-linejoin:round;stroke-miterlimit:2.61299992;stroke-dasharray:none;stroke-opacity:1" d="m 0,0 c 0.223,-2.203 0.446,-4.405 0.368,-5.962 -0.079,-1.558 -0.459,-2.472 -1.715,-3.195 -1.256,-0.722 -3.386,-1.255 -5.251,-1.293 -1.864,-0.038 -3.463,0.418 -4.642,1.331 -1.179,0.914 -1.94,2.284 -2.701,3.653" inkscape:connector-curvature="0"/></g><g transform="translate(189.4937,240.0552)" id="g132"><path id="path134" style="fill:none;stroke:#2f1305;stroke-width:1.5;stroke-linecap:round;stroke-linejoin:round;stroke-miterlimit:2.61299992;stroke-dasharray:none;stroke-opacity:1" d="m 0,0 c 1.372,-1.346 2.744,-2.691 4.572,-3.402 1.827,-0.711 4.111,-0.787 6.152,-0.099 2.04,0.689 3.839,2.143 4.99,3.443 1.151,1.301 1.655,2.449 2.159,3.597" inkscape:connector-curvature="0"/></g><g transform="translate(194.0659,236.6528)" id="g136"><path id="path138" style="fill:#000000;fill-opacity:1;fill-rule:evenodd;stroke:none" d="M 0,0 C -1.828,0.711 -3.2,2.057 -4.572,3.402 -4.833,2.865 -5.248,2.44 -5.896,2.066 -7.152,1.344 -9.283,0.811 -11.147,0.773 c -0.412,-0.009 -0.81,0.007 -1.193,0.046 0.368,-0.119 0.716,-0.31 1.027,-0.635 0.647,-0.68 1.129,-1.948 1.237,-3.172 0.108,-1.223 -0.158,-2.403 -0.577,-3.088 -0.419,-0.685 -0.989,-0.875 -1.332,-1.008 -0.342,-0.134 -0.456,-0.209 0.761,-0.514 3.828,-0.956 7.131,-1.552 11.073,-1.313 9.096,0.553 5.739,6.13 12.234,13.484 C 9.669,1.272 7.934,0.683 6.089,-0.026 4.111,-0.787 1.827,-0.711 0,0" inkscape:connector-curvature="0"/></g><g transform="translate(194.0659,236.6528)" id="g140"><path id="path142" style="fill:none;stroke:#2f1305;stroke-width:1.5;stroke-linecap:butt;stroke-linejoin:miter;stroke-miterlimit:2.61299992;stroke-dasharray:none;stroke-opacity:1" d="M 0,0 C -1.828,0.711 -3.2,2.057 -4.572,3.402 -4.833,2.865 -5.248,2.44 -5.896,2.066 -7.152,1.344 -9.283,0.811 -11.147,0.773 c -0.412,-0.009 -0.81,0.007 -1.193,0.046 0.368,-0.119 0.716,-0.31 1.027,-0.635 0.647,-0.68 1.129,-1.948 1.237,-3.172 0.108,-1.223 -0.158,-2.403 -0.577,-3.088 -0.419,-0.685 -0.989,-0.875 -1.332,-1.008 -0.342,-0.134 -0.456,-0.209 0.761,-0.514 3.828,-0.956 7.131,-1.552 11.073,-1.313 9.096,0.553 5.739,6.13 12.234,13.484 C 9.669,1.272 7.934,0.683 6.089,-0.026 4.111,-0.787 1.827,-0.711 0,0 Z" inkscape:connector-curvature="0"/></g><g transform="translate(227.7852,291.4844)" id="g144"><path id="path146" style="fill:#d46728;fill-opacity:1;fill-rule:evenodd;stroke:none" d="M 0,0 C -1.117,1.437 -1.267,2.094 -1.416,2.75 0.86,4.187 3.136,5.623 5.266,6.38 5.5,6.463 5.732,6.538 5.962,6.604 8.289,7.27 10.416,7.007 11.735,6.514 13.054,6.021 13.564,5.299 14.012,4.245 14.459,3.191 14.844,1.807 14.586,0.081 14.356,-1.456 13.618,-3.262 12.846,-4.625 12.75,-4.794 12.654,-4.956 12.559,-5.109 12.337,-5.466 12.116,-5.778 11.898,-6.058 11.261,-6.875 10.637,-7.415 10.012,-7.955 L 9.563,-8.113 C 9.113,-8.272 8.215,-8.59 7.427,-8.242 6.978,-8.044 6.564,-7.629 6.036,-7.01 5.639,-6.543 5.176,-5.96 4.583,-5.268 3.202,-3.652 1.117,-1.437 0,0" inkscape:connector-curvature="0"/></g><g transform="translate(227.7852,291.4844)" id="g148"><path id="path150" style="fill:none;stroke:#2f1305;stroke-width:1.5;stroke-linecap:butt;stroke-linejoin:miter;stroke-miterlimit:2.61299992;stroke-dasharray:none;stroke-opacity:1" d="M 0,0 C -1.117,1.437 -1.267,2.094 -1.416,2.75 0.86,4.187 3.136,5.623 5.266,6.38 5.5,6.463 5.732,6.538 5.962,6.604 8.289,7.27 10.416,7.007 11.735,6.514 13.054,6.021 13.564,5.299 14.012,4.245 14.459,3.191 14.844,1.807 14.586,0.081 14.356,-1.456 13.618,-3.262 12.846,-4.625 12.75,-4.794 12.654,-4.956 12.559,-5.109 12.337,-5.466 12.116,-5.778 11.898,-6.058 11.261,-6.875 10.637,-7.415 10.012,-7.955 L 9.563,-8.113 C 9.113,-8.272 8.215,-8.59 7.427,-8.242 6.978,-8.044 6.564,-7.629 6.036,-7.01 5.639,-6.543 5.176,-5.96 4.583,-5.268 3.202,-3.652 1.117,-1.437 0,0 Z" inkscape:connector-curvature="0"/></g><g transform="translate(173.5728,297.9121)" id="g152"><path id="path154" style="fill:#e98622;fill-opacity:1;fill-rule:evenodd;stroke:none" d="m 0,0 c 1.92,2.044 2.244,3.031 2.567,4.017 -3.286,2.531 -6.572,5.063 -9.732,6.53 -0.347,0.161 -0.693,0.31 -1.037,0.444 -3.475,1.355 -6.777,1.257 -8.872,0.69 -2.094,-0.567 -2.982,-1.602 -3.82,-3.154 -0.837,-1.553 -1.626,-3.623 -1.479,-6.309 0.132,-2.391 1.005,-5.269 1.995,-7.472 0.123,-0.272 0.247,-0.534 0.372,-0.784 0.289,-0.579 0.581,-1.089 0.876,-1.55 0.86,-1.346 1.742,-2.264 2.623,-3.182 l 0.667,-0.308 c 0.666,-0.308 2,-0.925 3.258,-0.505 0.719,0.24 1.412,0.817 2.311,1.692 0.678,0.659 1.472,1.486 2.482,2.466 C -5.438,-5.146 -1.921,-2.044 0,0" inkscape:connector-curvature="0"/></g><g transform="translate(173.5728,297.9121)" id="g156"><path id="path158" style="fill:none;stroke:#2f1305;stroke-width:1.5;stroke-linecap:butt;stroke-linejoin:miter;stroke-miterlimit:2.61299992;stroke-dasharray:none;stroke-opacity:1" d="m 0,0 c 1.92,2.044 2.244,3.031 2.567,4.017 -3.286,2.531 -6.572,5.063 -9.732,6.53 -0.347,0.161 -0.693,0.31 -1.037,0.444 -3.475,1.355 -6.777,1.257 -8.872,0.69 -2.094,-0.567 -2.982,-1.602 -3.82,-3.154 -0.837,-1.553 -1.626,-3.623 -1.479,-6.309 0.132,-2.391 1.005,-5.269 1.995,-7.472 0.123,-0.272 0.247,-0.534 0.372,-0.784 0.289,-0.579 0.581,-1.089 0.876,-1.55 0.86,-1.346 1.742,-2.264 2.623,-3.182 l 0.667,-0.308 c 0.666,-0.308 2,-0.925 3.258,-0.505 0.719,0.24 1.412,0.817 2.311,1.692 0.678,0.659 1.472,1.486 2.482,2.466 C -5.438,-5.146 -1.921,-2.044 0,0 Z" inkscape:connector-curvature="0"/></g><g transform="translate(171.9004,296.0913)" id="g160"><path id="path162" style="fill:#d46728;fill-opacity:1;fill-rule:evenodd;stroke:none" d="m 0,0 c 1.255,1.317 1.469,1.956 1.684,2.594 -2.121,1.657 -4.242,3.314 -6.285,4.281 -0.225,0.105 -0.448,0.204 -0.671,0.292 -2.249,0.895 -4.391,0.846 -5.752,0.488 -1.362,-0.359 -1.943,-1.027 -2.493,-2.03 -0.55,-1.003 -1.071,-2.343 -0.988,-4.086 0.075,-1.552 0.629,-3.423 1.261,-4.857 0.078,-0.177 0.158,-0.348 0.237,-0.51 0.186,-0.377 0.373,-0.71 0.562,-1.01 0.553,-0.876 1.12,-1.476 1.688,-2.075 l 0.431,-0.204 c 0.431,-0.202 1.294,-0.609 2.112,-0.341 0.467,0.152 0.919,0.523 1.507,1.087 0.442,0.424 0.961,0.957 1.621,1.588 C -3.551,-3.314 -1.255,-1.317 0,0" inkscape:connector-curvature="0"/></g><g transform="translate(171.9004,296.0913)" id="g164"><path id="path166" style="fill:none;stroke:#2f1305;stroke-width:1.5;stroke-linecap:butt;stroke-linejoin:miter;stroke-miterlimit:2.61299992;stroke-dasharray:none;stroke-opacity:1" d="m 0,0 c 1.255,1.317 1.469,1.956 1.684,2.594 -2.121,1.657 -4.242,3.314 -6.285,4.281 -0.225,0.105 -0.448,0.204 -0.671,0.292 -2.249,0.895 -4.391,0.846 -5.752,0.488 -1.362,-0.359 -1.943,-1.027 -2.493,-2.03 -0.55,-1.003 -1.071,-2.343 -0.988,-4.086 0.075,-1.552 0.629,-3.423 1.261,-4.857 0.078,-0.177 0.158,-0.348 0.237,-0.51 0.186,-0.377 0.373,-0.71 0.562,-1.01 0.553,-0.876 1.12,-1.476 1.688,-2.075 l 0.431,-0.204 c 0.431,-0.202 1.294,-0.609 2.112,-0.341 0.467,0.152 0.919,0.523 1.507,1.087 0.442,0.424 0.961,0.957 1.621,1.588 C -3.551,-3.314 -1.255,-1.317 0,0 Z" inkscape:connector-curvature="0"/></g><g transform="translate(160.0571,289.5508)" id="g168"><path id="path170" style="fill:#6e2512;fill-opacity:1;fill-rule:evenodd;stroke:none" d="m 0,0 c -0.981,-1.251 -1.899,-2.485 -2.657,-3.501 0.747,-0.342 2.334,-0.819 3.35,-0.479 1.016,0.339 2.022,-0.04 2.983,0.895 0.274,0.266 0.565,0.558 0.88,0.875 0.347,0.21 0.71,0.527 1.141,0.94 0.473,0.454 0.902,0.576 2.075,1.698 1.172,1.122 4.01,4.271 4.865,5.168 0.855,0.898 0.653,0.719 0.877,1.012 0.329,0.329 -0.254,-0.305 0.91,0.934 1.163,1.239 2.113,4.095 2.458,5.149 -0.765,0.59 -1.531,1.179 -2.295,1.757 -1.478,-0.904 -2.873,-1.76 -4.058,-2.496 C 9.511,11.32 8.647,10.777 8.017,10.368 6.167,9.169 6.329,9.128 7.102,9.067 7.875,9.006 9.257,8.925 8.891,8.417 8.525,7.908 6.411,6.973 3.91,4.513 2.638,3.261 1.266,1.615 0,0" inkscape:connector-curvature="0"/></g><g transform="translate(176.8052,305.2915)" id="g172"><path id="path174" style="fill:none;stroke:#2f1305;stroke-width:1.5;stroke-linecap:round;stroke-linejoin:round;stroke-miterlimit:2.61299992;stroke-dasharray:none;stroke-opacity:1" d="m 0,0 c -3.615,-2.207 -7.229,-4.414 -8.96,-5.536 -1.732,-1.123 -1.58,-1.161 -0.857,-1.218 0.723,-0.057 2.017,-0.133 1.674,-0.608 -0.342,-0.476 -2.321,-1.351 -4.661,-3.653 -2.34,-2.302 -5.041,-6.031 -6.639,-8.162 -1.599,-2.131 -2.093,-2.663 -2.549,-3.063 -0.457,-0.4 -0.876,-0.666 0.761,-0.437 1.635,0.228 5.326,0.951 9.017,1.674" inkscape:connector-curvature="0"/></g><g transform="translate(238.3447,283.4219)" id="g176"><path id="path178" style="fill:#6e2512;fill-opacity:1;fill-rule:evenodd;stroke:none" d="M 0,0 C 0.981,-1.252 1.899,-2.485 2.657,-3.502 1.91,-3.844 0.323,-4.32 -0.693,-3.98 c -1.017,0.339 -2.022,-0.041 -2.984,0.895 -0.273,0.266 -0.564,0.558 -0.88,0.875 -0.346,0.21 -0.71,0.527 -1.14,0.94 -0.473,0.454 -0.902,0.576 -2.074,1.698 -1.173,1.121 -4.011,4.271 -4.866,5.168 -0.855,0.897 -0.654,0.719 -0.877,1.011 -0.329,0.329 0.253,-0.304 -0.91,0.935 -1.164,1.238 -2.113,4.095 -2.458,5.149 0.765,0.589 1.53,1.179 2.295,1.757 1.478,-0.904 2.872,-1.76 4.058,-2.497 1.018,-0.632 1.882,-1.175 2.512,-1.583 1.85,-1.2 1.688,-1.241 0.915,-1.302 C -7.874,9.005 -9.257,8.924 -8.892,8.416 -8.525,7.908 -6.41,6.973 -3.91,4.512 -2.638,3.261 -1.266,1.615 0,0" inkscape:connector-curvature="0"/></g><g transform="translate(221.5967,299.1621)" id="g180"><path id="path182" style="fill:none;stroke:#2f1305;stroke-width:1.5;stroke-linecap:round;stroke-linejoin:round;stroke-miterlimit:2.61299992;stroke-dasharray:none;stroke-opacity:1" d="M 0,0 C 3.614,-2.207 7.229,-4.414 8.96,-5.536 10.691,-6.658 10.539,-6.697 9.816,-6.754 9.094,-6.811 7.8,-6.887 8.143,-7.362 c 0.341,-0.476 2.321,-1.351 4.661,-3.653 2.34,-2.302 5.041,-6.031 6.639,-8.162 1.598,-2.131 2.093,-2.663 2.549,-3.063 0.457,-0.399 0.876,-0.665 -0.761,-0.437 -1.635,0.228 -5.327,0.951 -9.017,1.674" inkscape:connector-curvature="0"/></g><g transform="translate(196.2588,304.7861)" id="g184"><path id="path186" style="fill:#6e2512;fill-opacity:1;fill-rule:evenodd;stroke:none" d="m 0,0 c -3.046,0.288 -6.711,0.458 -9.157,0.095 -2.446,-0.362 -3.674,-1.258 -4.847,-3.602 -1.175,-2.344 -2.295,-6.135 -0.355,-10.63 1.94,-4.494 6.941,-9.691 8.986,-11.227 2.044,-1.535 1.134,0.59 1.033,3.22 -0.102,2.631 0.607,5.768 1.501,8.567 0.894,2.8 1.974,5.262 5.166,6.41 3.192,1.149 8.496,0.985 11.634,0.83 3.139,-0.156 4.11,-0.304 2.74,0.571 -1.371,0.875 -5.085,2.772 -8.156,3.923 C 5.475,-0.692 3.046,-0.288 0,0" inkscape:connector-curvature="0"/></g><g transform="translate(196.2588,304.7861)" id="g188"><path id="path190" style="fill:none;stroke:#2f1305;stroke-width:1.5;stroke-linecap:butt;stroke-linejoin:miter;stroke-miterlimit:2.61299992;stroke-dasharray:none;stroke-opacity:1" d="m 0,0 c -3.046,0.288 -6.711,0.458 -9.157,0.095 -2.446,-0.362 -3.674,-1.258 -4.847,-3.602 -1.175,-2.344 -2.295,-6.135 -0.355,-10.63 1.94,-4.494 6.941,-9.691 8.986,-11.227 2.044,-1.535 1.134,0.59 1.033,3.22 -0.102,2.631 0.607,5.768 1.501,8.567 0.894,2.8 1.974,5.262 5.166,6.41 3.192,1.149 8.496,0.985 11.634,0.83 3.139,-0.156 4.11,-0.304 2.74,0.571 -1.371,0.875 -5.085,2.772 -8.156,3.923 C 5.475,-0.692 3.046,-0.288 0,0 Z" inkscape:connector-curvature="0"/></g><g transform="translate(204.3062,302.9253)" id="g192"><path id="path194" style="fill:#6e2512;fill-opacity:1;fill-rule:evenodd;stroke:none" d="m 0,0 c -1.917,0.385 -4.234,0.737 -5.812,0.669 -1.579,-0.068 -2.418,-0.556 -3.32,-1.967 -0.902,-1.411 -1.865,-3.746 -0.931,-6.731 0.935,-2.985 3.767,-6.619 4.964,-7.731 1.198,-1.112 0.76,0.299 0.87,1.978 0.111,1.678 0.77,3.624 1.523,5.344 0.754,1.719 1.604,3.212 3.709,3.73 2.105,0.518 5.464,0.062 7.448,-0.246 1.984,-0.307 2.591,-0.465 1.778,0.181 C 9.417,-4.125 7.183,-2.674 5.308,-1.738 3.433,-0.803 1.917,-0.385 0,0" inkscape:connector-curvature="0"/></g><g transform="translate(204.3062,302.9253)" id="g196"><path id="path198" style="fill:none;stroke:#2f1305;stroke-width:1.5;stroke-linecap:butt;stroke-linejoin:miter;stroke-miterlimit:2.61299992;stroke-dasharray:none;stroke-opacity:1" d="m 0,0 c -1.917,0.385 -4.234,0.737 -5.812,0.669 -1.579,-0.068 -2.418,-0.556 -3.32,-1.967 -0.902,-1.411 -1.865,-3.746 -0.931,-6.731 0.935,-2.985 3.767,-6.619 4.964,-7.731 1.198,-1.112 0.76,0.299 0.87,1.978 0.111,1.678 0.77,3.624 1.523,5.344 0.754,1.719 1.604,3.212 3.709,3.73 2.105,0.518 5.464,0.062 7.448,-0.246 1.984,-0.307 2.591,-0.465 1.778,0.181 C 9.417,-4.125 7.183,-2.674 5.308,-1.738 3.433,-0.803 1.917,-0.385 0,0 Z" inkscape:connector-curvature="0"/></g><g transform="translate(199.3091,236.1714)" id="g200"><path id="path202" style="fill:#ffffff;fill-opacity:1;fill-rule:evenodd;stroke:none" d="m 0,0 c -0.069,-0.732 -0.139,-1.372 -0.208,-1.774 -0.113,-0.657 -0.224,-0.681 -0.563,0.084 -0.162,0.366 -0.376,0.913 -0.558,1.503 C -0.88,-0.159 -0.435,-0.096 0,0" inkscape:connector-curvature="0"/></g><g transform="translate(199.3091,236.1714)" id="g204"><path id="path206" style="fill:none;stroke:#2f1305;stroke-width:0.21600001;stroke-linecap:butt;stroke-linejoin:miter;stroke-miterlimit:2.61299992;stroke-dasharray:none;stroke-opacity:1" d="m 0,0 c -0.069,-0.732 -0.139,-1.372 -0.208,-1.774 -0.113,-0.657 -0.224,-0.681 -0.563,0.084 -0.162,0.366 -0.376,0.913 -0.558,1.503 C -0.88,-0.159 -0.435,-0.096 0,0 Z" inkscape:connector-curvature="0"/></g><g transform="translate(183.2778,237.4219)" id="g208"><path id="path210" style="fill:#ffffff;fill-opacity:1;fill-rule:evenodd;stroke:none" d="m 0,0 c 0.221,-0.702 0.422,-1.313 0.574,-1.692 0.247,-0.619 0.362,-0.619 0.533,0.2 C 1.189,-1.1 1.284,-0.521 1.339,0.094 0.894,0.028 0.446,-0.003 0,0" inkscape:connector-curvature="0"/></g><g transform="translate(183.2778,237.4219)" id="g212"><path id="path214" style="fill:none;stroke:#2f1305;stroke-width:0.21600001;stroke-linecap:butt;stroke-linejoin:miter;stroke-miterlimit:2.61299992;stroke-dasharray:none;stroke-opacity:1" d="m 0,0 c 0.221,-0.702 0.422,-1.313 0.574,-1.692 0.247,-0.619 0.362,-0.619 0.533,0.2 C 1.189,-1.1 1.284,-0.521 1.339,0.094 0.894,0.028 0.446,-0.003 0,0 Z" inkscape:connector-curvature="0"/></g><g transform="translate(205.0825,244.6777)" id="g216"><path id="path218" style="fill:none;stroke:#2f1305;stroke-width:1.5;stroke-linecap:round;stroke-linejoin:round;stroke-miterlimit:2.61299992;stroke-dasharray:none;stroke-opacity:1" d="m 0,0 c 0.445,-0.017 0.889,-0.033 1.371,-0.183 0.481,-0.15 1,-0.432 1.431,-0.869 0.43,-0.436 0.774,-1.028 1.117,-1.619" inkscape:connector-curvature="0"/></g><g transform="translate(200.3472,230.7119)" id="g220"><path id="path222" style="fill:#881d1a;fill-opacity:1;fill-rule:evenodd;stroke:none" d="m 0,0 c -1.664,1.795 -4.24,1.355 -7.705,1.355 -3.465,0 -6.896,-0.493 -8.141,-3.409 3.154,-0.717 6.052,-1.12 9.413,-0.916 C -2.718,-2.744 -1.08,-1.681 0,0" inkscape:connector-curvature="0"/></g><g transform="translate(200.3472,230.7119)" id="g224"><path id="path226" style="fill:none;stroke:#2f1305;stroke-width:0.21600001;stroke-linecap:butt;stroke-linejoin:miter;stroke-miterlimit:2.61299992;stroke-dasharray:none;stroke-opacity:1" d="m 0,0 c -1.664,1.795 -4.24,1.355 -7.705,1.355 -3.465,0 -6.896,-0.493 -8.141,-3.409 3.154,-0.717 6.052,-1.12 9.413,-0.916 C -2.718,-2.744 -1.08,-1.681 0,0 Z" inkscape:connector-curvature="0"/></g><g transform="translate(206.23,259.2314)" id="g228"><path id="path230" style="fill:none;stroke:#2f1305;stroke-width:1.5;stroke-linecap:round;stroke-linejoin:round;stroke-miterlimit:2.61299992;stroke-dasharray:none;stroke-opacity:1" d="m 0,0 c 2.267,0.514 4.534,1.027 6.467,1.284 1.932,0.257 3.531,0.257 5.128,0.257" inkscape:connector-curvature="0"/></g><g transform="translate(181.2178,259.0332)" id="g232"><path id="path234" style="fill:none;stroke:#2f1305;stroke-width:1.5;stroke-linecap:round;stroke-linejoin:round;stroke-miterlimit:2.61299992;stroke-dasharray:none;stroke-opacity:1" d="m 0,0 c -2.128,0.415 -4.256,0.83 -6.119,1.037 -1.863,0.208 -3.462,0.208 -5.06,0.208" inkscape:connector-curvature="0"/></g><g transform="translate(184.1841,270.9316)" id="g236"><path id="path238" style="fill:none;stroke:#2f1305;stroke-width:1.5;stroke-linecap:round;stroke-linejoin:round;stroke-miterlimit:2.61299992;stroke-dasharray:none;stroke-opacity:1" d="m 0,0 c 0.185,-1.313 0.369,-2.626 0.271,-4.558 -0.098,-1.93 -0.479,-4.48 -1.635,-6.455 -1.156,-1.975 -3.087,-3.376 -3.287,-4.546 -0.2,-1.169 1.331,-2.106 2.862,-3.044" inkscape:connector-curvature="0"/></g><g transform="translate(169.123,113.3975)" id="g240"><path id="path242" style="fill:none;stroke:#2f1305;stroke-width:1.5;stroke-linecap:round;stroke-linejoin:round;stroke-miterlimit:2.61299992;stroke-dasharray:none;stroke-opacity:1" d="m 0,0 c -1.812,-0.531 -3.625,-1.062 -4.832,-1.955 -1.207,-0.894 -1.807,-2.149 -1.984,-3.508 -0.177,-1.36 0.07,-2.825 0.72,-3.585 0.649,-0.76 1.7,-0.813 2.75,-0.868" inkscape:connector-curvature="0"/></g><g transform="translate(223.1934,171.2119)" id="g244"><path id="path246" style="fill:#e98622;fill-opacity:1;fill-rule:evenodd;stroke:none" d="m 0,0 c 0.209,-1.008 0.202,-4.182 0.275,-8.185 0.073,-4.002 0.225,-8.835 -0.421,-11.574 -0.648,-2.739 -2.093,-3.386 -4.7,-3.766 -2.606,-0.381 -6.373,-0.496 -8.086,-0.4 -1.712,0.095 -1.369,0.4 -1.117,0.68 0.252,0.281 0.414,0.538 0.494,0.754 0.08,0.217 0.079,0.392 0.015,0.571 -0.064,0.179 -0.191,0.359 -0.482,0.353 -0.291,-0.007 -0.744,-0.202 -1.027,-0.147 -0.284,0.055 -0.396,0.359 -0.262,0.7 0.135,0.342 0.515,0.723 1.39,1.54 0.875,0.819 2.245,2.075 3.767,3.863 1.522,1.789 3.196,4.109 4.737,6.583 1.541,2.472 2.949,5.098 3.866,6.989 C -0.635,-0.148 -0.21,1.009 0,0" inkscape:connector-curvature="0"/></g><g transform="translate(171.8926,172.873)" id="g248"><path id="path250" style="fill:#e98622;fill-opacity:1;fill-rule:evenodd;stroke:none" d="m 0,0 c -0.32,-1.203 -0.68,-6.204 -0.826,-10.928 -0.146,-4.722 -0.077,-9.168 0.68,-11.714 0.757,-2.545 2.204,-3.192 4.81,-3.572 2.606,-0.381 6.373,-0.495 7.984,-0.309 1.612,0.185 1.067,0.67 0.823,1.037 -0.245,0.366 -0.191,0.614 -0.17,0.74 0.021,0.126 0.008,0.131 0.082,0.181 0.074,0.048 0.236,0.143 0.547,0.194 0.312,0.051 0.773,0.059 1.038,0.156 0.266,0.098 0.336,0.286 0.181,0.57 -0.155,0.285 -0.535,0.666 -1.41,1.483 -0.875,0.818 -2.245,2.074 -3.767,3.862 -1.522,1.788 -3.196,4.11 -4.738,6.583 -1.54,2.473 -2.948,5.099 -3.792,7.71 C 0.599,-1.396 0.32,1.202 0,0" inkscape:connector-curvature="0"/></g><g id="g252"><g id="g254"/><g id="g266"><g style="opacity:0.35000604" id="g264" clip-path="url(#clipPath258)"><g id="g262" transform="translate(262.0967,207.1748)"><path id="path260" style="fill:#ffffff;fill-opacity:1;fill-rule:evenodd;stroke:none" d="m 0,0 c 3.169,-0.301 5.656,-1.41 5.555,-2.478 -0.102,-1.066 -2.753,-1.687 -5.922,-1.385 -3.17,0.3 -5.656,1.41 -5.556,2.476 C -5.821,-0.319 -3.17,0.302 0,0" inkscape:connector-curvature="0"/></g></g></g></g><g transform="translate(251.8115,112.5469)" id="g268"><path id="path270" style="fill:#6e2512;fill-opacity:1;fill-rule:evenodd;stroke:none" d="m 0,0 c -4.263,1.584 -5.893,4.065 -4.509,8.135 -2.39,5.293 1.793,10.095 8.918,8.218 0.434,-0.079 0.875,-0.19 1.322,-0.335 0.331,-0.108 0.663,-0.233 0.997,-0.373 0.231,-0.078 0.454,-0.155 0.668,-0.228 1.733,-0.597 2.849,-1.005 4.049,-1.185 1.2,-0.179 2.482,-0.131 3.359,0.116 0.877,0.248 1.347,0.693 1.455,0.656 C 16.366,14.967 16.11,14.447 14.663,12.671 14.366,12.307 14.021,11.89 13.634,11.442 15.11,10.408 16.186,9.677 17.393,9.126 18.821,8.474 20.436,8.077 21.614,8.072 22.794,8.067 23.54,8.454 23.66,8.37 23.78,8.286 23.277,7.73 20.841,6.034 15.129,2.058 7.147,-2.656 0,0" inkscape:connector-curvature="0"/></g><g transform="translate(251.8115,112.5469)" id="g272"><path id="path274" style="fill:none;stroke:#2f1305;stroke-width:1.5;stroke-linecap:butt;stroke-linejoin:miter;stroke-miterlimit:2.61299992;stroke-dasharray:none;stroke-opacity:1" d="m 0,0 c -4.263,1.584 -5.893,4.065 -4.509,8.135 -2.39,5.293 1.793,10.095 8.918,8.218 0.434,-0.079 0.875,-0.19 1.322,-0.335 0.331,-0.108 0.663,-0.233 0.997,-0.373 0.231,-0.078 0.454,-0.155 0.668,-0.228 1.733,-0.597 2.849,-1.005 4.049,-1.185 1.2,-0.179 2.482,-0.131 3.359,0.116 0.877,0.248 1.347,0.693 1.455,0.656 C 16.366,14.967 16.11,14.447 14.663,12.671 14.366,12.307 14.021,11.89 13.634,11.442 15.11,10.408 16.186,9.677 17.393,9.126 18.821,8.474 20.436,8.077 21.614,8.072 22.794,8.067 23.54,8.454 23.66,8.37 23.78,8.286 23.277,7.73 20.841,6.034 15.129,2.058 7.147,-2.656 0,0 Z" inkscape:connector-curvature="0"/></g><g transform="translate(203.9355,279.3208)" id="g276"><path id="path278" style="fill:#2f1305;fill-opacity:1;fill-rule:evenodd;stroke:none" d="m 0,0 c -0.512,-0.188 -0.69,-0.104 -1.151,0.221 -0.46,0.325 -1.204,0.892 -1.327,1.432 -0.123,0.54 0.374,1.052 1.277,1.619 0.905,0.567 2.216,1.188 4.127,1.853 1.912,0.664 4.424,1.372 7.106,0.112 2.682,-1.26 5.533,-4.487 6.893,-6.234 1.358,-1.747 1.225,-2.013 -0.309,-0.99 C 15.083,-0.964 12.149,1.349 9.514,2.079 6.879,2.81 4.542,1.958 2.95,1.302 1.358,0.646 0.513,0.187 0,0" inkscape:connector-curvature="0"/></g><g transform="translate(184.8174,279.3208)" id="g280"><path id="path282" style="fill:#2f1305;fill-opacity:1;fill-rule:evenodd;stroke:none" d="M 0,0 C 0.512,-0.188 0.69,-0.104 1.151,0.221 1.612,0.546 2.355,1.113 2.478,1.653 2.601,2.193 2.104,2.705 1.201,3.272 0.296,3.839 -1.014,4.46 -2.926,5.125 c -1.912,0.664 -4.424,1.372 -7.106,0.112 -2.682,-1.26 -5.533,-4.487 -6.893,-6.234 -1.359,-1.747 -1.225,-2.013 0.308,-0.99 1.534,1.023 4.468,3.336 7.103,4.066 C -6.879,2.81 -4.542,1.958 -2.95,1.302 -1.358,0.646 -0.512,0.187 0,0" inkscape:connector-curvature="0"/></g><g transform="translate(210.646,273.5332)" id="g284"><path id="path286" style="fill:#ffffff;fill-opacity:1;fill-rule:evenodd;stroke:none" d="m 0,0 c 8.295,1.516 10.785,-9.562 6.54,-13.593 0,0 -3.479,0.15 -5.159,0.062 -1.656,-0.087 -4.455,-0.503 -4.455,-0.503 C -4.967,-12.847 -8.26,-1.509 0,0" inkscape:connector-curvature="0"/></g><g transform="translate(210.646,273.5332)" id="g288"><path id="path290" style="fill:none;stroke:#2f1305;stroke-width:1.5;stroke-linecap:butt;stroke-linejoin:miter;stroke-miterlimit:2.61299992;stroke-dasharray:none;stroke-opacity:1" d="m 0,0 c 8.295,1.516 10.785,-9.562 6.54,-13.593 0,0 -3.479,0.15 -5.159,0.062 -1.656,-0.087 -4.455,-0.503 -4.455,-0.503 C -4.967,-12.847 -8.26,-1.509 0,0 Z" inkscape:connector-curvature="0"/></g><g transform="translate(208.8584,262.3604)" id="g292"><path id="path294" style="fill:#2f1305;fill-opacity:1;fill-rule:evenodd;stroke:none" d="M 0,0 C -0.758,2.568 0.663,5.338 3.176,6.186 5.687,7.034 8.337,5.639 9.095,3.07 9.65,1.186 9.033,-0.808 7.673,-2.07 6.601,-1.695 5.357,-1.587 3.944,-1.845 3.133,-1.993 2.435,-2.237 1.835,-2.556 0.985,-1.971 0.322,-1.091 0,0" inkscape:connector-curvature="0"/></g><g transform="translate(211.6689,266.7324)" id="g296"><path id="path298" style="fill:#ffffff;fill-opacity:1;fill-rule:evenodd;stroke:none" d="m 0,0 c 0.346,-0.086 0.519,-0.622 0.386,-1.196 -0.132,-0.574 -0.52,-0.97 -0.865,-0.883 -0.346,0.087 -0.519,0.622 -0.387,1.196 C -0.733,-0.309 -0.346,0.087 0,0" inkscape:connector-curvature="0"/></g><g transform="translate(176.6235,273.6826)" id="g300"><path id="path302" style="fill:#ffffff;fill-opacity:1;fill-rule:evenodd;stroke:none" d="m 0,0 c 8.423,0.423 9.448,-10.885 4.713,-14.329 0,0 -3.429,0.601 -5.106,0.733 -1.653,0.13 -4.482,0.082 -4.482,0.082 C -6.598,-12.09 -8.386,-0.421 0,0" inkscape:connector-curvature="0"/></g><g transform="translate(176.6235,273.6826)" id="g304"><path id="path306" style="fill:none;stroke:#2f1305;stroke-width:1.5;stroke-linecap:butt;stroke-linejoin:miter;stroke-miterlimit:2.61299992;stroke-dasharray:none;stroke-opacity:1" d="m 0,0 c 8.423,0.423 9.448,-10.885 4.713,-14.329 0,0 -3.429,0.601 -5.106,0.733 -1.653,0.13 -4.482,0.082 -4.482,0.082 C -6.598,-12.09 -8.386,-0.421 0,0 Z" inkscape:connector-curvature="0"/></g><g transform="translate(174.144,262.7646)" id="g308"><path id="path310" style="fill:#2f1305;fill-opacity:1;fill-rule:evenodd;stroke:none" d="M 0,0 C -0.417,2.646 1.353,5.207 3.954,5.72 6.555,6.233 9.001,4.505 9.417,1.86 9.723,-0.082 8.852,-1.977 7.338,-3.052 6.324,-2.54 5.105,-2.271 3.67,-2.343 2.847,-2.384 2.124,-2.535 1.487,-2.773 0.721,-2.082 0.177,-1.124 0,0" inkscape:connector-curvature="0"/></g><g transform="translate(177.5005,266.7334)" id="g312"><path id="path314" style="fill:#ffffff;fill-opacity:1;fill-rule:evenodd;stroke:none" d="M 0,0 C 0.332,-0.13 0.433,-0.684 0.227,-1.236 0.021,-1.788 -0.415,-2.129 -0.746,-1.999 -1.078,-1.868 -1.179,-1.314 -0.974,-0.762 -0.768,-0.21 -0.332,0.131 0,0" inkscape:connector-curvature="0"/></g><g transform="translate(199.6641,255.1016)" id="g316"><path id="path318" style="fill:#2f1305;fill-opacity:1;fill-rule:evenodd;stroke:none" d="m 0,0 c -2.423,0.386 -7.503,0.494 -11.465,0.491 -3.962,-0.003 -6.806,-0.118 -8.209,-0.354 -1.402,-0.236 -1.362,-0.593 0.076,-1.918 1.438,-1.325 4.274,-3.618 6.146,-4.819 1.872,-1.201 2.782,-1.311 3.645,-1.234 0.863,0.077 1.68,0.341 2.921,0.876 1.241,0.535 2.908,1.342 4.452,2.261 1.545,0.919 2.969,1.951 3.797,2.799 C 2.191,-1.05 2.423,-0.386 0,0" inkscape:connector-curvature="0"/></g><g transform="translate(270.8643,225.1875)" id="g320"><path id="path322" style="fill:#6f83c1;fill-opacity:1;fill-rule:nonzero;stroke:none" d="m 0,0 -5.117,-10.911 -0.153,0.08 5.119,10.91 z" inkscape:connector-curvature="0"/></g><g transform="translate(290.5439,262.3716)" id="g324"><path id="path326" style="fill:#6f83c1;fill-opacity:1;fill-rule:nonzero;stroke:none" d="m 0,0 -9.903,-20.053 -0.287,0.142 9.903,20.053 z" inkscape:connector-curvature="0"/></g><g transform="translate(307.042,242.6416)" id="g328"><path id="path330" style="fill:#6f83c1;fill-opacity:1;fill-rule:nonzero;stroke:none" d="m 0,0 -21.633,-6.739 -0.096,0.31 21.632,6.739 z" inkscape:connector-curvature="0"/></g><g transform="translate(269.0098,240.543)" id="g332"><path id="path334" style="fill:#6f83c1;fill-opacity:1;fill-rule:nonzero;stroke:none" d="m 0,0 -14.786,18.839 0.381,0.337 L 0.381,0.337 Z" inkscape:connector-curvature="0"/></g><g transform="translate(281.1377,284.0127)" id="g336"><path id="path338" style="fill:#6f83c1;fill-opacity:1;fill-rule:nonzero;stroke:none" d="m 0,0 -4.233,-40.462 -0.683,0.071 4.234,40.462 z" inkscape:connector-curvature="0"/></g><g transform="translate(318.0889,266.4165)" id="g340"><path id="path342" style="fill:#6f83c1;fill-opacity:1;fill-rule:nonzero;stroke:none" d="m 0,0 -33.871,-27.454 -0.794,0.978 33.872,27.455 z" inkscape:connector-curvature="0"/></g><g transform="translate(281.4492,288.4971)" id="g344"><path id="path346" style="fill:#6f83c1;fill-opacity:1;fill-rule:nonzero;stroke:none" d="m 0,0 c -3.352,0.351 -6.353,-2.082 -6.703,-5.433 -0.351,-3.351 2.082,-6.352 5.432,-6.702 3.352,-0.351 6.353,2.081 6.704,5.432 C 5.783,-3.352 3.351,-0.351 0,0" inkscape:connector-curvature="0"/></g><g transform="translate(290.9189,264.8687)" id="g348"><path id="path350" style="fill:#6f83c1;fill-opacity:1;fill-rule:nonzero;stroke:none" d="m 0,0 c -1.419,0.148 -2.69,-0.882 -2.839,-2.301 -0.148,-1.419 0.882,-2.69 2.301,-2.838 1.419,-0.149 2.69,0.882 2.839,2.301 C 2.449,-1.419 1.419,-0.148 0,0" inkscape:connector-curvature="0"/></g><g transform="translate(266.2607,217.8721)" id="g352"><path id="path354" style="fill:#6f83c1;fill-opacity:1;fill-rule:nonzero;stroke:none" d="m 0,0 c -1.419,0.148 -2.69,-0.882 -2.839,-2.301 -0.148,-1.419 0.882,-2.69 2.301,-2.838 1.419,-0.149 2.689,0.882 2.839,2.301 C 2.449,-1.42 1.419,-0.148 0,0" inkscape:connector-curvature="0"/></g><g transform="translate(308.0576,245.8125)" id="g356"><path id="path358" style="fill:#6f83c1;fill-opacity:1;fill-rule:nonzero;stroke:none" d="m 0,0 c -1.419,0.148 -2.69,-0.882 -2.839,-2.301 -0.148,-1.419 0.882,-2.69 2.301,-2.838 1.419,-0.149 2.69,0.882 2.839,2.301 C 2.449,-1.419 1.419,-0.148 0,0" inkscape:connector-curvature="0"/></g><g transform="translate(256.3086,262.0059)" id="g360"><path id="path362" style="fill:#6f83c1;fill-opacity:1;fill-rule:nonzero;stroke:none" d="m 0,0 c -2.203,0.23 -4.177,-1.369 -4.407,-3.572 -0.231,-2.203 1.369,-4.176 3.572,-4.407 2.203,-0.23 4.177,1.369 4.407,3.572 C 3.803,-2.203 2.203,-0.23 0,0" inkscape:connector-curvature="0"/></g><g transform="translate(321.501,265.1699)" id="g364"><path id="path366" style="fill:#6f83c1;fill-opacity:1;fill-rule:nonzero;stroke:none" d="m 0,0 c 0.305,2.914 -1.811,5.522 -4.725,5.827 -2.912,0.305 -5.521,-1.81 -5.827,-4.723 -0.304,-2.914 1.811,-5.523 4.724,-5.828 C -2.914,-5.028 -0.306,-2.914 0,0" inkscape:connector-curvature="0"/></g><g transform="translate(282.5488,233.0234)" id="g368"><path id="path370" style="fill:#6f83c1;fill-opacity:1;fill-rule:nonzero;stroke:none" d="m 0,0 c 0.392,3.741 -2.324,7.091 -6.064,7.482 -3.741,0.392 -7.091,-2.324 -7.482,-6.065 -0.392,-3.741 2.323,-7.09 6.065,-7.481 C -3.74,-6.456 -0.392,-3.741 0,0" inkscape:connector-curvature="0"/></g><g transform="translate(285.6045,232.7036)" id="g372"><path id="path374" style="fill:none;stroke:#6f83c1;stroke-width:2;stroke-linecap:butt;stroke-linejoin:miter;stroke-miterlimit:10;stroke-dasharray:none;stroke-opacity:1" d="m 0,0 c 0.567,5.429 -3.372,10.289 -8.8,10.857 -5.429,0.568 -10.29,-3.372 -10.858,-8.8 -0.568,-5.428 3.373,-10.289 8.801,-10.857 C -5.429,-9.369 -0.568,-5.428 0,0 Z" inkscape:connector-curvature="0"/></g></g></g></g></svg>