<?xml version="1.0" encoding="UTF-8" standalone="no"?>
<svg
   xmlns:dc="http://purl.org/dc/elements/1.1/"
   xmlns:cc="http://creativecommons.org/ns#"
   xmlns:rdf="http://www.w3.org/1999/02/22-rdf-syntax-ns#"
   xmlns:svg="http://www.w3.org/2000/svg"
   xmlns="http://www.w3.org/2000/svg"
   xmlns:sodipodi="http://sodipodi.sourceforge.net/DTD/sodipodi-0.dtd"
   xmlns:inkscape="http://www.inkscape.org/namespaces/inkscape"
   viewBox="0 0 198.82715 340.84973"
   height="340.84973"
   width="198.82715"
   xml:space="preserve"
   id="svg2"
   version="1.1"
   sodipodi:docname="25.svg"
   inkscape:version="0.92.2 5c3e80d, 2017-08-06"><sodipodi:namedview
     pagecolor="#ffffff"
     bordercolor="#666666"
     borderopacity="1"
     objecttolerance="10"
     gridtolerance="10"
     guidetolerance="10"
     inkscape:pageopacity="0"
     inkscape:pageshadow="2"
     inkscape:window-width="848"
     inkscape:window-height="551"
     id="namedview8158"
     showgrid="false"
     inkscape:zoom="0.41627764"
     inkscape:cx="91.969553"
     inkscape:cy="166.29414"
     inkscape:window-x="0"
     inkscape:window-y="0"
     inkscape:window-maximized="0"
     inkscape:current-layer="svg2" /><metadata
     id="metadata8"><rdf:RDF><cc:Work
         rdf:about=""><dc:format>image/svg+xml</dc:format><dc:type
           rdf:resource="http://purl.org/dc/dcmitype/StillImage" /></cc:Work></rdf:RDF></metadata><defs
     id="defs6"><clipPath
       id="clipPath18"
       clipPathUnits="userSpaceOnUse"><path
         id="path16"
         d="M 0,0 H 425.197 V 425.197 H 0 Z"
         inkscape:connector-curvature="0" /></clipPath><clipPath
       id="clipPath34"
       clipPathUnits="userSpaceOnUse"><path
         id="path32"
         d="m 155.222,98.3779 h 128.896 v -10.5 H 155.222 Z"
         inkscape:connector-curvature="0" /></clipPath><clipPath
       id="clipPath114"
       clipPathUnits="userSpaceOnUse"><path
         id="path112"
         d="m 209.102,292.068 c -5.578,-0.487 -8.174,-2.069 -10.306,-3.44 v 0 c -2.13,-1.37 -6.192,-3.097 -10.107,-8.774 v 0 c -3.915,-5.676 -7.682,-15.304 -11.221,-21.79 v 0 c -3.539,-6.49 -5.87,-12.837 -3.812,-21.127 v 0 c 0.264,-1.061 0.474,0.124 1.026,1.306 v 0 c 0.263,0.564 0.633,1.139 1.062,1.696 v 0 c -0.005,-0.046 -0.009,-0.093 -0.011,-0.14 v 0 c -0.157,-2.332 0.833,-5.629 1.366,-6.727 v 0 c 0.533,-1.099 0.611,0.002 1.141,1.141 v 0 c 0.225,0.483 0.531,0.971 0.883,1.449 v 0 c 6.326,-13.888 16.979,-24.14 26.669,-24.779 v 0 c 12.029,-0.792 19.05,-0.92 36.503,19.263 v 0 c 0.111,-0.416 0.124,-0.266 0.245,-1.219 v 0 c 0.119,-0.953 -0.088,-2.764 0.892,-1.742 v 0 c 0.979,1.023 2.995,3.934 3.865,6.534 v 0 l 0.109,0.095 c 0.108,0.092 0.212,0.185 0.315,0.28 v 0 c 0.2,-0.63 0.287,-0.762 0.422,-1.841 v 0 c 0.136,-1.079 -0.135,-2.915 0.698,-1.887 v 0 c 0.833,1.028 2.834,4.432 3.94,7.758 v 0 c 2.511,7.552 -0.507,14.48 -2.981,21.875 v 0 c -3.694,11.051 -8.564,25.759 -20.584,29.894 v 0 c -4.689,1.612 -10.973,2.334 -16.157,2.334 v 0 c -1.42,0 -2.757,-0.054 -3.957,-0.159"
         inkscape:connector-curvature="0" /></clipPath><clipPath
       id="clipPath130"
       clipPathUnits="userSpaceOnUse"><path
         id="path128"
         d="M 0,0 H 425.197 V 425.197 H 0 Z"
         inkscape:connector-curvature="0" /></clipPath><clipPath
       id="clipPath338"
       clipPathUnits="userSpaceOnUse"><path
         id="path336"
         d="m 213.326,341.645 h 2.048 V 329.33 h -2.048 z"
         inkscape:connector-curvature="0" /></clipPath><clipPath
       id="clipPath354"
       clipPathUnits="userSpaceOnUse"><path
         id="path352"
         d="m 218.136,341.352 h 1.865 v -11.801 h -1.865 z"
         inkscape:connector-curvature="0" /></clipPath><clipPath
       id="clipPath370"
       clipPathUnits="userSpaceOnUse"><path
         id="path368"
         d="m 231.136,335.926 h 1.425 v -6.861 h -1.425 z"
         inkscape:connector-curvature="0" /></clipPath><clipPath
       id="clipPath386"
       clipPathUnits="userSpaceOnUse"><path
         id="path384"
         d="m 201.309,337.324 h 1.357 v -6.888 h -1.357 z"
         inkscape:connector-curvature="0" /></clipPath><clipPath
       id="clipPath402"
       clipPathUnits="userSpaceOnUse"><path
         id="path400"
         d="m 184.971,342.765 h 61.517 V 299.1 h -61.517 z"
         inkscape:connector-curvature="0" /></clipPath><clipPath
       id="clipPath406"
       clipPathUnits="userSpaceOnUse"><path
         id="path404"
         d="m 184.96,342.772 h 61.528 V 298.64 H 184.96 Z"
         inkscape:connector-curvature="0" /></clipPath><clipPath
       id="clipPath410"
       clipPathUnits="userSpaceOnUse"><path
         id="path408"
         d="m 184.971,299.1 h 61.518 v 43.665 h -61.518 z"
         inkscape:connector-curvature="0" /></clipPath><linearGradient
       id="linearGradient416"
       spreadMethod="pad"
       gradientTransform="matrix(3.0799708,93.029999,93.029999,-3.0799708,212.64062,227.65186)"
       gradientUnits="userSpaceOnUse"
       y2="0"
       x2="1"
       y1="0"
       x1="0"><stop
         id="stop412"
         offset="0"
         style="stop-opacity:1;stop-color:#ffffff" /><stop
         id="stop414"
         offset="1"
         style="stop-opacity:1;stop-color:#1d1d1b" /></linearGradient><mask
       id="mask418"
       height="1"
       width="1"
       y="0"
       x="0"
       maskUnits="userSpaceOnUse"><g
         id="g442"><g
           id="g440"
           clip-path="url(#clipPath402)"><path
             id="path420"
             style="fill:#000000;fill-opacity:1;fill-rule:nonzero;stroke:none"
             d="m 184.96,342.772 h 61.528 V 298.639 H 184.96 Z"
             inkscape:connector-curvature="0" /><g
             id="g438"><g
               id="g422" /><g
               id="g436"><g
                 id="g434"
                 clip-path="url(#clipPath406)"><g
                   id="g432"><g
                     id="g430"
                     clip-path="url(#clipPath410)"><g
                       id="g428"><g
                         id="g426"><path
                           id="path424"
                           style="fill:url(#linearGradient416);stroke:none"
                           d="m 184.971,299.1 h 61.518 v 43.665 h -61.518 z"
                           inkscape:connector-curvature="0" /></g></g></g></g></g></g></g></g></g></mask><clipPath
       id="clipPath450"
       clipPathUnits="userSpaceOnUse"><path
         id="path448"
         d="m 184.971,342.765 h 61.517 V 299.1 h -61.517 z"
         inkscape:connector-curvature="0" /></clipPath><clipPath
       id="clipPath466"
       clipPathUnits="userSpaceOnUse"><path
         id="path464"
         d="m 187.257,305.431 h 31.037 v -18.924 h -31.037 z"
         inkscape:connector-curvature="0" /></clipPath></defs><g
     transform="matrix(1.3333333,0,0,-1.3333333,-191.49511,458.02027)"
     id="g10"><g
       id="g12"><g
         clip-path="url(#clipPath18)"
         id="g14"><g
           transform="translate(256.5234,189.5664)"
           id="g20"><path
             id="path22"
             style="fill:#e98622;fill-opacity:1;fill-rule:evenodd;stroke:none"
             d="m 0,0 c 4.344,-7.583 6.594,-11.916 5.677,-15.25 -0.916,-3.333 -5,-5.666 -8.275,-4.925 -3.275,0.74 -5.743,4.556 -7.618,7.556 -1.875,3.001 -3.157,5.185 -5.875,9.544 -2.718,4.359 -6.871,10.892 -8.371,16.225 -1.5,5.333 -0.347,9.467 1.302,11.951 1.649,2.483 3.795,3.316 8.087,-1.684 C -10.781,18.417 -4.344,7.584 0,0"
             inkscape:connector-curvature="0" /></g><g
           transform="translate(256.5234,189.5664)"
           id="g24"><path
             id="path26"
             style="fill:none;stroke:#2f1305;stroke-width:1.5;stroke-linecap:butt;stroke-linejoin:miter;stroke-miterlimit:2.61299992;stroke-dasharray:none;stroke-opacity:1"
             d="m 0,0 c 4.344,-7.583 6.594,-11.916 5.677,-15.25 -0.916,-3.333 -5,-5.666 -8.275,-4.925 -3.275,0.74 -5.743,4.556 -7.618,7.556 -1.875,3.001 -3.157,5.185 -5.875,9.544 -2.718,4.359 -6.871,10.892 -8.371,16.225 -1.5,5.333 -0.347,9.467 1.302,11.951 1.649,2.483 3.795,3.316 8.087,-1.684 C -10.781,18.417 -4.344,7.584 0,0 Z"
             inkscape:connector-curvature="0" /></g><g
           id="g28"><g
             id="g30" /><g
             id="g42"><g
               style="opacity:0.10000598"
               id="g40"
               clip-path="url(#clipPath34)"><g
                 id="g38"
                 transform="translate(219.6699,98.3779)"><path
                   id="path36"
                   style="fill:#000000;fill-opacity:1;fill-rule:evenodd;stroke:none"
                   d="m 0,0 c 35.594,0 64.448,-2.35 64.448,-5.25 0,-2.899 -28.854,-5.25 -64.448,-5.25 -35.594,0 -64.448,2.351 -64.448,5.25 0,2.9 28.854,5.25 64.448,5.25"
                   inkscape:connector-curvature="0" /></g></g></g></g><g
           transform="translate(197.1221,194.0732)"
           id="g44"><path
             id="path46"
             style="fill:#e98622;fill-opacity:1;fill-rule:evenodd;stroke:none"
             d="m 0,0 c -2.041,-2.015 -7.379,-4.829 -10.722,-7.306 -3.342,-2.476 -4.689,-4.614 -3.956,-7.875 0.732,-3.26 3.544,-7.644 5.226,-10.612 1.681,-2.969 2.232,-4.521 2.084,-7.392 -0.147,-2.87 -0.992,-7.056 -2.047,-10.184 -1.054,-3.127 -2.319,-5.194 -5.107,-5.634 -2.788,-0.439 -7.101,0.748 -8.427,3.396 -1.328,2.647 0.33,6.754 -0.055,10.794 -0.385,4.042 -2.814,8.016 -4.835,12.001 -2.021,3.986 -3.634,7.982 -4.027,11.103 -0.393,3.121 0.434,5.367 3.22,8.287 2.787,2.92 7.533,6.513 11.868,9.958 4.335,3.444 8.258,6.741 10.859,8.418 2.6,1.676 3.877,1.733 4.565,-0.291 C -0.667,12.642 -0.568,8.54 0.108,5.884 0.786,3.227 2.041,2.014 0,0"
             inkscape:connector-curvature="0" /></g><g
           transform="translate(197.1221,194.0732)"
           id="g48"><path
             id="path50"
             style="fill:none;stroke:#2f1305;stroke-width:1.5;stroke-linecap:butt;stroke-linejoin:miter;stroke-miterlimit:2.61299992;stroke-dasharray:none;stroke-opacity:1"
             d="m 0,0 c -2.041,-2.015 -7.379,-4.829 -10.722,-7.306 -3.342,-2.476 -4.689,-4.614 -3.956,-7.875 0.732,-3.26 3.544,-7.644 5.226,-10.612 1.681,-2.969 2.232,-4.521 2.084,-7.392 -0.147,-2.87 -0.992,-7.056 -2.047,-10.184 -1.054,-3.127 -2.319,-5.194 -5.107,-5.634 -2.788,-0.439 -7.101,0.748 -8.427,3.396 -1.328,2.647 0.33,6.754 -0.055,10.794 -0.385,4.042 -2.814,8.016 -4.835,12.001 -2.021,3.986 -3.634,7.982 -4.027,11.103 -0.393,3.121 0.434,5.367 3.22,8.287 2.787,2.92 7.533,6.513 11.868,9.958 4.335,3.444 8.258,6.741 10.859,8.418 2.6,1.676 3.877,1.733 4.565,-0.291 C -0.667,12.642 -0.568,8.54 0.108,5.884 0.786,3.227 2.041,2.014 0,0 Z"
             inkscape:connector-curvature="0" /></g><g
           transform="translate(209.3149,159.1074)"
           id="g52"><path
             id="path54"
             style="fill:#e98622;fill-opacity:1;fill-rule:nonzero;stroke:none"
             d="m 0,0 c 4.667,-1.282 9.334,-2.565 13.713,-4.051 4.505,-1.528 8.69,-3.272 12.23,-5.446 3.299,-2.025 5.963,-4.38 8.102,-6.846 2.543,-2.93 4.354,-6.041 5.612,-8.943 1.065,-2.459 1.688,-4.626 2.265,-6.636 0.586,-2.041 1.12,-3.899 1.952,-5.381 0.695,-1.24 1.668,-2.363 2.757,-3.319 1.255,-1.1 2.624,-1.954 3.888,-2.5 2.278,-0.983 4.561,-0.983 6.842,-0.983 h 0.001 v -6.787 h -0.001 c -3.072,0 -6.144,0 -9.957,1.647 -1.961,0.846 -4.025,2.121 -5.849,3.72 -1.648,1.445 -3.138,3.174 -4.229,5.121 -1.203,2.142 -1.835,4.342 -2.53,6.758 -0.535,1.863 -1.112,3.872 -1.976,5.869 -1.008,2.325 -2.471,4.831 -4.544,7.219 -1.707,1.968 -3.822,3.841 -6.43,5.441 -2.956,1.815 -6.635,3.335 -10.672,4.704 C 7.009,-9 2.451,-7.747 -2.106,-6.494 Z"
             inkscape:connector-curvature="0" /></g><g
           transform="translate(209.3149,159.1074)"
           id="g56"><path
             id="path58"
             style="fill:none;stroke:#2f1305;stroke-width:1.5;stroke-linecap:butt;stroke-linejoin:miter;stroke-miterlimit:2.61299992;stroke-dasharray:none;stroke-opacity:1"
             d="m 0,0 c 4.667,-1.282 9.334,-2.565 13.713,-4.051 4.505,-1.528 8.69,-3.272 12.23,-5.446 3.299,-2.025 5.963,-4.38 8.102,-6.846 2.543,-2.93 4.354,-6.041 5.612,-8.943 1.065,-2.459 1.688,-4.626 2.265,-6.636 0.586,-2.041 1.12,-3.899 1.952,-5.381 0.695,-1.24 1.668,-2.363 2.757,-3.319 1.255,-1.1 2.624,-1.954 3.888,-2.5 2.278,-0.983 4.561,-0.983 6.842,-0.983 h 0.001 v -6.787 h -0.001 c -3.072,0 -6.144,0 -9.957,1.647 -1.961,0.846 -4.025,2.121 -5.849,3.72 -1.648,1.445 -3.138,3.174 -4.229,5.121 -1.203,2.142 -1.835,4.342 -2.53,6.758 -0.535,1.863 -1.112,3.872 -1.976,5.869 -1.008,2.325 -2.471,4.831 -4.544,7.219 -1.707,1.968 -3.822,3.841 -6.43,5.441 -2.956,1.815 -6.635,3.335 -10.672,4.704 C 7.009,-9 2.451,-7.747 -2.106,-6.494 Z"
             inkscape:connector-curvature="0" /></g><g
           transform="translate(240.2656,160.2754)"
           id="g60"><path
             id="path62"
             style="fill:#e98622;fill-opacity:1;fill-rule:evenodd;stroke:none"
             d="m 0,0 c 0.413,-6.53 1.238,-19.551 0.454,-26.404 -0.784,-6.853 -3.18,-7.537 -3.613,-10.805 -0.434,-3.267 1.095,-9.115 2.809,-12.415 1.714,-3.301 3.616,-4.051 5.77,-4.521 2.155,-0.468 4.563,-0.655 5.92,-1.815 1.356,-1.161 1.661,-3.295 1.44,-5.248 -0.219,-1.953 -0.966,-3.725 -6.106,-4.358 -5.141,-0.634 -14.677,-0.129 -19.156,0.96 -4.479,1.088 -3.901,2.763 -4.809,7.291 -0.909,4.528 -3.304,11.909 -3.755,15.938 -0.45,4.028 1.045,4.704 1.317,7.227 0.273,2.522 -0.677,6.891 -1.381,9.443 -0.705,2.553 -1.163,3.288 -3.222,3.453 -2.06,0.165 -5.719,-0.24 -7.782,0.572 -2.063,0.812 -2.531,2.84 -0.066,5.449 2.464,2.607 7.86,5.794 12.43,8.301 4.57,2.506 8.314,4.333 11.399,6.477 3.086,2.143 5.512,4.604 6.725,5.814 C -0.413,6.57 -0.413,6.53 0,0"
             inkscape:connector-curvature="0" /></g><g
           transform="translate(240.2656,160.2754)"
           id="g64"><path
             id="path66"
             style="fill:none;stroke:#2f1305;stroke-width:1.5;stroke-linecap:butt;stroke-linejoin:miter;stroke-miterlimit:2.61299992;stroke-dasharray:none;stroke-opacity:1"
             d="m 0,0 c 0.413,-6.53 1.238,-19.551 0.454,-26.404 -0.784,-6.853 -3.18,-7.537 -3.613,-10.805 -0.434,-3.267 1.095,-9.115 2.809,-12.415 1.714,-3.301 3.616,-4.051 5.77,-4.521 2.155,-0.468 4.563,-0.655 5.92,-1.815 1.356,-1.161 1.661,-3.295 1.44,-5.248 -0.219,-1.953 -0.966,-3.725 -6.106,-4.358 -5.141,-0.634 -14.677,-0.129 -19.156,0.96 -4.479,1.088 -3.901,2.763 -4.809,7.291 -0.909,4.528 -3.304,11.909 -3.755,15.938 -0.45,4.028 1.045,4.704 1.317,7.227 0.273,2.522 -0.677,6.891 -1.381,9.443 -0.705,2.553 -1.163,3.288 -3.222,3.453 -2.06,0.165 -5.719,-0.24 -7.782,0.572 -2.063,0.812 -2.531,2.84 -0.066,5.449 2.464,2.607 7.86,5.794 12.43,8.301 4.57,2.506 8.314,4.333 11.399,6.477 3.086,2.143 5.512,4.604 6.725,5.814 C -0.413,6.57 -0.413,6.53 0,0 Z"
             inkscape:connector-curvature="0" /></g><g
           transform="translate(242.7871,104.0674)"
           id="g68"><path
             id="path70"
             style="fill:none;stroke:#2f1305;stroke-width:1.5;stroke-linecap:round;stroke-linejoin:round;stroke-miterlimit:2.61299992;stroke-dasharray:none;stroke-opacity:1"
             d="M 0,0 C 1.142,-0.457 2.283,-0.913 3.544,-1.437 4.806,-1.962 6.187,-2.555 6.785,-3.837 7.385,-5.12 7.2,-7.093 6.48,-8.169 5.76,-9.244 4.503,-9.422 3.247,-9.6"
             inkscape:connector-curvature="0" /></g><g
           transform="translate(187.1938,160.2754)"
           id="g72"><path
             id="path74"
             style="fill:#e98622;fill-opacity:1;fill-rule:evenodd;stroke:none"
             d="m 0,0 c -0.413,-6.53 -1.239,-19.551 -0.454,-26.404 0.785,-6.853 3.18,-7.537 3.516,-10.518 0.335,-2.98 -1.388,-8.257 -2.956,-11.4 -1.568,-3.144 -2.981,-4.155 -4.89,-4.895 -1.909,-0.739 -4.315,-1.208 -5.784,-2.645 -1.469,-1.438 -2,-3.844 -1.703,-5.625 0.296,-1.782 1.421,-2.939 6.528,-3.451 5.106,-0.513 14.194,-0.383 18.449,0.518 4.255,0.902 3.677,2.577 4.586,7.105 0.908,4.528 3.303,11.909 3.753,15.938 0.45,4.028 -1.045,4.704 -1.317,7.227 -0.272,2.522 0.678,6.891 1.382,9.443 0.705,2.553 1.163,3.288 3.222,3.453 2.059,0.165 5.718,-0.24 7.782,0.572 2.063,0.812 2.53,2.84 0.065,5.449 -2.464,2.607 -7.859,5.794 -12.429,8.301 -4.57,2.506 -8.314,4.333 -11.4,6.477 C 5.265,1.688 2.838,4.149 1.625,5.359 0.413,6.57 0.413,6.53 0,0"
             inkscape:connector-curvature="0" /></g><g
           transform="translate(187.1938,160.2754)"
           id="g76"><path
             id="path78"
             style="fill:none;stroke:#2f1305;stroke-width:1.5;stroke-linecap:butt;stroke-linejoin:miter;stroke-miterlimit:2.61299992;stroke-dasharray:none;stroke-opacity:1"
             d="m 0,0 c -0.413,-6.53 -1.239,-19.551 -0.454,-26.404 0.785,-6.853 3.18,-7.537 3.516,-10.518 0.335,-2.98 -1.388,-8.257 -2.956,-11.4 -1.568,-3.144 -2.981,-4.155 -4.89,-4.895 -1.909,-0.739 -4.315,-1.208 -5.784,-2.645 -1.469,-1.438 -2,-3.844 -1.703,-5.625 0.296,-1.782 1.421,-2.939 6.528,-3.451 5.106,-0.513 14.194,-0.383 18.449,0.518 4.255,0.902 3.677,2.577 4.586,7.105 0.908,4.528 3.303,11.909 3.753,15.938 0.45,4.028 -1.045,4.704 -1.317,7.227 -0.272,2.522 0.678,6.891 1.382,9.443 0.705,2.553 1.163,3.288 3.222,3.453 2.059,0.165 5.718,-0.24 7.782,0.572 2.063,0.812 2.53,2.84 0.065,5.449 -2.464,2.607 -7.859,5.794 -12.429,8.301 -4.57,2.506 -8.314,4.333 -11.4,6.477 C 5.265,1.688 2.838,4.149 1.625,5.359 0.413,6.57 0.413,6.53 0,0 Z"
             inkscape:connector-curvature="0" /></g><g
           transform="translate(237.9912,205.0859)"
           id="g80"><path
             id="path82"
             style="fill:#e98622;fill-opacity:1;fill-rule:evenodd;stroke:none"
             d="m 0,0 c 1.619,-6.545 2.465,-19.786 2.605,-30.439 0.141,-10.655 -0.422,-18.721 -3.168,-24.352 -2.746,-5.632 -7.674,-8.828 -15.137,-10.502 -7.463,-1.674 -17.46,-1.826 -23.655,0.685 -6.196,2.511 -8.59,7.686 -9.857,13.926 -1.267,6.241 -1.409,13.545 -0.905,20.589 0.503,7.043 1.651,13.824 3.168,19.992 1.518,6.168 3.407,11.724 8.606,14.726 5.199,3.001 13.71,3.45 19.584,3.293 5.875,-0.156 9.113,-0.917 11.93,-1.222 C -4.013,6.393 -1.619,6.545 0,0"
             inkscape:connector-curvature="0" /></g><g
           transform="translate(237.9912,205.0859)"
           id="g84"><path
             id="path86"
             style="fill:none;stroke:#2f1305;stroke-width:1.5;stroke-linecap:butt;stroke-linejoin:miter;stroke-miterlimit:2.61299992;stroke-dasharray:none;stroke-opacity:1"
             d="m 0,0 c 1.619,-6.545 2.465,-19.786 2.605,-30.439 0.141,-10.655 -0.422,-18.721 -3.168,-24.352 -2.746,-5.632 -7.674,-8.828 -15.137,-10.502 -7.463,-1.674 -17.46,-1.826 -23.655,0.685 -6.196,2.511 -8.59,7.686 -9.857,13.926 -1.267,6.241 -1.409,13.545 -0.905,20.589 0.503,7.043 1.651,13.824 3.168,19.992 1.518,6.168 3.407,11.724 8.606,14.726 5.199,3.001 13.71,3.45 19.584,3.293 5.875,-0.156 9.113,-0.917 11.93,-1.222 C -4.013,6.393 -1.619,6.545 0,0 Z"
             inkscape:connector-curvature="0" /></g><g
           transform="translate(230.7969,200.0713)"
           id="g88"><path
             id="path90"
             style="fill:#ecaf45;fill-opacity:1;fill-rule:evenodd;stroke:none"
             d="m 0,0 c 1.171,-5.41 1.782,-16.356 1.884,-25.163 0.101,-8.808 -0.306,-15.476 -2.291,-20.131 -1.986,-4.655 -5.549,-7.298 -10.946,-8.682 -5.396,-1.383 -12.625,-1.509 -17.105,0.567 -4.48,2.076 -6.21,6.353 -7.127,11.513 -0.916,5.158 -1.018,11.197 -0.654,17.019 0.364,5.822 1.194,11.429 2.291,16.527 1.098,5.099 2.463,9.692 6.223,12.173 3.759,2.482 9.913,2.853 14.161,2.723 4.248,-0.129 6.589,-0.758 8.626,-1.01 C -2.902,5.284 -1.171,5.41 0,0"
             inkscape:connector-curvature="0" /></g><g
           transform="translate(230.7969,200.0713)"
           id="g92"><path
             id="path94"
             style="fill:none;stroke:#2f1305;stroke-width:1.5;stroke-linecap:butt;stroke-linejoin:miter;stroke-miterlimit:2.61299992;stroke-dasharray:none;stroke-opacity:1"
             d="m 0,0 c 1.171,-5.41 1.782,-16.356 1.884,-25.163 0.101,-8.808 -0.306,-15.476 -2.291,-20.131 -1.986,-4.655 -5.549,-7.298 -10.946,-8.682 -5.396,-1.383 -12.625,-1.509 -17.105,0.567 -4.48,2.076 -6.21,6.353 -7.127,11.513 -0.916,5.158 -1.018,11.197 -0.654,17.019 0.364,5.822 1.194,11.429 2.291,16.527 1.098,5.099 2.463,9.692 6.223,12.173 3.759,2.482 9.913,2.853 14.161,2.723 4.248,-0.129 6.589,-0.758 8.626,-1.01 C -2.902,5.284 -1.171,5.41 0,0 Z"
             inkscape:connector-curvature="0" /></g><g
           transform="translate(168.0469,211.2764)"
           id="g96"><path
             id="path98"
             style="fill:#6e2512;fill-opacity:1;fill-rule:evenodd;stroke:none"
             d="M 0,0 C 1.958,-3.351 0.776,-5.11 0.436,-5.961 0.095,-6.812 0.543,-6.784 1.671,-5.42 2.799,-4.056 4.606,-1.357 4.758,2.155 4.82,3.578 4.61,5.134 4.261,6.973 c 4.28,-4.539 8.83,-8.507 12.702,-11.581 7.224,-5.738 12.084,-8.367 14.533,-11.11 2.449,-2.743 2.487,-5.601 2.468,-7.115 -0.019,-1.515 -0.095,-1.685 -0.033,-1.683 0.062,10e-4 0.262,0.174 6.665,3.033 6.401,2.857 19.005,8.4 29.349,15.595 3.732,2.595 7.168,5.406 10.27,8.437 -0.203,-1.309 -0.487,-2.636 -0.904,-3.935 -1.046,-3.26 -2.923,-6.348 -3.513,-7.552 -0.59,-1.204 0.108,-0.522 1.815,0.795 1.707,1.319 4.423,3.274 8.118,8.236 3.697,4.962 8.372,12.929 10.653,21.061 0.209,0.745 0.397,1.492 0.567,2.239 0.388,-1.45 0.698,-2.964 0.837,-4.509 0.305,-3.401 -0.228,-6.95 -0.305,-8.281 -0.076,-1.332 0.305,-0.444 1.371,1.404 1.065,1.849 2.815,4.659 4.299,10.612 1.484,5.952 2.701,15.047 1.639,23.413 -1.062,8.365 -4.403,16.001 -8.189,22.571 -1.656,2.872 -3.396,5.54 -5.031,7.817 6.905,4.466 -13.708,15.372 -55.468,29.068 -9.629,3.158 3.667,1.465 -5.884,-1.604 C 20.67,100.815 16.873,96.714 15.002,92.763 11.854,86.115 6.331,80.961 2.005,74.02 -16.38,44.519 -12.866,22.019 0,0"
             inkscape:connector-curvature="0" /></g><g
           transform="translate(168.0469,211.2764)"
           id="g100"><path
             id="path102"
             style="fill:none;stroke:#2f1305;stroke-width:1.5;stroke-linecap:butt;stroke-linejoin:miter;stroke-miterlimit:2.61299992;stroke-dasharray:none;stroke-opacity:1"
             d="M 0,0 C 1.958,-3.351 0.776,-5.11 0.436,-5.961 0.095,-6.812 0.543,-6.784 1.671,-5.42 2.799,-4.056 4.606,-1.357 4.758,2.155 4.82,3.578 4.61,5.134 4.261,6.973 c 4.28,-4.539 8.83,-8.507 12.702,-11.581 7.224,-5.738 12.084,-8.367 14.533,-11.11 2.449,-2.743 2.487,-5.601 2.468,-7.115 -0.019,-1.515 -0.095,-1.685 -0.033,-1.683 0.062,10e-4 0.262,0.174 6.665,3.033 6.401,2.857 19.005,8.4 29.349,15.595 3.732,2.595 7.168,5.406 10.27,8.437 -0.203,-1.309 -0.487,-2.636 -0.904,-3.935 -1.046,-3.26 -2.923,-6.348 -3.513,-7.552 -0.59,-1.204 0.108,-0.522 1.815,0.795 1.707,1.319 4.423,3.274 8.118,8.236 3.697,4.962 8.372,12.929 10.653,21.061 0.209,0.745 0.397,1.492 0.567,2.239 0.388,-1.45 0.698,-2.964 0.837,-4.509 0.305,-3.401 -0.228,-6.95 -0.305,-8.281 -0.076,-1.332 0.305,-0.444 1.371,1.404 1.065,1.849 2.815,4.659 4.299,10.612 1.484,5.952 2.701,15.047 1.639,23.413 -1.062,8.365 -4.403,16.001 -8.189,22.571 -1.656,2.872 -3.396,5.54 -5.031,7.817 6.905,4.466 -13.708,15.372 -55.468,29.068 -9.629,3.158 3.667,1.465 -5.884,-1.604 C 20.67,100.815 16.873,96.714 15.002,92.763 11.854,86.115 6.331,80.961 2.005,74.02 -16.38,44.519 -12.866,22.019 0,0 Z"
             inkscape:connector-curvature="0" /></g><g
           transform="translate(198.7969,288.6284)"
           id="g104"><path
             id="path106"
             style="fill:#e98622;fill-opacity:1;fill-rule:evenodd;stroke:none"
             d="m 0,0 c -2.13,-1.37 -6.193,-3.097 -10.108,-8.774 -3.915,-5.676 -7.682,-15.304 -11.221,-21.79 -3.539,-6.49 -5.871,-12.837 -3.812,-21.127 0.264,-1.06 0.474,0.123 1.026,1.305 0.262,0.565 0.634,1.139 1.062,1.697 -0.005,-0.046 -0.009,-0.094 -0.011,-0.141 -0.157,-2.332 0.833,-5.628 1.366,-6.727 0.533,-1.098 0.611,0.003 1.141,1.142 0.224,0.482 0.531,0.971 0.883,1.449 6.325,-13.888 16.979,-24.14 26.669,-24.779 12.028,-0.793 19.05,-0.921 36.503,19.263 0.111,-0.416 0.125,-0.267 0.245,-1.22 0.119,-0.953 -0.088,-2.764 0.892,-1.741 0.979,1.023 2.995,3.934 3.865,6.534 l 0.109,0.095 c 0.108,0.092 0.212,0.185 0.316,0.279 0.199,-0.629 0.287,-0.761 0.422,-1.84 0.134,-1.079 -0.136,-2.916 0.697,-1.887 0.834,1.028 2.834,4.432 3.94,7.758 2.511,7.551 -0.507,14.48 -2.98,21.875 C 47.309,-17.578 42.439,-2.87 30.419,1.264 24.445,3.318 15.885,3.927 10.306,3.44 4.728,2.953 2.131,1.37 0,0"
             inkscape:connector-curvature="0" /></g></g></g><g
       id="g108"><g
         clip-path="url(#clipPath114)"
         id="g110"><g
           transform="translate(222.209,245.2256)"
           id="g116"><path
             id="path118"
             style="fill:#f1b170;fill-opacity:1;fill-rule:evenodd;stroke:none"
             d="m 0,0 c -3.727,0.504 -8.259,-0.86 -13.652,-1.224 -5.642,-0.38 -14.964,6.457 -22.32,-1.622 -6.539,-7.182 -2.708,-14.56 3.331,-22.463 2.312,-3.025 1.529,-6.002 2.773,-8.309 1.244,-2.308 2.806,-2.671 5.539,-3.112 1.059,-0.171 2.264,-0.297 3.628,-0.432 4.887,-0.481 13.464,-0.179 16.644,1.535 3.181,1.713 3.995,-1.387 5.182,-0.109 2.521,2.712 -0.963,3.208 1.963,4.884 8.269,4.738 11.619,18.66 7.515,25.609 C 8.193,-1.162 3.727,-0.504 0,0"
             inkscape:connector-curvature="0" /></g><g
           transform="translate(222.209,245.2256)"
           id="g120"><path
             id="path122"
             style="fill:none;stroke:#2f1305;stroke-width:1.5;stroke-linecap:butt;stroke-linejoin:miter;stroke-miterlimit:2.61299992;stroke-dasharray:none;stroke-opacity:1"
             d="m 0,0 c -3.727,0.504 -8.259,-0.86 -13.652,-1.224 -5.642,-0.38 -14.964,6.457 -22.32,-1.622 -6.539,-7.182 -2.708,-14.56 3.331,-22.463 2.312,-3.025 1.529,-6.002 2.773,-8.309 1.244,-2.308 2.806,-2.671 5.539,-3.112 1.059,-0.171 2.264,-0.297 3.628,-0.432 4.887,-0.481 13.464,-0.179 16.644,1.535 3.181,1.713 3.995,-1.387 5.182,-0.109 2.521,2.712 -0.963,3.208 1.963,4.884 8.269,4.738 11.619,18.66 7.515,25.609 C 8.193,-1.162 3.727,-0.504 0,0 Z"
             inkscape:connector-curvature="0" /></g></g></g><g
       id="g124"><g
         clip-path="url(#clipPath130)"
         id="g126"><g
           transform="translate(198.7969,288.6284)"
           id="g132"><path
             id="path134"
             style="fill:none;stroke:#2f1305;stroke-width:1.5;stroke-linecap:butt;stroke-linejoin:miter;stroke-miterlimit:2.61299992;stroke-dasharray:none;stroke-opacity:1"
             d="m 0,0 c -2.13,-1.37 -6.193,-3.097 -10.108,-8.774 -3.915,-5.676 -7.682,-15.304 -11.221,-21.79 -3.539,-6.49 -5.871,-12.837 -3.812,-21.127 0.264,-1.06 0.474,0.123 1.026,1.305 0.262,0.565 0.634,1.139 1.062,1.697 -0.005,-0.046 -0.009,-0.094 -0.011,-0.141 -0.157,-2.332 0.833,-5.628 1.366,-6.727 0.533,-1.098 0.611,0.003 1.141,1.142 0.224,0.482 0.531,0.971 0.883,1.449 6.325,-13.888 16.979,-24.14 26.669,-24.779 12.028,-0.793 19.05,-0.921 36.503,19.263 0.111,-0.416 0.125,-0.267 0.245,-1.22 0.119,-0.953 -0.088,-2.764 0.892,-1.741 0.979,1.023 2.995,3.934 3.865,6.534 l 0.109,0.095 c 0.108,0.092 0.212,0.185 0.316,0.279 0.199,-0.629 0.287,-0.761 0.422,-1.84 0.134,-1.079 -0.136,-2.916 0.697,-1.887 0.834,1.028 2.834,4.432 3.94,7.758 2.511,7.551 -0.507,14.48 -2.98,21.875 C 47.309,-17.578 42.439,-2.87 30.419,1.264 24.445,3.318 15.885,3.927 10.306,3.44 4.728,2.953 2.131,1.37 0,0 Z"
             inkscape:connector-curvature="0" /></g><g
           transform="translate(242.4219,285.3359)"
           id="g136"><path
             id="path138"
             style="fill:#e98622;fill-opacity:1;fill-rule:evenodd;stroke:none"
             d="m 0,0 c -1.73,2.226 -1.962,3.243 -2.193,4.26 3.525,2.225 7.05,4.45 10.349,5.623 0.363,0.129 0.723,0.245 1.079,0.347 3.605,1.031 6.9,0.624 8.943,-0.14 2.043,-0.763 2.834,-1.882 3.526,-3.514 0.693,-1.632 1.288,-3.778 0.889,-6.451 -0.356,-2.38 -1.498,-5.179 -2.696,-7.29 -0.147,-0.261 -0.296,-0.512 -0.444,-0.75 -0.344,-0.551 -0.684,-1.036 -1.022,-1.469 -0.988,-1.266 -1.955,-2.101 -2.923,-2.937 l -0.695,-0.246 c -0.697,-0.246 -2.089,-0.739 -3.309,-0.201 -0.695,0.308 -1.335,0.95 -2.154,1.91 -0.616,0.722 -1.333,1.625 -2.252,2.699 C 4.96,-5.658 1.729,-2.225 0,0"
             inkscape:connector-curvature="0" /></g><g
           transform="translate(242.4219,285.3359)"
           id="g140"><path
             id="path142"
             style="fill:none;stroke:#2f1305;stroke-width:1.5;stroke-linecap:butt;stroke-linejoin:miter;stroke-miterlimit:2.61299992;stroke-dasharray:none;stroke-opacity:1"
             d="m 0,0 c -1.73,2.226 -1.962,3.243 -2.193,4.26 3.525,2.225 7.05,4.45 10.349,5.623 0.363,0.129 0.723,0.245 1.079,0.347 3.605,1.031 6.9,0.624 8.943,-0.14 2.043,-0.763 2.834,-1.882 3.526,-3.514 0.693,-1.632 1.288,-3.778 0.889,-6.451 -0.356,-2.38 -1.498,-5.179 -2.696,-7.29 -0.147,-0.261 -0.296,-0.512 -0.444,-0.75 -0.344,-0.551 -0.684,-1.036 -1.022,-1.469 -0.988,-1.266 -1.955,-2.101 -2.923,-2.937 l -0.695,-0.246 c -0.697,-0.246 -2.089,-0.739 -3.309,-0.201 -0.695,0.308 -1.335,0.95 -2.154,1.91 -0.616,0.722 -1.333,1.625 -2.252,2.699 C 4.96,-5.658 1.729,-2.225 0,0 Z"
             inkscape:connector-curvature="0" /></g><g
           transform="translate(206.019,239.4858)"
           id="g144"><path
             id="path146"
             style="fill:none;stroke:#2f1305;stroke-width:1.5;stroke-linecap:round;stroke-linejoin:round;stroke-miterlimit:2.61299992;stroke-dasharray:none;stroke-opacity:1"
             d="m 0,0 c 0.223,-2.203 0.447,-4.404 0.368,-5.962 -0.079,-1.558 -0.459,-2.471 -1.194,-3.279 -0.735,-0.807 -1.823,-1.508 -3.539,-1.827 -1.716,-0.32 -4.06,-0.257 -5.842,0.258 -1.781,0.517 -3,1.485 -4.219,2.454"
             inkscape:connector-curvature="0" /></g><g
           transform="translate(206.3887,234.9658)"
           id="g148"><path
             id="path150"
             style="fill:none;stroke:#2f1305;stroke-width:1.5;stroke-linecap:round;stroke-linejoin:round;stroke-miterlimit:2.61299992;stroke-dasharray:none;stroke-opacity:1"
             d="m 0,0 c 0.162,-2.122 0.324,-4.245 1.984,-5.35 1.661,-1.106 4.821,-1.193 7.196,-0.967 2.375,0.226 3.966,0.768 5.277,1.234 1.311,0.465 2.342,0.856 3.372,1.247"
             inkscape:connector-curvature="0" /></g><g
           transform="translate(244.2881,283.0947)"
           id="g152"><path
             id="path154"
             style="fill:#d46728;fill-opacity:1;fill-rule:evenodd;stroke:none"
             d="M 0,0 C -1.117,1.437 -1.267,2.093 -1.416,2.75 0.86,4.186 3.136,5.623 5.266,6.38 5.5,6.463 5.732,6.538 5.963,6.604 8.289,7.27 10.416,7.006 11.735,6.513 13.054,6.021 13.564,5.298 14.012,4.245 14.46,3.191 14.844,1.807 14.586,0.08 14.356,-1.456 13.618,-3.263 12.846,-4.626 12.75,-4.794 12.654,-4.956 12.559,-5.11 12.337,-5.466 12.116,-5.778 11.898,-6.058 11.261,-6.875 10.637,-7.415 10.012,-7.955 L 9.563,-8.114 C 9.113,-8.272 8.215,-8.59 7.427,-8.243 6.978,-8.044 6.564,-7.629 6.036,-7.01 5.639,-6.543 5.176,-5.961 4.583,-5.268 3.202,-3.653 1.117,-1.437 0,0"
             inkscape:connector-curvature="0" /></g><g
           transform="translate(244.2881,283.0947)"
           id="g156"><path
             id="path158"
             style="fill:none;stroke:#2f1305;stroke-width:1.5;stroke-linecap:butt;stroke-linejoin:miter;stroke-miterlimit:2.61299992;stroke-dasharray:none;stroke-opacity:1"
             d="M 0,0 C -1.117,1.437 -1.267,2.093 -1.416,2.75 0.86,4.186 3.136,5.623 5.266,6.38 5.5,6.463 5.732,6.538 5.963,6.604 8.289,7.27 10.416,7.006 11.735,6.513 13.054,6.021 13.564,5.298 14.012,4.245 14.46,3.191 14.844,1.807 14.586,0.08 14.356,-1.456 13.618,-3.263 12.846,-4.626 12.75,-4.794 12.654,-4.956 12.559,-5.11 12.337,-5.466 12.116,-5.778 11.898,-6.058 11.261,-6.875 10.637,-7.415 10.012,-7.955 L 9.563,-8.114 C 9.113,-8.272 8.215,-8.59 7.427,-8.243 6.978,-8.044 6.564,-7.629 6.036,-7.01 5.639,-6.543 5.176,-5.961 4.583,-5.268 3.202,-3.653 1.117,-1.437 0,0 Z"
             inkscape:connector-curvature="0" /></g><g
           transform="translate(190.0757,289.522)"
           id="g160"><path
             id="path162"
             style="fill:#e98622;fill-opacity:1;fill-rule:evenodd;stroke:none"
             d="m 0,0 c 1.92,2.044 2.244,3.031 2.567,4.017 -3.286,2.531 -6.572,5.063 -9.732,6.53 -0.347,0.161 -0.693,0.31 -1.037,0.444 -3.475,1.356 -6.777,1.257 -8.872,0.69 -2.094,-0.566 -2.982,-1.601 -3.82,-3.154 -0.837,-1.553 -1.626,-3.623 -1.479,-6.309 0.132,-2.391 1.005,-5.269 1.996,-7.472 0.122,-0.272 0.246,-0.534 0.371,-0.784 0.289,-0.578 0.581,-1.089 0.876,-1.55 0.861,-1.346 1.742,-2.263 2.623,-3.181 l 0.667,-0.309 c 0.667,-0.308 2,-0.925 3.259,-0.505 0.718,0.24 1.411,0.817 2.31,1.692 0.678,0.659 1.472,1.487 2.482,2.466 C -5.438,-5.146 -1.921,-2.044 0,0"
             inkscape:connector-curvature="0" /></g><g
           transform="translate(190.0757,289.522)"
           id="g164"><path
             id="path166"
             style="fill:none;stroke:#2f1305;stroke-width:1.5;stroke-linecap:butt;stroke-linejoin:miter;stroke-miterlimit:2.61299992;stroke-dasharray:none;stroke-opacity:1"
             d="m 0,0 c 1.92,2.044 2.244,3.031 2.567,4.017 -3.286,2.531 -6.572,5.063 -9.732,6.53 -0.347,0.161 -0.693,0.31 -1.037,0.444 -3.475,1.356 -6.777,1.257 -8.872,0.69 -2.094,-0.566 -2.982,-1.601 -3.82,-3.154 -0.837,-1.553 -1.626,-3.623 -1.479,-6.309 0.132,-2.391 1.005,-5.269 1.996,-7.472 0.122,-0.272 0.246,-0.534 0.371,-0.784 0.289,-0.578 0.581,-1.089 0.876,-1.55 0.861,-1.346 1.742,-2.263 2.623,-3.181 l 0.667,-0.309 c 0.667,-0.308 2,-0.925 3.259,-0.505 0.718,0.24 1.411,0.817 2.31,1.692 0.678,0.659 1.472,1.487 2.482,2.466 C -5.438,-5.146 -1.921,-2.044 0,0 Z"
             inkscape:connector-curvature="0" /></g><g
           transform="translate(188.4033,287.7012)"
           id="g168"><path
             id="path170"
             style="fill:#d46728;fill-opacity:1;fill-rule:evenodd;stroke:none"
             d="m 0,0 c 1.255,1.317 1.47,1.956 1.684,2.595 -2.121,1.656 -4.242,3.313 -6.285,4.28 -0.224,0.105 -0.448,0.204 -0.671,0.292 -2.249,0.895 -4.391,0.846 -5.752,0.488 -1.362,-0.359 -1.942,-1.027 -2.493,-2.03 -0.55,-1.003 -1.071,-2.343 -0.987,-4.086 0.074,-1.552 0.628,-3.423 1.26,-4.856 0.078,-0.178 0.158,-0.349 0.238,-0.511 0.185,-0.377 0.372,-0.71 0.561,-1.01 0.553,-0.876 1.12,-1.476 1.688,-2.075 l 0.431,-0.203 c 0.431,-0.203 1.294,-0.61 2.112,-0.342 0.467,0.152 0.919,0.523 1.507,1.087 0.442,0.425 0.961,0.958 1.621,1.588 C -3.551,-3.314 -1.255,-1.317 0,0"
             inkscape:connector-curvature="0" /></g><g
           transform="translate(188.4033,287.7012)"
           id="g172"><path
             id="path174"
             style="fill:none;stroke:#2f1305;stroke-width:1.5;stroke-linecap:butt;stroke-linejoin:miter;stroke-miterlimit:2.61299992;stroke-dasharray:none;stroke-opacity:1"
             d="m 0,0 c 1.255,1.317 1.47,1.956 1.684,2.595 -2.121,1.656 -4.242,3.313 -6.285,4.28 -0.224,0.105 -0.448,0.204 -0.671,0.292 -2.249,0.895 -4.391,0.846 -5.752,0.488 -1.362,-0.359 -1.942,-1.027 -2.493,-2.03 -0.55,-1.003 -1.071,-2.343 -0.987,-4.086 0.074,-1.552 0.628,-3.423 1.26,-4.856 0.078,-0.178 0.158,-0.349 0.238,-0.511 0.185,-0.377 0.372,-0.71 0.561,-1.01 0.553,-0.876 1.12,-1.476 1.688,-2.075 l 0.431,-0.203 c 0.431,-0.203 1.294,-0.61 2.112,-0.342 0.467,0.152 0.919,0.523 1.507,1.087 0.442,0.425 0.961,0.958 1.621,1.588 C -3.551,-3.314 -1.255,-1.317 0,0 Z"
             inkscape:connector-curvature="0" /></g><g
           transform="translate(176.5601,281.1611)"
           id="g176"><path
             id="path178"
             style="fill:#6e2512;fill-opacity:1;fill-rule:evenodd;stroke:none"
             d="m 0,0 c -0.981,-1.252 -1.899,-2.485 -2.657,-3.502 0.747,-0.342 2.334,-0.818 3.35,-0.478 1.016,0.339 2.022,-0.041 2.983,0.895 0.274,0.266 0.565,0.558 0.881,0.875 0.346,0.21 0.709,0.527 1.14,0.94 0.473,0.454 0.902,0.576 2.075,1.698 1.172,1.121 4.01,4.27 4.865,5.168 0.855,0.897 0.654,0.719 0.877,1.011 0.329,0.329 -0.254,-0.304 0.91,0.935 1.163,1.238 2.113,4.095 2.458,5.149 -0.765,0.59 -1.531,1.179 -2.295,1.757 -1.478,-0.904 -2.873,-1.76 -4.058,-2.496 C 9.511,11.319 8.647,10.776 8.017,10.368 6.167,9.168 6.33,9.127 7.102,9.066 7.875,9.006 9.257,8.924 8.891,8.416 8.525,7.908 6.411,6.973 3.91,4.513 2.638,3.261 1.266,1.615 0,0"
             inkscape:connector-curvature="0" /></g><g
           transform="translate(193.3081,296.9014)"
           id="g180"><path
             id="path182"
             style="fill:none;stroke:#2f1305;stroke-width:1.5;stroke-linecap:round;stroke-linejoin:round;stroke-miterlimit:2.61299992;stroke-dasharray:none;stroke-opacity:1"
             d="m 0,0 c -3.615,-2.207 -7.229,-4.414 -8.96,-5.536 -1.732,-1.122 -1.58,-1.161 -0.857,-1.218 0.723,-0.057 2.017,-0.133 1.675,-0.608 -0.343,-0.476 -2.321,-1.351 -4.662,-3.653 -2.34,-2.302 -5.041,-6.031 -6.639,-8.162 -1.599,-2.131 -2.093,-2.663 -2.549,-3.063 -0.457,-0.4 -0.876,-0.666 0.761,-0.437 1.636,0.228 5.326,0.951 9.017,1.674"
             inkscape:connector-curvature="0" /></g><g
           transform="translate(254.8477,275.0317)"
           id="g184"><path
             id="path186"
             style="fill:#6e2512;fill-opacity:1;fill-rule:evenodd;stroke:none"
             d="M 0,0 C 0.981,-1.252 1.899,-2.485 2.657,-3.501 1.91,-3.844 0.323,-4.32 -0.693,-3.98 c -1.017,0.339 -2.022,-0.041 -2.983,0.895 -0.274,0.266 -0.565,0.558 -0.881,0.875 -0.346,0.21 -0.71,0.527 -1.14,0.94 -0.473,0.454 -0.902,0.576 -2.074,1.698 -1.173,1.121 -4.011,4.271 -4.866,5.168 -0.855,0.897 -0.653,0.719 -0.877,1.011 -0.329,0.329 0.253,-0.304 -0.91,0.935 -1.163,1.238 -2.113,4.095 -2.458,5.149 0.766,0.59 1.531,1.179 2.295,1.757 1.478,-0.904 2.872,-1.76 4.058,-2.496 1.018,-0.632 1.882,-1.176 2.512,-1.584 1.85,-1.2 1.688,-1.241 0.915,-1.301 C -7.874,9.006 -9.257,8.924 -8.892,8.417 -8.525,7.908 -6.41,6.973 -3.91,4.513 -2.638,3.261 -1.266,1.615 0,0"
             inkscape:connector-curvature="0" /></g><g
           transform="translate(238.0996,290.7725)"
           id="g188"><path
             id="path190"
             style="fill:none;stroke:#2f1305;stroke-width:1.5;stroke-linecap:round;stroke-linejoin:round;stroke-miterlimit:2.61299992;stroke-dasharray:none;stroke-opacity:1"
             d="m 0,0 c 3.614,-2.207 7.229,-4.414 8.961,-5.537 1.73,-1.122 1.579,-1.16 0.855,-1.217 C 9.094,-6.811 7.8,-6.887 8.143,-7.362 c 0.341,-0.476 2.321,-1.351 4.661,-3.654 2.34,-2.301 5.041,-6.03 6.639,-8.161 1.598,-2.131 2.093,-2.664 2.549,-3.063 0.457,-0.4 0.876,-0.666 -0.761,-0.438 -1.635,0.229 -5.327,0.951 -9.017,1.675"
             inkscape:connector-curvature="0" /></g><g
           transform="translate(212.7617,296.396)"
           id="g192"><path
             id="path194"
             style="fill:#6e2512;fill-opacity:1;fill-rule:evenodd;stroke:none"
             d="m 0,0 c -3.046,0.288 -6.711,0.458 -9.157,0.096 -2.446,-0.363 -3.674,-1.259 -4.847,-3.603 -1.174,-2.344 -2.295,-6.135 -0.355,-10.629 1.94,-4.495 6.941,-9.692 8.986,-11.228 2.044,-1.535 1.134,0.59 1.033,3.22 -0.101,2.631 0.607,5.768 1.501,8.567 0.894,2.8 1.974,5.262 5.166,6.41 3.193,1.149 8.496,0.986 11.635,0.83 3.138,-0.156 4.109,-0.304 2.739,0.571 -1.371,0.875 -5.085,2.772 -8.155,3.923 C 5.475,-0.692 3.047,-0.288 0,0"
             inkscape:connector-curvature="0" /></g><g
           transform="translate(212.7617,296.396)"
           id="g196"><path
             id="path198"
             style="fill:none;stroke:#2f1305;stroke-width:1.5;stroke-linecap:butt;stroke-linejoin:miter;stroke-miterlimit:2.61299992;stroke-dasharray:none;stroke-opacity:1"
             d="m 0,0 c -3.046,0.288 -6.711,0.458 -9.157,0.096 -2.446,-0.363 -3.674,-1.259 -4.847,-3.603 -1.174,-2.344 -2.295,-6.135 -0.355,-10.629 1.94,-4.495 6.941,-9.692 8.986,-11.228 2.044,-1.535 1.134,0.59 1.033,3.22 -0.101,2.631 0.607,5.768 1.501,8.567 0.894,2.8 1.974,5.262 5.166,6.41 3.193,1.149 8.496,0.986 11.635,0.83 3.138,-0.156 4.109,-0.304 2.739,0.571 -1.371,0.875 -5.085,2.772 -8.155,3.923 C 5.475,-0.692 3.047,-0.288 0,0 Z"
             inkscape:connector-curvature="0" /></g><g
           transform="translate(220.8096,294.5356)"
           id="g200"><path
             id="path202"
             style="fill:#6e2512;fill-opacity:1;fill-rule:evenodd;stroke:none"
             d="m 0,0 c -1.917,0.385 -4.234,0.737 -5.812,0.669 -1.579,-0.068 -2.418,-0.556 -3.32,-1.967 -0.902,-1.412 -1.866,-3.746 -0.931,-6.731 0.934,-2.985 3.766,-6.619 4.964,-7.731 1.198,-1.112 0.76,0.299 0.87,1.977 0.111,1.679 0.769,3.625 1.523,5.344 0.754,1.72 1.603,3.212 3.709,3.731 2.104,0.518 5.464,0.062 7.447,-0.246 1.985,-0.307 2.592,-0.466 1.779,0.181 C 9.416,-4.126 7.183,-2.674 5.308,-1.739 3.433,-0.803 1.916,-0.385 0,0"
             inkscape:connector-curvature="0" /></g><g
           transform="translate(220.8096,294.5356)"
           id="g204"><path
             id="path206"
             style="fill:none;stroke:#2f1305;stroke-width:1.5;stroke-linecap:butt;stroke-linejoin:miter;stroke-miterlimit:2.61299992;stroke-dasharray:none;stroke-opacity:1"
             d="m 0,0 c -1.917,0.385 -4.234,0.737 -5.812,0.669 -1.579,-0.068 -2.418,-0.556 -3.32,-1.967 -0.902,-1.412 -1.866,-3.746 -0.931,-6.731 0.934,-2.985 3.766,-6.619 4.964,-7.731 1.198,-1.112 0.76,0.299 0.87,1.977 0.111,1.679 0.769,3.625 1.523,5.344 0.754,1.72 1.603,3.212 3.709,3.731 2.104,0.518 5.464,0.062 7.447,-0.246 1.985,-0.307 2.592,-0.466 1.779,0.181 C 9.416,-4.126 7.183,-2.674 5.308,-1.739 3.433,-0.803 1.916,-0.385 0,0 Z"
             inkscape:connector-curvature="0" /></g><g
           transform="translate(222.7334,250.8418)"
           id="g208"><path
             id="path210"
             style="fill:none;stroke:#2f1305;stroke-width:1.5;stroke-linecap:round;stroke-linejoin:round;stroke-miterlimit:2.61299992;stroke-dasharray:none;stroke-opacity:1"
             d="M 0,0 C 2.267,0.513 4.534,1.027 6.467,1.284 8.398,1.54 9.997,1.54 11.595,1.54"
             inkscape:connector-curvature="0" /></g><g
           transform="translate(197.7212,250.6431)"
           id="g212"><path
             id="path214"
             style="fill:none;stroke:#2f1305;stroke-width:1.5;stroke-linecap:round;stroke-linejoin:round;stroke-miterlimit:2.61299992;stroke-dasharray:none;stroke-opacity:1"
             d="m 0,0 c -2.128,0.415 -4.256,0.83 -6.12,1.037 -1.863,0.208 -3.461,0.208 -5.059,0.208"
             inkscape:connector-curvature="0" /></g><g
           transform="translate(200.687,262.5415)"
           id="g216"><path
             id="path218"
             style="fill:none;stroke:#2f1305;stroke-width:1.5;stroke-linecap:round;stroke-linejoin:round;stroke-miterlimit:2.61299992;stroke-dasharray:none;stroke-opacity:1"
             d="m 0,0 c 0.185,-1.313 0.369,-2.626 0.271,-4.557 -0.098,-1.931 -0.479,-4.481 -1.634,-6.456 -1.157,-1.975 -3.088,-3.376 -3.288,-4.546 -0.2,-1.169 1.331,-2.106 2.862,-3.044"
             inkscape:connector-curvature="0" /></g><g
           transform="translate(185.626,105.0078)"
           id="g220"><path
             id="path222"
             style="fill:none;stroke:#2f1305;stroke-width:1.5;stroke-linecap:round;stroke-linejoin:round;stroke-miterlimit:2.61299992;stroke-dasharray:none;stroke-opacity:1"
             d="m 0,0 c -1.812,-0.531 -3.625,-1.062 -4.832,-1.956 -1.207,-0.893 -1.807,-2.148 -1.983,-3.508 -0.178,-1.359 0.069,-2.824 0.719,-3.584 0.649,-0.76 1.7,-0.813 2.75,-0.868"
             inkscape:connector-curvature="0" /></g><g
           transform="translate(239.6963,162.8223)"
           id="g224"><path
             id="path226"
             style="fill:#e98622;fill-opacity:1;fill-rule:evenodd;stroke:none"
             d="m 0,0 c 0.209,-1.009 0.202,-4.182 0.275,-8.185 0.073,-4.002 0.225,-8.835 -0.421,-11.574 -0.648,-2.74 -2.093,-3.387 -4.7,-3.766 -2.606,-0.381 -6.374,-0.496 -8.086,-0.401 -1.712,0.096 -1.369,0.401 -1.117,0.681 0.252,0.28 0.414,0.537 0.494,0.754 0.08,0.217 0.079,0.392 0.015,0.571 -0.064,0.178 -0.191,0.358 -0.481,0.352 -0.292,-0.006 -0.745,-0.201 -1.028,-0.146 -0.283,0.055 -0.395,0.358 -0.262,0.7 0.135,0.342 0.515,0.722 1.39,1.54 0.875,0.819 2.245,2.075 3.768,3.863 1.521,1.788 3.195,4.109 4.737,6.582 1.54,2.473 2.948,5.099 3.865,6.99 C -0.635,-0.148 -0.21,1.008 0,0"
             inkscape:connector-curvature="0" /></g><g
           transform="translate(188.3955,164.4824)"
           id="g228"><path
             id="path230"
             style="fill:#e98622;fill-opacity:1;fill-rule:evenodd;stroke:none"
             d="m 0,0 c -0.32,-1.202 -0.68,-6.204 -0.826,-10.927 -0.146,-4.723 -0.077,-9.168 0.68,-11.714 0.758,-2.546 2.204,-3.192 4.81,-3.573 2.606,-0.38 6.373,-0.494 7.984,-0.308 1.612,0.185 1.068,0.67 0.823,1.037 -0.245,0.366 -0.191,0.613 -0.17,0.74 0.021,0.126 0.008,0.131 0.082,0.18 0.074,0.049 0.236,0.143 0.548,0.195 0.311,0.051 0.772,0.058 1.037,0.156 0.266,0.098 0.336,0.286 0.181,0.57 -0.155,0.285 -0.535,0.665 -1.41,1.483 -0.875,0.818 -2.245,2.073 -3.767,3.862 -1.522,1.788 -3.196,4.11 -4.738,6.582 -1.54,2.474 -2.948,5.099 -3.792,7.711 C 0.599,-1.395 0.32,1.202 0,0"
             inkscape:connector-curvature="0" /></g><g
           transform="translate(268.3145,104.1572)"
           id="g232"><path
             id="path234"
             style="fill:#6e2512;fill-opacity:1;fill-rule:evenodd;stroke:none"
             d="m 0,0 c -4.263,1.584 -5.892,4.065 -4.509,8.135 -2.389,5.293 1.793,10.094 8.918,8.218 0.434,-0.079 0.875,-0.19 1.323,-0.335 0.33,-0.108 0.662,-0.233 0.997,-0.373 0.23,-0.079 0.453,-0.155 0.667,-0.228 1.733,-0.597 2.85,-1.005 4.049,-1.186 1.2,-0.179 2.483,-0.13 3.359,0.117 0.877,0.247 1.347,0.693 1.456,0.656 C 16.367,14.967 16.11,14.447 14.663,12.67 14.366,12.307 14.021,11.89 13.634,11.441 15.11,10.408 16.186,9.676 17.393,9.125 18.822,8.474 20.436,8.077 21.615,8.071 22.794,8.067 23.54,8.454 23.66,8.37 23.781,8.286 23.277,7.729 20.841,6.034 15.129,2.058 7.147,-2.656 0,0"
             inkscape:connector-curvature="0" /></g><g
           transform="translate(268.3145,104.1572)"
           id="g236"><path
             id="path238"
             style="fill:none;stroke:#2f1305;stroke-width:1.5;stroke-linecap:butt;stroke-linejoin:miter;stroke-miterlimit:2.61299992;stroke-dasharray:none;stroke-opacity:1"
             d="m 0,0 c -4.263,1.584 -5.892,4.065 -4.509,8.135 -2.389,5.293 1.793,10.094 8.918,8.218 0.434,-0.079 0.875,-0.19 1.323,-0.335 0.33,-0.108 0.662,-0.233 0.997,-0.373 0.23,-0.079 0.453,-0.155 0.667,-0.228 1.733,-0.597 2.85,-1.005 4.049,-1.186 1.2,-0.179 2.483,-0.13 3.359,0.117 0.877,0.247 1.347,0.693 1.456,0.656 C 16.367,14.967 16.11,14.447 14.663,12.67 14.366,12.307 14.021,11.89 13.634,11.441 15.11,10.408 16.186,9.676 17.393,9.125 18.822,8.474 20.436,8.077 21.615,8.071 22.794,8.067 23.54,8.454 23.66,8.37 23.781,8.286 23.277,7.729 20.841,6.034 15.129,2.058 7.147,-2.656 0,0 Z"
             inkscape:connector-curvature="0" /></g><g
           transform="translate(220.4385,270.9307)"
           id="g240"><path
             id="path242"
             style="fill:#2f1305;fill-opacity:1;fill-rule:evenodd;stroke:none"
             d="m 0,0 c -0.512,-0.187 -0.69,-0.104 -1.15,0.221 -0.461,0.325 -1.204,0.892 -1.328,1.432 -0.123,0.54 0.374,1.052 1.278,1.619 0.903,0.567 2.215,1.188 4.126,1.853 1.912,0.664 4.424,1.372 7.106,0.112 2.682,-1.26 5.533,-4.487 6.893,-6.234 1.359,-1.747 1.225,-2.013 -0.308,-0.99 C 15.083,-0.963 12.149,1.349 9.515,2.08 6.879,2.81 4.542,1.958 2.95,1.302 1.358,0.646 0.513,0.188 0,0"
             inkscape:connector-curvature="0" /></g><g
           transform="translate(201.3203,270.9307)"
           id="g244"><path
             id="path246"
             style="fill:#2f1305;fill-opacity:1;fill-rule:evenodd;stroke:none"
             d="M 0,0 C 0.512,-0.187 0.69,-0.104 1.151,0.221 1.612,0.546 2.355,1.113 2.478,1.653 2.601,2.193 2.104,2.705 1.201,3.272 0.297,3.839 -1.014,4.46 -2.926,5.125 c -1.912,0.664 -4.424,1.372 -7.106,0.112 -2.682,-1.26 -5.533,-4.487 -6.893,-6.234 -1.359,-1.747 -1.225,-2.013 0.308,-0.99 1.534,1.024 4.468,3.336 7.103,4.067 C -6.878,2.81 -4.542,1.958 -2.95,1.302 -1.358,0.646 -0.512,0.188 0,0"
             inkscape:connector-curvature="0" /></g><g
           transform="translate(227.1494,265.1436)"
           id="g248"><path
             id="path250"
             style="fill:#ffffff;fill-opacity:1;fill-rule:evenodd;stroke:none"
             d="m 0,0 c 8.295,1.516 10.784,-9.563 6.539,-13.593 0,0 -3.478,0.149 -5.157,0.061 -1.657,-0.087 -4.456,-0.502 -4.456,-0.502 C -4.968,-12.847 -8.26,-1.51 0,0"
             inkscape:connector-curvature="0" /></g><g
           transform="translate(227.1494,265.1436)"
           id="g252"><path
             id="path254"
             style="fill:none;stroke:#2f1305;stroke-width:1.5;stroke-linecap:butt;stroke-linejoin:miter;stroke-miterlimit:2.61299992;stroke-dasharray:none;stroke-opacity:1"
             d="m 0,0 c 8.295,1.516 10.784,-9.563 6.539,-13.593 0,0 -3.478,0.149 -5.157,0.061 -1.657,-0.087 -4.456,-0.502 -4.456,-0.502 C -4.968,-12.847 -8.26,-1.51 0,0 Z"
             inkscape:connector-curvature="0" /></g><g
           transform="translate(223.1406,252.9351)"
           id="g256"><path
             id="path258"
             style="fill:#2f1305;fill-opacity:1;fill-rule:evenodd;stroke:none"
             d="M 0,0 C -0.729,2.475 0.639,5.142 3.059,5.958 5.477,6.774 8.03,5.431 8.76,2.958 9.295,1.142 8.7,-0.777 7.39,-1.994 6.358,-1.632 5.16,-1.528 3.799,-1.777 3.019,-1.919 2.346,-2.154 1.768,-2.461 0.949,-1.897 0.311,-1.051 0,0"
             inkscape:connector-curvature="0" /></g><g
           transform="translate(225.8477,257.1465)"
           id="g260"><path
             id="path262"
             style="fill:#ffffff;fill-opacity:1;fill-rule:evenodd;stroke:none"
             d="M 0,0 C 0.333,-0.083 0.5,-0.599 0.372,-1.152 0.244,-1.705 -0.129,-2.085 -0.462,-2.002 -0.794,-1.919 -0.961,-1.403 -0.833,-0.85 -0.706,-0.297 -0.333,0.083 0,0"
             inkscape:connector-curvature="0" /></g><g
           transform="translate(193.1265,265.293)"
           id="g264"><path
             id="path266"
             style="fill:#ffffff;fill-opacity:1;fill-rule:evenodd;stroke:none"
             d="m 0,0 c 8.423,0.422 9.448,-10.885 4.713,-14.329 0,0 -3.429,0.601 -5.106,0.733 -1.653,0.129 -4.482,0.082 -4.482,0.082 C -6.598,-12.09 -8.386,-0.421 0,0"
             inkscape:connector-curvature="0" /></g><g
           transform="translate(193.1265,265.293)"
           id="g268"><path
             id="path270"
             style="fill:none;stroke:#2f1305;stroke-width:1.5;stroke-linecap:butt;stroke-linejoin:miter;stroke-miterlimit:2.61299992;stroke-dasharray:none;stroke-opacity:1"
             d="m 0,0 c 8.423,0.422 9.448,-10.885 4.713,-14.329 0,0 -3.429,0.601 -5.106,0.733 -1.653,0.129 -4.482,0.082 -4.482,0.082 C -6.598,-12.09 -8.386,-0.421 0,0 Z"
             inkscape:connector-curvature="0" /></g><g
           transform="translate(189.7075,253.3247)"
           id="g272"><path
             id="path274"
             style="fill:#2f1305;fill-opacity:1;fill-rule:evenodd;stroke:none"
             d="M 0,0 C -0.401,2.548 1.303,5.014 3.808,5.509 6.312,6.003 8.668,4.339 9.07,1.792 9.364,-0.078 8.525,-1.904 7.067,-2.939 6.091,-2.446 4.917,-2.187 3.535,-2.256 2.742,-2.296 2.045,-2.441 1.432,-2.67 0.694,-2.005 0.17,-1.083 0,0"
             inkscape:connector-curvature="0" /></g><g
           transform="translate(192.9399,257.1475)"
           id="g276"><path
             id="path278"
             style="fill:#ffffff;fill-opacity:1;fill-rule:evenodd;stroke:none"
             d="M 0,0 C 0.319,-0.126 0.417,-0.659 0.219,-1.19 0.021,-1.722 -0.399,-2.051 -0.719,-1.925 -1.038,-1.799 -1.136,-1.266 -0.937,-0.734 -0.739,-0.203 -0.319,0.126 0,0"
             inkscape:connector-curvature="0" /></g><g
           transform="translate(216.167,246.7114)"
           id="g280"><path
             id="path282"
             style="fill:#2f1305;fill-opacity:1;fill-rule:evenodd;stroke:none"
             d="m 0,0 c -2.424,0.386 -7.503,0.494 -11.465,0.491 -3.962,-0.003 -6.806,-0.118 -8.209,-0.353 -1.402,-0.237 -1.361,-0.594 0.076,-1.918 1.438,-1.325 4.274,-3.618 6.146,-4.82 1.872,-1.201 2.782,-1.311 3.645,-1.233 0.863,0.077 1.68,0.34 2.921,0.875 1.241,0.535 2.907,1.342 4.452,2.261 1.545,0.919 2.969,1.951 3.797,2.799 C 2.19,-1.05 2.423,-0.386 0,0"
             inkscape:connector-curvature="0" /></g><g
           transform="translate(162.1572,208.5781)"
           id="g284"><path
             id="path286"
             style="fill:#e5e5e5;fill-opacity:1;fill-rule:evenodd;stroke:none"
             d="m 0,0 c 10.281,-0.395 30.93,-1.189 45.331,-1.181 14.401,0.008 22.556,0.819 27.291,1.131 4.735,0.312 6.052,0.124 6.71,0.031 0.658,-0.093 0.658,-0.093 1.494,-1.518 0.835,-1.425 2.506,-4.275 2.737,-11.595 0.23,-7.32 -0.978,-19.111 -2.052,-30.119 -1.073,-11.008 -2.011,-21.231 -2.48,-26.344 -0.468,-5.112 -0.468,-5.112 -0.574,-5.118 -0.104,-0.006 -0.314,-0.017 -8.054,-0.113 -7.739,-0.097 -23.008,-0.278 -34.101,-0.117 -11.093,0.159 -18.01,0.659 -23.44,1.008 -5.43,0.351 -9.374,0.551 -11.206,0.651 -1.832,0.099 -1.552,0.099 -1.725,7.853 -0.174,7.754 -0.802,23.262 -1.428,34.641 -0.626,11.379 -1.252,18.629 -2.738,23.145 -1.486,4.517 -3.834,6.298 -4.956,7.182 -1.122,0.883 -1.02,0.867 -1.012,0.861 C -10.195,0.393 -10.281,0.396 0,0"
             inkscape:connector-curvature="0" /></g><g
           transform="translate(162.1572,208.5781)"
           id="g288"><path
             id="path290"
             style="fill:none;stroke:#b2b2b2;stroke-width:1.5;stroke-linecap:butt;stroke-linejoin:miter;stroke-miterlimit:2.61299992;stroke-dasharray:none;stroke-opacity:1"
             d="m 0,0 c 10.281,-0.395 30.93,-1.189 45.331,-1.181 14.401,0.008 22.556,0.819 27.291,1.131 4.735,0.312 6.052,0.124 6.71,0.031 0.658,-0.093 0.658,-0.093 1.494,-1.518 0.835,-1.425 2.506,-4.275 2.737,-11.595 0.23,-7.32 -0.978,-19.111 -2.052,-30.119 -1.073,-11.008 -2.011,-21.231 -2.48,-26.344 -0.468,-5.112 -0.468,-5.112 -0.574,-5.118 -0.104,-0.006 -0.314,-0.017 -8.054,-0.113 -7.739,-0.097 -23.008,-0.278 -34.101,-0.117 -11.093,0.159 -18.01,0.659 -23.44,1.008 -5.43,0.351 -9.374,0.551 -11.206,0.651 -1.832,0.099 -1.552,0.099 -1.725,7.853 -0.174,7.754 -0.802,23.262 -1.428,34.641 -0.626,11.379 -1.252,18.629 -2.738,23.145 -1.486,4.517 -3.834,6.298 -4.956,7.182 -1.122,0.883 -1.02,0.867 -1.012,0.861 C -10.195,0.393 -10.281,0.396 0,0 Z"
             inkscape:connector-curvature="0" /></g><g
           transform="translate(159.2178,208.6914)"
           id="g292"><path
             id="path294"
             style="fill:none;stroke:#231f20;stroke-width:0.5;stroke-linecap:butt;stroke-linejoin:miter;stroke-miterlimit:2.61299992;stroke-dasharray:none;stroke-opacity:1"
             d="m 0,0 c -3.962,0.689 -7.924,1.378 -10.406,0.39 -2.481,-0.99 -3.481,-3.657 -3.854,-7.708 -0.373,-4.051 -0.119,-9.488 -0.16,-12.197 -0.042,-2.708 -0.379,-2.687 -0.423,-2.761 -0.043,-0.074 0.207,-0.24 4.665,0.176 4.458,0.417 13.125,1.417 26.667,1.708 13.541,0.292 31.958,-0.125 42.19,-0.371 10.231,-0.246 12.278,-0.322 13.716,0.414 1.437,0.738 2.266,2.287 2.99,5.101 0.723,2.814 1.342,6.893 2.329,9.412 0.988,2.521 2.346,3.482 3.415,3.92 1.07,0.438 1.853,0.352 2.595,-0.627 0.742,-0.978 1.442,-2.849 2.143,-4.719"
             inkscape:connector-curvature="0" /></g><g
           transform="translate(167.418,196.2139)"
           id="g296"><path
             id="path298"
             style="fill:#e98622;fill-opacity:1;fill-rule:evenodd;stroke:none"
             d="m 0,0 c -0.717,2.739 -2.75,4.427 -4.613,5.031 -1.865,0.605 -3.559,0.125 -4.867,-0.333 -1.308,-0.457 -2.23,-0.893 -3.182,-2.059 -0.951,-1.167 -1.932,-3.065 -2.462,-4.972 -0.53,-1.907 -0.608,-3.823 -0.282,-5.887 0.325,-2.062 1.056,-4.27 2.547,-5.489 1.491,-1.219 3.744,-1.447 5.582,-1.442 1.839,0.005 3.264,0.245 4.327,1.088 1.064,0.844 1.766,2.292 2.417,4.912 C 0.118,-6.531 0.717,-2.739 0,0"
             inkscape:connector-curvature="0" /></g><g
           transform="translate(167.418,196.2139)"
           id="g300"><path
             id="path302"
             style="fill:none;stroke:#2f1305;stroke-width:1.5;stroke-linecap:butt;stroke-linejoin:miter;stroke-miterlimit:2.61299992;stroke-dasharray:none;stroke-opacity:1"
             d="m 0,0 c -0.717,2.739 -2.75,4.427 -4.613,5.031 -1.865,0.605 -3.559,0.125 -4.867,-0.333 -1.308,-0.457 -2.23,-0.893 -3.182,-2.059 -0.951,-1.167 -1.932,-3.065 -2.462,-4.972 -0.53,-1.907 -0.608,-3.823 -0.282,-5.887 0.325,-2.062 1.056,-4.27 2.547,-5.489 1.491,-1.219 3.744,-1.447 5.582,-1.442 1.839,0.005 3.264,0.245 4.327,1.088 1.064,0.844 1.766,2.292 2.417,4.912 C 0.118,-6.531 0.717,-2.739 0,0 Z"
             inkscape:connector-curvature="0" /></g><g
           transform="translate(148.812,209.0811)"
           id="g304"><path
             id="path306"
             style="fill:#6666cb;fill-opacity:1;fill-rule:evenodd;stroke:none"
             d="m 0,0 c -2.481,-0.989 -3.481,-3.656 -3.854,-7.708 -0.373,-4.051 -0.119,-9.487 -0.16,-12.196 -0.042,-2.708 -0.379,-2.688 -0.423,-2.762 -0.043,-0.073 0.207,-0.239 4.665,0.177 2.403,0.224 6.03,0.619 10.984,0.98 1.911,0.139 4.019,0.274 6.33,0.392 2.813,0.143 5.927,0.263 9.353,0.336 4.037,0.087 8.508,0.111 13.065,0.095 0.281,-0.001 0.561,-0.001 0.842,-0.003 2.185,-0.01 4.385,-0.029 6.561,-0.053 1.973,-0.023 3.927,-0.05 5.833,-0.081 1.051,-0.017 2.086,-0.034 3.103,-0.053 4.867,-0.089 9.301,-0.192 12.785,-0.276 10.232,-0.246 12.279,-0.323 13.716,0.414 0.188,0.096 0.366,0.206 0.533,0.331 0.959,0.713 1.616,1.907 2.18,3.77 0.095,0.314 0.187,0.647 0.278,0.999 0.723,2.815 1.341,6.893 2.329,9.412 0.334,0.851 0.709,1.524 1.101,2.06 0.77,1.051 1.605,1.57 2.314,1.86 0.246,0.101 0.477,0.174 0.696,0.215 0.732,0.136 1.328,-0.088 1.898,-0.842 0.242,-0.317 0.479,-0.729 0.712,-1.205 0.239,-0.485 0.474,-1.037 0.708,-1.623 0.12,-0.3 0.24,-0.608 0.359,-0.922 0.122,-0.319 0.243,-0.644 0.365,-0.968 -0.076,0.378 -0.157,0.732 -0.241,1.066 -0.102,0.406 -0.209,0.781 -0.319,1.128 -0.097,0.308 -0.196,0.593 -0.296,0.858 -0.452,1.204 -0.915,1.994 -1.246,2.559 -0.502,0.855 -0.702,1.197 -0.924,1.353 -0.149,0.105 -0.306,0.127 -0.57,0.166 -0.421,0.059 -1.111,0.157 -2.795,0.138 -0.539,-0.006 -1.179,-0.023 -1.946,-0.058 -0.58,-0.028 -1.233,-0.064 -1.969,-0.112 -0.389,-0.026 -0.801,-0.054 -1.238,-0.087 -4.88,-0.353 -12.835,-1.036 -26.053,-1.044 -3.304,-0.002 -6.939,0.038 -10.7,0.107 -0.236,0.004 -0.473,0.009 -0.709,0.013 -2.246,0.043 -4.533,0.094 -6.817,0.153 -1.907,0.049 -3.812,0.101 -5.693,0.158 -4.315,0.128 -8.497,0.271 -12.248,0.406 -0.752,0.028 -1.487,0.054 -2.202,0.08 -2.625,0.098 -4.985,0.189 -6.962,0.264 -1.093,0.043 -2.068,0.08 -2.939,0.113 C 6.443,0.3 2.481,0.988 0,0"
             inkscape:connector-curvature="0" /></g><g
           transform="translate(148.812,209.0811)"
           id="g308"><path
             id="path310"
             style="fill:none;stroke:#b2b2b2;stroke-width:1.5;stroke-linecap:butt;stroke-linejoin:miter;stroke-miterlimit:2.61299992;stroke-dasharray:none;stroke-opacity:1"
             d="m 0,0 c -2.481,-0.989 -3.481,-3.656 -3.854,-7.708 -0.373,-4.051 -0.119,-9.487 -0.16,-12.196 -0.042,-2.708 -0.379,-2.688 -0.423,-2.762 -0.043,-0.073 0.207,-0.239 4.665,0.177 2.403,0.224 6.03,0.619 10.984,0.98 1.911,0.139 4.019,0.274 6.33,0.392 2.813,0.143 5.927,0.263 9.353,0.336 4.037,0.087 8.508,0.111 13.065,0.095 0.281,-0.001 0.561,-0.001 0.842,-0.003 2.185,-0.01 4.385,-0.029 6.561,-0.053 1.973,-0.023 3.927,-0.05 5.833,-0.081 1.051,-0.017 2.086,-0.034 3.103,-0.053 4.867,-0.089 9.301,-0.192 12.785,-0.276 10.232,-0.246 12.279,-0.323 13.716,0.414 0.188,0.096 0.366,0.206 0.533,0.331 0.959,0.713 1.616,1.907 2.18,3.77 0.095,0.314 0.187,0.647 0.278,0.999 0.723,2.815 1.341,6.893 2.329,9.412 0.334,0.851 0.709,1.524 1.101,2.06 0.77,1.051 1.605,1.57 2.314,1.86 0.246,0.101 0.477,0.174 0.696,0.215 0.732,0.136 1.328,-0.088 1.898,-0.842 0.242,-0.317 0.479,-0.729 0.712,-1.205 0.239,-0.485 0.474,-1.037 0.708,-1.623 0.12,-0.3 0.24,-0.608 0.359,-0.922 0.122,-0.319 0.243,-0.644 0.365,-0.968 -0.076,0.378 -0.157,0.732 -0.241,1.066 -0.102,0.406 -0.209,0.781 -0.319,1.128 -0.097,0.308 -0.196,0.593 -0.296,0.858 -0.452,1.204 -0.915,1.994 -1.246,2.559 -0.502,0.855 -0.702,1.197 -0.924,1.353 -0.149,0.105 -0.306,0.127 -0.57,0.166 -0.421,0.059 -1.111,0.157 -2.795,0.138 -0.539,-0.006 -1.179,-0.023 -1.946,-0.058 -0.58,-0.028 -1.233,-0.064 -1.969,-0.112 -0.389,-0.026 -0.801,-0.054 -1.238,-0.087 -4.88,-0.353 -12.835,-1.036 -26.053,-1.044 -3.304,-0.002 -6.939,0.038 -10.7,0.107 -0.236,0.004 -0.473,0.009 -0.709,0.013 -2.246,0.043 -4.533,0.094 -6.817,0.153 -1.907,0.049 -3.812,0.101 -5.693,0.158 -4.315,0.128 -8.497,0.271 -12.248,0.406 -0.752,0.028 -1.487,0.054 -2.202,0.08 -2.625,0.098 -4.985,0.189 -6.962,0.264 -1.093,0.043 -2.068,0.08 -2.939,0.113 C 6.443,0.3 2.481,0.988 0,0 Z"
             inkscape:connector-curvature="0" /></g><g
           transform="translate(248.7979,298.7285)"
           id="g312"><path
             id="path314"
             style="fill:#fdca02;fill-opacity:1;fill-rule:evenodd;stroke:none"
             d="M 0,0 C 0.649,2.218 1.189,3.044 1.32,3.756 1.45,4.468 1.171,5.064 0.404,5.75 -0.362,6.437 -1.618,7.213 -2.31,8.246 c -0.691,1.032 -0.819,2.321 -0.919,4.473 -0.099,2.151 -0.169,5.164 -0.76,7.955 -0.59,2.792 -1.7,5.362 -3.518,7.864 -1.816,2.502 -4.34,4.935 -6.948,6.747 -1.058,0.735 -2.129,1.367 -3.207,1.912 -0.376,0.776 -0.916,1.679 -1.347,2.214 -0.584,0.726 -0.967,0.776 -1.298,0.768 -0.331,-0.007 -0.611,-0.071 -1.005,-0.251 -0.395,-0.18 -0.905,-0.475 -1.312,-0.582 -0.195,-0.052 -0.366,-0.06 -0.466,-0.089 -2.124,0.574 -4.192,0.906 -5.699,1.116 -0.195,0.45 -0.707,0.817 -1.122,1.328 -0.496,0.612 -0.854,1.432 -1.17,1.864 -0.316,0.434 -0.593,0.479 -0.892,0.471 -0.299,-0.009 -0.621,-0.071 -1.032,-0.553 -0.411,-0.483 -0.911,-1.383 -1.466,-2.026 -0.301,-0.35 -0.621,-0.623 -0.901,-0.861 -1.483,-0.107 -3.521,-0.293 -5.642,-0.707 -0.084,0.019 -0.183,0.041 -0.29,0.076 -0.399,0.134 -0.888,0.463 -1.27,0.668 -0.382,0.206 -0.657,0.288 -0.987,0.318 -0.329,0.029 -0.715,0.005 -1.346,-0.681 -0.425,-0.462 -0.962,-1.225 -1.377,-1.925 -1.261,-0.509 -2.52,-1.128 -3.77,-1.879 -2.723,-1.635 -5.403,-3.896 -7.381,-6.272 -1.979,-2.376 -3.256,-4.867 -4.031,-7.613 -0.774,-2.747 -1.044,-5.748 -1.286,-7.888 -0.242,-2.14 -0.455,-3.418 -1.213,-4.402 -0.759,-0.985 -2.062,-1.676 -2.873,-2.31 -0.811,-0.634 -1.129,-1.21 -1.047,-1.929 0.084,-0.719 0.568,-1.579 1.069,-3.836 2.453,-11.037 10.517,-16.327 34.976,-16.866 C -9.246,-15.148 -2.909,-9.93 0,0"
             inkscape:connector-curvature="0" /></g><g
           transform="translate(248.7979,298.7285)"
           id="g316"><path
             id="path318"
             style="fill:none;stroke:#e98622;stroke-width:1.5;stroke-linecap:butt;stroke-linejoin:miter;stroke-miterlimit:2.61299992;stroke-dasharray:none;stroke-opacity:1"
             d="M 0,0 C 0.649,2.218 1.189,3.044 1.32,3.756 1.45,4.468 1.171,5.064 0.404,5.75 -0.362,6.437 -1.618,7.213 -2.31,8.246 c -0.691,1.032 -0.819,2.321 -0.919,4.473 -0.099,2.151 -0.169,5.164 -0.76,7.955 -0.59,2.792 -1.7,5.362 -3.518,7.864 -1.816,2.502 -4.34,4.935 -6.948,6.747 -1.058,0.735 -2.129,1.367 -3.207,1.912 -0.376,0.776 -0.916,1.679 -1.347,2.214 -0.584,0.726 -0.967,0.776 -1.298,0.768 -0.331,-0.007 -0.611,-0.071 -1.005,-0.251 -0.395,-0.18 -0.905,-0.475 -1.312,-0.582 -0.195,-0.052 -0.366,-0.06 -0.466,-0.089 -2.124,0.574 -4.192,0.906 -5.699,1.116 -0.195,0.45 -0.707,0.817 -1.122,1.328 -0.496,0.612 -0.854,1.432 -1.17,1.864 -0.316,0.434 -0.593,0.479 -0.892,0.471 -0.299,-0.009 -0.621,-0.071 -1.032,-0.553 -0.411,-0.483 -0.911,-1.383 -1.466,-2.026 -0.301,-0.35 -0.621,-0.623 -0.901,-0.861 -1.483,-0.107 -3.521,-0.293 -5.642,-0.707 -0.084,0.019 -0.183,0.041 -0.29,0.076 -0.399,0.134 -0.888,0.463 -1.27,0.668 -0.382,0.206 -0.657,0.288 -0.987,0.318 -0.329,0.029 -0.715,0.005 -1.346,-0.681 -0.425,-0.462 -0.962,-1.225 -1.377,-1.925 -1.261,-0.509 -2.52,-1.128 -3.77,-1.879 -2.723,-1.635 -5.403,-3.896 -7.381,-6.272 -1.979,-2.376 -3.256,-4.867 -4.031,-7.613 -0.774,-2.747 -1.044,-5.748 -1.286,-7.888 -0.242,-2.14 -0.455,-3.418 -1.213,-4.402 -0.759,-0.985 -2.062,-1.676 -2.873,-2.31 -0.811,-0.634 -1.129,-1.21 -1.047,-1.929 0.084,-0.719 0.568,-1.579 1.069,-3.836 2.453,-11.037 10.517,-16.327 34.976,-16.866 C -9.246,-15.148 -2.909,-9.93 0,0 Z"
             inkscape:connector-curvature="0" /></g><g
           transform="translate(203.4321,336.2329)"
           id="g320"><path
             id="path322"
             style="fill:#ffffff;fill-opacity:1;fill-rule:evenodd;stroke:none"
             d="m 0,0 c -0.207,-1.25 -0.454,-3.528 -0.501,-4.958 -0.047,-1.431 0.104,-2.014 0.219,-2.233 0.116,-0.22 0.196,-0.076 0.253,0.698 0.058,0.773 0.093,2.177 0.165,3.514 0.071,1.338 0.177,2.61 0.251,3.379 C 0.46,1.168 0.501,1.434 0.437,1.454 0.375,1.475 0.207,1.25 0,0"
             inkscape:connector-curvature="0" /></g><g
           transform="translate(230.4941,332.7007)"
           id="g324"><path
             id="path326"
             style="fill:#ffffff;fill-opacity:1;fill-rule:evenodd;stroke:none"
             d="M 0,0 C 0.161,-0.951 0.385,-2.564 0.481,-3.513 0.578,-4.461 0.547,-4.745 0.441,-4.87 0.336,-4.995 0.155,-4.961 0.04,-4.439 -0.076,-3.917 -0.128,-2.905 -0.184,-1.83 -0.238,-0.754 -0.297,0.386 -0.277,0.812 -0.258,1.239 -0.16,0.951 0,0"
             inkscape:connector-curvature="0" /></g><g
           transform="translate(216.0439,337.4023)"
           id="g328"><path
             id="path330"
             style="fill:#ffffff;fill-opacity:1;fill-rule:evenodd;stroke:none"
             d="m 0,0 c 0.038,-1.589 0.046,-4.572 0.024,-6.173 -0.021,-1.601 -0.071,-1.82 -0.205,-1.857 -0.134,-0.036 -0.354,0.108 -0.42,1.666 -0.065,1.558 0.022,4.529 0.119,6.155 0.096,1.626 0.202,1.907 0.289,1.95 C -0.106,1.785 -0.038,1.589 0,0"
             inkscape:connector-curvature="0" /></g><g
           id="g332"><g
             id="g334" /><g
             id="g346"><g
               style="opacity:0.130005"
               id="g344"
               clip-path="url(#clipPath338)"><g
                 id="g342"
                 transform="translate(213.4297,333.6523)"><path
                   id="path340"
                   style="fill:#545454;fill-opacity:1;fill-rule:evenodd;stroke:none"
                   d="m 0,0 c 0.059,1.618 0.136,3.669 0.219,5.863 0.22,0.193 0.454,0.41 0.678,0.67 0.379,0.438 0.731,0.996 1.047,1.46 C 1.925,6.802 1.887,5.543 1.787,4.081 1.641,1.9 1.361,-0.734 1.021,-2.273 0.683,-3.813 0.283,-4.259 0.078,-4.316 c -0.132,-0.038 -0.183,0.088 -0.182,0.811 0.018,0.404 0.023,0.854 0.029,1.303 0,10e-4 0.001,10e-4 0.001,0.002 0.004,0.146 0.009,0.301 0.014,0.467 C -0.043,-1.239 -0.022,-0.655 0,0"
                   inkscape:connector-curvature="0" /></g></g></g></g><g
           id="g348"><g
             id="g350" /><g
             id="g362"><g
               style="opacity:0.130005"
               id="g360"
               clip-path="url(#clipPath354)"><g
                 id="g358"
                 transform="translate(218.1514,335.4253)"><path
                   id="path356"
                   style="fill:#545454;fill-opacity:1;fill-rule:evenodd;stroke:none"
                   d="M 0,0 C -0.053,1.922 0.037,3.924 0.127,5.926 0.307,5.614 0.506,5.287 0.735,5.004 1.145,4.5 1.647,4.137 1.85,3.695 L 1.519,-3.1 C 1.413,-5.327 1.399,-5.73 1.235,-5.844 1.071,-5.958 0.757,-5.782 0.502,-4.773 0.248,-3.764 0.053,-1.922 0,0"
                   inkscape:connector-curvature="0" /></g></g></g></g><g
           id="g364"><g
             id="g366" /><g
             id="g378"><g
               style="opacity:0.130005"
               id="g376"
               clip-path="url(#clipPath370)"><g
                 id="g374"
                 transform="translate(231.3955,330.3618)"><path
                   id="path372"
                   style="fill:#545454;fill-opacity:1;fill-rule:evenodd;stroke:none"
                   d="M 0,0 C -0.092,1.209 -0.176,3.386 -0.26,5.564 0.217,5.323 0.692,5.065 1.165,4.789 1.029,3.427 0.898,2.183 0.781,1.246 0.592,-0.271 0.44,-0.982 0.315,-1.217 0.189,-1.451 0.092,-1.209 0,0"
                   inkscape:connector-curvature="0" /></g></g></g></g><g
           id="g380"><g
             id="g382" /><g
             id="g394"><g
               style="opacity:0.130005"
               id="g392"
               clip-path="url(#clipPath386)"><g
                 id="g390"
                 transform="translate(201.8384,332.1094)"><path
                   id="path388"
                   style="fill:#545454;fill-opacity:1;fill-rule:evenodd;stroke:none"
                   d="m 0,0 c -0.159,1.229 -0.405,3.292 -0.529,4.443 0.401,0.185 0.802,0.359 1.204,0.521 0.05,0.083 0.1,0.166 0.153,0.251 C 0.797,4.98 0.769,4.735 0.742,4.475 0.584,2.947 0.493,0.93 0.432,-0.234 0.37,-1.398 0.338,-1.709 0.286,-1.671 0.234,-1.632 0.162,-1.245 0,0"
                   inkscape:connector-curvature="0" /></g></g></g></g><g
           id="g396"><g
             id="g398" /><g
             mask="url(#mask418)"
             id="g444"><g
               id="g446" /><g
               id="g458"><g
                 id="g456"
                 clip-path="url(#clipPath450)"><g
                   id="g454"
                   transform="translate(185.958,312.6807)"><path
                     id="path452"
                     style="fill:#a5a8ab;fill-opacity:1;fill-rule:evenodd;stroke:none"
                     d="m 0,0 c 0.03,0.235 0.059,0.481 0.088,0.741 0.242,2.14 0.512,5.141 1.286,7.888 0.774,2.746 2.052,5.237 4.031,7.613 1.978,2.376 4.658,4.636 7.381,6.272 0.851,0.511 1.707,0.962 2.565,1.358 0.124,-1.152 0.37,-3.215 0.529,-4.443 0.162,-1.245 0.234,-1.633 0.287,-1.671 0.052,-0.039 0.083,0.272 0.145,1.436 0.061,1.164 0.153,3.181 0.31,4.709 0.027,0.261 0.056,0.506 0.086,0.741 0.388,0.625 0.85,1.267 1.225,1.674 0.631,0.686 1.017,0.71 1.346,0.681 0.33,-0.03 0.605,-0.112 0.987,-0.318 0.382,-0.205 0.871,-0.534 1.27,-0.668 0.107,-0.035 0.206,-0.057 0.29,-0.076 2.121,0.414 4.158,0.6 5.642,0.707 0.072,0.061 0.146,0.125 0.222,0.191 l -0.218,-5.863 c -0.435,-0.004 -0.87,-0.008 -1.48,0.086 -1.572,0.241 -3.216,0.872 -4.511,1.214 -0.475,0.126 -0.499,0.072 -0.869,-0.806 -0.371,-0.879 -1.089,-2.58 -1.683,-3.53 -0.769,-1.232 -1.464,-1.289 -1.542,-1.411 0.022,0.126 0.041,0.302 0.058,0.534 0.058,0.774 0.094,2.177 0.165,3.515 0.071,1.338 0.177,2.61 0.251,3.379 0.074,0.768 0.114,1.033 0.051,1.053 -0.063,0.021 -0.231,-0.203 -0.438,-1.454 -0.207,-1.25 -0.453,-3.528 -0.501,-4.958 -0.047,-1.43 0.104,-2.014 0.219,-2.233 0.007,-0.013 0.014,-0.025 0.021,-0.036 -0.595,-1.017 -0.373,-2.259 0.714,-3.398 0.733,-0.768 1.943,-1.598 2.88,-1.978 0.938,-0.38 1.602,-0.31 2.818,-10e-4 1.216,0.308 2.984,0.855 3.793,1.398 0.808,0.542 0.654,1.079 0.461,1.674 -0.516,1.579 -0.622,1.631 -0.526,3.143 l 0.018,0.592 v -10e-4 c -0.002,-0.105 -0.003,-0.2 -0.003,-0.287 -0.002,-0.723 0.05,-0.849 0.182,-0.812 0.205,0.057 0.604,0.503 0.943,2.043 0.588,2.668 0.875,7.292 0.923,10.266 0.148,0.217 0.288,0.413 0.419,0.567 0.411,0.482 0.732,0.544 1.032,0.553 0.299,0.008 0.575,-0.038 0.892,-0.471 0.17,-0.233 0.352,-0.578 0.561,-0.942 -0.09,-2.003 -0.179,-4.004 -0.127,-5.926 0.053,-1.923 0.248,-3.765 0.502,-4.773 0.255,-1.01 0.57,-1.185 0.734,-1.071 0.164,0.114 0.177,0.517 0.283,2.744 l 0.331,6.794 c 0.003,-0.006 0.006,-0.012 0.008,-0.019 1.507,-0.21 3.575,-0.541 5.699,-1.115 0.1,0.029 0.271,0.037 0.466,0.089 0.407,0.106 0.917,0.402 1.311,0.582 0.395,0.18 0.675,0.244 1.006,0.251 0.331,0.007 0.714,-0.042 1.298,-0.768 0.431,-0.535 0.971,-1.438 1.347,-2.214 0.084,-2.178 0.168,-4.354 0.26,-5.564 0.091,-1.209 0.189,-1.451 0.315,-1.217 0.125,0.235 0.276,0.946 0.466,2.463 0.117,0.937 0.248,2.181 0.384,3.543 0.597,-0.349 1.192,-0.727 1.782,-1.137 2.608,-1.812 5.132,-4.246 6.948,-6.747 1.817,-2.502 2.928,-5.072 3.518,-7.864 0.59,-2.791 0.661,-5.805 0.76,-7.955 0.1,-2.152 0.228,-3.441 0.919,-4.474 -0.757,-1.295 -1.513,-2.591 -3.531,-3.735 -5.3,-3.007 -25.848,-4.599 -32.477,-4.022 -7.833,0.682 -18.472,3.986 -21.307,5.196 -2.835,1.209 -3.885,2.631 -4.138,3.933 -0.058,0.297 -0.075,0.587 -0.059,0.873 0.003,0.056 0.007,0.112 0.013,0.167 0.229,0.365 0.404,0.765 0.548,1.234 0.011,0.038 0.023,0.077 0.034,0.116 0.127,0.437 0.227,0.919 0.296,1.278 0.024,0.123 0.044,0.231 0.06,0.319 C 0.01,-0.128 0.026,-0.037 0,0 m 44.576,15.581 c 0.115,-0.522 0.296,-0.556 0.402,-0.431 0.105,0.125 0.136,0.409 0.04,1.357 -0.097,0.949 -0.321,2.562 -0.482,3.513 -0.16,0.951 -0.258,1.239 -0.277,0.813 -0.02,-0.427 0.039,-1.567 0.094,-2.643 0.055,-1.075 0.107,-2.086 0.223,-2.609 m -14.972,8.932 c -0.097,-1.626 -0.184,-4.597 -0.119,-6.155 0.066,-1.558 0.286,-1.703 0.42,-1.666 0.134,0.037 0.184,0.255 0.205,1.856 0.022,1.601 0.014,4.585 -0.024,6.174 -0.038,1.589 -0.107,1.784 -0.193,1.741 -0.087,-0.043 -0.193,-0.324 -0.289,-1.95"
                     inkscape:connector-curvature="0" /></g></g></g></g></g><g
           id="g460"><g
             id="g462" /><g
             id="g474"><g
               style="opacity:0.16999799"
               id="g472"
               clip-path="url(#clipPath466)"><g
                 id="g470"
                 transform="translate(191.4473,293.2681)"><path
                   id="path468"
                   style="fill:#ffffff;fill-opacity:1;fill-rule:evenodd;stroke:none"
                   d="m 0,0 c 0.441,1.095 2.985,6.211 1.133,7.764 -0.66,0.554 -1.529,1.538 -2.641,2.385 -0.88,0.669 -1.779,1.342 -2.682,2.014 C -0.105,9.41 4.555,8.747 8.181,7.917 14.147,6.55 18.448,5.459 26.847,5.94 23.564,5.629 18.284,5.619 15.371,5.136 9.185,4.109 15.18,-3.928 19.144,-6.756 11.526,-6.88 3.366,-4.87 -1.515,-1.956 -1.29,-1.506 -0.441,-1.095 0,0"
                   inkscape:connector-curvature="0" /></g></g></g></g><g
           transform="translate(245.6934,309.6099)"
           id="g476"><path
             id="path478"
             style="fill:#f2c618;fill-opacity:1;fill-rule:evenodd;stroke:none"
             d="M 0,0 C 0.151,-0.027 0.456,-0.086 0.616,-0.126 0.777,-0.167 0.795,-0.188 1.042,-0.542 1.289,-0.894 1.765,-1.579 1.999,-1.939 2.233,-2.3 2.227,-2.336 2.134,-2.919 2.041,-3.502 1.861,-4.632 1.689,-5.11 1.518,-5.589 1.353,-5.416 1.096,-5.087 0.839,-4.759 0.49,-4.275 0.252,-3.769 c -0.238,0.506 -0.365,1.034 -0.414,1.668 -0.05,0.635 -0.021,1.376 -0.006,1.749 C -0.153,0.021 -0.152,0.027 0,0"
             inkscape:connector-curvature="0" /></g><g
           transform="translate(245.5225,307.6284)"
           id="g480"><path
             id="path482"
             style="fill:#e7ba0c;fill-opacity:1;fill-rule:evenodd;stroke:none"
             d="M 0,0 C -0.037,0.606 -0.011,1.28 0.003,1.63 0.018,2.003 0.019,2.008 0.171,1.981 0.322,1.954 0.627,1.895 0.787,1.855 0.948,1.814 0.966,1.793 1.213,1.44 1.46,1.087 1.936,0.403 2.17,0.042 2.277,-0.124 2.334,-0.221 2.355,-0.334 Z"
             inkscape:connector-curvature="0" /></g><g
           transform="translate(185.9482,312.6011)"
           id="g484"><path
             id="path486"
             style="fill:#f2c618;fill-opacity:1;fill-rule:evenodd;stroke:none"
             d="m 0,0 c -0.154,-0.012 -0.464,-0.041 -0.628,-0.065 -0.164,-0.024 -0.184,-0.043 -0.469,-0.37 -0.284,-0.327 -0.833,-0.961 -1.106,-1.296 -0.273,-0.335 -0.27,-0.372 -0.242,-0.961 0.028,-0.589 0.081,-1.73 0.199,-2.223 0.118,-0.493 0.302,-0.337 0.593,-0.036 0.292,0.301 0.693,0.748 0.985,1.228 0.293,0.479 0.478,0.992 0.597,1.618 0.118,0.626 0.172,1.366 0.198,1.738 C 0.154,0.006 0.154,0.012 0,0"
             inkscape:connector-curvature="0" /></g><g
           transform="translate(185.8984,310.6138)"
           id="g488"><path
             id="path490"
             style="fill:#e7ba0c;fill-opacity:1;fill-rule:evenodd;stroke:none"
             d="M 0,0 C 0.104,0.599 0.152,1.271 0.177,1.621 0.204,1.994 0.204,1.999 0.05,1.987 -0.104,1.975 -0.414,1.946 -0.578,1.922 -0.743,1.898 -0.763,1.879 -1.047,1.552 -1.331,1.226 -1.88,0.592 -2.153,0.256 -2.279,0.102 -2.346,0.011 -2.379,-0.1 Z"
             inkscape:connector-curvature="0" /></g><g
           transform="translate(252.9932,192.9141)"
           id="g492"><path
             id="path494"
             style="fill:#e98622;fill-opacity:1;fill-rule:evenodd;stroke:none"
             d="m 0,0 c -0.718,2.739 -2.75,4.428 -4.614,5.031 -1.865,0.605 -3.559,0.125 -4.867,-0.332 -1.308,-0.458 -2.23,-0.893 -3.181,-2.06 -0.951,-1.167 -1.933,-3.064 -2.463,-4.971 -0.529,-1.907 -0.607,-3.824 -0.282,-5.887 0.326,-2.062 1.056,-4.271 2.548,-5.49 1.491,-1.219 3.744,-1.447 5.582,-1.441 1.839,0.004 3.263,0.244 4.327,1.087 1.063,0.844 1.765,2.292 2.416,4.912 C 0.117,-6.531 0.717,-2.739 0,0"
             inkscape:connector-curvature="0" /></g><g
           transform="translate(252.9932,192.9141)"
           id="g496"><path
             id="path498"
             style="fill:none;stroke:#2f1305;stroke-width:1.5;stroke-linecap:butt;stroke-linejoin:miter;stroke-miterlimit:2.61299992;stroke-dasharray:none;stroke-opacity:1"
             d="m 0,0 c -0.718,2.739 -2.75,4.428 -4.614,5.031 -1.865,0.605 -3.559,0.125 -4.867,-0.332 -1.308,-0.458 -2.23,-0.893 -3.181,-2.06 -0.951,-1.167 -1.933,-3.064 -2.463,-4.971 -0.529,-1.907 -0.607,-3.824 -0.282,-5.887 0.326,-2.062 1.056,-4.271 2.548,-5.49 1.491,-1.219 3.744,-1.447 5.582,-1.441 1.839,0.004 3.263,0.244 4.327,1.087 1.063,0.844 1.765,2.292 2.416,4.912 C 0.117,-6.531 0.717,-2.739 0,0 Z"
             inkscape:connector-curvature="0" /></g><g
           transform="translate(160.6875,208.6348)"
           id="g500"><path
             id="path502"
             style="fill:none;stroke:#a6a8ab;stroke-width:0.5;stroke-linecap:butt;stroke-linejoin:miter;stroke-miterlimit:2.61299992;stroke-dasharray:none;stroke-opacity:1"
             d="m 0,0 c -1.211,0.047 -2.421,0.094 -3.305,-2.052 -0.884,-2.145 -1.442,-6.482 -1.72,-8.651 -0.279,-2.169 -0.279,-2.169 7.69,-2.263 l 39.843,-0.469"
             inkscape:connector-curvature="0" /></g><g
           transform="translate(165.6382,208.4453)"
           id="g504"><path
             id="path506"
             style="fill:none;stroke:#a6a8ab;stroke-width:0.5;stroke-linecap:butt;stroke-linejoin:miter;stroke-miterlimit:2.61299992;stroke-dasharray:none;stroke-opacity:1"
             d="m 0,0 c -0.825,-0.415 -1.65,-0.83 -2.328,-2.956 -0.678,-2.126 -1.209,-5.962 -1.74,-9.798"
             inkscape:connector-curvature="0" /></g><g
           transform="translate(156.1836,200.1299)"
           id="g508"><path
             id="path510"
             style="fill:none;stroke:#a6a8ab;stroke-width:0.5;stroke-linecap:butt;stroke-linejoin:miter;stroke-miterlimit:2.61299992;stroke-dasharray:none;stroke-opacity:1"
             d="M 0,0 C 15.233,-0.455 30.466,-0.911 45.7,-1.367"
             inkscape:connector-curvature="0" /></g><g
           transform="translate(176.1807,208.0635)"
           id="g512"><path
             id="path514"
             style="fill:none;stroke:#a6a8ab;stroke-width:0.5;stroke-linecap:butt;stroke-linejoin:miter;stroke-miterlimit:2.61299992;stroke-dasharray:none;stroke-opacity:1"
             d="m 0,0 c -0.62,-0.663 -1.24,-1.325 -1.559,-3.371 -0.318,-2.045 -0.334,-5.473 -0.342,-7.187 -0.009,-1.713 -0.009,-1.713 0.937,-1.766 0.945,-0.053 2.835,-0.159 3.688,-0.211 0.852,-0.052 0.666,-0.05 0.619,1.592 -0.046,1.641 0.047,4.923 0.327,6.994 0.28,2.07 0.747,2.93 1.213,3.79"
             inkscape:connector-curvature="0" /></g></g></g></g></svg>