<?xml version="1.0" encoding="UTF-8" standalone="no"?>
<svg
   xmlns:dc="http://purl.org/dc/elements/1.1/"
   xmlns:cc="http://creativecommons.org/ns#"
   xmlns:rdf="http://www.w3.org/1999/02/22-rdf-syntax-ns#"
   xmlns:svg="http://www.w3.org/2000/svg"
   xmlns="http://www.w3.org/2000/svg"
   xmlns:sodipodi="http://sodipodi.sourceforge.net/DTD/sodipodi-0.dtd"
   xmlns:inkscape="http://www.inkscape.org/namespaces/inkscape"
   viewBox="0 0 209.01643 248.22498"
   height="248.22498"
   width="209.01643"
   xml:space="preserve"
   id="svg2"
   version="1.1"
   sodipodi:docname="23.svg"
   inkscape:version="0.92.2 5c3e80d, 2017-08-06"><sodipodi:namedview
     pagecolor="#ffffff"
     bordercolor="#666666"
     borderopacity="1"
     objecttolerance="10"
     gridtolerance="10"
     guidetolerance="10"
     inkscape:pageopacity="0"
     inkscape:pageshadow="2"
     inkscape:window-width="848"
     inkscape:window-height="551"
     id="namedview7616"
     showgrid="false"
     inkscape:zoom="0.41627764"
     inkscape:cx="120.33176"
     inkscape:cy="115.37214"
     inkscape:window-x="0"
     inkscape:window-y="0"
     inkscape:window-maximized="0"
     inkscape:current-layer="svg2" /><metadata
     id="metadata8"><rdf:RDF><cc:Work
         rdf:about=""><dc:format>image/svg+xml</dc:format><dc:type
           rdf:resource="http://purl.org/dc/dcmitype/StillImage" /></cc:Work></rdf:RDF></metadata><defs
     id="defs6"><clipPath
       id="clipPath18"
       clipPathUnits="userSpaceOnUse"><path
         id="path16"
         d="M 0,0 H 425.197 V 425.197 H 0 Z"
         inkscape:connector-curvature="0" /></clipPath><clipPath
       id="clipPath26"
       clipPathUnits="userSpaceOnUse"><path
         id="path24"
         d="m 156.14,135.483 h 122.972 v -9.414 H 156.14 Z"
         inkscape:connector-curvature="0" /></clipPath><clipPath
       id="clipPath78"
       clipPathUnits="userSpaceOnUse"><path
         id="path76"
         d="m 212.512,257.228 c -5.58,-0.488 -8.176,-2.07 -10.306,-3.441 v 0 c -2.131,-1.369 -6.194,-3.096 -10.109,-8.773 v 0 c -3.914,-5.677 -7.681,-15.303 -11.22,-21.791 v 0 c -3.539,-6.489 -5.871,-12.836 -3.812,-21.126 v 0 c 0.263,-1.061 0.474,0.123 1.025,1.305 v 0 c 0.263,0.565 0.635,1.139 1.062,1.696 v 0 c -0.003,-0.046 -0.008,-0.093 -0.011,-0.14 v 0 c -0.156,-2.332 0.834,-5.629 1.367,-6.727 v 0 c 0.533,-1.099 0.61,0.002 1.141,1.141 v 0 c 0.224,0.483 0.53,0.972 0.883,1.45 v 0 c 6.325,-13.888 16.978,-24.14 26.669,-24.779 v 0 c 12.029,-0.793 19.049,-0.92 36.503,19.262 v 0 c 0.11,-0.415 0.125,-0.266 0.244,-1.219 v 0 c 0.119,-0.953 -0.087,-2.764 0.893,-1.742 v 0 c 0.979,1.025 2.994,3.934 3.864,6.535 v 0 l 0.111,0.094 c 0.106,0.093 0.21,0.186 0.314,0.28 v 0 c 0.2,-0.629 0.288,-0.762 0.423,-1.84 v 0 c 0.135,-1.079 -0.137,-2.916 0.697,-1.888 v 0 c 0.833,1.029 2.834,4.433 3.939,7.758 v 0 c 2.512,7.552 -0.507,14.48 -2.98,21.875 v 0 c -3.695,11.052 -8.564,25.759 -20.584,29.894 v 0 c -4.691,1.613 -10.977,2.335 -16.162,2.335 v 0 c -1.418,0 -2.753,-0.054 -3.951,-0.159"
         inkscape:connector-curvature="0" /></clipPath><clipPath
       id="clipPath94"
       clipPathUnits="userSpaceOnUse"><path
         id="path92"
         d="M 0,0 H 425.197 V 425.197 H 0 Z"
         inkscape:connector-curvature="0" /></clipPath></defs><g
     transform="matrix(1.3333333,0,0,-1.3333333,-163.1329,416.31751)"
     id="g10"><g
       id="g12"><g
         clip-path="url(#clipPath18)"
         id="g14"><g
           id="g20"><g
             id="g22" /><g
             id="g34"><g
               style="opacity:0.10000598"
               id="g32"
               clip-path="url(#clipPath26)"><g
                 id="g30"
                 transform="translate(217.626,135.4834)"><path
                   id="path28"
                   style="fill:#000000;fill-opacity:1;fill-rule:evenodd;stroke:none"
                   d="m 0,0 c 33.958,0 61.486,-2.107 61.486,-4.707 0,-2.599 -27.528,-4.707 -61.486,-4.707 -33.958,0 -61.486,2.108 -61.486,4.707 C -61.486,-2.107 -33.958,0 0,0"
                   inkscape:connector-curvature="0" /></g></g></g></g><g
           transform="translate(241.3994,170.2451)"
           id="g36"><path
             id="path38"
             style="fill:#e98622;fill-opacity:1;fill-rule:evenodd;stroke:none"
             d="m 0,0 c 1.62,-6.544 2.465,-19.785 2.605,-30.439 0.036,-2.68 0.027,-5.197 -0.05,-7.551 h -52.941 c -0.016,2.623 0.082,5.278 0.269,7.897 0.504,7.043 1.651,13.824 3.169,19.992 1.518,6.169 3.406,11.724 8.606,14.726 5.199,3.002 13.709,3.45 19.584,3.294 C -12.884,7.763 -9.646,7.002 -6.829,6.697 -4.013,6.393 -1.619,6.545 0,0"
             inkscape:connector-curvature="0" /></g><g
           transform="translate(241.3994,170.2451)"
           id="g40"><path
             id="path42"
             style="fill:none;stroke:#e98622;stroke-width:1.5;stroke-linecap:butt;stroke-linejoin:miter;stroke-miterlimit:2.61299992;stroke-dasharray:none;stroke-opacity:1"
             d="m 0,0 c 1.62,-6.544 2.465,-19.785 2.605,-30.439 0.036,-2.68 0.027,-5.197 -0.05,-7.551 h -52.941 c -0.016,2.623 0.082,5.278 0.269,7.897 0.504,7.043 1.651,13.824 3.169,19.992 1.518,6.169 3.406,11.724 8.606,14.726 5.199,3.002 13.709,3.45 19.584,3.294 C -12.884,7.763 -9.646,7.002 -6.829,6.697 -4.013,6.393 -1.619,6.545 0,0 Z"
             inkscape:connector-curvature="0" /></g><g
           transform="translate(234.2051,165.2305)"
           id="g44"><path
             id="path46"
             style="fill:#ecaf45;fill-opacity:1;fill-rule:evenodd;stroke:none"
             d="m 0,0 c 1.171,-5.41 1.782,-16.356 1.884,-25.163 0.033,-2.823 0.012,-5.426 -0.094,-7.813 h -38.2 c -0.066,2.674 0.003,5.41 0.172,8.099 0.363,5.822 1.193,11.429 2.291,16.527 1.097,5.099 2.463,9.692 6.222,12.173 3.76,2.482 9.913,2.853 14.162,2.723 4.248,-0.129 6.588,-0.758 8.626,-1.01 C -2.901,5.284 -1.171,5.41 0,0"
             inkscape:connector-curvature="0" /></g><g
           transform="translate(234.2051,165.2305)"
           id="g48"><path
             id="path50"
             style="fill:none;stroke:#2f1305;stroke-width:1.5;stroke-linecap:butt;stroke-linejoin:miter;stroke-miterlimit:2.61299992;stroke-dasharray:none;stroke-opacity:1"
             d="m 0,0 c 1.171,-5.41 1.782,-16.356 1.884,-25.163 0.033,-2.823 0.012,-5.426 -0.094,-7.813 h -38.2 c -0.066,2.674 0.003,5.41 0.172,8.099 0.363,5.822 1.193,11.429 2.291,16.527 1.097,5.099 2.463,9.692 6.222,12.173 3.76,2.482 9.913,2.853 14.162,2.723 4.248,-0.129 6.588,-0.758 8.626,-1.01 C -2.901,5.284 -1.171,5.41 0,0 Z"
             inkscape:connector-curvature="0" /></g><g
           transform="translate(249.1309,175.2861)"
           id="g52"><path
             id="path54"
             style="fill:#e98622;fill-opacity:1;fill-rule:evenodd;stroke:none"
             d="M 0,0 C 2,-6.344 4.562,-17.656 5.312,-26.047 6.062,-34.438 5,-39.906 4.344,-42.641 c -0.656,-2.734 -0.906,-2.734 -3.157,-2.343 -2.251,0.39 -6.503,1.171 -8.583,1.871 -2.079,0.698 -1.985,1.315 -1.608,3.628 0.376,2.312 1.033,6.321 1.116,12.273 0.082,5.953 -0.41,13.85 -0.954,18.802 -0.544,4.953 -1.138,6.96 -1.174,9.137 -0.034,2.176 0.491,4.522 1.441,5.945 0.95,1.422 2.325,1.922 3.731,1.484 C -3.438,7.719 -2,6.344 0,0"
             inkscape:connector-curvature="0" /></g><g
           transform="translate(249.1309,175.2861)"
           id="g56"><path
             id="path58"
             style="fill:none;stroke:#2f1305;stroke-width:1.5;stroke-linecap:butt;stroke-linejoin:miter;stroke-miterlimit:2.61299992;stroke-dasharray:none;stroke-opacity:1"
             d="M 0,0 C 2,-6.344 4.562,-17.656 5.312,-26.047 6.062,-34.438 5,-39.906 4.344,-42.641 c -0.656,-2.734 -0.906,-2.734 -3.157,-2.343 -2.251,0.39 -6.503,1.171 -8.583,1.871 -2.079,0.698 -1.985,1.315 -1.608,3.628 0.376,2.312 1.033,6.321 1.116,12.273 0.082,5.953 -0.41,13.85 -0.954,18.802 -0.544,4.953 -1.138,6.96 -1.174,9.137 -0.034,2.176 0.491,4.522 1.441,5.945 0.95,1.422 2.325,1.922 3.731,1.484 C -3.438,7.719 -2,6.344 0,0 Z"
             inkscape:connector-curvature="0" /></g><g
           transform="translate(171.4556,176.4355)"
           id="g60"><path
             id="path62"
             style="fill:#6e2512;fill-opacity:1;fill-rule:evenodd;stroke:none"
             d="m 0,0 c 1.958,-3.351 0.776,-5.109 0.436,-5.961 -0.341,-0.851 0.107,-0.823 1.235,0.541 1.128,1.364 2.935,4.063 3.087,7.575 0.062,1.423 -0.148,2.98 -0.497,4.819 4.28,-4.539 8.83,-8.508 12.702,-11.582 7.224,-5.738 12.084,-8.367 14.533,-11.11 2.449,-2.743 2.487,-5.601 2.468,-7.115 -0.019,-1.515 -0.095,-1.685 -0.033,-1.683 0.062,10e-4 0.262,0.174 6.664,3.033 6.403,2.858 19.006,8.4 29.35,15.595 3.731,2.595 7.169,5.406 10.27,8.438 -0.203,-1.31 -0.488,-2.636 -0.905,-3.936 -1.045,-3.26 -2.923,-6.347 -3.513,-7.552 -0.589,-1.204 0.11,-0.522 1.816,0.796 1.708,1.319 4.424,3.273 8.119,8.235 3.695,4.962 8.371,12.929 10.651,21.061 0.209,0.745 0.399,1.492 0.569,2.239 0.386,-1.45 0.698,-2.963 0.836,-4.508 0.304,-3.402 -0.228,-6.951 -0.304,-8.282 -0.076,-1.332 0.304,-0.444 1.369,1.405 1.065,1.848 2.816,4.658 4.3,10.611 1.483,5.952 2.701,15.048 1.639,23.413 -1.062,8.365 -4.404,16.001 -8.19,22.571 -1.655,2.872 -3.395,5.54 -5.03,7.817 3.553,2.299 5.42,5.205 6.543,9.852 1.199,4.959 1.551,11.902 1.502,16.079 -0.048,4.176 -0.496,5.585 -0.788,5.993 -0.292,0.407 -0.428,-0.186 -2.282,-2.279 -1.078,-1.217 -2.738,-2.942 -5.303,-4.636 -0.019,5.978 -1.113,12.704 -2.449,17.991 -1.57,6.214 -3.472,10.442 -4.566,12.739 -1.094,2.296 -1.379,2.662 -1.518,2.826 -0.138,0.164 -0.13,0.125 -0.397,-1.304 -0.266,-1.429 -0.807,-4.249 -2.717,-8.32 -1.911,-4.069 -5.192,-9.39 -14.671,-12.975 C 55.448,108.802 39.771,106.953 30.22,103.885 20.67,100.816 16.873,96.714 15.002,92.763 11.855,86.115 6.331,80.961 2.005,74.02 -16.38,44.519 -12.866,22.02 0,0"
             inkscape:connector-curvature="0" /></g><g
           transform="translate(171.4556,176.4355)"
           id="g64"><path
             id="path66"
             style="fill:none;stroke:#2f1305;stroke-width:1.5;stroke-linecap:butt;stroke-linejoin:miter;stroke-miterlimit:2.61299992;stroke-dasharray:none;stroke-opacity:1"
             d="m 0,0 c 1.958,-3.351 0.776,-5.109 0.436,-5.961 -0.341,-0.851 0.107,-0.823 1.235,0.541 1.128,1.364 2.935,4.063 3.087,7.575 0.062,1.423 -0.148,2.98 -0.497,4.819 4.28,-4.539 8.83,-8.508 12.702,-11.582 7.224,-5.738 12.084,-8.367 14.533,-11.11 2.449,-2.743 2.487,-5.601 2.468,-7.115 -0.019,-1.515 -0.095,-1.685 -0.033,-1.683 0.062,10e-4 0.262,0.174 6.664,3.033 6.403,2.858 19.006,8.4 29.35,15.595 3.731,2.595 7.169,5.406 10.27,8.438 -0.203,-1.31 -0.488,-2.636 -0.905,-3.936 -1.045,-3.26 -2.923,-6.347 -3.513,-7.552 -0.589,-1.204 0.11,-0.522 1.816,0.796 1.708,1.319 4.424,3.273 8.119,8.235 3.695,4.962 8.371,12.929 10.651,21.061 0.209,0.745 0.399,1.492 0.569,2.239 0.386,-1.45 0.698,-2.963 0.836,-4.508 0.304,-3.402 -0.228,-6.951 -0.304,-8.282 -0.076,-1.332 0.304,-0.444 1.369,1.405 1.065,1.848 2.816,4.658 4.3,10.611 1.483,5.952 2.701,15.048 1.639,23.413 -1.062,8.365 -4.404,16.001 -8.19,22.571 -1.655,2.872 -3.395,5.54 -5.03,7.817 3.553,2.299 5.42,5.205 6.543,9.852 1.199,4.959 1.551,11.902 1.502,16.079 -0.048,4.176 -0.496,5.585 -0.788,5.993 -0.292,0.407 -0.428,-0.186 -2.282,-2.279 -1.078,-1.217 -2.738,-2.942 -5.303,-4.636 -0.019,5.978 -1.113,12.704 -2.449,17.991 -1.57,6.214 -3.472,10.442 -4.566,12.739 -1.094,2.296 -1.379,2.662 -1.518,2.826 -0.138,0.164 -0.13,0.125 -0.397,-1.304 -0.266,-1.429 -0.807,-4.249 -2.717,-8.32 -1.911,-4.069 -5.192,-9.39 -14.671,-12.975 C 55.448,108.802 39.771,106.953 30.22,103.885 20.67,100.816 16.873,96.714 15.002,92.763 11.855,86.115 6.331,80.961 2.005,74.02 -16.38,44.519 -12.866,22.02 0,0 Z"
             inkscape:connector-curvature="0" /></g><g
           transform="translate(202.2056,253.7876)"
           id="g68"><path
             id="path70"
             style="fill:#e98622;fill-opacity:1;fill-rule:evenodd;stroke:none"
             d="m 0,0 c -2.13,-1.37 -6.193,-3.097 -10.108,-8.773 -3.915,-5.677 -7.682,-15.304 -11.221,-21.791 -3.539,-6.49 -5.871,-12.837 -3.812,-21.127 0.264,-1.06 0.474,0.123 1.025,1.305 0.263,0.565 0.635,1.139 1.063,1.697 -0.004,-0.046 -0.009,-0.094 -0.011,-0.141 -0.157,-2.332 0.833,-5.628 1.366,-6.726 0.533,-1.099 0.611,0.002 1.141,1.14 0.224,0.483 0.531,0.972 0.883,1.451 6.325,-13.889 16.978,-24.141 26.669,-24.78 12.029,-0.793 19.049,-0.92 36.504,19.263 0.11,-0.416 0.125,-0.267 0.244,-1.22 0.119,-0.953 -0.087,-2.763 0.892,-1.741 0.98,1.024 2.994,3.934 3.865,6.534 l 0.11,0.094 c 0.106,0.094 0.211,0.187 0.314,0.28 0.201,-0.629 0.288,-0.761 0.423,-1.84 0.135,-1.079 -0.137,-2.916 0.697,-1.887 0.833,1.028 2.834,4.432 3.94,7.758 2.511,7.551 -0.508,14.48 -2.981,21.875 C 47.309,-17.578 42.44,-2.87 30.419,1.264 24.446,3.318 15.884,3.928 10.306,3.44 4.727,2.953 2.131,1.37 0,0"
             inkscape:connector-curvature="0" /></g></g></g><g
       id="g72"><g
         clip-path="url(#clipPath78)"
         id="g74"><g
           transform="translate(225.6182,210.3848)"
           id="g80"><path
             id="path82"
             style="fill:#f1b170;fill-opacity:1;fill-rule:evenodd;stroke:none"
             d="m 0,0 c -3.727,0.505 -8.26,-0.859 -13.652,-1.224 -5.643,-0.38 -14.964,6.458 -22.32,-1.622 -6.539,-7.181 -2.709,-14.56 3.331,-22.463 2.311,-3.025 1.528,-6.002 2.772,-8.309 1.244,-2.308 2.806,-2.671 5.54,-3.112 1.059,-0.171 2.264,-0.297 3.628,-0.431 4.887,-0.482 13.463,-0.18 16.643,1.534 3.182,1.713 3.995,-1.387 5.182,-0.109 2.522,2.712 -0.962,3.208 1.963,4.884 8.269,4.739 11.619,18.661 7.516,25.61 C 8.193,-1.162 3.726,-0.504 0,0"
             inkscape:connector-curvature="0" /></g><g
           transform="translate(225.6182,210.3848)"
           id="g84"><path
             id="path86"
             style="fill:none;stroke:#2f1305;stroke-width:1.5;stroke-linecap:butt;stroke-linejoin:miter;stroke-miterlimit:2.61299992;stroke-dasharray:none;stroke-opacity:1"
             d="m 0,0 c -3.727,0.505 -8.26,-0.859 -13.652,-1.224 -5.643,-0.38 -14.964,6.458 -22.32,-1.622 -6.539,-7.181 -2.709,-14.56 3.331,-22.463 2.311,-3.025 1.528,-6.002 2.772,-8.309 1.244,-2.308 2.806,-2.671 5.54,-3.112 1.059,-0.171 2.264,-0.297 3.628,-0.431 4.887,-0.482 13.463,-0.18 16.643,1.534 3.182,1.713 3.995,-1.387 5.182,-0.109 2.522,2.712 -0.962,3.208 1.963,4.884 8.269,4.739 11.619,18.661 7.516,25.61 C 8.193,-1.162 3.726,-0.504 0,0 Z"
             inkscape:connector-curvature="0" /></g></g></g><g
       id="g88"><g
         clip-path="url(#clipPath94)"
         id="g90"><g
           transform="translate(202.2056,253.7876)"
           id="g96"><path
             id="path98"
             style="fill:none;stroke:#2f1305;stroke-width:1.5;stroke-linecap:butt;stroke-linejoin:miter;stroke-miterlimit:2.61299992;stroke-dasharray:none;stroke-opacity:1"
             d="m 0,0 c -2.13,-1.37 -6.193,-3.097 -10.108,-8.773 -3.915,-5.677 -7.682,-15.304 -11.221,-21.791 -3.539,-6.49 -5.871,-12.837 -3.812,-21.127 0.264,-1.06 0.474,0.123 1.025,1.305 0.263,0.565 0.635,1.139 1.063,1.697 -0.004,-0.046 -0.009,-0.094 -0.011,-0.141 -0.157,-2.332 0.833,-5.628 1.366,-6.726 0.533,-1.099 0.611,0.002 1.141,1.14 0.224,0.483 0.531,0.972 0.883,1.451 6.325,-13.889 16.978,-24.141 26.669,-24.78 12.029,-0.793 19.049,-0.92 36.504,19.263 0.11,-0.416 0.125,-0.267 0.244,-1.22 0.119,-0.953 -0.087,-2.763 0.892,-1.741 0.98,1.024 2.994,3.934 3.865,6.534 l 0.11,0.094 c 0.106,0.094 0.211,0.187 0.314,0.28 0.201,-0.629 0.288,-0.761 0.423,-1.84 0.135,-1.079 -0.137,-2.916 0.697,-1.887 0.833,1.028 2.834,4.432 3.94,7.758 2.511,7.551 -0.508,14.48 -2.981,21.875 C 47.309,-17.578 42.44,-2.87 30.419,1.264 24.446,3.318 15.884,3.928 10.306,3.44 4.727,2.953 2.131,1.37 0,0 Z"
             inkscape:connector-curvature="0" /></g><g
           transform="translate(245.8301,250.4956)"
           id="g100"><path
             id="path102"
             style="fill:#e98622;fill-opacity:1;fill-rule:evenodd;stroke:none"
             d="m 0,0 c -1.73,2.225 -1.962,3.243 -2.193,4.26 3.525,2.224 7.05,4.45 10.349,5.622 0.363,0.129 0.723,0.245 1.08,0.347 3.604,1.032 6.899,0.624 8.942,-0.14 2.043,-0.763 2.834,-1.882 3.527,-3.513 0.693,-1.632 1.288,-3.778 0.889,-6.452 -0.356,-2.379 -1.499,-5.178 -2.696,-7.29 -0.148,-0.26 -0.296,-0.511 -0.445,-0.749 -0.344,-0.552 -0.684,-1.036 -1.022,-1.469 -0.987,-1.266 -1.954,-2.102 -2.922,-2.938 l -0.696,-0.246 c -0.697,-0.246 -2.088,-0.738 -3.308,-0.2 -0.696,0.308 -1.336,0.95 -2.154,1.91 C 8.734,-10.136 8.017,-9.234 7.099,-8.16 4.96,-5.658 1.73,-2.225 0,0"
             inkscape:connector-curvature="0" /></g><g
           transform="translate(245.8301,250.4956)"
           id="g104"><path
             id="path106"
             style="fill:none;stroke:#2f1305;stroke-width:1.5;stroke-linecap:butt;stroke-linejoin:miter;stroke-miterlimit:2.61299992;stroke-dasharray:none;stroke-opacity:1"
             d="m 0,0 c -1.73,2.225 -1.962,3.243 -2.193,4.26 3.525,2.224 7.05,4.45 10.349,5.622 0.363,0.129 0.723,0.245 1.08,0.347 3.604,1.032 6.899,0.624 8.942,-0.14 2.043,-0.763 2.834,-1.882 3.527,-3.513 0.693,-1.632 1.288,-3.778 0.889,-6.452 -0.356,-2.379 -1.499,-5.178 -2.696,-7.29 -0.148,-0.26 -0.296,-0.511 -0.445,-0.749 -0.344,-0.552 -0.684,-1.036 -1.022,-1.469 -0.987,-1.266 -1.954,-2.102 -2.922,-2.938 l -0.696,-0.246 c -0.697,-0.246 -2.088,-0.738 -3.308,-0.2 -0.696,0.308 -1.336,0.95 -2.154,1.91 C 8.734,-10.136 8.017,-9.234 7.099,-8.16 4.96,-5.658 1.73,-2.225 0,0 Z"
             inkscape:connector-curvature="0" /></g><g
           transform="translate(233.9268,154.959)"
           id="g108"><path
             id="path110"
             style="fill:#e98622;fill-opacity:1;fill-rule:evenodd;stroke:none"
             d="m 0,0 c 1.234,1.296 3.391,2.609 5.609,2.281 2.219,-0.328 4.5,-2.297 6.988,-5.784 2.488,-3.487 5.181,-8.492 6.515,-11.104 1.334,-2.613 1.309,-2.831 -0.6,-3.657 -1.91,-0.825 -5.703,-2.257 -8.744,-2.691 -3.041,-0.434 -5.331,0.131 -7.128,1.318 -1.797,1.188 -3.101,2.998 -3.769,5.732 -0.668,2.732 -0.699,6.389 -0.558,8.858 C -1.547,-2.579 -1.234,-1.298 0,0"
             inkscape:connector-curvature="0" /></g><g
           transform="translate(233.9268,154.959)"
           id="g112"><path
             id="path114"
             style="fill:none;stroke:#2f1305;stroke-width:1.5;stroke-linecap:butt;stroke-linejoin:miter;stroke-miterlimit:2.61299992;stroke-dasharray:none;stroke-opacity:1"
             d="m 0,0 c 1.234,1.296 3.391,2.609 5.609,2.281 2.219,-0.328 4.5,-2.297 6.988,-5.784 2.488,-3.487 5.181,-8.492 6.515,-11.104 1.334,-2.613 1.309,-2.831 -0.6,-3.657 -1.91,-0.825 -5.703,-2.257 -8.744,-2.691 -3.041,-0.434 -5.331,0.131 -7.128,1.318 -1.797,1.188 -3.101,2.998 -3.769,5.732 -0.668,2.732 -0.699,6.389 -0.558,8.858 C -1.547,-2.579 -1.234,-1.298 0,0 Z"
             inkscape:connector-curvature="0" /></g><g
           transform="translate(209.4277,206.5664)"
           id="g116"><path
             id="path118"
             style="fill:none;stroke:#2f1305;stroke-width:1.5;stroke-linecap:round;stroke-linejoin:round;stroke-miterlimit:2.61299992;stroke-dasharray:none;stroke-opacity:1"
             d="m 0,0 c 0.223,-2.202 0.447,-4.404 0.532,-6.446 0.432,-10.283 -8.955,-11.21 -13.986,-6.507"
             inkscape:connector-curvature="0" /></g><g
           transform="translate(209.7974,202.0469)"
           id="g120"><path
             id="path122"
             style="fill:none;stroke:#2f1305;stroke-width:1.5;stroke-linecap:round;stroke-linejoin:round;stroke-miterlimit:2.61299992;stroke-dasharray:none;stroke-opacity:1"
             d="M 0,0 C 0.311,-14.035 10.58,-12.694 17.115,-9.419"
             inkscape:connector-curvature="0" /></g><g
           transform="translate(247.6963,248.2539)"
           id="g124"><path
             id="path126"
             style="fill:#d46728;fill-opacity:1;fill-rule:evenodd;stroke:none"
             d="M 0,0 C -1.116,1.437 -1.266,2.093 -1.415,2.75 0.86,4.187 3.136,5.623 5.267,6.38 5.5,6.463 5.732,6.538 5.963,6.604 8.289,7.27 10.417,7.006 11.735,6.514 13.055,6.021 13.565,5.299 14.013,4.245 14.46,3.191 14.844,1.807 14.587,0.08 14.356,-1.456 13.618,-3.263 12.847,-4.625 12.751,-4.794 12.654,-4.956 12.559,-5.109 12.337,-5.466 12.117,-5.778 11.898,-6.058 11.262,-6.875 10.637,-7.415 10.013,-7.955 L 9.563,-8.113 C 9.114,-8.272 8.215,-8.59 7.427,-8.243 6.979,-8.044 6.565,-7.629 6.037,-7.01 5.639,-6.543 5.176,-5.961 4.583,-5.268 3.202,-3.653 1.117,-1.437 0,0"
             inkscape:connector-curvature="0" /></g><g
           transform="translate(247.6963,248.2539)"
           id="g128"><path
             id="path130"
             style="fill:none;stroke:#2f1305;stroke-width:1.5;stroke-linecap:butt;stroke-linejoin:miter;stroke-miterlimit:2.61299992;stroke-dasharray:none;stroke-opacity:1"
             d="M 0,0 C -1.116,1.437 -1.266,2.093 -1.415,2.75 0.86,4.187 3.136,5.623 5.267,6.38 5.5,6.463 5.732,6.538 5.963,6.604 8.289,7.27 10.417,7.006 11.735,6.514 13.055,6.021 13.565,5.299 14.013,4.245 14.46,3.191 14.844,1.807 14.587,0.08 14.356,-1.456 13.618,-3.263 12.847,-4.625 12.751,-4.794 12.654,-4.956 12.559,-5.109 12.337,-5.466 12.117,-5.778 11.898,-6.058 11.262,-6.875 10.637,-7.415 10.013,-7.955 L 9.563,-8.113 C 9.114,-8.272 8.215,-8.59 7.427,-8.243 6.979,-8.044 6.565,-7.629 6.037,-7.01 5.639,-6.543 5.176,-5.961 4.583,-5.268 3.202,-3.653 1.117,-1.437 0,0 Z"
             inkscape:connector-curvature="0" /></g><g
           transform="translate(193.4844,254.6816)"
           id="g132"><path
             id="path134"
             style="fill:#e98622;fill-opacity:1;fill-rule:evenodd;stroke:none"
             d="m 0,0 c 1.92,2.044 2.244,3.03 2.567,4.017 -3.286,2.531 -6.572,5.062 -9.732,6.53 -0.347,0.161 -0.693,0.309 -1.037,0.444 -3.475,1.355 -6.777,1.257 -8.872,0.69 -2.094,-0.567 -2.982,-1.602 -3.82,-3.155 -0.837,-1.552 -1.626,-3.622 -1.479,-6.308 0.132,-2.391 1.005,-5.27 1.996,-7.472 0.122,-0.272 0.246,-0.535 0.371,-0.784 0.289,-0.579 0.581,-1.09 0.876,-1.55 0.861,-1.346 1.742,-2.264 2.623,-3.182 l 0.667,-0.308 c 0.667,-0.308 2,-0.925 3.259,-0.505 0.718,0.24 1.411,0.817 2.31,1.692 0.678,0.659 1.472,1.486 2.482,2.465 C -5.438,-5.146 -1.921,-2.044 0,0"
             inkscape:connector-curvature="0" /></g><g
           transform="translate(193.4844,254.6816)"
           id="g136"><path
             id="path138"
             style="fill:none;stroke:#2f1305;stroke-width:1.5;stroke-linecap:butt;stroke-linejoin:miter;stroke-miterlimit:2.61299992;stroke-dasharray:none;stroke-opacity:1"
             d="m 0,0 c 1.92,2.044 2.244,3.03 2.567,4.017 -3.286,2.531 -6.572,5.062 -9.732,6.53 -0.347,0.161 -0.693,0.309 -1.037,0.444 -3.475,1.355 -6.777,1.257 -8.872,0.69 -2.094,-0.567 -2.982,-1.602 -3.82,-3.155 -0.837,-1.552 -1.626,-3.622 -1.479,-6.308 0.132,-2.391 1.005,-5.27 1.996,-7.472 0.122,-0.272 0.246,-0.535 0.371,-0.784 0.289,-0.579 0.581,-1.09 0.876,-1.55 0.861,-1.346 1.742,-2.264 2.623,-3.182 l 0.667,-0.308 c 0.667,-0.308 2,-0.925 3.259,-0.505 0.718,0.24 1.411,0.817 2.31,1.692 0.678,0.659 1.472,1.486 2.482,2.465 C -5.438,-5.146 -1.921,-2.044 0,0 Z"
             inkscape:connector-curvature="0" /></g><g
           transform="translate(191.812,252.8604)"
           id="g140"><path
             id="path142"
             style="fill:#d46728;fill-opacity:1;fill-rule:evenodd;stroke:none"
             d="m 0,0 c 1.255,1.318 1.469,1.957 1.684,2.595 -2.121,1.656 -4.242,3.314 -6.285,4.28 -0.224,0.106 -0.448,0.204 -0.671,0.292 -2.249,0.896 -4.391,0.846 -5.752,0.488 -1.362,-0.358 -1.943,-1.026 -2.493,-2.03 -0.55,-1.003 -1.071,-2.343 -0.987,-4.086 0.074,-1.552 0.628,-3.423 1.26,-4.856 0.078,-0.178 0.158,-0.348 0.238,-0.511 0.185,-0.376 0.372,-0.709 0.561,-1.01 0.553,-0.876 1.12,-1.475 1.688,-2.075 l 0.431,-0.203 c 0.431,-0.203 1.294,-0.609 2.112,-0.342 0.467,0.152 0.919,0.523 1.507,1.087 0.442,0.425 0.961,0.958 1.621,1.589 C -3.551,-3.314 -1.255,-1.317 0,0"
             inkscape:connector-curvature="0" /></g><g
           transform="translate(191.812,252.8604)"
           id="g144"><path
             id="path146"
             style="fill:none;stroke:#2f1305;stroke-width:1.5;stroke-linecap:butt;stroke-linejoin:miter;stroke-miterlimit:2.61299992;stroke-dasharray:none;stroke-opacity:1"
             d="m 0,0 c 1.255,1.318 1.469,1.957 1.684,2.595 -2.121,1.656 -4.242,3.314 -6.285,4.28 -0.224,0.106 -0.448,0.204 -0.671,0.292 -2.249,0.896 -4.391,0.846 -5.752,0.488 -1.362,-0.358 -1.943,-1.026 -2.493,-2.03 -0.55,-1.003 -1.071,-2.343 -0.987,-4.086 0.074,-1.552 0.628,-3.423 1.26,-4.856 0.078,-0.178 0.158,-0.348 0.238,-0.511 0.185,-0.376 0.372,-0.709 0.561,-1.01 0.553,-0.876 1.12,-1.475 1.688,-2.075 l 0.431,-0.203 c 0.431,-0.203 1.294,-0.609 2.112,-0.342 0.467,0.152 0.919,0.523 1.507,1.087 0.442,0.425 0.961,0.958 1.621,1.589 C -3.551,-3.314 -1.255,-1.317 0,0 Z"
             inkscape:connector-curvature="0" /></g><g
           transform="translate(179.9687,246.3203)"
           id="g148"><path
             id="path150"
             style="fill:#6e2512;fill-opacity:1;fill-rule:evenodd;stroke:none"
             d="m 0,0 c -0.981,-1.252 -1.899,-2.485 -2.657,-3.502 0.747,-0.342 2.334,-0.818 3.35,-0.478 1.016,0.339 2.022,-0.04 2.983,0.895 0.274,0.266 0.565,0.558 0.881,0.875 0.346,0.21 0.709,0.527 1.14,0.94 0.473,0.454 0.902,0.576 2.075,1.698 1.172,1.122 4.01,4.271 4.865,5.168 0.855,0.898 0.654,0.719 0.877,1.012 0.329,0.329 -0.254,-0.305 0.91,0.934 1.163,1.238 2.113,4.095 2.458,5.149 -0.765,0.59 -1.531,1.179 -2.295,1.757 -1.478,-0.904 -2.873,-1.76 -4.058,-2.496 C 9.511,11.32 8.647,10.777 8.017,10.368 6.167,9.168 6.329,9.128 7.102,9.067 7.875,9.006 9.257,8.924 8.891,8.417 8.525,7.908 6.411,6.973 3.91,4.513 2.638,3.261 1.266,1.615 0,0"
             inkscape:connector-curvature="0" /></g><g
           transform="translate(196.7168,262.061)"
           id="g152"><path
             id="path154"
             style="fill:none;stroke:#2f1305;stroke-width:1.5;stroke-linecap:round;stroke-linejoin:round;stroke-miterlimit:2.61299992;stroke-dasharray:none;stroke-opacity:1"
             d="m 0,0 c -3.615,-2.207 -7.229,-4.414 -8.96,-5.536 -1.732,-1.123 -1.58,-1.161 -0.857,-1.218 0.723,-0.057 2.017,-0.133 1.675,-0.608 -0.343,-0.476 -2.321,-1.351 -4.662,-3.654 -2.34,-2.301 -5.041,-6.03 -6.639,-8.161 -1.599,-2.131 -2.093,-2.663 -2.549,-3.063 -0.457,-0.4 -0.876,-0.666 0.761,-0.437 1.636,0.228 5.326,0.951 9.017,1.674"
             inkscape:connector-curvature="0" /></g><g
           transform="translate(258.2568,240.1909)"
           id="g156"><path
             id="path158"
             style="fill:#6e2512;fill-opacity:1;fill-rule:evenodd;stroke:none"
             d="M 0,0 C 0.981,-1.252 1.898,-2.485 2.656,-3.501 1.909,-3.844 0.322,-4.32 -0.693,-3.98 c -1.017,0.339 -2.022,-0.04 -2.984,0.895 -0.273,0.266 -0.565,0.558 -0.881,0.875 -0.346,0.21 -0.709,0.527 -1.139,0.94 -0.473,0.454 -0.903,0.576 -2.075,1.698 -1.173,1.122 -4.01,4.271 -4.866,5.168 -0.854,0.898 -0.653,0.719 -0.877,1.012 -0.329,0.328 0.254,-0.305 -0.91,0.934 -1.163,1.239 -2.112,4.095 -2.458,5.149 0.766,0.59 1.531,1.18 2.295,1.757 1.479,-0.904 2.873,-1.76 4.059,-2.496 1.017,-0.632 1.882,-1.175 2.511,-1.584 1.851,-1.2 1.688,-1.24 0.915,-1.301 C -7.875,9.006 -9.258,8.925 -8.892,8.417 -8.525,7.908 -6.411,6.973 -3.91,4.513 -2.639,3.261 -1.267,1.615 0,0"
             inkscape:connector-curvature="0" /></g><g
           transform="translate(241.5078,255.9316)"
           id="g160"><path
             id="path162"
             style="fill:none;stroke:#2f1305;stroke-width:1.5;stroke-linecap:round;stroke-linejoin:round;stroke-miterlimit:2.61299992;stroke-dasharray:none;stroke-opacity:1"
             d="m 0,0 c 3.615,-2.207 7.229,-4.414 8.961,-5.536 1.731,-1.123 1.579,-1.161 0.856,-1.218 -0.722,-0.057 -2.016,-0.133 -1.674,-0.608 0.342,-0.476 2.321,-1.351 4.661,-3.654 2.341,-2.301 5.042,-6.03 6.639,-8.161 1.599,-2.131 2.093,-2.663 2.55,-3.063 0.456,-0.4 0.875,-0.666 -0.761,-0.437 -1.636,0.228 -5.327,0.951 -9.018,1.674"
             inkscape:connector-curvature="0" /></g><g
           transform="translate(216.1699,261.5552)"
           id="g164"><path
             id="path166"
             style="fill:#6e2512;fill-opacity:1;fill-rule:evenodd;stroke:none"
             d="m 0,0 c -3.046,0.288 -6.71,0.458 -9.156,0.096 -2.446,-0.363 -3.674,-1.259 -4.848,-3.603 -1.174,-2.344 -2.294,-6.135 -0.354,-10.629 1.94,-4.494 6.94,-9.691 8.985,-11.227 2.045,-1.536 1.135,0.589 1.033,3.22 -0.101,2.63 0.608,5.767 1.501,8.566 0.895,2.8 1.975,5.262 5.167,6.41 3.192,1.149 8.496,0.986 11.634,0.83 3.138,-0.156 4.11,-0.303 2.739,0.571 -1.371,0.875 -5.084,2.772 -8.155,3.923 C 5.475,-0.692 3.047,-0.287 0,0"
             inkscape:connector-curvature="0" /></g><g
           transform="translate(216.1699,261.5552)"
           id="g168"><path
             id="path170"
             style="fill:none;stroke:#2f1305;stroke-width:1.5;stroke-linecap:butt;stroke-linejoin:miter;stroke-miterlimit:2.61299992;stroke-dasharray:none;stroke-opacity:1"
             d="m 0,0 c -3.046,0.288 -6.71,0.458 -9.156,0.096 -2.446,-0.363 -3.674,-1.259 -4.848,-3.603 -1.174,-2.344 -2.294,-6.135 -0.354,-10.629 1.94,-4.494 6.94,-9.691 8.985,-11.227 2.045,-1.536 1.135,0.589 1.033,3.22 -0.101,2.63 0.608,5.767 1.501,8.566 0.895,2.8 1.975,5.262 5.167,6.41 3.192,1.149 8.496,0.986 11.634,0.83 3.138,-0.156 4.11,-0.303 2.739,0.571 -1.371,0.875 -5.084,2.772 -8.155,3.923 C 5.475,-0.692 3.047,-0.287 0,0 Z"
             inkscape:connector-curvature="0" /></g><g
           transform="translate(224.2178,259.6948)"
           id="g172"><path
             id="path174"
             style="fill:#6e2512;fill-opacity:1;fill-rule:evenodd;stroke:none"
             d="m 0,0 c -1.917,0.385 -4.233,0.737 -5.812,0.669 -1.579,-0.068 -2.417,-0.556 -3.32,-1.967 -0.901,-1.411 -1.865,-3.746 -0.931,-6.731 0.934,-2.985 3.767,-6.619 4.964,-7.731 1.198,-1.112 0.76,0.299 0.87,1.977 0.111,1.679 0.769,3.625 1.524,5.345 0.754,1.719 1.603,3.211 3.708,3.73 2.104,0.518 5.465,0.062 7.448,-0.246 1.984,-0.307 2.592,-0.466 1.778,0.181 C 9.417,-4.125 7.183,-2.674 5.308,-1.739 3.433,-0.803 1.917,-0.385 0,0"
             inkscape:connector-curvature="0" /></g><g
           transform="translate(224.2178,259.6948)"
           id="g176"><path
             id="path178"
             style="fill:none;stroke:#2f1305;stroke-width:1.5;stroke-linecap:butt;stroke-linejoin:miter;stroke-miterlimit:2.61299992;stroke-dasharray:none;stroke-opacity:1"
             d="m 0,0 c -1.917,0.385 -4.233,0.737 -5.812,0.669 -1.579,-0.068 -2.417,-0.556 -3.32,-1.967 -0.901,-1.411 -1.865,-3.746 -0.931,-6.731 0.934,-2.985 3.767,-6.619 4.964,-7.731 1.198,-1.112 0.76,0.299 0.87,1.977 0.111,1.679 0.769,3.625 1.524,5.345 0.754,1.719 1.603,3.211 3.708,3.73 2.104,0.518 5.465,0.062 7.448,-0.246 1.984,-0.307 2.592,-0.466 1.778,0.181 C 9.417,-4.125 7.183,-2.674 5.308,-1.739 3.433,-0.803 1.917,-0.385 0,0 Z"
             inkscape:connector-curvature="0" /></g><g
           transform="translate(226.1416,216.001)"
           id="g180"><path
             id="path182"
             style="fill:none;stroke:#2f1305;stroke-width:1.5;stroke-linecap:round;stroke-linejoin:round;stroke-miterlimit:2.61299992;stroke-dasharray:none;stroke-opacity:1"
             d="M 0,0 C 2.268,0.514 4.534,1.027 6.467,1.284 8.399,1.54 9.997,1.54 11.596,1.54"
             inkscape:connector-curvature="0" /></g><g
           transform="translate(201.1299,215.8022)"
           id="g184"><path
             id="path186"
             style="fill:none;stroke:#2f1305;stroke-width:1.5;stroke-linecap:round;stroke-linejoin:round;stroke-miterlimit:2.61299992;stroke-dasharray:none;stroke-opacity:1"
             d="m 0,0 c -2.128,0.415 -4.256,0.83 -6.12,1.038 -1.863,0.207 -3.461,0.207 -5.059,0.207"
             inkscape:connector-curvature="0" /></g><g
           transform="translate(204.0957,227.7007)"
           id="g188"><path
             id="path190"
             style="fill:none;stroke:#2f1305;stroke-width:1.5;stroke-linecap:round;stroke-linejoin:round;stroke-miterlimit:2.61299992;stroke-dasharray:none;stroke-opacity:1"
             d="m 0,0 c 0.185,-1.313 0.369,-2.626 0.271,-4.557 -0.098,-1.931 -0.479,-4.481 -1.634,-6.456 -1.157,-1.975 -3.088,-3.376 -3.288,-4.546 -0.2,-1.168 1.331,-2.106 2.862,-3.043"
             inkscape:connector-curvature="0" /></g><g
           transform="translate(223.8477,236.0898)"
           id="g192"><path
             id="path194"
             style="fill:#2f1305;fill-opacity:1;fill-rule:evenodd;stroke:none"
             d="m 0,0 c -0.512,-0.187 -0.69,-0.104 -1.151,0.221 -0.461,0.325 -1.204,0.893 -1.328,1.432 -0.123,0.54 0.375,1.053 1.278,1.619 0.904,0.567 2.215,1.188 4.127,1.853 1.911,0.664 4.424,1.372 7.105,0.112 2.683,-1.259 5.534,-4.487 6.894,-6.234 1.358,-1.746 1.224,-2.013 -0.309,-0.99 C 15.083,-0.963 12.149,1.35 9.514,2.08 6.878,2.81 4.541,1.958 2.949,1.302 1.358,0.647 0.512,0.188 0,0"
             inkscape:connector-curvature="0" /></g><g
           transform="translate(204.729,236.0898)"
           id="g196"><path
             id="path198"
             style="fill:#2f1305;fill-opacity:1;fill-rule:evenodd;stroke:none"
             d="M 0,0 C 0.512,-0.187 0.69,-0.104 1.151,0.221 1.612,0.546 2.355,1.114 2.478,1.653 2.601,2.193 2.104,2.706 1.201,3.272 0.297,3.839 -1.014,4.46 -2.926,5.125 c -1.912,0.664 -4.424,1.372 -7.106,0.112 -2.682,-1.259 -5.533,-4.487 -6.893,-6.234 -1.359,-1.746 -1.225,-2.013 0.308,-0.99 1.534,1.024 4.468,3.337 7.103,4.067 C -6.879,2.81 -4.542,1.958 -2.95,1.302 -1.358,0.647 -0.512,0.188 0,0"
             inkscape:connector-curvature="0" /></g><g
           transform="translate(230.5576,230.3027)"
           id="g200"><path
             id="path202"
             style="fill:#ffffff;fill-opacity:1;fill-rule:evenodd;stroke:none"
             d="m 0,0 c 8.296,1.516 10.785,-9.562 6.539,-13.593 0,0 -3.477,0.15 -5.157,0.062 -1.657,-0.088 -4.455,-0.503 -4.455,-0.503 C -4.967,-12.847 -8.26,-1.51 0,0"
             inkscape:connector-curvature="0" /></g><g
           transform="translate(230.5576,230.3027)"
           id="g204"><path
             id="path206"
             style="fill:none;stroke:#2f1305;stroke-width:1.5;stroke-linecap:butt;stroke-linejoin:miter;stroke-miterlimit:2.61299992;stroke-dasharray:none;stroke-opacity:1"
             d="m 0,0 c 8.296,1.516 10.785,-9.562 6.539,-13.593 0,0 -3.477,0.15 -5.157,0.062 -1.657,-0.088 -4.455,-0.503 -4.455,-0.503 C -4.967,-12.847 -8.26,-1.51 0,0 Z"
             inkscape:connector-curvature="0" /></g><g
           transform="translate(226.9893,218.2388)"
           id="g208"><path
             id="path210"
             style="fill:#2f1305;fill-opacity:1;fill-rule:evenodd;stroke:none"
             d="M 0,0 C -0.759,2.569 0.663,5.338 3.175,6.187 5.687,7.034 8.337,5.639 9.095,3.07 9.65,1.186 9.033,-0.808 7.672,-2.07 6.601,-1.694 5.356,-1.587 3.943,-1.845 3.133,-1.993 2.435,-2.237 1.834,-2.556 0.984,-1.97 0.321,-1.091 0,0"
             inkscape:connector-curvature="0" /></g><g
           transform="translate(231.5811,223.502)"
           id="g212"><path
             id="path214"
             style="fill:#ffffff;fill-opacity:1;fill-rule:evenodd;stroke:none"
             d="m 0,0 c 0.345,-0.086 0.518,-0.622 0.386,-1.196 -0.133,-0.574 -0.52,-0.97 -0.865,-0.883 -0.346,0.086 -0.519,0.622 -0.387,1.196 C -0.733,-0.309 -0.346,0.086 0,0"
             inkscape:connector-curvature="0" /></g><g
           transform="translate(196.5352,230.4521)"
           id="g216"><path
             id="path218"
             style="fill:#ffffff;fill-opacity:1;fill-rule:evenodd;stroke:none"
             d="m 0,0 c 8.423,0.423 9.448,-10.885 4.713,-14.329 0,0 -3.429,0.601 -5.106,0.733 -1.653,0.129 -4.482,0.082 -4.482,0.082 C -6.598,-12.09 -8.386,-0.421 0,0"
             inkscape:connector-curvature="0" /></g><g
           transform="translate(196.5352,230.4521)"
           id="g220"><path
             id="path222"
             style="fill:none;stroke:#2f1305;stroke-width:1.5;stroke-linecap:butt;stroke-linejoin:miter;stroke-miterlimit:2.61299992;stroke-dasharray:none;stroke-opacity:1"
             d="m 0,0 c 8.423,0.423 9.448,-10.885 4.713,-14.329 0,0 -3.429,0.601 -5.106,0.733 -1.653,0.129 -4.482,0.082 -4.482,0.082 C -6.598,-12.09 -8.386,-0.421 0,0 Z"
             inkscape:connector-curvature="0" /></g><g
           transform="translate(192.04,218.9243)"
           id="g224"><path
             id="path226"
             style="fill:#2f1305;fill-opacity:1;fill-rule:evenodd;stroke:none"
             d="M 0,0 C -0.417,2.646 1.353,5.207 3.954,5.72 6.554,6.233 9.001,4.505 9.417,1.86 9.723,-0.081 8.851,-1.977 7.338,-3.052 6.324,-2.54 5.105,-2.271 3.67,-2.343 2.847,-2.384 2.124,-2.535 1.486,-2.773 0.721,-2.082 0.177,-1.124 0,0"
             inkscape:connector-curvature="0" /></g><g
           transform="translate(197.4121,223.5029)"
           id="g228"><path
             id="path230"
             style="fill:#ffffff;fill-opacity:1;fill-rule:evenodd;stroke:none"
             d="M 0,0 C 0.332,-0.131 0.433,-0.684 0.227,-1.236 0.021,-1.788 -0.415,-2.129 -0.746,-1.999 -1.078,-1.868 -1.179,-1.314 -0.974,-0.762 -0.767,-0.21 -0.332,0.131 0,0"
             inkscape:connector-curvature="0" /></g><g
           transform="translate(219.5752,211.8711)"
           id="g232"><path
             id="path234"
             style="fill:#2f1305;fill-opacity:1;fill-rule:evenodd;stroke:none"
             d="m 0,0 c -2.423,0.386 -7.502,0.494 -11.464,0.49 -3.963,-0.003 -6.807,-0.117 -8.209,-0.353 -1.403,-0.236 -1.362,-0.593 0.076,-1.918 1.437,-1.325 4.273,-3.617 6.146,-4.82 1.872,-1.201 2.781,-1.31 3.644,-1.233 0.863,0.077 1.68,0.341 2.921,0.875 1.242,0.535 2.908,1.343 4.453,2.262 1.544,0.919 2.968,1.951 3.796,2.799 C 2.191,-1.05 2.424,-0.386 0,0"
             inkscape:connector-curvature="0" /></g><g
           transform="translate(164.0508,137.958)"
           id="g236"><path
             id="path238"
             style="fill:#d0d2d3;fill-opacity:1;fill-rule:evenodd;stroke:none"
             d="m 0,0 h 96.146 c 2.213,0 4.024,-1.811 4.024,-4.023 0,-2.213 -1.811,-4.024 -4.024,-4.024 H 0 c -2.213,0 -4.023,1.811 -4.023,4.024 C -4.023,-1.811 -2.213,0 0,0"
             inkscape:connector-curvature="0" /></g><g
           transform="translate(164.0508,137.958)"
           id="g240"><path
             id="path242"
             style="fill:none;stroke:#546593;stroke-width:1.5;stroke-linecap:butt;stroke-linejoin:miter;stroke-miterlimit:2.61299992;stroke-dasharray:none;stroke-opacity:1"
             d="m 0,0 h 96.146 c 2.213,0 4.024,-1.811 4.024,-4.023 0,-2.213 -1.811,-4.024 -4.024,-4.024 H 0 c -2.213,0 -4.023,1.811 -4.023,4.024 C -4.023,-1.811 -2.213,0 0,0 Z"
             inkscape:connector-curvature="0" /></g><g
           transform="translate(243.8701,145.4736)"
           id="g244"><path
             id="path246"
             style="fill:none;stroke:#2f1305;stroke-width:1.5;stroke-linecap:round;stroke-linejoin:round;stroke-miterlimit:2.61299992;stroke-dasharray:none;stroke-opacity:1"
             d="m 0,0 c 0.048,-2.156 0.096,-4.312 -0.215,-5.565 -0.31,-1.252 -0.981,-1.601 -1.736,-1.776 -0.754,-0.175 -1.595,-0.175 -2.435,-0.175"
             inkscape:connector-curvature="0" /></g><g
           transform="translate(242.2734,137.958)"
           id="g248"><path
             id="path250"
             style="fill:#6f83c1;fill-opacity:1;fill-rule:evenodd;stroke:none"
             d="m 0,0 h 17.923 c 2.214,0 4.024,-1.811 4.024,-4.023 0,-2.213 -1.81,-4.024 -4.024,-4.024 H 0 c -2.213,0 -4.023,1.811 -4.023,4.024 C -4.023,-1.811 -2.213,0 0,0"
             inkscape:connector-curvature="0" /></g><g
           transform="translate(242.2734,137.958)"
           id="g252"><path
             id="path254"
             style="fill:none;stroke:#546593;stroke-width:1.5;stroke-linecap:butt;stroke-linejoin:miter;stroke-miterlimit:2.61299992;stroke-dasharray:none;stroke-opacity:1"
             d="m 0,0 h 17.923 c 2.214,0 4.024,-1.811 4.024,-4.023 0,-2.213 -1.81,-4.024 -4.024,-4.024 H 0 c -2.213,0 -4.023,1.811 -4.023,4.024 C -4.023,-1.811 -2.213,0 0,0 Z"
             inkscape:connector-curvature="0" /></g><g
           transform="translate(154.0303,179.0605)"
           id="g256"><path
             id="path258"
             style="fill:#6f83c1;fill-opacity:1;fill-rule:evenodd;stroke:none"
             d="m 0,0 h 77.361 c 2.578,0 4.449,-2.122 4.689,-4.688 l 3.764,-40.268 c 0.241,-2.566 -2.11,-4.689 -4.688,-4.689 H 4.184 c -2.578,0 -4.423,2.124 -4.689,4.689 L -4.688,-4.688 C -4.955,-2.124 -2.579,0 0,0"
             inkscape:connector-curvature="0" /></g><g
           transform="translate(154.0303,179.0605)"
           id="g260"><path
             id="path262"
             style="fill:none;stroke:#546593;stroke-width:1.5;stroke-linecap:butt;stroke-linejoin:miter;stroke-miterlimit:2.61299992;stroke-dasharray:none;stroke-opacity:1"
             d="m 0,0 h 77.361 c 2.578,0 4.449,-2.122 4.689,-4.688 l 3.764,-40.268 c 0.241,-2.566 -2.11,-4.689 -4.688,-4.689 H 4.184 c -2.578,0 -4.423,2.124 -4.689,4.689 L -4.688,-4.688 C -4.955,-2.124 -2.579,0 0,0 Z"
             inkscape:connector-curvature="0" /></g><g
           transform="translate(186.0703,146.0068)"
           id="g264"><path
             id="path266"
             style="fill:#f7f8f9;fill-opacity:1;fill-rule:evenodd;stroke:none"
             d="M 0,0 C 0.26,-0.445 0.103,-0.679 0.058,-0.791 0.013,-0.904 0.072,-0.9 0.222,-0.72 0.371,-0.538 0.611,-0.181 0.631,0.285 0.639,0.474 0.611,0.681 0.565,0.925 1.133,0.322 1.737,-0.204 2.25,-0.612 3.208,-1.373 3.853,-1.722 4.178,-2.086 4.503,-2.449 4.508,-2.829 4.505,-3.029 4.503,-3.23 4.493,-3.253 4.501,-3.253 c 0.008,0 0.035,0.024 0.884,0.402 0.849,0.379 2.521,1.115 3.894,2.069 0.494,0.345 0.951,0.718 1.362,1.12 -0.027,-0.174 -0.065,-0.35 -0.12,-0.523 -0.138,-0.432 -0.388,-0.841 -0.466,-1.002 -0.078,-0.159 0.014,-0.068 0.241,0.106 0.226,0.175 0.587,0.435 1.077,1.093 0.49,0.658 1.11,1.715 1.413,2.794 0.027,0.098 0.053,0.198 0.075,0.297 0.052,-0.193 0.093,-0.394 0.111,-0.598 0.041,-0.451 -0.03,-0.922 -0.04,-1.099 -0.01,-0.177 0.04,-0.059 0.182,0.186 0.141,0.246 0.373,0.618 0.57,1.408 0.197,0.79 0.358,1.996 0.217,3.106 -0.14,1.11 -0.584,2.123 -1.086,2.995 -0.22,0.38 -0.451,0.734 -0.668,1.037 0.472,0.304 0.72,0.689 0.869,1.306 0.159,0.659 0.205,1.579 0.199,2.133 -0.007,0.554 -0.066,0.74 -0.105,0.795 -0.039,0.054 -0.056,-0.024 -0.302,-0.302 -0.143,-0.162 -0.364,-0.39 -0.704,-0.615 -0.002,0.793 -0.147,1.686 -0.325,2.387 -0.208,0.824 -0.46,1.385 -0.606,1.689 -0.144,0.305 -0.182,0.354 -0.201,0.375 -0.018,0.022 -0.017,0.017 -0.053,-0.173 C 10.884,17.544 10.813,17.17 10.559,16.63 10.305,16.09 9.87,15.384 8.613,14.908 7.355,14.433 5.276,14.188 4.009,13.78 2.742,13.373 2.238,12.829 1.99,12.306 1.572,11.423 0.84,10.739 0.266,9.818 -2.173,5.905 -1.707,2.92 0,0"
             inkscape:connector-curvature="0" /></g><g
           transform="translate(144.2275,224.2617)"
           id="g268"><path
             id="path270"
             style="fill:none;stroke:#6e2512;stroke-width:3;stroke-linecap:round;stroke-linejoin:round;stroke-miterlimit:2.61299992;stroke-dasharray:none;stroke-opacity:1"
             d="M 0,0 -12.943,-0.92"
             inkscape:connector-curvature="0" /></g><g
           transform="translate(148.7896,243.1138)"
           id="g272"><path
             id="path274"
             style="fill:none;stroke:#6e2512;stroke-width:3;stroke-linecap:round;stroke-linejoin:round;stroke-miterlimit:2.61299992;stroke-dasharray:none;stroke-opacity:1"
             d="M 0,0 -10.216,10.754"
             inkscape:connector-curvature="0" /></g><g
           transform="translate(141.0068,235.3994)"
           id="g276"><path
             id="path278"
             style="fill:none;stroke:#6e2512;stroke-width:3;stroke-linecap:round;stroke-linejoin:round;stroke-miterlimit:2.61299992;stroke-dasharray:none;stroke-opacity:1"
             d="M 0,0 -17.137,6.13"
             inkscape:connector-curvature="0" /></g></g></g></g></svg>