<?xml version="1.0" encoding="UTF-8"?> <!-- Generator: Adobe Illustrator 24.0.1, SVG Export Plug-In . SVG Version: 6.00 Build 0) --> <svg xmlns:cc="http://creativecommons.org/ns#" xmlns:dc="http://purl.org/dc/elements/1.1/" xmlns:inkscape="http://www.inkscape.org/namespaces/inkscape" xmlns:rdf="http://www.w3.org/1999/02/22-rdf-syntax-ns#" xmlns:sodipodi="http://sodipodi.sourceforge.net/DTD/sodipodi-0.dtd" xmlns:svg="http://www.w3.org/2000/svg" xmlns="http://www.w3.org/2000/svg" xmlns:xlink="http://www.w3.org/1999/xlink" version="1.1" id="svg2" inkscape:version="0.92.2 5c3e80d, 2017-08-06" sodipodi:docname="5_nosafety_2.svg" x="0px" y="0px" viewBox="0 0 94.2 91.2" style="enable-background:new 0 0 94.2 91.2;" xml:space="preserve"> <style type="text/css"> .st0{clip-path:url(#SVGID_2_);} .st1{opacity:0.12;clip-path:url(#SVGID_4_);} .st2{fill-rule:evenodd;clip-rule:evenodd;} .st3{fill:#E98622;} .st4{fill:none;stroke:#2F1305;stroke-width:0.5;stroke-miterlimit:3.484;} .st5{fill-rule:evenodd;clip-rule:evenodd;fill:#E98622;} .st6{fill:none;stroke:#2F1305;stroke-width:0.5;stroke-linecap:round;stroke-linejoin:round;stroke-miterlimit:3.484;} .st7{fill-rule:evenodd;clip-rule:evenodd;fill:#ECAF45;} .st8{fill-rule:evenodd;clip-rule:evenodd;fill:#6E2512;} .st9{clip-path:url(#SVGID_6_);} .st10{fill-rule:evenodd;clip-rule:evenodd;fill:#F1B170;} .st11{clip-path:url(#SVGID_8_);} .st12{fill-rule:evenodd;clip-rule:evenodd;fill:#D46728;} .st13{fill-rule:evenodd;clip-rule:evenodd;fill:#FFFFFF;} .st14{fill-rule:evenodd;clip-rule:evenodd;fill:#881D1A;} .st15{fill-rule:evenodd;clip-rule:evenodd;fill:#2F1305;} .st16{fill-rule:evenodd;clip-rule:evenodd;fill:#FDCA02;} .st17{fill:none;stroke:#E98622;stroke-width:0.5;stroke-miterlimit:3.484;} .st18{opacity:0.13;clip-path:url(#SVGID_10_);} .st19{fill-rule:evenodd;clip-rule:evenodd;fill:#545454;} .st20{opacity:0.13;clip-path:url(#SVGID_12_);} .st21{opacity:0.13;clip-path:url(#SVGID_14_);} .st22{opacity:0.13;clip-path:url(#SVGID_16_);} .st23{filter:url(#Adobe_OpacityMaskFilter);} .st24{clip-path:url(#SVGID_18_);} .st25{clip-path:url(#SVGID_20_);} .st26{clip-path:url(#SVGID_22_);fill:url(#path432_2_);} .st27{mask:url(#mask426_1_);} .st28{clip-path:url(#SVGID_24_);} .st29{fill-rule:evenodd;clip-rule:evenodd;fill:#A5A8AB;} .st30{opacity:0.17;clip-path:url(#SVGID_26_);} .st31{fill-rule:evenodd;clip-rule:evenodd;fill:#F2C618;} .st32{fill-rule:evenodd;clip-rule:evenodd;fill:#E7BA0C;} .st33{fill-rule:evenodd;clip-rule:evenodd;fill:#C1B9B9;} .st34{fill-rule:evenodd;clip-rule:evenodd;fill:#8D8478;} .st35{opacity:0.15;clip-path:url(#SVGID_28_);} .st36{fill:none;stroke:#231F20;stroke-width:0.5;stroke-miterlimit:3.484;} </style> <g id="g12" transform="matrix(1.3333333,0,0,-1.3333333,-225.31831,460.90163)"> <g> <defs> <rect id="SVGID_1_" x="125.5" y="234.9" width="149" height="149"></rect> </defs> <clipPath id="SVGID_2_"> <use xlink:href="#SVGID_1_" style="overflow:visible;"></use> </clipPath> <g id="g14" class="st0"> <g id="g20"> <g id="g22"> </g> <g id="g34"> <g> <defs> <rect id="SVGID_3_" x="187.9" y="279.7" width="43.1" height="2.7"></rect> </defs> <clipPath id="SVGID_4_"> <use xlink:href="#SVGID_3_" style="overflow:visible;"></use> </clipPath> <g id="g32" class="st1"> <g id="g30" transform="translate(248.8125,108.5342)"> <path id="path28" inkscape:connector-curvature="0" class="st2" d="M-39.3,173.5c8.9,0,16.2-0.5,16.2-1s-7.2-1-16.2-1 c-8.9,0-16.2,0.5-16.2,1S-48.3,173.5-39.3,173.5"></path> </g> </g> </g> </g> </g> <g id="g36" transform="translate(221.6943,168.8535)"> <path id="path38" inkscape:connector-curvature="0" class="st3" d="M-19.3,129c1.2-0.3,2.5-0.7,3.6-1.1c1.2-0.4,2.3-0.9,3.2-1.4 c0.9-0.5,1.6-1.2,2.1-1.8c0.7-0.8,1.1-1.6,1.5-2.3c0.3-0.6,0.4-1.2,0.6-1.7c0.2-0.5,0.3-1,0.5-1.4c0.2-0.3,0.4-0.6,0.7-0.9 c0.3-0.3,0.7-0.5,1-0.7c0.6-0.3,1.2-0.3,1.8-0.3h0v-1.8h0c-0.8,0-1.6,0-2.6,0.4c-0.5,0.2-1.1,0.6-1.5,1 c-0.4,0.4-0.8,0.8-1.1,1.3c-0.3,0.6-0.5,1.1-0.7,1.8c-0.1,0.5-0.3,1-0.5,1.5c-0.3,0.6-0.6,1.3-1.2,1.9c-0.4,0.5-1,1-1.7,1.4 c-0.8,0.5-1.7,0.9-2.8,1.2c-1.1,0.4-2.3,0.7-3.5,1L-19.3,129z"></path> </g> <g id="g40" transform="translate(221.6943,168.8535)"> <path id="path42" inkscape:connector-curvature="0" class="st4" d="M-19.3,129c1.2-0.3,2.5-0.7,3.6-1.1c1.2-0.4,2.3-0.9,3.2-1.4 c0.9-0.5,1.6-1.2,2.1-1.8c0.7-0.8,1.1-1.6,1.5-2.3c0.3-0.6,0.4-1.2,0.6-1.7c0.2-0.5,0.3-1,0.5-1.4c0.2-0.3,0.4-0.6,0.7-0.9 c0.3-0.3,0.7-0.5,1-0.7c0.6-0.3,1.2-0.3,1.8-0.3h0v-1.8h0c-0.8,0-1.6,0-2.6,0.4c-0.5,0.2-1.1,0.6-1.5,1 c-0.4,0.4-0.8,0.8-1.1,1.3c-0.3,0.6-0.5,1.1-0.7,1.8c-0.1,0.5-0.3,1-0.5,1.5c-0.3,0.6-0.6,1.3-1.2,1.9c-0.4,0.5-1,1-1.7,1.4 c-0.8,0.5-1.7,0.9-2.8,1.2c-1.1,0.4-2.3,0.7-3.5,1L-19.3,129z"></path> </g> <g id="g44" transform="translate(252.6455,170.0215)"> <path id="path46" inkscape:connector-curvature="0" class="st5" d="M-42.2,128.1c0.1-1.7,0.3-5.1,0.1-6.9 c-0.2-1.8-0.8-2-0.9-2.8c-0.1-0.9,0.3-2.4,0.7-3.3c0.5-0.9,1-1.1,1.5-1.2c0.6-0.1,1.2-0.2,1.6-0.5c0.4-0.3,0.4-0.9,0.4-1.4 c-0.1-0.5-0.3-1-1.6-1.1c-1.4-0.2-3.9,0-5,0.3c-1.2,0.3-1,0.7-1.3,1.9c-0.2,1.2-0.9,3.1-1,4.2c-0.1,1.1,0.3,1.2,0.3,1.9 c0.1,0.7-0.2,1.8-0.4,2.5c-0.2,0.7-0.3,0.9-0.8,0.9c-0.5,0-1.5-0.1-2,0.2s-0.7,0.7,0,1.4c0.6,0.7,2.1,1.5,3.3,2.2 c1.2,0.7,2.2,1.1,3,1.7c0.8,0.6,1.4,1.2,1.8,1.5C-42.3,129.9-42.3,129.9-42.2,128.1"></path> </g> <g id="g48" transform="translate(252.6455,170.0215)"> <path id="path50" inkscape:connector-curvature="0" class="st4" d="M-42.2,128.1c0.1-1.7,0.3-5.1,0.1-6.9 c-0.2-1.8-0.8-2-0.9-2.8c-0.1-0.9,0.3-2.4,0.7-3.3c0.5-0.9,1-1.1,1.5-1.2c0.6-0.1,1.2-0.2,1.6-0.5c0.4-0.3,0.4-0.9,0.4-1.4 c-0.1-0.5-0.3-1-1.6-1.1c-1.4-0.2-3.9,0-5,0.3c-1.2,0.3-1,0.7-1.3,1.9c-0.2,1.2-0.9,3.1-1,4.2c-0.1,1.1,0.3,1.2,0.3,1.9 c0.1,0.7-0.2,1.8-0.4,2.5c-0.2,0.7-0.3,0.9-0.8,0.9c-0.5,0-1.5-0.1-2,0.2s-0.7,0.7,0,1.4c0.6,0.7,2.1,1.5,3.3,2.2 c1.2,0.7,2.2,1.1,3,1.7c0.8,0.6,1.4,1.2,1.8,1.5C-42.3,129.9-42.3,129.9-42.2,128.1z"></path> </g> <g id="g52" transform="translate(255.167,113.8135)"> <path id="path54" inkscape:connector-curvature="0" class="st6" d="M-44,169.6c0.3-0.1,0.6-0.2,0.9-0.4c0.3-0.1,0.7-0.3,0.9-0.6 c0.2-0.3,0.1-0.9-0.1-1.1c-0.2-0.3-0.5-0.3-0.8-0.4"></path> </g> <g id="g56" transform="translate(199.5737,170.0215)"> <path id="path58" inkscape:connector-curvature="0" class="st5" d="M-3,128.1c-0.1-1.7-0.3-5.1-0.1-6.9c0.2-1.8,0.8-2,0.9-2.8 c0.1-0.8-0.4-2.2-0.8-3c-0.4-0.8-0.8-1.1-1.3-1.3c-0.5-0.2-1.1-0.3-1.5-0.7c-0.4-0.4-0.5-1-0.4-1.5c0.1-0.5,0.4-0.8,1.7-0.9 c1.3-0.1,3.7-0.1,4.8,0.1c1.1,0.2,1,0.7,1.2,1.9c0.2,1.2,0.9,3.1,1,4.2c0.1,1.1-0.3,1.2-0.3,1.9c-0.1,0.7,0.2,1.8,0.4,2.5 c0.2,0.7,0.3,0.9,0.8,0.9c0.5,0,1.5-0.1,2,0.2c0.5,0.2,0.7,0.7,0,1.4c-0.6,0.7-2.1,1.5-3.3,2.2C1,127,0,127.5-0.8,128 c-0.8,0.6-1.4,1.2-1.8,1.5C-2.9,129.9-2.9,129.9-3,128.1"></path> </g> <g id="g60" transform="translate(199.5737,170.0215)"> <path id="path62" inkscape:connector-curvature="0" class="st4" d="M-3,128.1c-0.1-1.7-0.3-5.1-0.1-6.9c0.2-1.8,0.8-2,0.9-2.8 c0.1-0.8-0.4-2.2-0.8-3c-0.4-0.8-0.8-1.1-1.3-1.3c-0.5-0.2-1.1-0.3-1.5-0.7c-0.4-0.4-0.5-1-0.4-1.5c0.1-0.5,0.4-0.8,1.7-0.9 c1.3-0.1,3.7-0.1,4.8,0.1c1.1,0.2,1,0.7,1.2,1.9c0.2,1.2,0.9,3.1,1,4.2c0.1,1.1-0.3,1.2-0.3,1.9c-0.1,0.7,0.2,1.8,0.4,2.5 c0.2,0.7,0.3,0.9,0.8,0.9c0.5,0,1.5-0.1,2,0.2c0.5,0.2,0.7,0.7,0,1.4c-0.6,0.7-2.1,1.5-3.3,2.2C1,127,0,127.5-0.8,128 c-0.8,0.6-1.4,1.2-1.8,1.5C-2.9,129.9-2.9,129.9-3,128.1z"></path> </g> <g id="g64" transform="translate(250.0117,213.8823)"> <path id="path66" inkscape:connector-curvature="0" class="st5" d="M-40.2,95.8c0.6-0.5,1.5-1.9,2.3-2.8 c0.8-0.9,1.4-1.2,2.3-0.9c0.9,0.3,2.1,1.2,2.8,1.8c0.8,0.6,1.2,0.8,1.7,0.8c0.5,0.1,1,0,1.2-0.2c0.2-0.2,0.2-0.5,0.3-1.3 c0.1-0.8,0.3-2,0.2-2.4c-0.1-0.5-0.4-0.2-1-0.4c-0.7-0.3-1.7-1.1-2.8-1.7c-1.1-0.7-2.1-1.3-3-1.5c-0.9-0.2-1.5,0-2.4,0.7 c-0.9,0.7-2,1.9-2.6,2.8c-0.6,0.9-0.5,1.3-0.6,1.8c0,0.4-0.1,0.8,0,1.3c0,0.5,0.2,1.2,0.4,1.7C-41.1,95.9-40.8,96.3-40.2,95.8"></path> </g> <g id="g68" transform="translate(250.0117,213.8823)"> <path id="path70" inkscape:connector-curvature="0" class="st4" d="M-40.2,95.8c0.6-0.5,1.5-1.9,2.3-2.8 c0.8-0.9,1.4-1.2,2.3-0.9c0.9,0.3,2.1,1.2,2.8,1.8c0.8,0.6,1.2,0.8,1.7,0.8c0.5,0.1,1,0,1.2-0.2c0.2-0.2,0.2-0.5,0.3-1.3 c0.1-0.8,0.3-2,0.2-2.4c-0.1-0.5-0.4-0.2-1-0.4c-0.7-0.3-1.7-1.1-2.8-1.7c-1.1-0.7-2.1-1.3-3-1.5c-0.9-0.2-1.5,0-2.4,0.7 c-0.9,0.7-2,1.9-2.6,2.8c-0.6,0.9-0.5,1.3-0.6,1.8c0,0.4-0.1,0.8,0,1.3c0,0.5,0.2,1.2,0.4,1.7C-41.1,95.9-40.8,96.3-40.2,95.8z"></path> </g> <g id="g72" transform="translate(209.502,203.8193)"> <path id="path74" inkscape:connector-curvature="0" class="st5" d="M-10.4,103.2c-0.5-0.5-1.9-1.3-2.8-1.9 c-0.9-0.7-1.2-1.2-1-2.1c0.2-0.9,0.9-2,1.4-2.8s0.6-1.2,0.5-1.9c0-0.8-0.3-1.9-0.5-2.7c-0.3-0.8-0.6-1.4-1.3-1.5 c-0.7-0.1-1.9,0.2-2.2,0.9c-0.3,0.7,0.1,1.8,0,2.8c-0.1,1.1-0.7,2.1-1.3,3.2c-0.5,1-1,2.1-1.1,2.9c-0.1,0.8,0.1,1.4,0.8,2.2 c0.7,0.8,2,1.7,3.1,2.6c1.1,0.9,2.2,1.8,2.9,2.2c0.7,0.4,1,0.5,1.2-0.1c0.2-0.5,0.2-1.6,0.4-2.3 C-10.2,104.1-9.8,103.8-10.4,103.2"></path> </g> <g id="g76" transform="translate(209.502,203.8193)"> <path id="path78" inkscape:connector-curvature="0" class="st4" d="M-10.4,103.2c-0.5-0.5-1.9-1.3-2.8-1.9 c-0.9-0.7-1.2-1.2-1-2.1c0.2-0.9,0.9-2,1.4-2.8s0.6-1.2,0.5-1.9c0-0.8-0.3-1.9-0.5-2.7c-0.3-0.8-0.6-1.4-1.3-1.5 c-0.7-0.1-1.9,0.2-2.2,0.9c-0.3,0.7,0.1,1.8,0,2.8c-0.1,1.1-0.7,2.1-1.3,3.2c-0.5,1-1,2.1-1.1,2.9c-0.1,0.8,0.1,1.4,0.8,2.2 c0.7,0.8,2,1.7,3.1,2.6c1.1,0.9,2.2,1.8,2.9,2.2c0.7,0.4,1,0.5,1.2-0.1c0.2-0.5,0.2-1.6,0.4-2.3 C-10.2,104.1-9.8,103.8-10.4,103.2z"></path> </g> <g id="g80" transform="translate(250.3711,214.8325)"> <path id="path82" inkscape:connector-curvature="0" class="st5" d="M-40.5,95.1c0.4-1.7,0.6-5.2,0.7-8c0-2.8-0.1-4.9-0.8-6.4 c-0.7-1.5-2-2.3-4-2.8c-2-0.4-4.6-0.5-6.2,0.2c-1.6,0.7-2.3,2-2.6,3.7s-0.4,3.6-0.2,5.4c0.1,1.9,0.4,3.6,0.8,5.3 c0.4,1.6,0.9,3.1,2.3,3.9c1.4,0.8,3.6,0.9,5.1,0.9c1.5,0,2.4-0.2,3.1-0.3C-41.5,96.8-40.9,96.8-40.5,95.1"></path> </g> <g id="g84" transform="translate(250.3711,214.8325)"> <path id="path86" inkscape:connector-curvature="0" class="st4" d="M-40.5,95.1c0.4-1.7,0.6-5.2,0.7-8c0-2.8-0.1-4.9-0.8-6.4 c-0.7-1.5-2-2.3-4-2.8c-2-0.4-4.6-0.5-6.2,0.2c-1.6,0.7-2.3,2-2.6,3.7s-0.4,3.6-0.2,5.4c0.1,1.9,0.4,3.6,0.8,5.3 c0.4,1.6,0.9,3.1,2.3,3.9c1.4,0.8,3.6,0.9,5.1,0.9c1.5,0,2.4-0.2,3.1-0.3C-41.5,96.8-40.9,96.8-40.5,95.1z"></path> </g> <g id="g88" transform="translate(243.1768,209.8174)"> <path id="path90" inkscape:connector-curvature="0" class="st7" d="M-35.2,98.8c0.3-1.4,0.5-4.3,0.5-6.6c0-2.3-0.1-4.1-0.6-5.3 c-0.5-1.2-1.5-1.9-2.9-2.3c-1.4-0.4-3.3-0.4-4.5,0.1c-1.2,0.5-1.6,1.7-1.9,3c-0.2,1.4-0.3,2.9-0.2,4.5c0.1,1.5,0.3,3,0.6,4.3 c0.3,1.3,0.6,2.5,1.6,3.2c1,0.7,2.6,0.7,3.7,0.7c1.1,0,1.7-0.2,2.3-0.3C-35.9,100.2-35.5,100.2-35.2,98.8"></path> </g> <g id="g92" transform="translate(243.1768,209.8174)"> <path id="path94" inkscape:connector-curvature="0" class="st4" d="M-35.2,98.8c0.3-1.4,0.5-4.3,0.5-6.6c0-2.3-0.1-4.1-0.6-5.3 c-0.5-1.2-1.5-1.9-2.9-2.3c-1.4-0.4-3.3-0.4-4.5,0.1c-1.2,0.5-1.6,1.7-1.9,3c-0.2,1.4-0.3,2.9-0.2,4.5c0.1,1.5,0.3,3,0.6,4.3 c0.3,1.3,0.6,2.5,1.6,3.2c1,0.7,2.6,0.7,3.7,0.7c1.1,0,1.7-0.2,2.3-0.3C-35.9,100.2-35.5,100.2-35.2,98.8z"></path> </g> <g id="g96" transform="translate(180.4268,221.0225)"> <path id="path98" inkscape:connector-curvature="0" class="st8" d="M11.1,90.5c0.5-0.9,0.2-1.3,0.1-1.6c-0.1-0.2,0-0.2,0.3,0.1 s0.8,1.1,0.8,2c0,0.4,0,0.8-0.1,1.3c1.1-1.2,2.3-2.2,3.3-3c1.9-1.5,3.2-2.2,3.8-2.9c0.6-0.7,0.7-1.5,0.6-1.9c0-0.4,0-0.4,0-0.4 c0,0,0.1,0,1.8,0.8c1.7,0.8,5,2.2,7.7,4.1c1,0.7,1.9,1.4,2.7,2.2c-0.1-0.3-0.1-0.7-0.2-1c-0.3-0.9-0.8-1.7-0.9-2 c-0.2-0.3,0-0.1,0.5,0.2c0.4,0.3,1.2,0.9,2.1,2.2c1,1.3,2.2,3.4,2.8,5.5c0.1,0.2,0.1,0.4,0.1,0.6c0.1-0.4,0.2-0.8,0.2-1.2 c0.1-0.9-0.1-1.8-0.1-2.2c0-0.3,0.1-0.1,0.4,0.4c0.3,0.5,0.7,1.2,1.1,2.8c0.4,1.6,0.7,4,0.4,6.2s-1.2,4.2-2.2,5.9 c-0.4,0.8-0.9,1.5-1.3,2.1c-4.3,2.2-13.6,8.3-19.3,3.3c-1.5-1.3-3.1-2.2-4.3-4C6.8,102.2,7.7,96.3,11.1,90.5"></path> </g> <g id="g100" transform="translate(180.4268,221.0225)"> <path id="path102" inkscape:connector-curvature="0" class="st4" d="M11.1,90.5c0.5-0.9,0.2-1.3,0.1-1.6c-0.1-0.2,0-0.2,0.3,0.1 s0.8,1.1,0.8,2c0,0.4,0,0.8-0.1,1.3c1.1-1.2,2.3-2.2,3.3-3c1.9-1.5,3.2-2.2,3.8-2.9c0.6-0.7,0.7-1.5,0.6-1.9c0-0.4,0-0.4,0-0.4 c0,0,0.1,0,1.8,0.8c1.7,0.8,5,2.2,7.7,4.1c1,0.7,1.9,1.4,2.7,2.2c-0.1-0.3-0.1-0.7-0.2-1c-0.3-0.9-0.8-1.7-0.9-2 c-0.2-0.3,0-0.1,0.5,0.2c0.4,0.3,1.2,0.9,2.1,2.2c1,1.3,2.2,3.4,2.8,5.5c0.1,0.2,0.1,0.4,0.1,0.6c0.1-0.4,0.2-0.8,0.2-1.2 c0.1-0.9-0.1-1.8-0.1-2.2c0-0.3,0.1-0.1,0.4,0.4c0.3,0.5,0.7,1.2,1.1,2.8c0.4,1.6,0.7,4,0.4,6.2s-1.2,4.2-2.2,5.9 c-0.4,0.8-0.9,1.5-1.3,2.1c-4.3,2.2-13.6,8.3-19.3,3.3c-1.5-1.3-3.1-2.2-4.3-4C6.8,102.2,7.7,96.3,11.1,90.5z"></path> </g> <g id="g104" transform="translate(211.1772,298.375)"> <path id="path106" inkscape:connector-curvature="0" class="st5" d="M-11.6,33.5c-0.6-0.4-1.6-0.8-2.7-2.3c-1-1.5-2-4-2.9-5.7 c-0.9-1.7-1.5-3.4-1-5.6c0.1-0.3,0.1,0,0.3,0.3c0.1,0.1,0.2,0.3,0.3,0.4c0,0,0,0,0,0c0-0.6,0.2-1.5,0.4-1.8 c0.1-0.3,0.2,0,0.3,0.3c0.1,0.1,0.1,0.3,0.2,0.4c1.7-3.6,4.5-6.3,7-6.5c3.2-0.2,5-0.2,9.6,5.1c0-0.1,0-0.1,0.1-0.3 c0-0.3,0-0.7,0.2-0.5c0.3,0.3,0.8,1,1,1.7l0,0c0,0,0.1,0,0.1,0.1C1.3,19,1.3,19,1.4,18.7c0-0.3,0-0.8,0.2-0.5 c0.2,0.3,0.7,1.2,1,2c0.7,2-0.1,3.8-0.8,5.7c-1,2.9-2.3,6.8-5.4,7.9c-1.6,0.5-3.8,0.7-5.3,0.6C-10.4,34.3-11,33.9-11.6,33.5"></path> </g> </g> </g> </g> <g id="g108" transform="matrix(1.3333333,0,0,-1.3333333,-225.31831,460.90163)"> <g> <defs> <path id="SVGID_5_" d="M202.3,332.8c-1.5-0.1-2.1-0.5-2.7-0.9l0,0c-0.6-0.4-1.6-0.8-2.7-2.3l0,0c-1-1.5-2-4-2.9-5.7l0,0 c-0.9-1.7-1.5-3.4-1-5.6l0,0c0.1-0.3,0.1,0,0.3,0.3l0,0c0.1,0.1,0.2,0.3,0.3,0.4l0,0c0,0,0,0,0,0l0,0c0-0.6,0.2-1.5,0.4-1.8l0,0 c0.1-0.3,0.2,0,0.3,0.3l0,0c0.1,0.1,0.1,0.3,0.2,0.4l0,0c1.7-3.6,4.5-6.3,7-6.5l0,0c3.2-0.2,5-0.2,9.6,5.1l0,0 c0-0.1,0-0.1,0.1-0.3l0,0c0-0.3,0-0.7,0.2-0.5l0,0c0.3,0.3,0.8,1,1,1.7l0,0l0,0c0,0,0.1,0,0.1,0.1l0,0c0.1-0.2,0.1-0.2,0.1-0.5 l0,0c0-0.3,0-0.8,0.2-0.5l0,0c0.2,0.3,0.7,1.2,1,2l0,0c0.7,2-0.1,3.8-0.8,5.7l0,0c-1,2.9-2.3,6.8-5.4,7.9l0,0 c-1.2,0.4-2.9,0.6-4.2,0.6l0,0C203,332.8,202.6,332.8,202.3,332.8"></path> </defs> <clipPath id="SVGID_6_"> <use xlink:href="#SVGID_5_" style="overflow:visible;"></use> </clipPath> <g id="g110" class="st9"> <g id="g116" transform="translate(234.5889,254.9722)"> <path id="path118" inkscape:connector-curvature="0" class="st10" d="M-28.9,65.5c-1,0.1-2.2-0.2-3.6-0.3 c-1.5-0.1-3.9,1.7-5.9-0.4c-1.7-1.9-0.7-3.8,0.9-5.9c0.6-0.8,0.4-1.6,0.7-2.2c0.3-0.6,0.7-0.7,1.5-0.8c0.3,0,0.6-0.1,1-0.1 c1.3-0.1,3.5,0,4.4,0.4c0.8,0.5,1-0.4,1.4,0c0.7,0.7-0.3,0.8,0.5,1.3c2.2,1.2,3.1,4.9,2,6.7C-26.7,65.2-27.9,65.4-28.9,65.5"></path> </g> <g id="g120" transform="translate(234.5889,254.9722)"> <path id="path122" inkscape:connector-curvature="0" class="st4" d="M-28.9,65.5c-1,0.1-2.2-0.2-3.6-0.3 c-1.5-0.1-3.9,1.7-5.9-0.4c-1.7-1.9-0.7-3.8,0.9-5.9c0.6-0.8,0.4-1.6,0.7-2.2c0.3-0.6,0.7-0.7,1.5-0.8c0.3,0,0.6-0.1,1-0.1 c1.3-0.1,3.5,0,4.4,0.4c0.8,0.5,1-0.4,1.4,0c0.7,0.7-0.3,0.8,0.5,1.3c2.2,1.2,3.1,4.9,2,6.7C-26.7,65.2-27.9,65.4-28.9,65.5z"></path> </g> </g> </g> </g> <g id="g124" transform="matrix(1.3333333,0,0,-1.3333333,-225.31831,460.90163)"> <g> <defs> <rect id="SVGID_7_" x="125.5" y="234.9" width="149" height="149"></rect> </defs> <clipPath id="SVGID_8_"> <use xlink:href="#SVGID_7_" style="overflow:visible;"></use> </clipPath> <g id="g126" class="st11"> <g id="g132" transform="translate(211.1772,298.375)"> <path id="path134" inkscape:connector-curvature="0" class="st4" d="M-11.6,33.5c-0.6-0.4-1.6-0.8-2.7-2.3c-1-1.5-2-4-2.9-5.7 c-0.9-1.7-1.5-3.4-1-5.6c0.1-0.3,0.1,0,0.3,0.3c0.1,0.1,0.2,0.3,0.3,0.4c0,0,0,0,0,0c0-0.6,0.2-1.5,0.4-1.8 c0.1-0.3,0.2,0,0.3,0.3c0.1,0.1,0.1,0.3,0.2,0.4c1.7-3.6,4.5-6.3,7-6.5c3.2-0.2,5-0.2,9.6,5.1c0-0.1,0-0.1,0.1-0.3 c0-0.3,0-0.7,0.2-0.5c0.3,0.3,0.8,1,1,1.7l0,0c0,0,0.1,0,0.1,0.1C1.3,19,1.3,19,1.4,18.7c0-0.3,0-0.8,0.2-0.5 c0.2,0.3,0.7,1.2,1,2c0.7,2-0.1,3.8-0.8,5.7c-1,2.9-2.3,6.8-5.4,7.9c-1.6,0.5-3.8,0.7-5.3,0.6C-10.4,34.3-11,33.9-11.6,33.5z"></path> </g> <g id="g136" transform="translate(254.8018,295.0825)"> <path id="path138" inkscape:connector-curvature="0" class="st5" d="M-43.8,36c-0.5,0.6-0.5,0.9-0.6,1.1 c0.9,0.6,1.9,1.2,2.7,1.5c0.1,0,0.2,0.1,0.3,0.1c0.9,0.3,1.8,0.2,2.3,0c0.5-0.2,0.7-0.5,0.9-0.9c0.2-0.4,0.3-1,0.2-1.7 c-0.1-0.6-0.4-1.4-0.7-1.9c0-0.1-0.1-0.1-0.1-0.2c-0.1-0.1-0.2-0.3-0.3-0.4c-0.3-0.3-0.5-0.6-0.8-0.8l-0.2-0.1 c-0.2-0.1-0.5-0.2-0.9-0.1c-0.2,0.1-0.4,0.2-0.6,0.5c-0.2,0.2-0.4,0.4-0.6,0.7C-42.5,34.5-43.3,35.4-43.8,36"></path> </g> <g id="g140" transform="translate(254.8018,295.0825)"> <path id="path142" inkscape:connector-curvature="0" class="st4" d="M-43.8,36c-0.5,0.6-0.5,0.9-0.6,1.1 c0.9,0.6,1.9,1.2,2.7,1.5c0.1,0,0.2,0.1,0.3,0.1c0.9,0.3,1.8,0.2,2.3,0c0.5-0.2,0.7-0.5,0.9-0.9c0.2-0.4,0.3-1,0.2-1.7 c-0.1-0.6-0.4-1.4-0.7-1.9c0-0.1-0.1-0.1-0.1-0.2c-0.1-0.1-0.2-0.3-0.3-0.4c-0.3-0.3-0.5-0.6-0.8-0.8l-0.2-0.1 c-0.2-0.1-0.5-0.2-0.9-0.1c-0.2,0.1-0.4,0.2-0.6,0.5c-0.2,0.2-0.4,0.4-0.6,0.7C-42.5,34.5-43.3,35.4-43.8,36z"></path> </g> <g id="g144" transform="translate(218.3994,249.2324)"> <path id="path146" inkscape:connector-curvature="0" class="st6" d="M-16.9,69.8c0.1-0.6,0.1-1.2,0.1-1.6c0-0.4-0.1-0.6-0.5-0.8 c-0.3-0.2-0.9-0.3-1.4-0.3c-0.5,0-0.9,0.1-1.2,0.3c-0.3,0.2-0.5,0.6-0.7,1"></path> </g> <g id="g148" transform="translate(218.377,241.4116)"> <path id="path150" inkscape:connector-curvature="0" class="st6" d="M-16.9,75.5c0.4-0.4,0.7-0.7,1.2-0.9c0.5-0.2,1.1-0.2,1.6,0 c0.5,0.2,1,0.6,1.3,0.9c0.3,0.3,0.4,0.6,0.6,0.9"></path> </g> <g id="g152" transform="translate(222.9492,238.0088)"> <path id="path154" inkscape:connector-curvature="0" class="st2" d="M-20.3,78c-0.5,0.2-0.8,0.5-1.2,0.9 c-0.1-0.1-0.2-0.3-0.3-0.4c-0.3-0.2-0.9-0.3-1.4-0.3c-0.1,0-0.2,0-0.3,0c0.1,0,0.2-0.1,0.3-0.2c0.2-0.2,0.3-0.5,0.3-0.8 c0-0.3,0-0.6-0.2-0.8c-0.1-0.2-0.3-0.2-0.4-0.3c-0.1,0-0.1-0.1,0.2-0.1c1-0.3,1.9-0.4,2.9-0.3c2.4,0.1,1.5,1.6,3.2,3.5 c-0.6-0.9-1.1-1-1.6-1.2C-19.2,77.8-19.8,77.8-20.3,78"></path> </g> <g id="g156" transform="translate(222.9492,238.0088)"> <path id="path158" inkscape:connector-curvature="0" class="st4" d="M-20.3,78c-0.5,0.2-0.8,0.5-1.2,0.9 c-0.1-0.1-0.2-0.3-0.3-0.4c-0.3-0.2-0.9-0.3-1.4-0.3c-0.1,0-0.2,0-0.3,0c0.1,0,0.2-0.1,0.3-0.2c0.2-0.2,0.3-0.5,0.3-0.8 c0-0.3,0-0.6-0.2-0.8c-0.1-0.2-0.3-0.2-0.4-0.3c-0.1,0-0.1-0.1,0.2-0.1c1-0.3,1.9-0.4,2.9-0.3c2.4,0.1,1.5,1.6,3.2,3.5 c-0.6-0.9-1.1-1-1.6-1.2C-19.2,77.8-19.8,77.8-20.3,78z"></path> </g> <g id="g160" transform="translate(256.668,292.8408)"> <path id="path162" inkscape:connector-curvature="0" class="st12" d="M-45.1,37.6c-0.3,0.4-0.3,0.6-0.4,0.7 c0.6,0.4,1.2,0.8,1.8,1c0.1,0,0.1,0,0.2,0.1c0.6,0.2,1.2,0.1,1.5,0c0.3-0.1,0.5-0.3,0.6-0.6c0.1-0.3,0.2-0.6,0.2-1.1 c-0.1-0.4-0.3-0.9-0.5-1.2c0,0-0.1-0.1-0.1-0.1c-0.1-0.1-0.1-0.2-0.2-0.2c-0.2-0.2-0.3-0.4-0.5-0.5l-0.1,0c-0.1,0-0.4-0.1-0.6,0 c-0.1,0.1-0.2,0.2-0.4,0.3c-0.1,0.1-0.2,0.3-0.4,0.5C-44.3,36.6-44.8,37.2-45.1,37.6"></path> </g> <g id="g164" transform="translate(256.668,292.8408)"> <path id="path166" inkscape:connector-curvature="0" class="st4" d="M-45.1,37.6c-0.3,0.4-0.3,0.6-0.4,0.7 c0.6,0.4,1.2,0.8,1.8,1c0.1,0,0.1,0,0.2,0.1c0.6,0.2,1.2,0.1,1.5,0c0.3-0.1,0.5-0.3,0.6-0.6c0.1-0.3,0.2-0.6,0.2-1.1 c-0.1-0.4-0.3-0.9-0.5-1.2c0,0-0.1-0.1-0.1-0.1c-0.1-0.1-0.1-0.2-0.2-0.2c-0.2-0.2-0.3-0.4-0.5-0.5l-0.1,0c-0.1,0-0.4-0.1-0.6,0 c-0.1,0.1-0.2,0.2-0.4,0.3c-0.1,0.1-0.2,0.3-0.4,0.5C-44.3,36.6-44.8,37.2-45.1,37.6z"></path> </g> <g id="g168" transform="translate(202.4556,299.2686)"> <path id="path170" inkscape:connector-curvature="0" class="st5" d="M-5.2,32.9c0.5,0.5,0.6,0.8,0.7,1.1 c-0.9,0.7-1.7,1.3-2.6,1.7c-0.1,0-0.2,0.1-0.3,0.1c-0.9,0.4-1.8,0.3-2.3,0.2c-0.6-0.1-0.8-0.4-1-0.8c-0.2-0.4-0.4-1-0.4-1.7 c0-0.6,0.3-1.4,0.5-2c0-0.1,0.1-0.1,0.1-0.2c0.1-0.2,0.2-0.3,0.2-0.4c0.2-0.4,0.5-0.6,0.7-0.8l0.2-0.1c0.2-0.1,0.5-0.2,0.9-0.1 c0.2,0.1,0.4,0.2,0.6,0.4c0.2,0.2,0.4,0.4,0.7,0.6C-6.6,31.5-5.7,32.3-5.2,32.9"></path> </g> <g id="g172" transform="translate(202.4556,299.2686)"> <path id="path174" inkscape:connector-curvature="0" class="st4" d="M-5.2,32.9c0.5,0.5,0.6,0.8,0.7,1.1 c-0.9,0.7-1.7,1.3-2.6,1.7c-0.1,0-0.2,0.1-0.3,0.1c-0.9,0.4-1.8,0.3-2.3,0.2c-0.6-0.1-0.8-0.4-1-0.8c-0.2-0.4-0.4-1-0.4-1.7 c0-0.6,0.3-1.4,0.5-2c0-0.1,0.1-0.1,0.1-0.2c0.1-0.2,0.2-0.3,0.2-0.4c0.2-0.4,0.5-0.6,0.7-0.8l0.2-0.1c0.2-0.1,0.5-0.2,0.9-0.1 c0.2,0.1,0.4,0.2,0.6,0.4c0.2,0.2,0.4,0.4,0.7,0.6C-6.6,31.5-5.7,32.3-5.2,32.9z"></path> </g> <g id="g176" transform="translate(200.7832,297.4478)"> <path id="path178" inkscape:connector-curvature="0" class="st12" d="M-3.9,34.2c0.3,0.3,0.4,0.5,0.4,0.7 C-4,35.3-4.6,35.8-5.1,36c-0.1,0-0.1,0.1-0.2,0.1c-0.6,0.2-1.2,0.2-1.5,0.1c-0.4-0.1-0.5-0.3-0.7-0.5c-0.1-0.3-0.3-0.6-0.3-1.1 c0-0.4,0.2-0.9,0.3-1.3c0,0,0-0.1,0.1-0.1c0-0.1,0.1-0.2,0.1-0.3c0.1-0.2,0.3-0.4,0.4-0.5l0.1-0.1c0.1-0.1,0.3-0.2,0.6-0.1 c0.1,0,0.2,0.1,0.4,0.3c0.1,0.1,0.3,0.3,0.4,0.4C-4.9,33.3-4.3,33.9-3.9,34.2"></path> </g> <g id="g180" transform="translate(200.7832,297.4478)"> <path id="path182" inkscape:connector-curvature="0" class="st4" d="M-3.9,34.2c0.3,0.3,0.4,0.5,0.4,0.7 C-4,35.3-4.6,35.8-5.1,36c-0.1,0-0.1,0.1-0.2,0.1c-0.6,0.2-1.2,0.2-1.5,0.1c-0.4-0.1-0.5-0.3-0.7-0.5c-0.1-0.3-0.3-0.6-0.3-1.1 c0-0.4,0.2-0.9,0.3-1.3c0,0,0-0.1,0.1-0.1c0-0.1,0.1-0.2,0.1-0.3c0.1-0.2,0.3-0.4,0.4-0.5l0.1-0.1c0.1-0.1,0.3-0.2,0.6-0.1 c0.1,0,0.2,0.1,0.4,0.3c0.1,0.1,0.3,0.3,0.4,0.4C-4.9,33.3-4.3,33.9-3.9,34.2z"></path> </g> <g id="g184" transform="translate(188.9399,290.9072)"> <path id="path186" inkscape:connector-curvature="0" class="st8" d="M4.8,39c-0.3-0.3-0.5-0.7-0.7-0.9C4.3,38,4.7,37.9,5,38 c0.3,0.1,0.5,0,0.8,0.2c0.1,0.1,0.1,0.1,0.2,0.2c0.1,0.1,0.2,0.1,0.3,0.2c0.1,0.1,0.2,0.2,0.5,0.4s1.1,1.1,1.3,1.4 c0.2,0.2,0.2,0.2,0.2,0.3c0.1,0.1-0.1-0.1,0.2,0.2c0.3,0.3,0.6,1.1,0.6,1.4c-0.2,0.2-0.4,0.3-0.6,0.5c-0.4-0.2-0.8-0.5-1.1-0.7 c-0.3-0.2-0.5-0.3-0.7-0.4c-0.5-0.3-0.4-0.3-0.2-0.3c0.2,0,0.6,0,0.5-0.2c-0.1-0.1-0.7-0.4-1.3-1C5.5,39.9,5.1,39.5,4.8,39"></path> </g> <g id="g188" transform="translate(205.688,306.6479)"> <path id="path190" inkscape:connector-curvature="0" class="st6" d="M-7.5,27.4c-0.9-0.6-1.9-1.2-2.4-1.5 c-0.5-0.3-0.4-0.3-0.2-0.3c0.2,0,0.5,0,0.4-0.2c-0.1-0.1-0.6-0.4-1.2-1c-0.6-0.6-1.3-1.6-1.7-2.1c-0.4-0.6-0.5-0.7-0.7-0.8 c-0.1-0.1-0.2-0.2,0.2-0.1c0.4,0.1,1.4,0.2,2.4,0.4"></path> </g> <g id="g192" transform="translate(267.2275,284.7783)"> <path id="path194" inkscape:connector-curvature="0" class="st8" d="M-52.9,43.5c0.3-0.3,0.5-0.7,0.7-0.9 c-0.2-0.1-0.6-0.2-0.9-0.1c-0.3,0.1-0.5,0-0.8,0.2c-0.1,0.1-0.1,0.1-0.2,0.2c-0.1,0.1-0.2,0.1-0.3,0.2c-0.1,0.1-0.2,0.2-0.5,0.4 c-0.3,0.3-1.1,1.1-1.3,1.4c-0.2,0.2-0.2,0.2-0.2,0.3c-0.1,0.1,0.1-0.1-0.2,0.2c-0.3,0.3-0.6,1.1-0.6,1.4 c0.2,0.2,0.4,0.3,0.6,0.5c0.4-0.2,0.8-0.5,1.1-0.7c0.3-0.2,0.5-0.3,0.7-0.4c0.5-0.3,0.4-0.3,0.2-0.3c-0.2,0-0.6,0-0.5-0.2 c0.1-0.1,0.7-0.4,1.3-1C-53.6,44.4-53.2,44-52.9,43.5"></path> </g> <g id="g196" transform="translate(250.4795,300.5186)"> <path id="path198" inkscape:connector-curvature="0" class="st6" d="M-40.6,31.9c0.9-0.6,1.9-1.2,2.4-1.5 c0.5-0.3,0.4-0.3,0.2-0.3c-0.2,0-0.5,0-0.4-0.2c0.1-0.1,0.6-0.4,1.2-1c0.6-0.6,1.3-1.6,1.7-2.1c0.4-0.6,0.5-0.7,0.7-0.8 c0.1-0.1,0.2-0.2-0.2-0.1c-0.4,0.1-1.4,0.2-2.4,0.4"></path> </g> <g id="g200" transform="translate(225.1416,306.1421)"> <path id="path202" inkscape:connector-curvature="0" class="st8" d="M-21.9,27.8c-0.8,0.1-1.8,0.1-2.4,0c-0.6-0.1-1-0.3-1.3-0.9 c-0.3-0.6-0.6-1.6-0.1-2.8c0.5-1.2,1.8-2.5,2.4-3c0.5-0.4,0.3,0.2,0.3,0.8c0,0.7,0.2,1.5,0.4,2.3c0.2,0.7,0.5,1.4,1.4,1.7 c0.8,0.3,2.2,0.3,3.1,0.2c0.8,0,1.1-0.1,0.7,0.2c-0.4,0.2-1.3,0.7-2.1,1C-20.4,27.6-21.1,27.7-21.9,27.8"></path> </g> <g id="g204" transform="translate(225.1416,306.1421)"> <path id="path206" inkscape:connector-curvature="0" class="st4" d="M-21.9,27.8c-0.8,0.1-1.8,0.1-2.4,0c-0.6-0.1-1-0.3-1.3-0.9 c-0.3-0.6-0.6-1.6-0.1-2.8c0.5-1.2,1.8-2.5,2.4-3c0.5-0.4,0.3,0.2,0.3,0.8c0,0.7,0.2,1.5,0.4,2.3c0.2,0.7,0.5,1.4,1.4,1.7 c0.8,0.3,2.2,0.3,3.1,0.2c0.8,0,1.1-0.1,0.7,0.2c-0.4,0.2-1.3,0.7-2.1,1C-20.4,27.6-21.1,27.7-21.9,27.8z"></path> </g> <g id="g208" transform="translate(233.1895,304.2817)"> <path id="path210" inkscape:connector-curvature="0" class="st8" d="M-27.8,29.2c-0.5,0.1-1.1,0.2-1.5,0.2 c-0.4,0-0.6-0.1-0.9-0.5c-0.2-0.4-0.5-1-0.2-1.8s1-1.7,1.3-2c0.3-0.3,0.2,0.1,0.2,0.5c0,0.4,0.2,1,0.4,1.4c0.2,0.5,0.4,0.8,1,1 c0.6,0.1,1.4,0,2-0.1c0.5-0.1,0.7-0.1,0.5,0c-0.2,0.2-0.8,0.6-1.3,0.8C-26.9,29-27.3,29.1-27.8,29.2"></path> </g> <g id="g212" transform="translate(233.1895,304.2817)"> <path id="path214" inkscape:connector-curvature="0" class="st4" d="M-27.8,29.2c-0.5,0.1-1.1,0.2-1.5,0.2 c-0.4,0-0.6-0.1-0.9-0.5c-0.2-0.4-0.5-1-0.2-1.8s1-1.7,1.3-2c0.3-0.3,0.2,0.1,0.2,0.5c0,0.4,0.2,1,0.4,1.4c0.2,0.5,0.4,0.8,1,1 c0.6,0.1,1.4,0,2-0.1c0.5-0.1,0.7-0.1,0.5,0c-0.2,0.2-0.8,0.6-1.3,0.8C-26.9,29-27.3,29.1-27.8,29.2z"></path> </g> <g id="g216" transform="translate(228.1924,237.5278)"> <path id="path218" inkscape:connector-curvature="0" class="st13" d="M-24.1,78.4c0-0.2,0-0.4-0.1-0.5c0-0.2-0.1-0.2-0.1,0 c0,0.1-0.1,0.2-0.1,0.4C-24.4,78.3-24.3,78.4-24.1,78.4"></path> </g> <g id="g220" transform="translate(228.1924,237.5278)"> <path id="path222" inkscape:connector-curvature="0" class="st4" d="M-24.1,78.4c0-0.2,0-0.4-0.1-0.5c0-0.2-0.1-0.2-0.1,0 c0,0.1-0.1,0.2-0.1,0.4C-24.4,78.3-24.3,78.4-24.1,78.4z"></path> </g> <g id="g224" transform="translate(212.1611,238.7783)"> <path id="path226" inkscape:connector-curvature="0" class="st13" d="M-12.3,77.5c0.1-0.2,0.1-0.3,0.2-0.4 c0.1-0.2,0.1-0.2,0.1,0.1c0,0.1,0,0.3,0.1,0.4C-12.1,77.5-12.2,77.5-12.3,77.5"></path> </g> <g id="g228" transform="translate(212.1611,238.7783)"> <path id="path230" inkscape:connector-curvature="0" class="st4" d="M-12.3,77.5c0.1-0.2,0.1-0.3,0.2-0.4 c0.1-0.2,0.1-0.2,0.1,0.1c0,0.1,0,0.3,0.1,0.4C-12.1,77.5-12.2,77.5-12.3,77.5z"></path> </g> <g id="g232" transform="translate(233.9658,246.0342)"> <path id="path234" inkscape:connector-curvature="0" class="st6" d="M-28.4,72.1c0.1,0,0.2,0,0.4,0c0.1,0,0.3-0.1,0.4-0.2 c0.1-0.1,0.2-0.3,0.3-0.4"></path> </g> <g id="g236" transform="translate(229.2305,232.0684)"> <path id="path238" inkscape:connector-curvature="0" class="st14" d="M-24.9,82.4c-0.4,0.5-1.1,0.4-2,0.4 c-0.9,0-1.8-0.1-2.1-0.9c0.8-0.2,1.6-0.3,2.5-0.2C-25.6,81.7-25.2,82-24.9,82.4"></path> </g> <g id="g240" transform="translate(229.2305,232.0684)"> <path id="path242" inkscape:connector-curvature="0" class="st4" d="M-24.9,82.4c-0.4,0.5-1.1,0.4-2,0.4c-0.9,0-1.8-0.1-2.1-0.9 c0.8-0.2,1.6-0.3,2.5-0.2C-25.6,81.7-25.2,82-24.9,82.4z"></path> </g> <g id="g244" transform="translate(235.1133,260.5879)"> <path id="path246" inkscape:connector-curvature="0" class="st6" d="M-29.2,61.4c0.6,0.1,1.2,0.3,1.7,0.3 c0.5,0.1,0.9,0.1,1.3,0.1"></path> </g> <g id="g248" transform="translate(210.1011,260.3896)"> <path id="path250" inkscape:connector-curvature="0" class="st6" d="M-10.8,61.5c-0.6,0.1-1.1,0.2-1.6,0.3 c-0.5,0.1-0.9,0.1-1.3,0.1"></path> </g> <g id="g252" transform="translate(213.0674,272.2876)"> <path id="path254" inkscape:connector-curvature="0" class="st6" d="M-13,52.8c0-0.3,0.1-0.7,0.1-1.2c0-0.5-0.1-1.2-0.4-1.7 c-0.3-0.5-0.8-0.9-0.9-1.2s0.3-0.6,0.8-0.8"></path> </g> <g id="g256" transform="translate(198.0059,114.7539)"> <path id="path258" inkscape:connector-curvature="0" class="st6" d="M-1.9,168.9c-0.5-0.1-1-0.3-1.3-0.5 c-0.3-0.2-0.5-0.6-0.5-0.9c0-0.4,0-0.7,0.2-0.9c0.2-0.2,0.4-0.2,0.7-0.2"></path> </g> <g id="g260" transform="translate(252.0762,172.5684)"> <path id="path262" inkscape:connector-curvature="0" class="st5" d="M-41.7,126.3c0.1-0.3,0.1-1.1,0.1-2.2c0-1.1,0.1-2.3-0.1-3 c-0.2-0.7-0.5-0.9-1.2-1c-0.7-0.1-1.7-0.1-2.1-0.1c-0.4,0-0.4,0.1-0.3,0.2c0.1,0.1,0.1,0.1,0.1,0.2c0,0.1,0,0.1,0,0.2 c0,0-0.1,0.1-0.1,0.1c-0.1,0-0.2-0.1-0.3,0s-0.1,0.1-0.1,0.2c0,0.1,0.1,0.2,0.4,0.4c0.2,0.2,0.6,0.5,1,1 c0.4,0.5,0.8,1.1,1.2,1.7c0.4,0.6,0.8,1.3,1,1.8C-41.9,126.2-41.8,126.5-41.7,126.3"></path> </g> <g id="g264" transform="translate(200.7759,174.2285)"> <path id="path266" inkscape:connector-curvature="0" class="st5" d="M-3.9,125c-0.1-0.3-0.2-1.6-0.2-2.9c0-1.2,0-2.4,0.2-3.1 c0.2-0.7,0.6-0.8,1.3-0.9c0.7-0.1,1.7-0.1,2.1-0.1c0.4,0,0.3,0.2,0.2,0.3c-0.1,0.1,0,0.2,0,0.2c0,0,0,0,0,0c0,0,0.1,0,0.1,0.1 c0.1,0,0.2,0,0.3,0c0.1,0,0.1,0.1,0,0.1c0,0.1-0.1,0.2-0.4,0.4s-0.6,0.5-1,1c-0.4,0.5-0.8,1.1-1.2,1.7c-0.4,0.7-0.8,1.3-1,2 C-3.8,124.7-3.8,125.4-3.9,125"></path> </g> <g id="g268" transform="translate(280.6943,113.9033)"> <path id="path270" inkscape:connector-curvature="0" class="st8" d="M-62.8,169.5c-1.1,0.4-1.5,1.1-1.2,2.1 c-0.6,1.4,0.5,2.7,2.3,2.2c0.1,0,0.2,0,0.3-0.1c0.1,0,0.2-0.1,0.3-0.1c0.1,0,0.1,0,0.2-0.1c0.5-0.2,0.7-0.3,1.1-0.3 c0.3,0,0.7,0,0.9,0c0.2,0.1,0.4,0.2,0.4,0.2c0,0,0-0.1-0.4-0.6c-0.1-0.1-0.2-0.2-0.3-0.3c0.4-0.3,0.7-0.5,1-0.6 c0.4-0.2,0.8-0.3,1.1-0.3c0.3,0,0.5,0.1,0.5,0.1c0,0-0.1-0.2-0.7-0.6C-58.9,170.1-61,168.8-62.8,169.5"></path> </g> <g id="g272" transform="translate(280.6943,113.9033)"> <path id="path274" inkscape:connector-curvature="0" class="st4" d="M-62.8,169.5c-1.1,0.4-1.5,1.1-1.2,2.1 c-0.6,1.4,0.5,2.7,2.3,2.2c0.1,0,0.2,0,0.3-0.1c0.1,0,0.2-0.1,0.3-0.1c0.1,0,0.1,0,0.2-0.1c0.5-0.2,0.7-0.3,1.1-0.3 c0.3,0,0.7,0,0.9,0c0.2,0.1,0.4,0.2,0.4,0.2c0,0,0-0.1-0.4-0.6c-0.1-0.1-0.2-0.2-0.3-0.3c0.4-0.3,0.7-0.5,1-0.6 c0.4-0.2,0.8-0.3,1.1-0.3c0.3,0,0.5,0.1,0.5,0.1c0,0-0.1-0.2-0.7-0.6C-58.9,170.1-61,168.8-62.8,169.5z"></path> </g> <g id="g276" transform="translate(232.6436,282.6206)"> <path id="path278" inkscape:connector-curvature="0" class="st15" d="M-27.4,45.1c-0.1,0-0.2,0-0.3,0.1 c-0.1,0.1-0.2,0.3-0.2,0.5c0,0.1,0.2,0.2,0.4,0.3c0.3,0.1,0.6,0.2,1.2,0.2c0.5,0,1.2,0.1,1.8-0.4c0.6-0.5,1.1-1.5,1.4-2 c0.2-0.5,0.2-0.6-0.1-0.2c-0.3,0.4-0.9,1.1-1.5,1.5c-0.6,0.4-1.3,0.3-1.7,0.2C-27,45.2-27.3,45.2-27.4,45.1"></path> </g> <g id="g280" transform="translate(213.8799,282.4399)"> <path id="path282" inkscape:connector-curvature="0" class="st15" d="M-13.6,45.3c0.1,0,0.2,0,0.3,0.1c0.1,0.1,0.3,0.3,0.3,0.4 c0,0.1-0.2,0.2-0.4,0.3c-0.3,0.1-0.6,0.2-1.2,0.2c-0.5,0.1-1.2,0.1-1.8-0.4c-0.6-0.5-1.2-1.5-1.4-2c-0.2-0.5-0.2-0.6,0.1-0.2 c0.3,0.4,0.9,1.1,1.6,1.5c0.6,0.3,1.3,0.3,1.7,0.2C-14,45.4-13.7,45.3-13.6,45.3"></path> </g> <g id="g284" transform="translate(239.5293,274.8896)"> <path id="path286" inkscape:connector-curvature="0" class="st13" d="M-32.5,50.8c2.2,0.4,2.8-2.5,1.7-3.6c0,0-0.9,0-1.4,0 c-0.4,0-1.2-0.1-1.2-0.1C-33.8,47.5-34.7,50.4-32.5,50.8"></path> </g> <g id="g288" transform="translate(239.5293,274.8896)"> <path id="path290" inkscape:connector-curvature="0" class="st4" d="M-32.5,50.8c2.2,0.4,2.8-2.5,1.7-3.6c0,0-0.9,0-1.4,0 c-0.4,0-1.2-0.1-1.2-0.1C-33.8,47.5-34.7,50.4-32.5,50.8z"></path> </g> <g id="g292" transform="translate(237.5547,265.6147)"> <path id="path294" inkscape:connector-curvature="0" class="st15" d="M-31,57.7c-0.2,0.7,0.2,1.4,0.8,1.6 c0.7,0.2,1.4-0.1,1.6-0.8c0.2-1.3-0.6-1.6-1.2-1.7C-30.4,56.7-30.8,57-31,57.7"></path> </g> <g id="g296" transform="translate(238.9863,268.9458)"> <path id="path298" inkscape:connector-curvature="0" class="st13" d="M-32.1,55.2c0.1,0,0.1-0.2,0.1-0.3c0-0.2-0.1-0.3-0.2-0.2 c-0.1,0-0.1,0.2-0.1,0.3C-32.3,55.1-32.2,55.2-32.1,55.2"></path> </g> <g id="g300" transform="translate(205.5068,275.0391)"> <path id="path302" inkscape:connector-curvature="0" class="st13" d="M-7.4,50.7c2.2,0.1,2.5-2.9,1.2-3.8c0,0-0.9,0.2-1.3,0.2 c-0.4,0-1.2,0-1.2,0C-9.1,47.6-9.6,50.6-7.4,50.7"></path> </g> <g id="g304" transform="translate(205.5068,275.0391)"> <path id="path306" inkscape:connector-curvature="0" class="st4" d="M-7.4,50.7c2.2,0.1,2.5-2.9,1.2-3.8c0,0-0.9,0.2-1.3,0.2 c-0.4,0-1.2,0-1.2,0C-9.1,47.6-9.6,50.6-7.4,50.7z"></path> </g> <g id="g308" transform="translate(202.8701,265.9565)"> <path id="path310" inkscape:connector-curvature="0" class="st15" d="M-5.5,57.4c-0.1,0.7,0.4,1.4,1,1.5c0.7,0.1,1.4-0.3,1.4-1 c0.1-1-0.6-1.4-1.2-1.4C-4.8,56.5-5.4,56.9-5.5,57.4"></path> </g> <g id="g312" transform="translate(204.6655,269.749)"> <path id="path314" inkscape:connector-curvature="0" class="st13" d="M-6.8,54.6c0.1,0,0.1-0.2,0.1-0.3 c-0.1-0.1-0.2-0.2-0.3-0.2c-0.1,0-0.1,0.2-0.1,0.3C-7,54.6-6.9,54.7-6.8,54.6"></path> </g> <g id="g316" transform="translate(228.5469,256.458)"> <path id="path318" inkscape:connector-curvature="0" class="st15" d="M-24.4,64.4c-0.6,0.1-2,0.1-3,0.1c-1,0-1.8,0-2.2-0.1 c-0.4-0.1-0.4-0.2,0-0.5c0.4-0.3,1.1-1,1.6-1.3c0.5-0.3,0.7-0.3,1-0.3c0.2,0,0.4,0.1,0.8,0.2c0.3,0.1,0.8,0.4,1.2,0.6 c0.4,0.2,0.8,0.5,1,0.7C-23.8,64.1-23.8,64.3-24.4,64.4"></path> </g> <g id="g320" transform="translate(263.0215,298.7417)"> <path id="path322" inkscape:connector-curvature="0" class="st16" d="M-49.8,33.3c0.2,0.6,0.4,0.8,0.4,1c0,0.2,0,0.3-0.2,0.5 c-0.2,0.2-0.5,0.4-0.7,0.7s-0.2,0.6-0.2,1.2c0,0.6,0.1,1.4-0.1,2.1c-0.1,0.7-0.3,1.4-0.8,2.1c-0.4,0.7-1,1.4-1.7,1.9 c-0.3,0.2-0.5,0.4-0.8,0.6c-0.1,0.2-0.2,0.5-0.3,0.6c-0.1,0.2-0.2,0.2-0.3,0.2s-0.2,0-0.3,0c-0.1,0-0.2-0.1-0.4-0.1 c-0.1,0-0.1,0-0.1,0c-0.5,0.2-1.1,0.3-1.5,0.4c0,0.1-0.2,0.2-0.3,0.4c-0.1,0.2-0.2,0.4-0.3,0.5c-0.1,0.1-0.1,0.1-0.2,0.1 s-0.2,0-0.3-0.1c-0.1-0.1-0.3-0.3-0.4-0.5c-0.1-0.1-0.2-0.2-0.3-0.2c-0.4,0-0.9,0-1.5-0.1c0,0,0,0-0.1,0c-0.1,0-0.2,0.1-0.3,0.2 c-0.1,0.1-0.2,0.1-0.3,0.1c-0.1,0-0.2,0-0.4-0.2c-0.1-0.1-0.3-0.3-0.4-0.5c-0.3-0.1-0.7-0.2-1-0.4c-0.7-0.4-1.5-0.9-2.1-1.5 c-0.6-0.6-0.9-1.2-1.2-1.9c-0.3-0.7-0.4-1.5-0.5-2c-0.1-0.6-0.2-0.9-0.4-1.1c-0.2-0.2-0.6-0.4-0.8-0.6c-0.2-0.2-0.3-0.3-0.3-0.5 c0-0.2,0.1-0.4,0.2-1c0.4-2.9,2.5-4.5,8.9-5.1C-52.5,29.5-50.8,30.7-49.8,33.3"></path> </g> <g id="g324" transform="translate(263.0215,298.7417)"> <path id="path326" inkscape:connector-curvature="0" class="st17" d="M-49.8,33.3c0.2,0.6,0.4,0.8,0.4,1c0,0.2,0,0.3-0.2,0.5 c-0.2,0.2-0.5,0.4-0.7,0.7s-0.2,0.6-0.2,1.2c0,0.6,0.1,1.4-0.1,2.1c-0.1,0.7-0.3,1.4-0.8,2.1c-0.4,0.7-1,1.4-1.7,1.9 c-0.3,0.2-0.5,0.4-0.8,0.6c-0.1,0.2-0.2,0.5-0.3,0.6c-0.1,0.2-0.2,0.2-0.3,0.2s-0.2,0-0.3,0c-0.1,0-0.2-0.1-0.4-0.1 c-0.1,0-0.1,0-0.1,0c-0.5,0.2-1.1,0.3-1.5,0.4c0,0.1-0.2,0.2-0.3,0.4c-0.1,0.2-0.2,0.4-0.3,0.5c-0.1,0.1-0.1,0.1-0.2,0.1 s-0.2,0-0.3-0.1c-0.1-0.1-0.3-0.3-0.4-0.5c-0.1-0.1-0.2-0.2-0.3-0.2c-0.4,0-0.9,0-1.5-0.1c0,0,0,0-0.1,0c-0.1,0-0.2,0.1-0.3,0.2 c-0.1,0.1-0.2,0.1-0.3,0.1c-0.1,0-0.2,0-0.4-0.2c-0.1-0.1-0.3-0.3-0.4-0.5c-0.3-0.1-0.7-0.2-1-0.4c-0.7-0.4-1.5-0.9-2.1-1.5 c-0.6-0.6-0.9-1.2-1.2-1.9c-0.3-0.7-0.4-1.5-0.5-2c-0.1-0.6-0.2-0.9-0.4-1.1c-0.2-0.2-0.6-0.4-0.8-0.6c-0.2-0.2-0.3-0.3-0.3-0.5 c0-0.2,0.1-0.4,0.2-1c0.4-2.9,2.5-4.5,8.9-5.1C-52.5,29.5-50.8,30.7-49.8,33.3z"></path> </g> <g id="g328" transform="translate(220.418,339.3564)"> <path id="path330" inkscape:connector-curvature="0" class="st13" d="M-18.4,3.3C-18.5,3-18.6,2.4-18.6,2c0-0.4,0-0.5,0-0.6 c0-0.1,0,0,0.1,0.2c0,0.2,0.1,0.6,0.1,0.9c0,0.3,0.1,0.7,0.1,0.9c0,0.2,0,0.3,0,0.3C-18.3,3.7-18.3,3.6-18.4,3.3"></path> </g> <g id="g332" transform="translate(247.1631,333.9219)"> <path id="path334" inkscape:connector-curvature="0" class="st13" d="M-38.1,7.3c0-0.3,0.1-0.7,0.1-0.9c0-0.3,0-0.3,0-0.4 c0,0-0.1,0-0.1,0.1c0,0.1,0,0.4,0,0.7c0,0.3,0,0.6,0,0.7S-38.1,7.6-38.1,7.3"></path> </g> <g id="g336" transform="translate(233.0811,339.6323)"> <path id="path338" inkscape:connector-curvature="0" class="st13" d="M-27.7,3.1c0-0.4-0.1-1.2-0.1-1.6c0-0.4-0.1-0.5-0.1-0.5 c0,0-0.1,0-0.1,0.4c0,0.4,0.1,1.2,0.1,1.6c0.1,0.4,0.1,0.5,0.1,0.5C-27.7,3.6-27.7,3.5-27.7,3.1"></path> </g> <g id="g340"> <g id="g342"> </g> <g id="g354"> <g> <defs> <rect id="SVGID_9_" x="204.4" y="340.1" width="1" height="4.3"></rect> </defs> <clipPath id="SVGID_10_"> <use xlink:href="#SVGID_9_" style="overflow:visible;"></use> </clipPath> <g id="g352" class="st18"> <g id="g350" transform="translate(230.209,336.0762)"> <path id="path348" inkscape:connector-curvature="0" class="st19" d="M-25.6,5.7c0,0.4,0.1,1,0.2,1.5c0.1,0,0.1,0.1,0.2,0.2 c0.1,0.1,0.2,0.2,0.3,0.4c0-0.3-0.1-0.6-0.1-1c-0.1-0.6-0.2-1.3-0.3-1.7c-0.1-0.4-0.2-0.5-0.3-0.5c0,0,0,0,0,0.2 c0,0.1,0,0.2,0,0.3v0c0,0,0,0.1,0,0.1C-25.7,5.4-25.6,5.6-25.6,5.7"></path> </g> </g> </g> </g> </g> <g id="g356"> <g id="g358"> </g> <g id="g370"> <g> <defs> <rect id="SVGID_11_" x="205.8" y="340.1" width="0.8" height="4.1"></rect> </defs> <clipPath id="SVGID_12_"> <use xlink:href="#SVGID_11_" style="overflow:visible;"></use> </clipPath> <g id="g368" class="st20"> <g id="g366" transform="translate(235.0439,337.5112)"> <path id="path364" inkscape:connector-curvature="0" class="st19" d="M-29.2,4.7c0,0.5,0.1,1,0.1,1.6C-29,6.1-29,6-28.9,6 c0.1-0.1,0.2-0.2,0.3-0.4l-0.2-1.8c-0.1-0.6-0.1-0.7-0.1-0.7c0,0-0.1,0-0.2,0.3C-29.2,3.7-29.2,4.2-29.2,4.7"></path> </g> </g> </g> </g> </g> <g id="g372"> <g id="g374"> </g> <g id="g386"> <g> <defs> <rect id="SVGID_13_" x="209.2" y="340" width="0.5" height="2.4"></rect> </defs> <clipPath id="SVGID_14_"> <use xlink:href="#SVGID_13_" style="overflow:visible;"></use> </clipPath> <g id="g384" class="st21"> <g id="g382" transform="translate(247.8975,331.5249)"> <path id="path380" inkscape:connector-curvature="0" class="st19" d="M-38.7,9.1c0,0.3,0,0.9,0,1.5c0.1-0.1,0.2-0.1,0.4-0.2 c-0.1-0.4-0.1-0.7-0.2-0.9c-0.1-0.4-0.1-0.6-0.2-0.6C-38.6,8.7-38.7,8.8-38.7,9.1"></path> </g> </g> </g> </g> </g> <g id="g388"> <g id="g390"> </g> <g id="g402"> <g> <defs> <rect id="SVGID_15_" x="201.4" y="340.9" width="0.5" height="2.4"></rect> </defs> <clipPath id="SVGID_16_"> <use xlink:href="#SVGID_15_" style="overflow:visible;"></use> </clipPath> <g id="g400" class="st22"> <g id="g398" transform="translate(218.5371,335.356)"> <path id="path396" inkscape:connector-curvature="0" class="st19" d="M-17,6.3c0,0.3,0,0.9-0.1,1.2c0.1,0,0.2,0.1,0.3,0.1 c0,0,0,0,0,0.1c0-0.1,0-0.1,0-0.2c-0.1-0.4-0.1-0.9-0.2-1.2c0-0.3-0.1-0.4-0.1-0.4C-17,5.8-17,5.9-17,6.3"></path> </g> </g> </g> </g> </g> <g id="g404"> <g id="g406"> </g> <defs> <filter id="Adobe_OpacityMaskFilter" x="196.7" y="-344.1" width="16.1" height="11.5"> <feColorMatrix type="matrix" values="1 0 0 0 0 0 1 0 0 0 0 0 1 0 0 0 0 0 1 0"></feColorMatrix> </filter> </defs> <mask maskUnits="userSpaceOnUse" x="196.7" y="-344.1" width="16.1" height="11.5" id="mask426_1_"> <g id="g450_1_" class="st23"> <g> <defs> <rect id="SVGID_17_" x="225.9" y="274.9" width="16.1" height="11.5"></rect> </defs> <clipPath id="SVGID_18_"> <use xlink:href="#SVGID_17_" style="overflow:visible;"></use> </clipPath> <g id="g448_1_"> <path id="path428_1_" inkscape:connector-curvature="0" class="st24" d="M227.9,276.3H240v8.7h-12.1V276.3z"></path> <g id="g446_1_"> <g id="g430_1_"> </g> <g id="g444_1_"> <g> <defs> <rect id="SVGID_19_" x="225.9" y="274.9" width="16.1" height="11.6"></rect> </defs> <clipPath id="SVGID_20_" class="st24"> <use xlink:href="#SVGID_19_" style="overflow:visible;"></use> </clipPath> <g id="g442_1_"> <g id="g440_1_"> <g> <defs> <rect id="SVGID_21_" x="225.9" y="274.9" width="16.1" height="11.5"></rect> </defs> <clipPath id="SVGID_22_" class="st25"> <use xlink:href="#SVGID_21_" style="overflow:visible;"></use> </clipPath> <g id="g438_1_"> <g id="g436_1_"> <g id="g434_1_"> <linearGradient id="path432_2_" gradientUnits="userSpaceOnUse" x1="134.5872" y1="365.4117" x2="134.85" y2="365.4117" gradientTransform="matrix(9.65 -92.58 92.58 9.65 -34896.5195 9232.7676)"> <stop offset="0" style="stop-color:#FFFFFF"></stop> <stop offset="1" style="stop-color:#1D1D1B"></stop> </linearGradient> <path id="path432_1_" inkscape:connector-curvature="0" class="st26" d="M227.9,284.9H240v-8.6h-12.1V284.9z"></path> </g> </g> </g> </g> </g> </g> </g> </g> </g> </g> </g> </g> </mask> <g id="g452" class="st27"> <g id="g454"> </g> <g id="g466"> <g> <defs> <rect id="SVGID_23_" x="194" y="330.8" width="21.5" height="15.3"></rect> </defs> <clipPath id="SVGID_24_"> <use xlink:href="#SVGID_23_" style="overflow:visible;"></use> </clipPath> <g id="g464" class="st28"> <g id="g462" transform="translate(201.3247,317.0977)"> <path id="path460" inkscape:connector-curvature="0" class="st29" d="M-4.3,19.7c0,0.1,0,0.1,0,0.2c0.1,0.6,0.2,1.3,0.5,2 c0.3,0.7,0.6,1.3,1.2,1.9s1.3,1.1,2.1,1.5c0.2,0.1,0.5,0.2,0.7,0.3c0-0.3,0-0.8,0.1-1.2c0-0.3,0-0.4,0-0.4 c0,0,0,0.1,0.1,0.4c0,0.3,0.1,0.8,0.2,1.2c0,0.1,0,0.1,0,0.2c0.1,0.2,0.2,0.3,0.4,0.4c0.2,0.2,0.3,0.2,0.4,0.2 c0.1,0,0.2,0,0.3-0.1c0.1-0.1,0.2-0.2,0.3-0.2c0,0,0.1,0,0.1,0c0.6,0.1,1.1,0.1,1.5,0.1c0,0,0,0,0.1,0l-0.2-1.5 c-0.1,0-0.2,0-0.4,0C2.5,24.8,2,25,1.7,25.2c-0.1,0-0.1,0-0.2-0.2c-0.1-0.2-0.3-0.7-0.5-0.9c-0.2-0.3-0.4-0.3-0.4-0.3 c0,0,0,0.1,0,0.1c0,0.2,0.1,0.6,0.1,0.9c0,0.3,0.1,0.7,0.1,0.9c0,0.2,0,0.3,0,0.3c0,0-0.1,0-0.1-0.4 c-0.1-0.3-0.2-0.9-0.2-1.3c0-0.4,0-0.5,0-0.6c0,0,0,0,0,0c-0.2-0.3-0.1-0.6,0.1-0.9c0.2-0.2,0.5-0.5,0.7-0.6 c0.2-0.1,0.4-0.1,0.7-0.1c0.3,0.1,0.8,0.2,1,0.3c0.2,0.1,0.2,0.3,0.2,0.4c-0.1,0.4-0.1,0.4-0.1,0.8l0,0.2v0 c0,0,0-0.1,0-0.1c0-0.2,0-0.2,0-0.2c0.1,0,0.2,0.1,0.3,0.5c0.2,0.7,0.4,1.9,0.4,2.7C4,26.8,4,26.9,4,26.9 C4.2,27,4.2,27,4.3,27c0.1,0,0.2,0,0.2-0.1c0-0.1,0.1-0.2,0.1-0.3c-0.1-0.5-0.1-1-0.1-1.6c0-0.5,0-1,0-1.3 c0-0.3,0.1-0.3,0.2-0.3c0,0,0.1,0.1,0.1,0.7L5.1,26c0,0,0,0,0,0c0.4-0.1,0.9-0.2,1.5-0.4c0,0,0.1,0,0.1,0 c0.1,0,0.2,0.1,0.4,0.1c0.1,0,0.2,0.1,0.3,0c0.1,0,0.2,0,0.3-0.2c0.1-0.1,0.2-0.4,0.3-0.6c0-0.6,0-1.1,0-1.5 c0-0.3,0-0.4,0.1-0.3c0,0.1,0.1,0.2,0.2,0.6c0,0.2,0.1,0.6,0.2,0.9c0.2-0.1,0.3-0.2,0.4-0.3c0.7-0.5,1.3-1.2,1.7-1.9 s0.7-1.4,0.8-2.1c0.1-0.7,0.1-1.5,0.1-2.1c0-0.6,0-0.9,0.2-1.2c-0.2-0.3-0.4-0.7-1-0.9c-1.4-0.7-6.9-0.7-8.6-0.5 c-2,0.3-4.8,1.4-5.5,1.8c-0.7,0.4-1,0.8-1,1.1c0,0.1,0,0.2,0,0.2c0,0,0,0,0,0c0.1,0.1,0.1,0.2,0.2,0.3c0,0,0,0,0,0 c0,0.1,0.1,0.2,0.1,0.3C-4.4,19.6-4.4,19.6-4.3,19.7C-4.3,19.7-4.3,19.7-4.3,19.7 M7.6,23c0-0.1,0.1-0.2,0.1-0.1 c0,0,0,0.1,0,0.4c0,0.3,0,0.7-0.1,0.9c0,0.3,0,0.3-0.1,0.2c0-0.1,0-0.4,0-0.7C7.6,23.4,7.6,23.1,7.6,23 M3.9,25.6 c-0.1-0.4-0.1-1.2-0.1-1.6c0-0.4,0-0.5,0.1-0.4c0,0,0.1,0.1,0.1,0.5c0,0.4,0.1,1.2,0.1,1.6c0,0.4,0,0.5,0,0.5 C4,26.1,3.9,26,3.9,25.6"></path> </g> </g> </g> </g> </g> </g> <g id="g468"> <g id="g470"> </g> <g id="g482"> <g> <defs> <rect id="SVGID_25_" x="195.9" y="328.6" width="10.7" height="7.2"></rect> </defs> <clipPath id="SVGID_26_"> <use xlink:href="#SVGID_25_" style="overflow:visible;"></use> </clipPath> <g id="g480" class="st30"> <g id="g478" transform="translate(205.4287,297.3457)"> <path id="path476" inkscape:connector-curvature="0" class="st13" d="M-7.4,34.3c0.1,0.3,0.9,1.6,0.4,2 c-0.2,0.2-0.4,0.4-0.6,0.7c-0.2,0.2-0.4,0.4-0.7,0.6c1-0.8,2.2-1.1,3.2-1.3c1.5-0.5,2.6-0.8,4.9-0.9c-0.9,0-2.3,0.1-3,0 c-1.6-0.2-0.2-2.4,0.8-3.2c-2,0.1-4.1,0.8-5.3,1.6C-7.7,33.9-7.5,34-7.4,34.3"></path> </g> </g> </g> </g> </g> <g id="g484" transform="translate(260.6934,309.8149)"> <path id="path486" inkscape:connector-curvature="0" class="st31" d="M-48.1,25.1c0,0,0.1,0,0.2,0c0,0,0,0,0.1-0.1 c0.1-0.1,0.2-0.3,0.2-0.4c0.1-0.1,0.1-0.1,0-0.3c0-0.2-0.1-0.4-0.2-0.6c-0.1-0.1-0.1-0.1-0.2,0c-0.1,0.1-0.1,0.2-0.2,0.4 c-0.1,0.1-0.1,0.3-0.1,0.4C-48.2,24.7-48.2,24.9-48.1,25.1C-48.1,25.1-48.1,25.1-48.1,25.1"></path> </g> <g id="g488" transform="translate(260.3838,307.8506)"> <path id="path490" inkscape:connector-curvature="0" class="st32" d="M-47.9,26.5c0,0.2,0,0.3,0,0.4c0,0.1,0,0.1,0.1,0.1 c0,0,0.1,0,0.2,0c0,0,0,0,0.1-0.1c0.1-0.1,0.2-0.3,0.2-0.4c0,0,0-0.1,0-0.1L-47.9,26.5z"></path> </g> <g id="g492" transform="translate(201.3091,317.0186)"> <path id="path494" inkscape:connector-curvature="0" class="st31" d="M-4.3,19.8c0,0-0.1,0-0.2,0c0,0,0,0-0.1-0.1 c-0.1-0.1-0.2-0.2-0.3-0.3C-5,19.3-5,19.3-5,19.1c0-0.2,0-0.5,0-0.6c0-0.1,0.1-0.1,0.2,0c0.1,0.1,0.2,0.2,0.3,0.3 c0.1,0.1,0.1,0.3,0.2,0.4S-4.3,19.6-4.3,19.8C-4.3,19.8-4.3,19.8-4.3,19.8"></path> </g> <g id="g496" transform="translate(201.1191,315.0396)"> <path id="path498" inkscape:connector-curvature="0" class="st32" d="M-4.2,21.2c0,0.2,0.1,0.3,0.1,0.4c0,0.1,0,0.1,0,0.1 c0,0-0.1,0-0.2,0c0,0,0,0-0.1-0.1c-0.1-0.1-0.2-0.2-0.3-0.3c0,0-0.1-0.1-0.1-0.1L-4.2,21.2z"></path> </g> <g id="g504" transform="translate(272.5107,262.3735)"> <path id="path506" inkscape:connector-curvature="0" class="st33" d="M-56.8,60.1c-0.5,1-1.4,2.7-1.8,3.6 c-0.4,0.9-0.4,0.9-0.6,0.7c-0.1-0.2-0.4-0.5-0.6-1c-0.2-0.5-0.4-1.2-0.5-1.9c-0.1-0.7-0.1-1.4-0.1-2c0-0.6,0.1-1.2,0.3-1.6 c0.1-0.4,0.3-0.6,0.5-0.6c0.2-0.1,0.4-0.1,0.7,0c0.3,0.1,0.6,0.3,1,0.4s0.8,0.4,1.1,0.5c0.3,0.1,0.5,0.2,0.6,0.3 c0.1,0.1,0.1,0.2,0,0.3C-56.2,58.9-56.3,59.1-56.8,60.1"></path> </g> <g id="g508" transform="translate(282.8428,287.4146)"> <path id="path510" inkscape:connector-curvature="0" class="st34" d="M-64.4,41.6c0,0,0-0.1,0.4-0.8c0.3-0.8,1-2.2,1.3-3 c0.3-0.8,0.2-1,0-1.2c-0.1-0.2-0.2-0.3-1.6-1c-1.4-0.7-4-1.9-5.3-2.5c-1.3-0.6-1.3-0.6-1.3-0.6c0,0,0,0,0.5-0.5 c0.5-0.5,1.4-1.6,2.1-2.6c0.7-1,1.1-1.8,1.4-2.7c0.3-0.9,0.5-1.7,0.6-6.9c0.1-5.2,0.1-14.6,0.1-19.5c0-4.9,0.1-5.1,0.2-5.4 c0.1-0.3,0.3-0.6,0.7-0.9c0.4-0.3,1-0.5,1.6-0.5c0.6,0,1.3,0.2,1.8,0.4c0.5,0.3,0.7,0.7,0.8,1c0.1,0.3,0.2,0.6,0,5.9 c-0.2,5.2-0.6,15.4-0.8,20.8c-0.2,5.4-0.1,6.2,0.7,7.6c0.8,1.4,2.3,3.6,2.9,5c0.7,1.5,0.6,2.3,0.3,3.1s-0.8,1.6-1.4,2.3 c-0.7,0.7-1.6,1.3-2.4,1.6c-0.8,0.3-1.6,0.4-2,0.4C-64.4,41.6-64.4,41.6-64.4,41.6 M-63.7-2.6c0.9,0,1.6-0.6,1.6-1.4 c0-0.8-0.7-1.4-1.6-1.4c-0.9,0-1.6,0.6-1.6,1.4C-65.3-3.3-64.6-2.6-63.7-2.6 M-67,31.7c0.4,0.3,1.4,0.8,1.9,1s0.6,0.2,0.9-0.3 c0.3-0.5,0.7-1.4,0.9-1.9c0.2-0.5,0.3-0.5-0.2-0.8c-0.4-0.3-1.3-0.7-1.8-1c-0.5-0.2-0.6-0.3-0.9,0.2c-0.3,0.4-0.8,1.3-1,1.8 C-67.4,31.3-67.5,31.4-67,31.7"></path> </g> <g id="g512" transform="translate(277.0693,242.7837)"> <path id="path514" inkscape:connector-curvature="0" class="st33" d="M-60.2,74.5c0.5,0.3,1.4,0.8,1.9,1.2 c0.4,0.4,0.3,0.6,0.1,0.9c-0.2,0.3-0.4,0.7-0.6,0.8c-0.2,0.2-0.2,0.2-0.7-0.1c-0.5-0.2-1.3-0.7-1.7-1c-0.4-0.3-0.4-0.3-0.4-0.4 c0-0.1,0.1-0.3,0.2-0.6c0.1-0.3,0.3-0.8,0.5-1C-60.8,74.2-60.7,74.2-60.2,74.5"></path> </g> <g id="g516"> <g id="g518"> </g> <g id="g530"> <g> <defs> <rect id="SVGID_27_" x="216.8" y="281.1" width="4.1" height="36.7"></rect> </defs> <clipPath id="SVGID_28_"> <use xlink:href="#SVGID_27_" style="overflow:visible;"></use> </clipPath> <g id="g528" class="st35"> <g id="g526" transform="translate(278.6426,207.7549)"> <path id="path524" inkscape:connector-curvature="0" class="st2" d="M-61.3,100.3c0-4.3,0.2-12.5,0.2-16.8 c0.1-4.3,0.1-4.6,0.2-4.9c0.1-0.3,0.4-0.5,0.8-0.6c0.3-0.1,0.8-0.1,1.1,0c0.3,0.1,0.6,0.4,0.7,0.7c0.1,0.3,0.1,0.6-0.1,4.9 c-0.2,4.3-0.4,12.6-0.6,16.9c-0.2,4.2-0.2,4.4-0.3,4.5c-0.1,0.2-0.2,0.4-0.5,0.4s-0.7,0.1-0.9,0c-0.2-0.1-0.4-0.2-0.5-0.4 C-61.3,104.8-61.4,104.6-61.3,100.3"></path> </g> </g> </g> </g> </g> <g id="g532" transform="translate(284.2617,287.2842)"> <path id="path534" inkscape:connector-curvature="0" class="st36" d="M-65.5,41.7c0.4,0,1.2-0.1,2-0.4c0.8-0.3,1.7-0.9,2.4-1.6 c0.7-0.7,1.2-1.5,1.4-2.3c0.3-0.8,0.4-1.6-0.3-3.1c-0.7-1.5-2.2-3.6-2.9-5c-0.8-1.4-0.9-2.1-0.7-7.6c0.2-5.4,0.6-15.6,0.8-20.8 c0.2-5.2,0.1-5.5,0-5.9c-0.1-0.3-0.4-0.7-0.8-1c-0.5-0.3-1.1-0.5-1.8-0.4c-0.6,0-1.2,0.2-1.6,0.5c-0.4,0.3-0.5,0.6-0.7,0.9 c-0.1,0.3-0.2,0.5-0.2,5.4c0,4.9,0,14.3-0.1,19.5c-0.1,5.2-0.3,6-0.6,6.9c-0.3,0.9-0.7,1.7-1.4,2.7c-0.7,1-1.6,2-2.1,2.6 l-0.5,0.5c0,0,0,0,0.7,0.3c0,0,0,0,0,0c-0.1,0.4-0.2,0.9-0.3,1.6c0,0.6,0,1.3,0.1,2c0.1,0.7,0.3,1.4,0.5,1.9 c0.2,0.5,0.5,0.9,0.6,1c0.1,0.2,0.1,0.2,0.6-0.7c0.4-0.9,1.3-2.6,1.8-3.6c0.1-0.3,0.2-0.5,0.3-0.6c0.9,0.4,1.8,0.9,2.5,1.2 c1.4,0.7,1.5,0.9,1.6,1c0.1,0.2,0.2,0.3,0,1.2c-0.3,0.8-0.9,2.3-1.3,3c-0.3,0.8-0.4,0.8-0.4,0.8C-65.9,41.8-65.9,41.7-65.5,41.7 z"></path> </g> <g id="g536" transform="translate(290.3604,206.6211)"> <path id="path538" inkscape:connector-curvature="0" class="st5" d="M-70,101.2c-0.3-0.1-0.8-0.3-1.3-0.7 c-0.4-0.4-0.8-1-0.9-1.4c-0.1-0.5,0-0.8,0-1.2c0-0.4,0-0.9,0-1.2c0-0.4,0.2-0.6,0.4-0.8c0.2-0.2,0.5-0.2,0.9-0.1 c0.4,0,1,0.2,1.5,0.5c0.5,0.3,0.9,0.8,1.1,1.3c0.2,0.6,0.1,1.2,0,1.7c0,0.5,0,0.9-0.2,1.2c-0.2,0.4-0.6,0.7-0.9,0.8 S-69.7,101.3-70,101.2"></path> </g> <g id="g540" transform="translate(290.3604,206.6211)"> <path id="path542" inkscape:connector-curvature="0" class="st4" d="M-70,101.2c-0.3-0.1-0.8-0.3-1.3-0.7 c-0.4-0.4-0.8-1-0.9-1.4c-0.1-0.5,0-0.8,0-1.2c0-0.4,0-0.9,0-1.2c0-0.4,0.2-0.6,0.4-0.8c0.2-0.2,0.5-0.2,0.9-0.1 c0.4,0,1,0.2,1.5,0.5c0.5,0.3,0.9,0.8,1.1,1.3c0.2,0.6,0.1,1.2,0,1.7c0,0.5,0,0.9-0.2,1.2c-0.2,0.4-0.6,0.7-0.9,0.8 S-69.7,101.3-70,101.2z"></path> </g> </g> </g> </g> </svg> 