<?xml version="1.0" encoding="UTF-8" standalone="no"?>
<svg
   xmlns:dc="http://purl.org/dc/elements/1.1/"
   xmlns:cc="http://creativecommons.org/ns#"
   xmlns:rdf="http://www.w3.org/1999/02/22-rdf-syntax-ns#"
   xmlns:svg="http://www.w3.org/2000/svg"
   xmlns="http://www.w3.org/2000/svg"
   xmlns:sodipodi="http://sodipodi.sourceforge.net/DTD/sodipodi-0.dtd"
   xmlns:inkscape="http://www.inkscape.org/namespaces/inkscape"
   viewBox="0 0 311.53946 280.6134"
   height="280.6134"
   width="311.53946"
   xml:space="preserve"
   id="svg2"
   version="1.1"
   sodipodi:docname="18.svg"
   inkscape:version="0.92.2 5c3e80d, 2017-08-06"><sodipodi:namedview
     pagecolor="#ffffff"
     bordercolor="#666666"
     borderopacity="1"
     objecttolerance="10"
     gridtolerance="10"
     guidetolerance="10"
     inkscape:pageopacity="0"
     inkscape:pageshadow="2"
     inkscape:window-width="848"
     inkscape:window-height="551"
     id="namedview6237"
     showgrid="false"
     inkscape:zoom="0.41627764"
     inkscape:cx="157.52793"
     inkscape:cy="144.62599"
     inkscape:window-x="0"
     inkscape:window-y="0"
     inkscape:window-maximized="0"
     inkscape:current-layer="svg2" /><metadata
     id="metadata8"><rdf:RDF><cc:Work
         rdf:about=""><dc:format>image/svg+xml</dc:format><dc:type
           rdf:resource="http://purl.org/dc/dcmitype/StillImage" /></cc:Work></rdf:RDF></metadata><defs
     id="defs6"><clipPath
       id="clipPath18"
       clipPathUnits="userSpaceOnUse"><path
         id="path16"
         d="M 0,0 H 425.197 V 425.197 H 0 Z"
         inkscape:connector-curvature="0" /></clipPath><clipPath
       id="clipPath26"
       clipPathUnits="userSpaceOnUse"><path
         id="path24"
         d="M 110.902,150.413 H 283.211 V 115.072 H 110.902 Z"
         inkscape:connector-curvature="0" /></clipPath><clipPath
       id="clipPath134"
       clipPathUnits="userSpaceOnUse"><path
         id="path132"
         d="m 113.257,142.279 c -1.238,-0.465 -2.543,-1.321 -3.385,-3.082 v 0 c -0.841,-1.763 -1.22,-4.434 -1.041,-5.972 v 0 c 0.178,-1.539 0.912,-1.945 1.648,-2.352 v 0 l 6.36,12.028 c -1.172,-0.078 -2.344,-0.155 -3.582,-0.622"
         inkscape:connector-curvature="0" /></clipPath><clipPath
       id="clipPath146"
       clipPathUnits="userSpaceOnUse"><path
         id="path144"
         d="M 0,0 H 425.197 V 425.197 H 0 Z"
         inkscape:connector-curvature="0" /></clipPath><clipPath
       id="clipPath158"
       clipPathUnits="userSpaceOnUse"><path
         id="path156"
         d="m 118.391,140.565 c -1.239,-0.443 -2.543,-1.252 -3.384,-2.924 v 0 c -0.842,-1.673 -1.22,-4.203 -1.042,-5.662 v 0 c 0.178,-1.459 0.913,-1.845 1.647,-2.231 v 0 l 6.361,11.406 c -1.172,-0.074 -2.344,-0.147 -3.582,-0.589"
         inkscape:connector-curvature="0" /></clipPath><clipPath
       id="clipPath170"
       clipPathUnits="userSpaceOnUse"><path
         id="path168"
         d="M 0,0 H 425.197 V 425.197 H 0 Z"
         inkscape:connector-curvature="0" /></clipPath><clipPath
       id="clipPath194"
       clipPathUnits="userSpaceOnUse"><path
         id="path192"
         d="m 123.921,188.807 c -0.792,-0.298 -1.626,-0.844 -2.164,-1.972 v 0 c -0.539,-1.127 -0.781,-2.834 -0.667,-3.818 v 0 c 0.114,-0.985 0.585,-1.245 1.054,-1.504 v 0 l 4.068,7.692 c -0.749,-0.049 -1.499,-0.099 -2.291,-0.398"
         inkscape:connector-curvature="0" /></clipPath><clipPath
       id="clipPath206"
       clipPathUnits="userSpaceOnUse"><path
         id="path204"
         d="M 0,0 H 425.197 V 425.197 H 0 Z"
         inkscape:connector-curvature="0" /></clipPath><clipPath
       id="clipPath218"
       clipPathUnits="userSpaceOnUse"><path
         id="path216"
         d="m 117.124,181.779 c -0.264,-0.803 -0.362,-1.797 0.177,-2.924 v 0 c 0.54,-1.126 1.717,-2.387 2.554,-2.916 v 0 c 0.838,-0.528 1.334,-0.326 1.832,-0.124 v 0 l -3.433,7.996 c -0.432,-0.613 -0.864,-1.228 -1.13,-2.032"
         inkscape:connector-curvature="0" /></clipPath><clipPath
       id="clipPath230"
       clipPathUnits="userSpaceOnUse"><path
         id="path228"
         d="M 0,0 H 425.197 V 425.197 H 0 Z"
         inkscape:connector-curvature="0" /></clipPath><clipPath
       id="clipPath258"
       clipPathUnits="userSpaceOnUse"><path
         id="path256"
         d="m 235.851,235.824 c -5.459,-5.567 -11.206,-10.476 -12.252,-18.364 v 0 c -0.461,-3.475 -0.152,-7.411 0.147,-8.701 v 0 c 0.3,-1.288 0.86,0.481 1.453,1.393 v 0 c 0.593,0.911 0.731,0.992 1.185,1.469 v 0 c 0.052,-0.13 0.106,-0.259 0.161,-0.388 v 0 l 0.057,-0.134 c -0.356,-2.719 0.184,-6.218 0.616,-7.567 v 0 c 0.432,-1.347 1.04,0.371 1.564,1.176 v 0 c 0.525,0.804 0.472,0.664 0.754,0.991 v 0 c 6.862,-25.787 13.23,-28.746 24.392,-33.297 v 0 c 8.993,-3.666 23.059,0.89 34.823,10.609 v 0 c 0.108,-0.584 0.169,-1.156 0.16,-1.689 v 0 c -0.02,-1.255 -0.433,-2.279 0.526,-1.525 v 0 c 0.961,0.754 3.293,3.285 4.174,5.45 v 0 c 0.017,0.044 0.035,0.088 0.051,0.132 v 0 c 0.14,-0.69 0.223,-1.368 0.212,-1.991 v 0 c -0.021,-1.303 -0.35,-2.46 0.35,-1.622 v 0 c 5.48,6.553 6.162,13.281 5.819,20.665 v 0 c -0.344,7.381 0.482,17.686 -0.554,24.503 v 0 c -1.035,6.818 -3.933,10.149 -5.248,12.313 v 0 c -1.317,2.164 -2.959,4.724 -7.761,7.603 v 0 c -4.803,2.879 -12.768,6.078 -19.038,6.846 v 0 c -0.802,0.098 -1.594,0.145 -2.381,0.145 v 0 c -11.599,-0.001 -21.57,-10.225 -29.21,-18.017"
         inkscape:connector-curvature="0" /></clipPath><clipPath
       id="clipPath274"
       clipPathUnits="userSpaceOnUse"><path
         id="path272"
         d="M 0,0 H 425.197 V 425.197 H 0 Z"
         inkscape:connector-curvature="0" /></clipPath></defs><g
     transform="matrix(1.3333333,0,0,-1.3333333,-125.93673,419.45209)"
     id="g10"><g
       id="g12"><g
         clip-path="url(#clipPath18)"
         id="g14"><g
           id="g20"><g
             id="g22" /><g
             id="g34"><g
               style="opacity:0.10000598"
               id="g32"
               clip-path="url(#clipPath26)"><g
                 id="g30"
                 transform="translate(165.334,141.1729)"><path
                   id="path28"
                   style="fill:#000000;fill-opacity:1;fill-rule:evenodd;stroke:none"
                   d="m 0,0 c -11.357,-1.515 -30.842,-3.133 -41.587,-4.191 -10.745,-1.059 -12.749,-1.559 -12.842,-2.841 -0.092,-1.282 1.727,-3.348 11.722,-4.822 9.995,-1.474 28.165,-2.358 42.438,-2.388 14.273,-0.031 24.647,0.791 37.749,-0.904 13.102,-1.696 28.929,-5.907 41.177,-8.406 12.247,-2.499 20.914,-3.286 26.625,-1.797 5.711,1.49 8.466,5.256 10.281,9.124 1.816,3.869 2.691,7.839 2.161,11.725 -0.531,3.886 -2.465,7.688 -7.59,10.015 C 105.009,7.843 96.693,8.697 87.599,9.056 78.504,9.414 68.629,9.277 56.867,8.408 45.106,7.538 31.459,5.936 23.021,4.43 14.584,2.923 11.356,1.514 0,0"
                   inkscape:connector-curvature="0" /></g></g></g></g><g
           transform="translate(187.1685,139.7949)"
           id="g36"><path
             id="path38"
             style="fill:#e98622;fill-opacity:1;fill-rule:evenodd;stroke:none"
             d="m 0,0 c -6.089,0.04 -55.218,-12.421 -50.958,5.275 4.513,5.833 -15.787,-0.659 -16.943,-0.755 -0.149,1.438 0.547,2.936 0.398,4.374 2.123,0.113 16.233,5.267 19.495,-0.409 2.372,-4.126 -0.819,-5.631 6.467,-7.67 14.897,-2.162 27.297,1.101 41.202,2.907 C -0.091,0.994 -0.248,2.728 0,0"
             inkscape:connector-curvature="0" /></g><g
           transform="translate(187.1685,139.7949)"
           id="g40"><path
             id="path42"
             style="fill:none;stroke:#231f20;stroke-width:1.5;stroke-linecap:butt;stroke-linejoin:miter;stroke-miterlimit:2.61299992;stroke-dasharray:none;stroke-opacity:1"
             d="m 0,0 c -6.089,0.04 -55.218,-12.421 -50.958,5.275 4.513,5.833 -15.787,-0.659 -16.943,-0.755 -0.149,1.438 0.547,2.936 0.398,4.374 2.123,0.113 16.233,5.267 19.495,-0.409 2.372,-4.126 -0.819,-5.631 6.467,-7.67 14.897,-2.162 27.297,1.101 41.202,2.907 C -0.091,0.994 -0.248,2.728 0,0 Z"
             inkscape:connector-curvature="0" /></g><g
           transform="translate(230.7187,182.1201)"
           id="g44"><path
             id="path46"
             style="fill:#e98622;fill-opacity:1;fill-rule:evenodd;stroke:none"
             d="m 0,0 c 6.101,-3.029 18.377,-14.919 24.117,-16.757 5.74,-1.839 4.945,6.373 3.511,13.195 -1.435,6.823 -3.509,12.256 -4.67,15.884 -1.161,3.628 -1.409,5.451 -0.594,8.555 0.816,3.103 2.695,7.488 4.596,10.118 1.901,2.63 3.825,3.505 5.661,3.315 1.834,-0.19 3.58,-1.446 4.392,-4.094 0.811,-2.649 0.688,-6.69 1.502,-11.159 0.813,-4.47 2.562,-9.368 4.259,-16.75 1.698,-7.383 3.344,-17.249 3.911,-24.45 0.567,-7.199 0.055,-11.731 -6.574,-13.077 -6.629,-1.345 -19.375,0.495 -28.746,3.487 -9.37,2.991 -15.366,7.131 -17.69,11.173 -2.324,4.041 -0.977,7.984 -0.34,12.871 C -6.028,-2.803 -6.102,3.028 0,0"
             inkscape:connector-curvature="0" /></g><g
           transform="translate(230.7187,182.1201)"
           id="g48"><path
             id="path50"
             style="fill:none;stroke:#000000;stroke-width:1.5;stroke-linecap:butt;stroke-linejoin:miter;stroke-miterlimit:2.61299992;stroke-dasharray:none;stroke-opacity:1"
             d="m 0,0 c 6.101,-3.029 18.377,-14.919 24.117,-16.757 5.74,-1.839 4.945,6.373 3.511,13.195 -1.435,6.823 -3.509,12.256 -4.67,15.884 -1.161,3.628 -1.409,5.451 -0.594,8.555 0.816,3.103 2.695,7.488 4.596,10.118 1.901,2.63 3.825,3.505 5.661,3.315 1.834,-0.19 3.58,-1.446 4.392,-4.094 0.811,-2.649 0.688,-6.69 1.502,-11.159 0.813,-4.47 2.562,-9.368 4.259,-16.75 1.698,-7.383 3.344,-17.249 3.911,-24.45 0.567,-7.199 0.055,-11.731 -6.574,-13.077 -6.629,-1.345 -19.375,0.495 -28.746,3.487 -9.37,2.991 -15.366,7.131 -17.69,11.173 -2.324,4.041 -0.977,7.984 -0.34,12.871 C -6.028,-2.803 -6.102,3.028 0,0 Z"
             inkscape:connector-curvature="0" /></g><g
           transform="translate(117.2134,139.165)"
           id="g52"><path
             id="path54"
             style="fill:#6e2512;fill-opacity:1;fill-rule:evenodd;stroke:none"
             d="m 0,0 c 3.948,1.49 5.448,3.801 4.145,7.57 2.192,4.923 -1.712,9.359 -8.315,7.582 -0.402,-0.074 -0.811,-0.18 -1.226,-0.317 -0.305,-0.102 -0.613,-0.219 -0.923,-0.351 -0.213,-0.073 -0.42,-0.145 -0.618,-0.214 -1.605,-0.562 -2.64,-0.947 -3.752,-1.12 -1.112,-0.171 -2.302,-0.133 -3.117,0.091 -0.815,0.226 -1.254,0.637 -1.354,0.603 -0.099,-0.035 0.141,-0.516 1.493,-2.157 0.276,-0.337 0.6,-0.722 0.96,-1.136 C -14.072,9.585 -15.066,8.9 -16.183,8.384 -17.506,7.771 -19.001,7.396 -20.096,7.386 -21.19,7.375 -21.884,7.731 -21.995,7.652 -22.107,7.573 -21.637,7.06 -19.368,5.498 -14.048,1.836 -6.62,-2.499 0,0"
             inkscape:connector-curvature="0" /></g><g
           transform="translate(117.2134,139.165)"
           id="g56"><path
             id="path58"
             style="fill:none;stroke:#2f1305;stroke-width:1.5;stroke-linecap:butt;stroke-linejoin:miter;stroke-miterlimit:2.61299992;stroke-dasharray:none;stroke-opacity:1"
             d="m 0,0 c 3.948,1.49 5.448,3.801 4.145,7.57 2.192,4.923 -1.712,9.359 -8.315,7.582 -0.402,-0.074 -0.811,-0.18 -1.226,-0.317 -0.305,-0.102 -0.613,-0.219 -0.923,-0.351 -0.213,-0.073 -0.42,-0.145 -0.618,-0.214 -1.605,-0.562 -2.64,-0.947 -3.752,-1.12 -1.112,-0.171 -2.302,-0.133 -3.117,0.091 -0.815,0.226 -1.254,0.637 -1.354,0.603 -0.099,-0.035 0.141,-0.516 1.493,-2.157 0.276,-0.337 0.6,-0.722 0.96,-1.136 C -14.072,9.585 -15.066,8.9 -16.183,8.384 -17.506,7.771 -19.001,7.396 -20.096,7.386 -21.19,7.375 -21.884,7.731 -21.995,7.652 -22.107,7.573 -21.637,7.06 -19.368,5.498 -14.048,1.836 -6.62,-2.499 0,0 Z"
             inkscape:connector-curvature="0" /></g><g
           transform="translate(161.646,166.2266)"
           id="g60"><path
             id="path62"
             style="fill:#e98622;fill-opacity:1;fill-rule:evenodd;stroke:none"
             d="m 0,0 c -19.823,22.303 -27.923,2.696 -36.695,-19.705 -0.87,-2.221 -6.203,-1.039 -8.392,-0.848 -5.657,0.138 -11.829,-4.574 -9.402,-12.295 2.537,-3.936 19.9,-7.761 28.27,-3.287 4.04,2.159 8.111,26.71 11.874,21.787 6.715,-9.756 17.522,-21.437 31.083,-21.061 29.481,-2.398 65.591,24.76 82.781,51.299 6.266,9.672 -5.46,3.706 -20.118,21.504 C 75.787,45.844 67.512,42.78 59.472,36.833 46.208,27.021 20.989,2.437 0,0"
             inkscape:connector-curvature="0" /></g><g
           transform="translate(161.646,166.2266)"
           id="g64"><path
             id="path66"
             style="fill:none;stroke:#231f20;stroke-width:1.5;stroke-linecap:butt;stroke-linejoin:miter;stroke-miterlimit:2.61299992;stroke-dasharray:none;stroke-opacity:1"
             d="m 0,0 c -19.823,22.303 -27.923,2.696 -36.695,-19.705 -0.87,-2.221 -6.203,-1.039 -8.392,-0.848 -5.657,0.138 -11.829,-4.574 -9.402,-12.295 2.537,-3.936 19.9,-7.761 28.27,-3.287 4.04,2.159 8.111,26.71 11.874,21.787 6.715,-9.756 17.522,-21.437 31.083,-21.061 29.481,-2.398 65.591,24.76 82.781,51.299 6.266,9.672 -5.46,3.706 -20.118,21.504 C 75.787,45.844 67.512,42.78 59.472,36.833 46.208,27.021 20.989,2.437 0,0 Z"
             inkscape:connector-curvature="0" /></g><g
           transform="translate(160.9927,166.1768)"
           id="g68"><path
             id="path70"
             style="fill:#ecaf45;fill-opacity:1;fill-rule:evenodd;stroke:none"
             d="M 0,0 C 29.781,-41.923 81.466,12.957 59.814,18.692 35.797,23.453 28.941,-3.952 0,0"
             inkscape:connector-curvature="0" /></g><g
           transform="translate(247.4082,122.7617)"
           id="g72"><path
             id="path74"
             style="fill:#e3e3e3;fill-opacity:1;fill-rule:evenodd;stroke:none"
             d="m 0,0 c 0.055,-1.283 0.109,-2.565 0.164,-3.848 0.182,-0.477 0.522,-0.82 1.031,-1.018 9.466,-4.138 18.932,-8.275 28.398,-12.411 2.563,-1.091 4.205,-0.607 5.628,0.253 14.566,8.17 29.133,16.342 43.698,24.514 1.047,1.581 1.042,3.22 1.022,4.859 C 63.81,3.804 47.678,-4.741 31.547,-13.286 21.502,-9.136 11.457,-4.985 1.413,-0.835 0.941,-0.557 0.471,-0.278 0,0"
             inkscape:connector-curvature="0" /></g><g
           transform="translate(247.4082,122.7617)"
           id="g76"><path
             id="path78"
             style="fill:none;stroke:#231f20;stroke-width:1.5;stroke-linecap:butt;stroke-linejoin:miter;stroke-miterlimit:2.61299992;stroke-dasharray:none;stroke-opacity:1"
             d="m 0,0 c 0.055,-1.283 0.109,-2.565 0.164,-3.848 0.182,-0.477 0.522,-0.82 1.031,-1.018 9.466,-4.138 18.932,-8.275 28.398,-12.411 2.563,-1.091 4.205,-0.607 5.628,0.253 14.566,8.17 29.133,16.342 43.698,24.514 1.047,1.581 1.042,3.22 1.022,4.859 C 63.81,3.804 47.678,-4.741 31.547,-13.286 21.502,-9.136 11.457,-4.985 1.413,-0.835 0.941,-0.557 0.471,-0.278 0,0 Z"
             inkscape:connector-curvature="0" /></g><g
           transform="translate(248.3223,124.5283)"
           id="g80"><path
             id="path82"
             style="fill:#f9f9f9;fill-opacity:1;fill-rule:evenodd;stroke:none"
             d="m 0,0 c -1.219,-0.857 -1.262,-2.312 0.08,-3.546 8.825,-3.915 17.649,-7.831 26.475,-11.747 3.469,-1.741 5.082,-1.951 7.597,-0.605 14.286,7.974 28.572,15.95 42.857,23.924 2.555,1.474 2.812,3.869 0.09,5.052 -8.631,3.714 -17.262,7.428 -25.893,11.143 -2.292,1.068 -4.661,1.565 -7.269,0.304 C 29.291,16.351 14.646,8.175 0,0"
             inkscape:connector-curvature="0" /></g><g
           transform="translate(248.3223,124.5283)"
           id="g84"><path
             id="path86"
             style="fill:none;stroke:#231f20;stroke-width:1.5;stroke-linecap:butt;stroke-linejoin:miter;stroke-miterlimit:2.61299992;stroke-dasharray:none;stroke-opacity:1"
             d="m 0,0 c -1.219,-0.857 -1.262,-2.312 0.08,-3.546 8.825,-3.915 17.649,-7.831 26.475,-11.747 3.469,-1.741 5.082,-1.951 7.597,-0.605 14.286,7.974 28.572,15.95 42.857,23.924 2.555,1.474 2.812,3.869 0.09,5.052 -8.631,3.714 -17.262,7.428 -25.893,11.143 -2.292,1.068 -4.661,1.565 -7.269,0.304 C 29.291,16.351 14.646,8.175 0,0 Z"
             inkscape:connector-curvature="0" /></g><g
           transform="translate(265.8164,118.9473)"
           id="g88"><path
             id="path90"
             style="fill:#d0d2d3;fill-opacity:1;fill-rule:nonzero;stroke:none"
             d="M 0,0 C 0.613,-0.201 1.102,-0.597 1.396,-1.074 1.7,-1.569 1.799,-2.153 1.617,-2.708 1.437,-3.263 1.012,-3.675 0.474,-3.895 c -0.52,-0.211 -1.148,-0.243 -1.761,-0.043 -0.612,0.202 -1.102,0.597 -1.395,1.075 -0.305,0.495 -0.403,1.079 -0.222,1.634 0.181,0.553 0.605,0.966 1.144,1.186 C -1.241,0.169 -0.612,0.2 0,0 m 0.918,-1.396 c -0.227,0.37 -0.612,0.678 -1.1,0.838 -0.488,0.16 -0.981,0.138 -1.382,-0.026 -0.382,-0.155 -0.682,-0.441 -0.805,-0.82 -0.124,-0.379 -0.052,-0.786 0.164,-1.138 0.227,-0.369 0.612,-0.678 1.101,-0.838 0.488,-0.159 0.981,-0.138 1.381,0.026 0.383,0.156 0.682,0.442 0.806,0.821 0.124,0.379 0.052,0.786 -0.165,1.137"
             inkscape:connector-curvature="0" /></g><g
           transform="translate(255.585,124.9111)"
           id="g92"><path
             id="path94"
             style="fill:#117dc1;fill-opacity:1;fill-rule:evenodd;stroke:none"
             d="M 0,0 26.204,-11.878 65.179,9.784 38.783,21.535 Z"
             inkscape:connector-curvature="0" /></g><g
           transform="translate(255.585,124.9111)"
           id="g96"><path
             id="path98"
             style="fill:none;stroke:#231f20;stroke-width:1;stroke-linecap:butt;stroke-linejoin:miter;stroke-miterlimit:2.61299992;stroke-dasharray:none;stroke-opacity:1"
             d="M 0,0 26.204,-11.878 65.179,9.784 38.783,21.535 Z"
             inkscape:connector-curvature="0" /></g><g
           transform="translate(260.2422,114.9932)"
           id="g100"><path
             id="path102"
             style="fill:#80807f;fill-opacity:1;fill-rule:evenodd;stroke:none"
             d="m 0,0 c -0.031,-0.198 -0.026,-1.461 -0.026,-1.461 l 5.87,-2.596 0.057,1.469 z"
             inkscape:connector-curvature="0" /></g><g
           transform="translate(309.9414,123.3516)"
           id="g104"><path
             id="path106"
             style="fill:#58595b;fill-opacity:1;fill-rule:evenodd;stroke:none"
             d="M 0,0 0.212,-1.505 6.16,1.783 5.947,3.244 Z"
             inkscape:connector-curvature="0" /></g><g
           transform="translate(316.5156,126.9961)"
           id="g108"><path
             id="path110"
             style="fill:#58595b;fill-opacity:1;fill-rule:evenodd;stroke:none"
             d="M 0,0 0.203,-1.446 6.151,1.842 5.938,3.303 Z"
             inkscape:connector-curvature="0" /></g><g
           transform="translate(260.2422,114.9932)"
           id="g112"><path
             id="path114"
             style="fill:#58595b;fill-opacity:1;fill-rule:evenodd;stroke:none"
             d="m 0,0 c -0.021,-0.217 -0.042,-1.465 -0.026,-1.461 l 0.205,0.053 0.053,1.306 z"
             inkscape:connector-curvature="0" /></g><g
           transform="translate(260.4209,113.585)"
           id="g116"><path
             id="path118"
             style="fill:#58595b;fill-opacity:1;fill-rule:evenodd;stroke:none"
             d="m 0,0 -0.205,-0.053 5.87,-2.595 0.012,0.175 z"
             inkscape:connector-curvature="0" /></g><g
           transform="translate(229.4277,195.5986)"
           id="g120"><path
             id="path122"
             style="fill:#e98622;fill-opacity:1;fill-rule:evenodd;stroke:none"
             d="m 0,0 c -0.321,-6.763 -4.229,-17.812 -5.348,-25.271 -1.117,-7.458 0.555,-11.324 2.068,-14.249 1.511,-2.925 2.863,-4.911 6.198,-6.689 3.335,-1.777 8.653,-3.349 13.171,-4.461 4.516,-1.112 8.231,-1.767 10.711,-2.21 2.48,-0.443 3.724,-0.678 5.919,-2.241 2.195,-1.566 5.341,-4.46 6.338,-7.056 0.997,-2.595 -0.155,-4.891 -2.387,-7.233 -2.233,-2.342 -5.548,-4.729 -8.719,-5.208 -3.172,-0.479 -6.199,0.95 -8.398,2.797 -2.199,1.846 -3.569,4.109 -6.533,5.569 -2.965,1.461 -7.525,2.117 -13.338,4.324 -5.815,2.206 -12.881,5.962 -17.44,10.544 -4.558,4.583 -6.608,9.991 -7.688,15.991 -1.08,6.001 -1.191,12.594 0.143,19.871 1.334,7.275 4.113,15.234 7.536,19.886 3.423,4.653 7.49,5.998 11.157,5.435 C -2.944,9.235 0.321,6.762 0,0"
             inkscape:connector-curvature="0" /></g><g
           transform="translate(229.4277,195.5986)"
           id="g124"><path
             id="path126"
             style="fill:none;stroke:#2f1305;stroke-width:1.5;stroke-linecap:butt;stroke-linejoin:miter;stroke-miterlimit:2.61299992;stroke-dasharray:none;stroke-opacity:1"
             d="m 0,0 c -0.321,-6.763 -4.229,-17.812 -5.348,-25.271 -1.117,-7.458 0.555,-11.324 2.068,-14.249 1.511,-2.925 2.863,-4.911 6.198,-6.689 3.335,-1.777 8.653,-3.349 13.171,-4.461 4.516,-1.112 8.231,-1.767 10.711,-2.21 2.48,-0.443 3.724,-0.678 5.919,-2.241 2.195,-1.566 5.341,-4.46 6.338,-7.056 0.997,-2.595 -0.155,-4.891 -2.387,-7.233 -2.233,-2.342 -5.548,-4.729 -8.719,-5.208 -3.172,-0.479 -6.199,0.95 -8.398,2.797 -2.199,1.846 -3.569,4.109 -6.533,5.569 -2.965,1.461 -7.525,2.117 -13.338,4.324 -5.815,2.206 -12.881,5.962 -17.44,10.544 -4.558,4.583 -6.608,9.991 -7.688,15.991 -1.08,6.001 -1.191,12.594 0.143,19.871 1.334,7.275 4.113,15.234 7.536,19.886 3.423,4.653 7.49,5.998 11.157,5.435 C -2.944,9.235 0.321,6.762 0,0 Z"
             inkscape:connector-curvature="0" /></g></g></g><g
       id="g128"><g
         clip-path="url(#clipPath134)"
         id="g130"><g
           transform="translate(90.001,180)"
           id="g136"><path
             id="path138"
             style="fill:#ecaf45;fill-opacity:1;fill-rule:evenodd;stroke:none"
             d="m 0,0 c 4.139,-3.65 8.39,-7.174 12.863,-10.452 4.853,-3.555 9.967,-6.82 15.203,-9.948 3.362,-2.01 6.774,-3.963 10.2,-5.901 -0.252,-0.823 -0.457,-1.64 -0.599,-2.451 -0.512,-2.956 -0.163,-5.821 0.979,-8.109 0.825,-1.651 2.063,-3.001 3.341,-4.077 -2.83,2.19 -5.838,4.427 -9.396,6.807 -0.773,0.518 -1.573,1.041 -2.402,1.573 -6.469,4.148 -14.755,8.768 -21.145,12.755 -6.391,3.988 -10.887,7.344 -14.815,10.751 -3.93,3.406 -7.292,6.864 -10.368,10.646 -3.075,3.78 -5.865,7.884 -8.654,11.986 0.968,-0.318 1.923,-0.625 2.86,-0.921 4.28,-1.353 8.187,-2.478 11.727,-3.312 C -9.855,9.018 -9.503,8.688 -9.152,8.36 -6.134,5.536 -3.099,2.733 0,0"
             inkscape:connector-curvature="0" /></g></g></g><g
       id="g140"><g
         clip-path="url(#clipPath146)"
         id="g142"><g
           transform="translate(116.8389,142.9014)"
           id="g148"><path
             id="path150"
             style="fill:none;stroke:#2f1305;stroke-width:1.5;stroke-linecap:butt;stroke-linejoin:miter;stroke-miterlimit:2.61299992;stroke-dasharray:none;stroke-opacity:1"
             d="m 0,0 c -1.172,-0.078 -2.344,-0.155 -3.582,-0.622 -1.238,-0.466 -2.543,-1.321 -3.385,-3.083 -0.841,-1.763 -1.22,-4.433 -1.041,-5.971 0.178,-1.539 0.913,-1.945 1.648,-2.352"
             inkscape:connector-curvature="0" /></g></g></g><g
       id="g152"><g
         clip-path="url(#clipPath158)"
         id="g154"><g
           transform="translate(91.7217,177.793)"
           id="g160"><path
             id="path162"
             style="fill:#ecaf45;fill-opacity:1;fill-rule:evenodd;stroke:none"
             d="m 0,0 c 4.139,-3.462 8.39,-6.804 12.863,-9.912 4.853,-3.371 9.967,-6.468 15.203,-9.435 3.362,-1.905 6.774,-3.757 10.2,-5.595 -0.252,-0.781 -0.458,-1.556 -0.599,-2.325 -0.512,-2.803 -0.163,-5.52 0.979,-7.689 0.825,-1.565 2.062,-2.847 3.341,-3.867 -2.83,2.078 -5.838,4.199 -9.396,6.456 -0.774,0.49 -1.573,0.987 -2.402,1.492 -6.469,3.934 -14.755,8.314 -21.146,12.096 -6.39,3.781 -10.886,6.964 -14.815,10.194 -3.929,3.231 -7.291,6.511 -10.367,10.096 -3.075,3.585 -5.865,7.477 -8.654,11.368 0.968,-0.302 1.923,-0.594 2.86,-0.874 4.28,-1.283 8.187,-2.351 11.727,-3.142 C -9.855,8.551 -9.504,8.239 -9.152,7.928 -6.134,5.25 -3.099,2.592 0,0"
             inkscape:connector-curvature="0" /></g></g></g><g
       id="g164"><g
         clip-path="url(#clipPath170)"
         id="g166"><g
           transform="translate(121.9731,141.1543)"
           id="g172"><path
             id="path174"
             style="fill:none;stroke:#2f1305;stroke-width:1.5;stroke-linecap:butt;stroke-linejoin:miter;stroke-miterlimit:2.61299992;stroke-dasharray:none;stroke-opacity:1"
             d="m 0,0 c -1.172,-0.074 -2.344,-0.147 -3.583,-0.59 -1.238,-0.442 -2.542,-1.252 -3.384,-2.924 -0.841,-1.672 -1.22,-4.203 -1.041,-5.662 0.178,-1.459 0.912,-1.845 1.647,-2.23"
             inkscape:connector-curvature="0" /></g><g
           transform="translate(125.2627,170.8125)"
           id="g176"><path
             id="path178"
             style="fill:#e98622;fill-opacity:1;fill-rule:evenodd;stroke:none"
             d="M 0,0 C -3.788,1.591 -2.634,-0.605 -6.778,1.439 -14.61,5.6 -2.049,28.943 10.881,12.48 30.021,29.472 35.802,12.39 36.838,-4.535 27.51,5.218 25.296,1.437 19.475,-4.16 11.989,-11.359 11.739,-5.646 0,0"
             inkscape:connector-curvature="0" /></g><g
           transform="translate(125.2627,170.8125)"
           id="g180"><path
             id="path182"
             style="fill:none;stroke:#231f20;stroke-width:1.5;stroke-linecap:butt;stroke-linejoin:miter;stroke-miterlimit:2.61299992;stroke-dasharray:none;stroke-opacity:1"
             d="M 0,0 C -3.788,1.591 -2.634,-0.605 -6.778,1.439 -14.61,5.6 -2.049,28.943 10.881,12.48 30.021,29.472 35.802,12.39 36.838,-4.535 27.51,5.218 25.296,1.437 19.475,-4.16 11.989,-11.359 11.739,-5.646 0,0 Z"
             inkscape:connector-curvature="0" /></g><g
           transform="translate(136.6997,169.1543)"
           id="g184"><path
             id="path186"
             style="fill:#9d6516;fill-opacity:1;fill-rule:evenodd;stroke:none"
             d="M 0,0 C 0.145,-0.817 -0.579,-0.968 -1.146,-0.604 -3.563,2.203 -4.461,2.689 -8.401,4.481 -16.978,7.749 -6.166,19.357 0,0"
             inkscape:connector-curvature="0" /></g></g></g><g
       id="g188"><g
         clip-path="url(#clipPath194)"
         id="g190"><g
           transform="translate(109.0469,212.9336)"
           id="g196"><path
             id="path198"
             style="fill:#ecaf45;fill-opacity:1;fill-rule:evenodd;stroke:none"
             d="m 0,0 c 2.647,-2.334 5.366,-4.588 8.228,-6.685 3.103,-2.274 6.374,-4.362 9.723,-6.363 2.151,-1.285 4.333,-2.534 6.524,-3.774 -0.162,-0.527 -0.293,-1.049 -0.383,-1.568 -0.327,-1.89 -0.104,-3.722 0.626,-5.186 0.528,-1.056 1.319,-1.919 2.137,-2.608 -1.81,1.401 -3.733,2.832 -6.01,4.354 -0.494,0.331 -1.006,0.666 -1.536,1.007 -4.138,2.652 -9.437,5.607 -13.525,8.158 -4.087,2.55 -6.962,4.696 -9.475,6.875 -2.514,2.18 -4.664,4.392 -6.631,6.81 -1.968,2.418 -3.752,5.042 -5.536,7.667 0.619,-0.204 1.231,-0.4 1.83,-0.59 2.737,-0.866 5.236,-1.585 7.5,-2.118 C -6.303,5.768 -6.079,5.558 -5.854,5.348 -3.923,3.542 -1.982,1.749 0,0"
             inkscape:connector-curvature="0" /></g></g></g><g
       id="g200"><g
         clip-path="url(#clipPath206)"
         id="g202"><g
           transform="translate(126.2124,189.2051)"
           id="g208"><path
             id="path210"
             style="fill:none;stroke:#2f1305;stroke-width:1.5;stroke-linecap:butt;stroke-linejoin:miter;stroke-miterlimit:2.61299992;stroke-dasharray:none;stroke-opacity:1"
             d="m 0,0 c -0.75,-0.05 -1.499,-0.099 -2.292,-0.397 -0.791,-0.298 -1.625,-0.845 -2.164,-1.972 -0.538,-1.128 -0.78,-2.835 -0.666,-3.819 0.114,-0.985 0.584,-1.245 1.054,-1.504"
             inkscape:connector-curvature="0" /></g></g></g><g
       id="g212"><g
         clip-path="url(#clipPath218)"
         id="g214"><g
           transform="translate(89.0078,185.3477)"
           id="g220"><path
             id="path222"
             style="fill:#ecaf45;fill-opacity:1;fill-rule:evenodd;stroke:none"
             d="m 0,0 c 3.479,0.595 6.94,1.296 10.368,2.207 3.719,0.988 7.398,2.224 11.058,3.574 2.35,0.867 4.693,1.781 7.033,2.708 0.308,-0.455 0.633,-0.885 0.98,-1.281 1.266,-1.442 2.832,-2.419 4.43,-2.77 C 35.022,4.187 36.191,4.261 37.24,4.465 35.014,3.936 32.692,3.337 30.078,2.521 29.51,2.344 28.928,2.155 28.331,1.956 23.668,0.401 18.041,-1.869 13.49,-3.449 8.938,-5.029 5.462,-5.92 2.188,-6.508 c -3.273,-0.588 -6.345,-0.874 -9.462,-0.887 -3.118,-0.012 -6.281,0.247 -9.443,0.505 0.547,0.355 1.084,0.706 1.608,1.054 2.391,1.588 4.52,3.081 6.358,4.509 0.304,0.042 0.609,0.085 0.914,0.128 C -5.22,-0.83 -2.605,-0.445 0,0"
             inkscape:connector-curvature="0" /></g></g></g><g
       id="g224"><g
         clip-path="url(#clipPath230)"
         id="g226"><g
           transform="translate(118.2539,183.8115)"
           id="g232"><path
             id="path234"
             style="fill:none;stroke:#2f1305;stroke-width:1.5;stroke-linecap:butt;stroke-linejoin:miter;stroke-miterlimit:2.61299992;stroke-dasharray:none;stroke-opacity:1"
             d="M 0,0 C -0.432,-0.614 -0.864,-1.229 -1.129,-2.032 -1.394,-2.836 -1.493,-3.829 -0.953,-4.956 -0.414,-6.082 0.764,-7.343 1.601,-7.872 2.438,-8.4 2.936,-8.198 3.434,-7.996"
             inkscape:connector-curvature="0" /></g><g
           transform="translate(118.356,172.7695)"
           id="g236"><path
             id="path238"
             style="fill:none;stroke:#2f1305;stroke-width:1.5;stroke-linecap:butt;stroke-linejoin:miter;stroke-miterlimit:2.61299992;stroke-dasharray:none;stroke-opacity:1"
             d="m 0,0 c 0.226,-0.264 0.452,-0.526 0.867,-0.773 0.415,-0.248 1.02,-0.479 1.967,-0.53 0.948,-0.051 2.237,0.078 2.916,0.244 0.68,0.166 0.748,0.368 0.816,0.57"
             inkscape:connector-curvature="0" /></g><g
           transform="translate(288.0391,156.2383)"
           id="g240"><path
             id="path242"
             style="fill:#6e2512;fill-opacity:1;fill-rule:evenodd;stroke:none"
             d="m 0,0 c -3.227,-2.156 -2.935,-4.256 -3.001,-5.17 -0.065,-0.914 -0.456,-0.692 -0.874,1.027 -0.417,1.72 -0.86,4.938 0.539,8.164 0.567,1.305 1.438,2.613 2.557,4.114 C -6.614,5.926 -12.442,4.35 -17.27,3.279 -26.275,1.281 -31.796,1.045 -35.198,-0.35 c -3.403,-1.395 -4.688,-3.948 -5.333,-5.318 -0.646,-1.37 -0.652,-1.556 -0.707,-1.527 -0.055,0.028 -0.16,0.271 -4.665,5.642 -4.506,5.372 -13.412,15.871 -19.566,26.867 -2.219,3.967 -4.08,7.998 -5.542,12.082 -0.389,-1.266 -0.715,-2.583 -0.909,-3.935 -0.486,-3.389 -0.149,-6.987 -0.145,-8.327 0.002,-1.341 -0.327,-0.423 -1.285,1.51 -0.959,1.932 -2.545,4.878 -3.696,10.957 -1.152,6.079 -1.869,15.289 -0.361,23.599 0.138,0.761 0.295,1.515 0.469,2.261 -0.982,-1.133 -1.925,-2.359 -2.725,-3.688 -1.762,-2.924 -2.837,-6.349 -3.35,-7.58 -0.514,-1.229 -0.468,-0.265 -0.617,1.864 -0.149,2.128 -0.494,5.421 0.777,11.422 1.271,6.001 4.156,14.712 8.772,21.77 4.616,7.057 10.962,12.46 17.241,16.71 2.746,1.858 5.479,3.496 7.944,4.829 -2.188,3.62 -2.595,7.051 -1.572,11.721 1.093,4.984 3.816,11.381 5.687,15.115 1.871,3.733 2.889,4.804 3.332,5.043 0.44,0.239 0.303,-0.354 1.053,-3.047 0.437,-1.567 1.174,-3.845 2.741,-6.49 2.633,5.368 6.559,10.936 10.074,15.106 4.131,4.901 7.691,7.869 9.681,9.455 1.988,1.587 2.405,1.791 2.601,1.877 0.196,0.087 0.172,0.056 -0.214,-1.345 -0.385,-1.402 -1.133,-4.174 -1.197,-8.67 -0.062,-4.496 0.559,-10.716 7.513,-18.087 6.954,-7.371 20.241,-15.894 27.485,-22.833 7.245,-6.938 8.864,-12.288 8.817,-16.659 C 27.026,82.619 29.737,75.567 30.59,67.433 34.211,32.861 21.204,14.168 0,0"
             inkscape:connector-curvature="0" /></g><g
           transform="translate(288.0391,156.2383)"
           id="g244"><path
             id="path246"
             style="fill:none;stroke:#2f1305;stroke-width:1.5;stroke-linecap:butt;stroke-linejoin:miter;stroke-miterlimit:2.61299992;stroke-dasharray:none;stroke-opacity:1"
             d="m 0,0 c -3.227,-2.156 -2.935,-4.256 -3.001,-5.17 -0.065,-0.914 -0.456,-0.692 -0.874,1.027 -0.417,1.72 -0.86,4.938 0.539,8.164 0.567,1.305 1.438,2.613 2.557,4.114 C -6.614,5.926 -12.442,4.35 -17.27,3.279 -26.275,1.281 -31.796,1.045 -35.198,-0.35 c -3.403,-1.395 -4.688,-3.948 -5.333,-5.318 -0.646,-1.37 -0.652,-1.556 -0.707,-1.527 -0.055,0.028 -0.16,0.271 -4.665,5.642 -4.506,5.372 -13.412,15.871 -19.566,26.867 -2.219,3.967 -4.08,7.998 -5.542,12.082 -0.389,-1.266 -0.715,-2.583 -0.909,-3.935 -0.486,-3.389 -0.149,-6.987 -0.145,-8.327 0.002,-1.341 -0.327,-0.423 -1.285,1.51 -0.959,1.932 -2.545,4.878 -3.696,10.957 -1.152,6.079 -1.869,15.289 -0.361,23.599 0.138,0.761 0.295,1.515 0.469,2.261 -0.982,-1.133 -1.925,-2.359 -2.725,-3.688 -1.762,-2.924 -2.837,-6.349 -3.35,-7.58 -0.514,-1.229 -0.468,-0.265 -0.617,1.864 -0.149,2.128 -0.494,5.421 0.777,11.422 1.271,6.001 4.156,14.712 8.772,21.77 4.616,7.057 10.962,12.46 17.241,16.71 2.746,1.858 5.479,3.496 7.944,4.829 -2.188,3.62 -2.595,7.051 -1.572,11.721 1.093,4.984 3.816,11.381 5.687,15.115 1.871,3.733 2.889,4.804 3.332,5.043 0.44,0.239 0.303,-0.354 1.053,-3.047 0.437,-1.567 1.174,-3.845 2.741,-6.49 2.633,5.368 6.559,10.936 10.074,15.106 4.131,4.901 7.691,7.869 9.681,9.455 1.988,1.587 2.405,1.791 2.601,1.877 0.196,0.087 0.172,0.056 -0.214,-1.345 -0.385,-1.402 -1.133,-4.174 -1.197,-8.67 -0.062,-4.496 0.559,-10.716 7.513,-18.087 6.954,-7.371 20.241,-15.894 27.485,-22.833 7.245,-6.938 8.864,-12.288 8.817,-16.659 C 27.026,82.619 29.737,75.567 30.59,67.433 34.211,32.861 21.204,14.168 0,0 Z"
             inkscape:connector-curvature="0" /></g><g
           transform="translate(294.2402,239.2466)"
           id="g248"><path
             id="path250"
             style="fill:#e98622;fill-opacity:1;fill-rule:evenodd;stroke:none"
             d="m 0,0 c 1.316,-2.164 4.214,-5.495 5.249,-12.313 1.036,-6.817 0.21,-17.122 0.554,-24.503 0.343,-7.384 -0.339,-14.112 -5.819,-20.665 -0.7,-0.838 -0.372,0.319 -0.35,1.622 0.011,0.624 -0.071,1.302 -0.212,1.991 -0.017,-0.044 -0.034,-0.088 -0.052,-0.132 -0.88,-2.165 -3.213,-4.696 -4.173,-5.45 -0.96,-0.754 -0.547,0.27 -0.526,1.526 0.009,0.532 -0.052,1.105 -0.159,1.689 -11.766,-9.72 -25.831,-14.275 -34.825,-10.609 -11.162,4.551 -17.53,7.51 -24.391,33.296 -0.282,-0.327 -0.23,-0.186 -0.754,-0.991 -0.524,-0.804 -1.132,-2.523 -1.564,-1.175 -0.433,1.349 -0.972,4.847 -0.617,7.566 l -0.056,0.134 c -0.056,0.13 -0.11,0.259 -0.161,0.389 -0.455,-0.478 -0.592,-0.559 -1.185,-1.47 -0.594,-0.911 -1.153,-2.681 -1.453,-1.392 -0.3,1.289 -0.609,5.226 -0.148,8.7 1.047,7.889 6.793,12.798 12.253,18.365 8.159,8.32 18.973,19.413 31.591,17.871 6.27,-0.767 14.235,-3.966 19.037,-6.845 C -2.958,4.724 -1.316,2.165 0,0"
             inkscape:connector-curvature="0" /></g></g></g><g
       id="g252"><g
         clip-path="url(#clipPath258)"
         id="g254"><g
           transform="translate(254.1953,210.4658)"
           id="g260"><path
             id="path262"
             style="fill:#f1b170;fill-opacity:1;fill-rule:evenodd;stroke:none"
             d="m 0,0 c 3.571,-1.177 7.05,-4.387 11.74,-7.074 4.907,-2.812 16.281,-0.742 19.359,-11.227 2.737,-9.319 -3.937,-14.277 -12.826,-18.74 -3.402,-1.708 -4,-4.728 -6.128,-6.258 -2.129,-1.53 -3.692,-1.174 -6.343,-0.374 -1.028,0.31 -2.166,0.724 -3.451,1.199 -4.605,1.707 -12.184,5.732 -14.294,8.664 -2.111,2.933 -4.199,0.501 -4.707,2.17 -1.08,3.541 2.269,2.463 0.373,5.25 -5.363,7.88 -2.283,21.864 4.449,26.317 C -7.876,2.541 -3.571,1.178 0,0"
             inkscape:connector-curvature="0" /></g><g
           transform="translate(254.1953,210.4658)"
           id="g264"><path
             id="path266"
             style="fill:none;stroke:#2f1305;stroke-width:1.5;stroke-linecap:butt;stroke-linejoin:miter;stroke-miterlimit:2.61299992;stroke-dasharray:none;stroke-opacity:1"
             d="m 0,0 c 3.571,-1.177 7.05,-4.387 11.74,-7.074 4.907,-2.812 16.281,-0.742 19.359,-11.227 2.737,-9.319 -3.937,-14.277 -12.826,-18.74 -3.402,-1.708 -4,-4.728 -6.128,-6.258 -2.129,-1.53 -3.692,-1.174 -6.343,-0.374 -1.028,0.31 -2.166,0.724 -3.451,1.199 -4.605,1.707 -12.184,5.732 -14.294,8.664 -2.111,2.933 -4.199,0.501 -4.707,2.17 -1.08,3.541 2.269,2.463 0.373,5.25 -5.363,7.88 -2.283,21.864 4.449,26.317 C -7.876,2.541 -3.571,1.178 0,0 Z"
             inkscape:connector-curvature="0" /></g></g></g><g
       id="g268"><g
         clip-path="url(#clipPath274)"
         id="g270"><g
           transform="translate(294.2402,239.2466)"
           id="g276"><path
             id="path278"
             style="fill:none;stroke:#2f1305;stroke-width:1.5;stroke-linecap:butt;stroke-linejoin:miter;stroke-miterlimit:2.61299992;stroke-dasharray:none;stroke-opacity:1"
             d="m 0,0 c 1.316,-2.164 4.214,-5.495 5.249,-12.313 1.036,-6.817 0.21,-17.122 0.554,-24.503 0.343,-7.384 -0.339,-14.112 -5.819,-20.665 -0.7,-0.838 -0.372,0.319 -0.35,1.622 0.011,0.624 -0.071,1.302 -0.212,1.991 -0.017,-0.044 -0.034,-0.088 -0.052,-0.132 -0.88,-2.165 -3.213,-4.696 -4.173,-5.45 -0.96,-0.754 -0.547,0.27 -0.526,1.526 0.009,0.532 -0.052,1.105 -0.159,1.689 -11.766,-9.72 -25.831,-14.275 -34.825,-10.609 -11.162,4.551 -17.53,7.51 -24.391,33.296 -0.282,-0.327 -0.23,-0.186 -0.754,-0.991 -0.524,-0.804 -1.132,-2.523 -1.564,-1.175 -0.433,1.349 -0.972,4.847 -0.617,7.566 l -0.056,0.134 c -0.056,0.13 -0.11,0.259 -0.161,0.389 -0.455,-0.478 -0.592,-0.559 -1.185,-1.47 -0.594,-0.911 -1.153,-2.681 -1.453,-1.392 -0.3,1.289 -0.609,5.226 -0.148,8.7 1.047,7.889 6.793,12.798 12.253,18.365 8.159,8.32 18.973,19.413 31.591,17.871 6.27,-0.767 14.235,-3.966 19.037,-6.845 C -2.958,4.724 -1.316,2.165 0,0 Z"
             inkscape:connector-curvature="0" /></g><g
           transform="translate(253.5742,255.377)"
           id="g280"><path
             id="path282"
             style="fill:#e98622;fill-opacity:1;fill-rule:evenodd;stroke:none"
             d="m 0,0 c 2.529,1.244 3.183,2.058 3.836,2.871 -2.196,3.543 -4.392,7.087 -6.845,9.585 -0.27,0.274 -0.543,0.537 -0.819,0.784 -2.789,2.505 -5.931,3.58 -8.102,3.787 -2.171,0.208 -3.372,-0.452 -4.709,-1.616 -1.337,-1.164 -2.811,-2.832 -3.622,-5.411 -0.721,-2.296 -0.919,-5.313 -0.766,-7.734 0.018,-0.3 0.043,-0.59 0.072,-0.87 0.067,-0.646 0.162,-1.23 0.276,-1.768 0.333,-1.57 0.838,-2.745 1.342,-3.92 l 0.519,-0.526 c 0.517,-0.526 1.553,-1.578 2.886,-1.627 0.76,-0.029 1.617,0.269 2.773,0.774 0.87,0.38 1.91,0.877 3.206,1.441 C -6.936,-2.917 -2.529,-1.243 0,0"
             inkscape:connector-curvature="0" /></g><g
           transform="translate(253.5742,255.377)"
           id="g284"><path
             id="path286"
             style="fill:none;stroke:#2f1305;stroke-width:1.5;stroke-linecap:butt;stroke-linejoin:miter;stroke-miterlimit:2.61299992;stroke-dasharray:none;stroke-opacity:1"
             d="m 0,0 c 2.529,1.244 3.183,2.058 3.836,2.871 -2.196,3.543 -4.392,7.087 -6.845,9.585 -0.27,0.274 -0.543,0.537 -0.819,0.784 -2.789,2.505 -5.931,3.58 -8.102,3.787 -2.171,0.208 -3.372,-0.452 -4.709,-1.616 -1.337,-1.164 -2.811,-2.832 -3.622,-5.411 -0.721,-2.296 -0.919,-5.313 -0.766,-7.734 0.018,-0.3 0.043,-0.59 0.072,-0.87 0.067,-0.646 0.162,-1.23 0.276,-1.768 0.333,-1.57 0.838,-2.745 1.342,-3.92 l 0.519,-0.526 c 0.517,-0.526 1.553,-1.578 2.886,-1.627 0.76,-0.029 1.617,0.269 2.773,0.774 0.87,0.38 1.91,0.877 3.206,1.441 C -6.936,-2.917 -2.529,-1.243 0,0 Z"
             inkscape:connector-curvature="0" /></g><g
           transform="translate(266.2412,198.2207)"
           id="g288"><path
             id="path290"
             style="fill:none;stroke:#2f1305;stroke-width:1.5;stroke-linecap:round;stroke-linejoin:round;stroke-miterlimit:2.61299992;stroke-dasharray:none;stroke-opacity:1"
             d="m 0,0 c -1.165,-1.883 -2.329,-3.766 -2.94,-5.201 -0.611,-1.435 -0.668,-2.422 0.144,-3.622 0.813,-1.199 2.495,-2.611 4.155,-3.461 1.66,-0.85 3.296,-1.139 4.757,-0.834 1.46,0.305 2.743,1.203 4.028,2.101"
             inkscape:connector-curvature="0" /></g><g
           transform="translate(262.8389,191.1787)"
           id="g292"><path
             id="path294"
             style="fill:none;stroke:#2f1305;stroke-width:1.5;stroke-linecap:round;stroke-linejoin:round;stroke-miterlimit:2.61299992;stroke-dasharray:none;stroke-opacity:1"
             d="m 0,0 c -1.823,-0.61 -3.646,-1.22 -5.601,-1.059 -1.954,0.161 -4.04,1.091 -5.574,2.604 -1.533,1.513 -2.514,3.606 -2.98,5.279 -0.466,1.674 -0.416,2.926 -0.367,4.178"
             inkscape:connector-curvature="0" /></g><g
           transform="translate(257.2383,190.1201)"
           id="g296"><path
             id="path298"
             style="fill:#000000;fill-opacity:1;fill-rule:evenodd;stroke:none"
             d="M 0,0 C 1.955,-0.161 3.777,0.448 5.601,1.059 5.6,0.461 5.787,-0.103 6.207,-0.723 c 0.813,-1.199 2.495,-2.61 4.155,-3.461 0.366,-0.187 0.731,-0.347 1.092,-0.479 -0.383,0.053 -0.779,0.034 -1.201,-0.123 -0.879,-0.327 -1.868,-1.257 -2.5,-2.31 -0.633,-1.053 -0.91,-2.23 -0.833,-3.03 0.077,-0.799 0.507,-1.219 0.756,-1.489 0.25,-0.27 0.319,-0.388 -0.909,-0.128 -3.86,0.814 -7.09,1.724 -10.531,3.664 -7.937,4.478 -2.477,8.023 -5.1,17.478 C -8.138,5.375 -6.835,4.086 -5.486,2.641 -4.04,1.091 -1.954,0.16 0,0"
             inkscape:connector-curvature="0" /></g><g
           transform="translate(257.2383,190.1201)"
           id="g300"><path
             id="path302"
             style="fill:none;stroke:#2f1305;stroke-width:1.5;stroke-linecap:butt;stroke-linejoin:miter;stroke-miterlimit:2.61299992;stroke-dasharray:none;stroke-opacity:1"
             d="M 0,0 C 1.955,-0.161 3.777,0.448 5.601,1.059 5.6,0.461 5.787,-0.103 6.207,-0.723 c 0.813,-1.199 2.495,-2.61 4.155,-3.461 0.366,-0.187 0.731,-0.347 1.092,-0.479 -0.383,0.053 -0.779,0.034 -1.201,-0.123 -0.879,-0.327 -1.868,-1.257 -2.5,-2.31 -0.633,-1.053 -0.91,-2.23 -0.833,-3.03 0.077,-0.799 0.507,-1.219 0.756,-1.489 0.25,-0.27 0.319,-0.388 -0.909,-0.128 -3.86,0.814 -7.09,1.724 -10.531,3.664 -7.937,4.478 -2.477,8.023 -5.1,17.478 C -8.138,5.375 -6.835,4.086 -5.486,2.641 -4.04,1.091 -1.954,0.16 0,0 Z"
             inkscape:connector-curvature="0" /></g><g
           transform="translate(250.915,254.1787)"
           id="g304"><path
             id="path306"
             style="fill:#d46728;fill-opacity:1;fill-rule:evenodd;stroke:none"
             d="m 0,0 c 1.633,0.803 2.055,1.328 2.477,1.854 -1.418,2.287 -2.836,4.574 -4.419,6.187 -0.175,0.177 -0.351,0.346 -0.53,0.506 -1.8,1.617 -3.828,2.311 -5.229,2.445 -1.403,0.134 -2.177,-0.292 -3.04,-1.043 -0.863,-0.752 -1.816,-1.829 -2.339,-3.494 -0.466,-1.481 -0.593,-3.429 -0.495,-4.993 0.012,-0.193 0.028,-0.38 0.047,-0.561 0.044,-0.417 0.104,-0.794 0.178,-1.141 0.215,-1.014 0.541,-1.772 0.867,-2.531 l 0.334,-0.34 c 0.335,-0.339 1.003,-1.018 1.864,-1.05 0.491,-0.018 1.044,0.174 1.79,0.499 0.561,0.246 1.232,0.567 2.069,0.931 C -4.478,-1.883 -1.633,-0.803 0,0"
             inkscape:connector-curvature="0" /></g><g
           transform="translate(250.915,254.1787)"
           id="g308"><path
             id="path310"
             style="fill:none;stroke:#2f1305;stroke-width:1.5;stroke-linecap:butt;stroke-linejoin:miter;stroke-miterlimit:2.61299992;stroke-dasharray:none;stroke-opacity:1"
             d="m 0,0 c 1.633,0.803 2.055,1.328 2.477,1.854 -1.418,2.287 -2.836,4.574 -4.419,6.187 -0.175,0.177 -0.351,0.346 -0.53,0.506 -1.8,1.617 -3.828,2.311 -5.229,2.445 -1.403,0.134 -2.177,-0.292 -3.04,-1.043 -0.863,-0.752 -1.816,-1.829 -2.339,-3.494 -0.466,-1.481 -0.593,-3.429 -0.495,-4.993 0.012,-0.193 0.028,-0.38 0.047,-0.561 0.044,-0.417 0.104,-0.794 0.178,-1.141 0.215,-1.014 0.541,-1.772 0.867,-2.531 l 0.334,-0.34 c 0.335,-0.339 1.003,-1.018 1.864,-1.05 0.491,-0.018 1.044,0.174 1.79,0.499 0.561,0.246 1.232,0.567 2.069,0.931 C -4.478,-1.883 -1.633,-0.803 0,0 Z"
             inkscape:connector-curvature="0" /></g><g
           transform="translate(302.4736,236.2339)"
           id="g312"><path
             id="path314"
             style="fill:#e98622;fill-opacity:1;fill-rule:evenodd;stroke:none"
             d="m 0,0 c -0.832,2.678 -0.691,3.707 -0.551,4.735 4.063,0.838 8.125,1.676 11.609,1.613 0.382,-0.007 0.758,-0.025 1.127,-0.055 3.716,-0.302 6.643,-1.835 8.279,-3.261 1.635,-1.427 1.98,-2.746 2.054,-4.509 0.074,-1.762 -0.123,-3.969 -1.431,-6.319 -1.165,-2.092 -3.21,-4.298 -5.064,-5.846 -0.229,-0.191 -0.456,-0.372 -0.676,-0.542 -0.514,-0.394 -1,-0.726 -1.467,-1.011 -1.363,-0.833 -2.557,-1.272 -3.751,-1.712 l -0.734,0.014 c -0.735,0.015 -2.204,0.044 -3.152,0.972 -0.54,0.53 -0.911,1.353 -1.337,2.533 -0.321,0.888 -0.673,1.98 -1.152,3.303 C 2.638,-7.007 0.832,-2.679 0,0"
             inkscape:connector-curvature="0" /></g><g
           transform="translate(302.4736,236.2339)"
           id="g316"><path
             id="path318"
             style="fill:none;stroke:#2f1305;stroke-width:1.5;stroke-linecap:butt;stroke-linejoin:miter;stroke-miterlimit:2.61299992;stroke-dasharray:none;stroke-opacity:1"
             d="m 0,0 c -0.832,2.678 -0.691,3.707 -0.551,4.735 4.063,0.838 8.125,1.676 11.609,1.613 0.382,-0.007 0.758,-0.025 1.127,-0.055 3.716,-0.302 6.643,-1.835 8.279,-3.261 1.635,-1.427 1.98,-2.746 2.054,-4.509 0.074,-1.762 -0.123,-3.969 -1.431,-6.319 -1.165,-2.092 -3.21,-4.298 -5.064,-5.846 -0.229,-0.191 -0.456,-0.372 -0.676,-0.542 -0.514,-0.394 -1,-0.726 -1.467,-1.011 -1.363,-0.833 -2.557,-1.272 -3.751,-1.712 l -0.734,0.014 c -0.735,0.015 -2.204,0.044 -3.152,0.972 -0.54,0.53 -0.911,1.353 -1.337,2.533 -0.321,0.888 -0.673,1.98 -1.152,3.303 C 2.638,-7.007 0.832,-2.679 0,0 Z"
             inkscape:connector-curvature="0" /></g><g
           transform="translate(303.1797,233.8643)"
           id="g320"><path
             id="path322"
             style="fill:#d46728;fill-opacity:1;fill-rule:evenodd;stroke:none"
             d="M 0,0 C -0.552,1.734 -0.465,2.402 -0.378,3.07 2.254,3.632 4.886,4.193 7.146,4.168 7.395,4.165 7.639,4.156 7.877,4.138 10.29,3.958 12.196,2.977 13.263,2.059 14.331,1.14 14.561,0.286 14.616,-0.857 14.672,-2 14.554,-3.433 13.716,-4.963 12.97,-6.326 11.652,-7.767 10.457,-8.779 10.31,-8.904 10.163,-9.022 10.021,-9.134 9.688,-9.391 9.375,-9.608 9.073,-9.796 8.192,-10.342 7.42,-10.633 6.647,-10.923 l -0.476,0.006 c -0.477,0.006 -1.43,0.019 -2.049,0.616 C 3.77,-9.959 3.525,-9.427 3.243,-8.664 3.031,-8.088 2.798,-7.382 2.481,-6.526 1.743,-4.534 0.553,-1.733 0,0"
             inkscape:connector-curvature="0" /></g><g
           transform="translate(303.1797,233.8643)"
           id="g324"><path
             id="path326"
             style="fill:none;stroke:#2f1305;stroke-width:1.5;stroke-linecap:butt;stroke-linejoin:miter;stroke-miterlimit:2.61299992;stroke-dasharray:none;stroke-opacity:1"
             d="M 0,0 C -0.552,1.734 -0.465,2.402 -0.378,3.07 2.254,3.632 4.886,4.193 7.146,4.168 7.395,4.165 7.639,4.156 7.877,4.138 10.29,3.958 12.196,2.977 13.263,2.059 14.331,1.14 14.561,0.286 14.616,-0.857 14.672,-2 14.554,-3.433 13.716,-4.963 12.97,-6.326 11.652,-7.767 10.457,-8.779 10.31,-8.904 10.163,-9.022 10.021,-9.134 9.688,-9.391 9.375,-9.608 9.073,-9.796 8.192,-10.342 7.42,-10.633 6.647,-10.923 l -0.476,0.006 c -0.477,0.006 -1.43,0.019 -2.049,0.616 C 3.77,-9.959 3.525,-9.427 3.243,-8.664 3.031,-8.088 2.798,-7.382 2.481,-6.526 1.743,-4.534 0.553,-1.733 0,0 Z"
             inkscape:connector-curvature="0" /></g><g
           transform="translate(310.9668,222.8008)"
           id="g328"><path
             id="path330"
             style="fill:#6e2512;fill-opacity:1;fill-rule:evenodd;stroke:none"
             d="m 0,0 c 0.335,-1.555 0.62,-3.065 0.857,-4.311 -0.822,0.019 -2.457,0.285 -3.222,1.036 -0.765,0.75 -1.835,0.848 -2.29,2.11 -0.13,0.359 -0.264,0.749 -0.409,1.172 -0.219,0.341 -0.408,0.785 -0.614,1.345 -0.226,0.614 -0.559,0.912 -1.123,2.434 -0.563,1.522 -1.736,5.595 -2.112,6.776 -0.376,1.181 -0.274,0.933 -0.347,1.293 -0.151,0.44 0.095,-0.384 -0.409,1.239 -0.504,1.623 -0.107,4.607 0.044,5.705 0.945,0.196 1.893,0.391 2.832,0.576 0.933,-1.459 1.813,-2.84 2.556,-4.021 0.639,-1.013 1.178,-1.88 1.566,-2.523 1.139,-1.888 0.975,-1.854 0.253,-1.57 -0.721,0.283 -2,0.815 -1.894,0.198 0.107,-0.618 1.599,-2.384 2.771,-5.69 C -0.944,4.087 -0.431,2.006 0,0"
             inkscape:connector-curvature="0" /></g><g
           transform="translate(302.7959,244.2837)"
           id="g332"><path
             id="path334"
             style="fill:none;stroke:#2f1305;stroke-width:1.5;stroke-linecap:round;stroke-linejoin:round;stroke-miterlimit:2.61299992;stroke-dasharray:none;stroke-opacity:1"
             d="m 0,0 c 2.285,-3.566 4.569,-7.132 5.635,-8.899 1.065,-1.767 0.912,-1.735 0.236,-1.47 -0.675,0.265 -1.871,0.763 -1.771,0.185 0.099,-0.577 1.496,-2.23 2.592,-5.324 1.097,-3.094 1.894,-7.629 2.399,-10.244 0.505,-2.615 0.716,-3.31 0.951,-3.87 0.236,-0.559 0.496,-0.982 -0.875,-0.06 -1.371,0.921 -4.373,3.186 -7.376,5.452"
             inkscape:connector-curvature="0" /></g><g
           transform="translate(237.8916,251.5498)"
           id="g336"><path
             id="path338"
             style="fill:#6e2512;fill-opacity:1;fill-rule:evenodd;stroke:none"
             d="m 0,0 c -1.431,-0.696 -2.795,-1.403 -3.922,-1.986 0.523,-0.634 1.74,-1.757 2.804,-1.896 1.062,-0.139 1.8,-0.921 3.073,-0.501 0.363,0.12 0.753,0.255 1.175,0.402 0.404,0.037 0.869,0.164 1.437,0.346 0.623,0.201 1.063,0.123 2.609,0.619 1.545,0.495 5.474,2.085 6.636,2.517 1.161,0.434 0.902,0.361 1.231,0.526 0.439,0.152 -0.361,-0.162 1.227,0.442 1.588,0.605 3.692,2.758 4.463,3.554 -0.43,0.865 -0.86,1.73 -1.294,2.584 C 17.715,6.441 16.086,6.282 14.697,6.139 13.506,6.016 12.491,5.906 11.746,5.814 9.557,5.545 9.686,5.437 10.354,5.044 11.021,4.652 12.229,3.974 11.678,3.677 11.126,3.38 8.815,3.464 5.49,2.347 3.799,1.778 1.845,0.898 0,0"
             inkscape:connector-curvature="0" /></g><g
           transform="translate(259.8389,258.374)"
           id="g340"><path
             id="path342"
             style="fill:none;stroke:#2f1305;stroke-width:1.5;stroke-linecap:round;stroke-linejoin:round;stroke-miterlimit:2.61299992;stroke-dasharray:none;stroke-opacity:1"
             d="m 0,0 c -4.216,-0.402 -8.432,-0.805 -10.479,-1.057 -2.048,-0.251 -1.928,-0.352 -1.303,-0.72 0.625,-0.368 1.755,-1.002 1.239,-1.28 -0.516,-0.278 -2.679,-0.199 -5.79,-1.245 -3.111,-1.045 -7.172,-3.216 -9.541,-4.432 -2.37,-1.217 -3.048,-1.479 -3.633,-1.639 -0.586,-0.159 -1.079,-0.216 0.492,-0.727 1.572,-0.51 5.206,-1.475 8.842,-2.441"
             inkscape:connector-curvature="0" /></g><g
           transform="translate(285.083,252.3423)"
           id="g344"><path
             id="path346"
             style="fill:#6e2512;fill-opacity:1;fill-rule:evenodd;stroke:none"
             d="m 0,0 c 2.865,-1.075 6.234,-2.525 8.275,-3.921 2.04,-1.397 2.752,-2.74 2.783,-5.361 0.03,-2.621 -0.622,-6.521 -4.333,-9.713 -3.711,-3.192 -10.482,-5.676 -12.994,-6.162 -2.509,-0.487 -0.761,1.026 0.481,3.347 1.242,2.321 1.978,5.452 2.399,8.36 0.421,2.908 0.528,5.595 -1.84,8.024 -2.367,2.43 -7.208,4.604 -10.098,5.838 -2.89,1.233 -3.828,1.525 -2.213,1.712 1.615,0.187 5.785,0.268 9.05,-0.041 C -5.226,1.773 -2.865,1.075 0,0"
             inkscape:connector-curvature="0" /></g><g
           transform="translate(285.083,252.3423)"
           id="g348"><path
             id="path350"
             style="fill:none;stroke:#2f1305;stroke-width:1.5;stroke-linecap:butt;stroke-linejoin:miter;stroke-miterlimit:2.61299992;stroke-dasharray:none;stroke-opacity:1"
             d="m 0,0 c 2.865,-1.075 6.234,-2.525 8.275,-3.921 2.04,-1.397 2.752,-2.74 2.783,-5.361 0.03,-2.621 -0.622,-6.521 -4.333,-9.713 -3.711,-3.192 -10.482,-5.676 -12.994,-6.162 -2.509,-0.487 -0.761,1.026 0.481,3.347 1.242,2.321 1.978,5.452 2.399,8.36 0.421,2.908 0.528,5.595 -1.84,8.024 -2.367,2.43 -7.208,4.604 -10.098,5.838 -2.89,1.233 -3.828,1.525 -2.213,1.712 1.615,0.187 5.785,0.268 9.05,-0.041 C -5.226,1.773 -2.865,1.075 0,0 Z"
             inkscape:connector-curvature="0" /></g><g
           transform="translate(277.0332,254.1914)"
           id="g352"><path
             id="path354"
             style="fill:#6e2512;fill-opacity:1;fill-rule:evenodd;stroke:none"
             d="m 0,0 c 1.892,-0.493 4.129,-1.19 5.519,-1.942 1.389,-0.752 1.93,-1.558 2.124,-3.222 0.193,-1.664 0.038,-4.185 -2.109,-6.46 -2.146,-2.274 -6.283,-4.303 -7.847,-4.778 -1.563,-0.476 -0.552,0.601 0.084,2.158 0.634,1.558 0.894,3.596 0.968,5.472 0.075,1.876 -0.036,3.59 -1.702,4.977 -1.665,1.387 -4.886,2.447 -6.804,3.039 -1.919,0.591 -2.534,0.715 -1.52,0.941 1.015,0.226 3.658,0.554 5.753,0.574 C -3.438,0.78 -1.893,0.492 0,0"
             inkscape:connector-curvature="0" /></g><g
           transform="translate(277.0332,254.1914)"
           id="g356"><path
             id="path358"
             style="fill:none;stroke:#2f1305;stroke-width:1.5;stroke-linecap:butt;stroke-linejoin:miter;stroke-miterlimit:2.61299992;stroke-dasharray:none;stroke-opacity:1"
             d="m 0,0 c 1.892,-0.493 4.129,-1.19 5.519,-1.942 1.389,-0.752 1.93,-1.558 2.124,-3.222 0.193,-1.664 0.038,-4.185 -2.109,-6.46 -2.146,-2.274 -6.283,-4.303 -7.847,-4.778 -1.563,-0.476 -0.552,0.601 0.084,2.158 0.634,1.558 0.894,3.596 0.968,5.472 0.075,1.876 -0.036,3.59 -1.702,4.977 -1.665,1.387 -4.886,2.447 -6.804,3.039 -1.919,0.591 -2.534,0.715 -1.52,0.941 1.015,0.226 3.658,0.554 5.753,0.574 C -3.438,0.78 -1.893,0.492 0,0 Z"
             inkscape:connector-curvature="0" /></g><g
           transform="translate(252.3135,191.9824)"
           id="g360"><path
             id="path362"
             style="fill:#ffffff;fill-opacity:1;fill-rule:evenodd;stroke:none"
             d="m 0,0 c -0.258,-0.689 -0.476,-1.295 -0.59,-1.687 -0.185,-0.64 -0.096,-0.71 0.543,-0.171 C 0.259,-1.6 0.69,-1.201 1.112,-0.751 0.722,-0.529 0.35,-0.277 0,0"
             inkscape:connector-curvature="0" /></g><g
           transform="translate(252.3135,191.9824)"
           id="g364"><path
             id="path366"
             style="fill:none;stroke:#2f1305;stroke-width:0.21600001;stroke-linecap:butt;stroke-linejoin:miter;stroke-miterlimit:2.61299992;stroke-dasharray:none;stroke-opacity:1"
             d="m 0,0 c -0.258,-0.689 -0.476,-1.295 -0.59,-1.687 -0.185,-0.64 -0.096,-0.71 0.543,-0.171 C 0.259,-1.6 0.69,-1.201 1.112,-0.751 0.722,-0.529 0.35,-0.277 0,0 Z"
             inkscape:connector-curvature="0" /></g><g
           transform="translate(267.2754,186.0898)"
           id="g368"><path
             id="path370"
             style="fill:#ffffff;fill-opacity:1;fill-rule:evenodd;stroke:none"
             d="m 0,0 c -0.506,-0.533 -0.955,-0.995 -1.257,-1.27 -0.493,-0.448 -0.596,-0.397 -0.391,0.414 0.097,0.387 0.265,0.951 0.485,1.527 C -0.792,0.417 -0.402,0.192 0,0"
             inkscape:connector-curvature="0" /></g><g
           transform="translate(267.2754,186.0898)"
           id="g372"><path
             id="path374"
             style="fill:none;stroke:#2f1305;stroke-width:0.21600001;stroke-linecap:butt;stroke-linejoin:miter;stroke-miterlimit:2.61299992;stroke-dasharray:none;stroke-opacity:1"
             d="m 0,0 c -0.506,-0.533 -0.955,-0.995 -1.257,-1.27 -0.493,-0.448 -0.596,-0.397 -0.391,0.414 0.097,0.387 0.265,0.951 0.485,1.527 C -0.792,0.417 -0.402,0.192 0,0 Z"
             inkscape:connector-curvature="0" /></g><g
           transform="translate(250.8447,202.1562)"
           id="g376"><path
             id="path378"
             style="fill:none;stroke:#2f1305;stroke-width:1.5;stroke-linecap:round;stroke-linejoin:round;stroke-miterlimit:2.61299992;stroke-dasharray:none;stroke-opacity:1"
             d="M 0,0 C -0.407,0.18 -0.814,0.359 -1.312,0.436 -1.812,0.512 -2.401,0.485 -2.979,0.281 -3.558,0.077 -4.125,-0.305 -4.692,-0.687"
             inkscape:connector-curvature="0" /></g><g
           transform="translate(248.9902,187.5264)"
           id="g380"><path
             id="path382"
             style="fill:#881d1a;fill-opacity:1;fill-rule:evenodd;stroke:none"
             d="M 0,0 C 2.282,0.887 4.406,-0.637 7.521,-2.153 10.638,-3.669 13.506,-5.614 13.35,-8.781 10.2,-8.045 7.418,-7.14 4.484,-5.485 1.243,-3.656 0.236,-1.983 0,0"
             inkscape:connector-curvature="0" /></g><g
           transform="translate(248.9902,187.5264)"
           id="g384"><path
             id="path386"
             style="fill:none;stroke:#2f1305;stroke-width:0.21600001;stroke-linecap:butt;stroke-linejoin:miter;stroke-miterlimit:2.61299992;stroke-dasharray:none;stroke-opacity:1"
             d="M 0,0 C 2.282,0.887 4.406,-0.637 7.521,-2.153 10.638,-3.669 13.506,-5.614 13.35,-8.781 10.2,-8.045 7.418,-7.14 4.484,-5.485 1.243,-3.656 0.236,-1.983 0,0 Z"
             inkscape:connector-curvature="0" /></g><g
           transform="translate(256.1816,215.7451)"
           id="g388"><path
             id="path390"
             style="fill:none;stroke:#2f1305;stroke-width:1.5;stroke-linecap:round;stroke-linejoin:round;stroke-miterlimit:2.61299992;stroke-dasharray:none;stroke-opacity:1"
             d="M 0,0 C -1.813,1.454 -3.627,2.908 -5.253,3.984 -6.878,5.061 -8.315,5.76 -9.752,6.459"
             inkscape:connector-curvature="0" /></g><g
           transform="translate(278.585,204.6211)"
           id="g392"><path
             id="path394"
             style="fill:none;stroke:#2f1305;stroke-width:1.5;stroke-linecap:round;stroke-linejoin:round;stroke-miterlimit:2.61299992;stroke-dasharray:none;stroke-opacity:1"
             d="m 0,0 c 2.095,-0.559 4.19,-1.116 5.956,-1.745 1.766,-0.629 3.203,-1.329 4.64,-2.028"
             inkscape:connector-curvature="0" /></g><g
           transform="translate(281.125,216.6172)"
           id="g396"><path
             id="path398"
             style="fill:none;stroke:#2f1305;stroke-width:1.5;stroke-linecap:round;stroke-linejoin:round;stroke-miterlimit:2.61299992;stroke-dasharray:none;stroke-opacity:1"
             d="m 0,0 c -0.74,-1.1 -1.481,-2.2 -2.238,-3.979 -0.757,-1.779 -1.531,-4.238 -1.356,-6.52 0.176,-2.281 1.299,-4.387 0.967,-5.525 -0.332,-1.139 -2.119,-1.312 -3.906,-1.485"
             inkscape:connector-curvature="0" /></g><g
           transform="translate(267.0361,232.8047)"
           id="g400"><path
             id="path402"
             style="fill:#2f1305;fill-opacity:1;fill-rule:evenodd;stroke:none"
             d="m 0,0 c 0.378,-0.393 0.575,-0.396 1.132,-0.305 0.556,0.09 1.472,0.275 1.82,0.707 0.347,0.431 0.124,1.109 -0.44,2.015 -0.566,0.905 -1.472,2.037 -2.901,3.471 -1.427,1.434 -3.377,3.17 -6.34,3.211 -2.962,0.041 -6.939,-1.613 -8.925,-2.589 -1.987,-0.976 -1.983,-1.274 -0.157,-1.025 1.828,0.249 5.477,1.044 8.166,0.548 2.69,-0.497 4.418,-2.286 5.562,-3.572 C -0.938,1.175 -0.378,0.393 0,0"
             inkscape:connector-curvature="0" /></g><g
           transform="translate(284.2266,224.438)"
           id="g404"><path
             id="path406"
             style="fill:#2f1305;fill-opacity:1;fill-rule:evenodd;stroke:none"
             d="m 0,0 c -0.542,0.055 -0.666,0.208 -0.938,0.702 -0.272,0.494 -0.692,1.33 -0.567,1.869 0.126,0.539 0.797,0.783 1.858,0.896 1.061,0.115 2.511,0.099 4.52,-0.14 2.011,-0.239 4.579,-0.702 6.44,-3.008 1.86,-2.307 3.011,-6.456 3.468,-8.622 0.458,-2.165 0.222,-2.346 -0.71,-0.756 -0.93,1.592 -2.556,4.955 -4.606,6.765 C 7.415,-0.484 4.94,-0.227 3.223,-0.12 1.505,-0.013 0.543,-0.055 0,0"
             inkscape:connector-curvature="0" /></g><g
           transform="translate(258.4697,230.5371)"
           id="g408"><path
             id="path410"
             style="fill:#ffffff;fill-opacity:1;fill-rule:evenodd;stroke:none"
             d="m 0,0 c -6.796,4.994 -13.882,-3.878 -11.829,-9.36 0,0 3.193,-1.388 4.665,-2.202 1.452,-0.804 3.786,-2.402 3.786,-2.402 C -1.155,-13.725 6.767,-4.972 0,0"
             inkscape:connector-curvature="0" /></g><g
           transform="translate(258.4697,230.5371)"
           id="g412"><path
             id="path414"
             style="fill:none;stroke:#2f1305;stroke-width:1.5;stroke-linecap:butt;stroke-linejoin:miter;stroke-miterlimit:2.61299992;stroke-dasharray:none;stroke-opacity:1"
             d="m 0,0 c -6.796,4.994 -13.882,-3.878 -11.829,-9.36 0,0 3.193,-1.388 4.665,-2.202 1.452,-0.804 3.786,-2.402 3.786,-2.402 C -1.155,-13.725 6.767,-4.972 0,0 Z"
             inkscape:connector-curvature="0" /></g><g
           transform="translate(257.6943,217.145)"
           id="g416"><path
             id="path418"
             style="fill:#2f1305;fill-opacity:1;fill-rule:evenodd;stroke:none"
             d="M 0,0 C 1.806,1.978 1.739,5.09 -0.148,6.952 -2.035,8.813 -5.029,8.719 -6.834,6.741 -8.159,5.29 -8.477,3.227 -7.805,1.496 -6.678,1.365 -5.512,0.917 -4.354,0.067 -3.69,-0.421 -3.169,-0.946 -2.769,-1.495 -1.749,-1.341 -0.768,-0.84 0,0"
             inkscape:connector-curvature="0" /></g><g
           transform="translate(257.0801,222.3066)"
           id="g420"><path
             id="path422"
             style="fill:#ffffff;fill-opacity:1;fill-rule:evenodd;stroke:none"
             d="M 0,0 C -0.349,0.073 -0.738,-0.333 -0.87,-0.907 -1.003,-1.48 -0.827,-2.006 -0.479,-2.079 -0.13,-2.153 0.26,-1.747 0.393,-1.173 0.524,-0.599 0.349,-0.074 0,0"
             inkscape:connector-curvature="0" /></g><g
           transform="translate(289.127,215.7827)"
           id="g424"><path
             id="path426"
             style="fill:#ffffff;fill-opacity:1;fill-rule:evenodd;stroke:none"
             d="m 0,0 c -7.389,4.066 -13.259,-5.654 -10.509,-10.822 0,0 3.347,-0.96 4.912,-1.575 1.544,-0.607 4.067,-1.888 4.067,-1.888 C 0.642,-13.758 7.356,-4.048 0,0"
             inkscape:connector-curvature="0" /></g><g
           transform="translate(289.127,215.7827)"
           id="g428"><path
             id="path430"
             style="fill:none;stroke:#2f1305;stroke-width:1.5;stroke-linecap:butt;stroke-linejoin:miter;stroke-miterlimit:2.61299992;stroke-dasharray:none;stroke-opacity:1"
             d="m 0,0 c -7.389,4.066 -13.259,-5.654 -10.509,-10.822 0,0 3.347,-0.96 4.912,-1.575 1.544,-0.607 4.067,-1.888 4.067,-1.888 C 0.642,-13.758 7.356,-4.048 0,0 Z"
             inkscape:connector-curvature="0" /></g><g
           transform="translate(289.6045,202.9297)"
           id="g432"><path
             id="path434"
             style="fill:#2f1305;fill-opacity:1;fill-rule:evenodd;stroke:none"
             d="m 0,0 c 1.532,2.196 1.062,5.273 -1.053,6.873 -2.113,1.6 -5.069,1.116 -6.601,-1.079 -1.124,-1.612 -1.17,-3.698 -0.28,-5.327 1.136,0.016 2.35,-0.275 3.608,-0.968 0.722,-0.397 1.307,-0.85 1.775,-1.342 0.991,0.286 1.9,0.91 2.551,1.843"
             inkscape:connector-curvature="0" /></g><g
           transform="translate(288.3232,207.9678)"
           id="g436"><path
             id="path438"
             style="fill:#ffffff;fill-opacity:1;fill-rule:evenodd;stroke:none"
             d="m 0,0 c -0.354,0.027 -0.688,-0.426 -0.745,-1.013 -0.056,-0.586 0.186,-1.084 0.541,-1.111 0.355,-0.027 0.689,0.426 0.746,1.012 C 0.598,-0.525 0.355,-0.027 0,0"
             inkscape:connector-curvature="0" /></g><g
           transform="translate(260.2783,209.1582)"
           id="g440"><path
             id="path442"
             style="fill:#2f1305;fill-opacity:1;fill-rule:evenodd;stroke:none"
             d="m 0,0 c 2.348,-0.714 6.963,-2.84 10.523,-4.576 3.562,-1.736 6.07,-3.084 7.227,-3.91 1.157,-0.826 0.965,-1.129 -0.907,-1.692 -1.873,-0.561 -5.427,-1.383 -7.636,-1.643 -2.209,-0.261 -3.074,0.039 -3.816,0.485 -0.743,0.447 -1.362,1.042 -2.245,2.066 -0.881,1.024 -2.027,2.479 -3.013,3.982 -0.987,1.502 -1.816,3.054 -2.189,4.178 C -2.43,0.015 -2.348,0.713 0,0"
             inkscape:connector-curvature="0" /></g><g
           transform="translate(160.1685,168.2002)"
           id="g444"><path
             id="path446"
             style="fill:none;stroke:#2f1305;stroke-width:1.5;stroke-linecap:round;stroke-linejoin:round;stroke-miterlimit:2.61299992;stroke-dasharray:none;stroke-opacity:1"
             d="M 0,0 C 2.712,-3.352 5.423,-6.703 8.135,-10.054"
             inkscape:connector-curvature="0" /></g></g></g></g></svg>