<?xml version="1.0" encoding="UTF-8" standalone="no"?>
<svg
   xmlns:dc="http://purl.org/dc/elements/1.1/"
   xmlns:cc="http://creativecommons.org/ns#"
   xmlns:rdf="http://www.w3.org/1999/02/22-rdf-syntax-ns#"
   xmlns:svg="http://www.w3.org/2000/svg"
   xmlns="http://www.w3.org/2000/svg"
   xmlns:sodipodi="http://sodipodi.sourceforge.net/DTD/sodipodi-0.dtd"
   xmlns:inkscape="http://www.inkscape.org/namespaces/inkscape"
   viewBox="0 0 131.06844 99.542251"
   height="99.542252"
   width="131.06844"
   xml:space="preserve"
   id="svg2"
   version="1.1"
   sodipodi:docname="16.svg"
   inkscape:version="0.92.2 5c3e80d, 2017-08-06"><sodipodi:namedview
     pagecolor="#ffffff"
     bordercolor="#666666"
     borderopacity="1"
     objecttolerance="10"
     gridtolerance="10"
     guidetolerance="10"
     inkscape:pageopacity="0"
     inkscape:pageshadow="2"
     inkscape:window-width="848"
     inkscape:window-height="551"
     id="namedview5640"
     showgrid="false"
     inkscape:zoom="0.41627764"
     inkscape:cx="66.922083"
     inkscape:cy="66.881598"
     inkscape:window-x="0"
     inkscape:window-y="0"
     inkscape:window-maximized="0"
     inkscape:current-layer="svg2" /><metadata
     id="metadata8"><rdf:RDF><cc:Work
         rdf:about=""><dc:format>image/svg+xml</dc:format><dc:type
           rdf:resource="http://purl.org/dc/dcmitype/StillImage" /></cc:Work></rdf:RDF></metadata><defs
     id="defs6"><clipPath
       id="clipPath18"
       clipPathUnits="userSpaceOnUse"><path
         id="path16"
         d="M 152.676,252.675 V 172.14 l 9.493,-5.451 82.139,-0.17 h 32.569 l 7.356,86.156 z"
         inkscape:connector-curvature="0" /></clipPath><clipPath
       id="clipPath38"
       clipPathUnits="userSpaceOnUse"><path
         id="path36"
         d="m 206.168,203.121 c -3.416,-0.299 -5.005,-1.267 -6.31,-2.106 v 0 c -1.305,-0.839 -3.792,-1.897 -6.189,-5.372 v 0 c -2.397,-3.477 -4.704,-9.372 -6.87,-13.344 v 0 c -2.169,-3.973 -3.595,-7.859 -2.335,-12.934 v 0 c 0.161,-0.65 0.291,0.074 0.628,0.798 v 0 c 0.161,0.346 0.388,0.698 0.65,1.039 v 0 c -0.003,-0.028 -0.004,-0.057 -0.006,-0.087 v 0 c -0.097,-1.426 0.51,-3.445 0.837,-4.118 v 0 c 0.325,-0.673 0.373,0.002 0.697,0.699 v 0 c 0.138,0.295 0.326,0.594 0.541,0.888 v 0 c 0.303,-0.664 0.621,-1.315 0.955,-1.95 v 0 l 40.453,-0.084 c 0.128,0.282 0.243,0.566 0.336,0.844 v 0 l 0.067,0.057 c 0.064,0.057 0.129,0.115 0.192,0.172 v 0 c 0.119,-0.376 0.174,-0.462 0.252,-1.075 v 0 l 1.222,-0.002 c 0.547,0.946 1.195,2.255 1.624,3.545 v 0 c 1.537,4.624 -0.311,8.866 -1.825,13.394 v 0 c -2.262,6.766 -5.244,15.771 -12.604,18.303 v 0 c -2.871,0.988 -6.721,1.43 -9.895,1.43 v 0 c -0.869,0 -1.686,-0.033 -2.42,-0.097"
         inkscape:connector-curvature="0" /></clipPath><clipPath
       id="clipPath54"
       clipPathUnits="userSpaceOnUse"><path
         id="path52"
         d="M 152.676,252.675 V 172.14 l 9.493,-5.451 82.139,-0.17 h 32.569 l 7.356,86.156 z"
         inkscape:connector-curvature="0" /></clipPath><clipPath
       id="clipPath186"
       clipPathUnits="userSpaceOnUse"><path
         id="path184"
         d="M 0,425.197 H 425.197 V 0 H 0 Z"
         inkscape:connector-curvature="0" /></clipPath></defs><g
     transform="matrix(1.3333333,0,0,-1.3333333,-216.54258,316.12533)"
     id="g10"><g
       id="g12"><g
         clip-path="url(#clipPath18)"
         id="g14"><g
           transform="translate(181.0298,153.6523)"
           id="g20"><path
             id="path22"
             style="fill:#6e2512;fill-opacity:1;fill-rule:evenodd;stroke:none"
             d="m 0,0 c 1.199,-2.052 0.475,-3.13 0.267,-3.65 -0.209,-0.522 0.066,-0.504 0.756,0.331 0.69,0.835 1.797,2.488 1.891,4.638 0.037,0.871 -0.091,1.825 -0.305,2.951 2.62,-2.78 5.406,-5.209 7.777,-7.092 4.424,-3.514 7.399,-5.122 8.899,-6.803 1.499,-1.679 1.523,-3.43 1.511,-4.356 -0.012,-0.927 -0.058,-1.032 -0.02,-1.031 0.038,0.001 0.161,0.107 4.08,1.857 3.92,1.75 11.638,5.144 17.972,9.55 2.284,1.588 4.388,3.309 6.288,5.166 -0.125,-0.802 -0.299,-1.615 -0.555,-2.411 -0.64,-1.996 -1.789,-3.886 -2.15,-4.624 -0.362,-0.736 0.066,-0.319 1.111,0.488 1.046,0.807 2.709,2.005 4.972,5.043 2.262,3.038 5.125,7.916 6.521,12.895 0.128,0.456 0.244,0.913 0.348,1.37 0.237,-0.886 0.428,-1.813 0.512,-2.759 0.187,-2.084 -0.139,-4.256 -0.186,-5.072 -0.047,-0.815 0.186,-0.271 0.839,0.861 0.652,1.131 1.723,2.852 2.633,6.497 0.908,3.645 1.653,9.213 1.003,14.336 -0.65,5.122 -2.697,9.797 -5.015,13.82 -1.014,1.758 -2.079,3.391 -3.08,4.787 2.176,1.406 3.318,3.187 4.007,6.031 0.733,3.037 0.949,7.288 0.92,9.845 -0.031,2.558 -0.305,3.42 -0.484,3.67 -0.179,0.25 -0.262,-0.114 -1.396,-1.395 -0.66,-0.746 -1.677,-1.802 -3.248,-2.839 -0.011,3.661 -0.681,7.779 -1.499,11.016 -0.961,3.805 -2.126,6.394 -2.796,7.8 -0.67,1.406 -0.844,1.63 -0.929,1.73 -0.085,0.1 -0.08,0.077 -0.243,-0.798 -0.163,-0.875 -0.494,-2.602 -1.664,-5.094 -1.17,-2.492 -3.179,-5.75 -8.983,-7.945 C 33.951,66.619 24.352,65.487 18.504,63.607 12.656,61.729 10.331,59.217 9.186,56.798 7.258,52.728 3.876,49.571 1.228,45.321 -10.03,27.259 -7.878,13.481 0,0"
             inkscape:connector-curvature="0" /></g><g
           transform="translate(181.0298,153.6523)"
           id="g24"><path
             id="path26"
             style="fill:none;stroke:#2f1305;stroke-width:1.5;stroke-linecap:butt;stroke-linejoin:miter;stroke-miterlimit:2.61299992;stroke-dasharray:none;stroke-opacity:1"
             d="m 0,0 c 1.199,-2.052 0.475,-3.13 0.267,-3.65 -0.209,-0.522 0.066,-0.504 0.756,0.331 0.69,0.835 1.797,2.488 1.891,4.638 0.037,0.871 -0.091,1.825 -0.305,2.951 2.62,-2.78 5.406,-5.209 7.777,-7.092 4.424,-3.514 7.399,-5.122 8.899,-6.803 1.499,-1.679 1.523,-3.43 1.511,-4.356 -0.012,-0.927 -0.058,-1.032 -0.02,-1.031 0.038,0.001 0.161,0.107 4.08,1.857 3.92,1.75 11.638,5.144 17.972,9.55 2.284,1.588 4.388,3.309 6.288,5.166 -0.125,-0.802 -0.299,-1.615 -0.555,-2.411 -0.64,-1.996 -1.789,-3.886 -2.15,-4.624 -0.362,-0.736 0.066,-0.319 1.111,0.488 1.046,0.807 2.709,2.005 4.972,5.043 2.262,3.038 5.125,7.916 6.521,12.895 0.128,0.456 0.244,0.913 0.348,1.37 0.237,-0.886 0.428,-1.813 0.512,-2.759 0.187,-2.084 -0.139,-4.256 -0.186,-5.072 -0.047,-0.815 0.186,-0.271 0.839,0.861 0.652,1.131 1.723,2.852 2.633,6.497 0.908,3.645 1.653,9.213 1.003,14.336 -0.65,5.122 -2.697,9.797 -5.015,13.82 -1.014,1.758 -2.079,3.391 -3.08,4.787 2.176,1.406 3.318,3.187 4.007,6.031 0.733,3.037 0.949,7.288 0.92,9.845 -0.031,2.558 -0.305,3.42 -0.484,3.67 -0.179,0.25 -0.262,-0.114 -1.396,-1.395 -0.66,-0.746 -1.677,-1.802 -3.248,-2.839 -0.011,3.661 -0.681,7.779 -1.499,11.016 -0.961,3.805 -2.126,6.394 -2.796,7.8 -0.67,1.406 -0.844,1.63 -0.929,1.73 -0.085,0.1 -0.08,0.077 -0.243,-0.798 -0.163,-0.875 -0.494,-2.602 -1.664,-5.094 -1.17,-2.492 -3.179,-5.75 -8.983,-7.945 C 33.951,66.619 24.352,65.487 18.504,63.607 12.656,61.729 10.331,59.217 9.186,56.798 7.258,52.728 3.876,49.571 1.228,45.321 -10.03,27.259 -7.878,13.481 0,0 Z"
             inkscape:connector-curvature="0" /></g><g
           transform="translate(199.8579,201.0146)"
           id="g28"><path
             id="path30"
             style="fill:#ea8722;fill-opacity:1;fill-rule:evenodd;stroke:none"
             d="m 0,0 c -1.305,-0.839 -3.792,-1.896 -6.189,-5.372 -2.397,-3.477 -4.704,-9.371 -6.871,-13.343 -2.167,-3.973 -3.594,-7.86 -2.334,-12.935 0.162,-0.65 0.29,0.075 0.628,0.798 0.161,0.346 0.389,0.698 0.65,1.04 -0.002,-0.029 -0.005,-0.058 -0.006,-0.087 -0.096,-1.427 0.51,-3.446 0.836,-4.119 0.327,-0.672 0.374,0.002 0.699,0.7 0.137,0.295 0.325,0.593 0.541,0.887 3.873,-8.505 10.396,-14.782 16.329,-15.173 7.365,-0.485 11.664,-0.563 22.351,11.795 0.068,-0.254 0.076,-0.163 0.15,-0.747 0.073,-0.583 -0.054,-1.692 0.546,-1.066 0.599,0.627 1.834,2.409 2.367,4.001 l 0.067,0.058 c 0.065,0.056 0.129,0.114 0.193,0.171 0.122,-0.385 0.175,-0.466 0.257,-1.127 0.083,-0.661 -0.083,-1.785 0.428,-1.156 0.511,0.63 1.735,2.715 2.412,4.751 1.537,4.624 -0.31,8.866 -1.825,13.394 C 28.967,-10.764 25.986,-1.758 18.625,0.773 14.968,2.031 9.726,2.404 6.31,2.106 2.895,1.808 1.305,0.839 0,0"
             inkscape:connector-curvature="0" /></g></g></g><g
       id="g32"><g
         clip-path="url(#clipPath38)"
         id="g34"><g
           transform="translate(214.1934,174.4395)"
           id="g40"><path
             id="path42"
             style="fill:#f2b270;fill-opacity:1;fill-rule:evenodd;stroke:none"
             d="m 0,0 c -2.282,0.309 -5.057,-0.527 -8.359,-0.75 -3.455,-0.232 -9.162,3.954 -13.667,-0.993 -4.004,-4.398 -1.658,-8.915 2.04,-13.754 1.415,-1.853 0.935,-3.675 1.697,-5.088 0.762,-1.413 1.719,-1.636 3.392,-1.905 0.648,-0.105 1.386,-0.183 2.222,-0.265 2.992,-0.294 8.243,-0.109 10.191,0.94 1.947,1.048 2.445,-0.849 3.172,-0.067 1.544,1.661 -0.588,1.964 1.203,2.99 5.063,2.902 7.114,11.426 4.601,15.681 C 5.016,-0.712 2.281,-0.31 0,0"
             inkscape:connector-curvature="0" /></g><g
           transform="translate(214.1934,174.4395)"
           id="g44"><path
             id="path46"
             style="fill:none;stroke:#2f1305;stroke-width:1.5;stroke-linecap:butt;stroke-linejoin:miter;stroke-miterlimit:2.61299992;stroke-dasharray:none;stroke-opacity:1"
             d="m 0,0 c -2.282,0.309 -5.057,-0.527 -8.359,-0.75 -3.455,-0.232 -9.162,3.954 -13.667,-0.993 -4.004,-4.398 -1.658,-8.915 2.04,-13.754 1.415,-1.853 0.935,-3.675 1.697,-5.088 0.762,-1.413 1.719,-1.636 3.392,-1.905 0.648,-0.105 1.386,-0.183 2.222,-0.265 2.992,-0.294 8.243,-0.109 10.191,0.94 1.947,1.048 2.445,-0.849 3.172,-0.067 1.544,1.661 -0.588,1.964 1.203,2.99 5.063,2.902 7.114,11.426 4.601,15.681 C 5.016,-0.712 2.281,-0.31 0,0 Z"
             inkscape:connector-curvature="0" /></g></g></g><g
       id="g48"><g
         clip-path="url(#clipPath54)"
         id="g50"><g
           transform="translate(199.8579,201.0146)"
           id="g56"><path
             id="path58"
             style="fill:none;stroke:#2f1305;stroke-width:1.5;stroke-linecap:butt;stroke-linejoin:miter;stroke-miterlimit:2.61299992;stroke-dasharray:none;stroke-opacity:1"
             d="m 0,0 c -1.305,-0.839 -3.792,-1.896 -6.189,-5.372 -2.397,-3.477 -4.704,-9.371 -6.871,-13.343 -2.167,-3.973 -3.594,-7.86 -2.334,-12.935 0.162,-0.65 0.29,0.075 0.628,0.798 0.161,0.346 0.389,0.698 0.65,1.04 -0.002,-0.029 -0.005,-0.058 -0.006,-0.087 -0.096,-1.427 0.51,-3.446 0.836,-4.119 0.327,-0.672 0.374,0.002 0.699,0.7 0.137,0.295 0.325,0.593 0.541,0.887 3.873,-8.505 10.396,-14.782 16.329,-15.173 7.365,-0.485 11.664,-0.563 22.351,11.795 0.068,-0.254 0.076,-0.163 0.15,-0.747 0.073,-0.583 -0.054,-1.692 0.546,-1.066 0.599,0.627 1.834,2.409 2.367,4.001 l 0.067,0.058 c 0.065,0.056 0.129,0.114 0.193,0.171 0.122,-0.385 0.175,-0.466 0.257,-1.127 0.083,-0.661 -0.083,-1.785 0.428,-1.156 0.511,0.63 1.735,2.715 2.412,4.751 1.537,4.624 -0.31,8.866 -1.825,13.394 C 28.967,-10.764 25.986,-1.758 18.625,0.773 14.968,2.031 9.726,2.404 6.31,2.106 2.895,1.808 1.305,0.839 0,0 Z"
             inkscape:connector-curvature="0" /></g><g
           transform="translate(226.5693,198.999)"
           id="g60"><path
             id="path62"
             style="fill:#ea8722;fill-opacity:1;fill-rule:evenodd;stroke:none"
             d="M 0,0 C -1.06,1.362 -1.201,1.985 -1.343,2.607 0.815,3.97 2.974,5.333 4.994,6.051 5.216,6.13 5.437,6.2 5.655,6.263 7.861,6.895 9.879,6.645 11.13,6.178 12.381,5.71 12.865,5.024 13.289,4.025 13.714,3.026 14.078,1.713 13.834,0.075 13.616,-1.382 12.916,-3.095 12.184,-4.388 12.093,-4.548 12.002,-4.701 11.911,-4.847 11.7,-5.185 11.492,-5.481 11.285,-5.746 10.681,-6.521 10.088,-7.033 9.495,-7.545 L 9.069,-7.696 C 8.644,-7.847 7.791,-8.148 7.044,-7.818 6.618,-7.63 6.226,-7.237 5.726,-6.649 5.348,-6.206 4.908,-5.654 4.346,-4.996 3.037,-3.465 1.06,-1.363 0,0"
             inkscape:connector-curvature="0" /></g><g
           transform="translate(226.5693,198.999)"
           id="g64"><path
             id="path66"
             style="fill:none;stroke:#2f1305;stroke-width:1.5;stroke-linecap:butt;stroke-linejoin:miter;stroke-miterlimit:2.61299992;stroke-dasharray:none;stroke-opacity:1"
             d="M 0,0 C -1.06,1.362 -1.201,1.985 -1.343,2.607 0.815,3.97 2.974,5.333 4.994,6.051 5.216,6.13 5.437,6.2 5.655,6.263 7.861,6.895 9.879,6.645 11.13,6.178 12.381,5.71 12.865,5.024 13.289,4.025 13.714,3.026 14.078,1.713 13.834,0.075 13.616,-1.382 12.916,-3.095 12.184,-4.388 12.093,-4.548 12.002,-4.701 11.911,-4.847 11.7,-5.185 11.492,-5.481 11.285,-5.746 10.681,-6.521 10.088,-7.033 9.495,-7.545 L 9.069,-7.696 C 8.644,-7.847 7.791,-8.148 7.044,-7.818 6.618,-7.63 6.226,-7.237 5.726,-6.649 5.348,-6.206 4.908,-5.654 4.346,-4.996 3.037,-3.465 1.06,-1.363 0,0 Z"
             inkscape:connector-curvature="0" /></g><g
           transform="translate(227.7119,197.626)"
           id="g68"><path
             id="path70"
             style="fill:#d56728;fill-opacity:1;fill-rule:evenodd;stroke:none"
             d="M 0,0 C -0.684,0.88 -0.775,1.281 -0.867,1.684 0.526,2.563 1.92,3.442 3.225,3.906 3.367,3.957 3.51,4.003 3.65,4.044 5.075,4.451 6.378,4.29 7.186,3.988 7.993,3.687 8.306,3.244 8.58,2.6 8.854,1.954 9.089,1.106 8.931,0.049 8.79,-0.892 8.339,-1.998 7.865,-2.832 7.807,-2.936 7.748,-3.034 7.689,-3.129 7.554,-3.347 7.419,-3.538 7.286,-3.709 6.896,-4.21 6.513,-4.54 6.13,-4.87 L 5.855,-4.968 C 5.58,-5.065 5.03,-5.26 4.548,-5.047 4.272,-4.926 4.02,-4.672 3.696,-4.292 3.453,-4.007 3.169,-3.649 2.806,-3.225 1.961,-2.236 0.685,-0.88 0,0"
             inkscape:connector-curvature="0" /></g><g
           transform="translate(227.7119,197.626)"
           id="g72"><path
             id="path74"
             style="fill:none;stroke:#2f1305;stroke-width:1.5;stroke-linecap:butt;stroke-linejoin:miter;stroke-miterlimit:2.61299992;stroke-dasharray:none;stroke-opacity:1"
             d="M 0,0 C -0.684,0.88 -0.775,1.281 -0.867,1.684 0.526,2.563 1.92,3.442 3.225,3.906 3.367,3.957 3.51,4.003 3.65,4.044 5.075,4.451 6.378,4.29 7.186,3.988 7.993,3.687 8.306,3.244 8.58,2.6 8.854,1.954 9.089,1.106 8.931,0.049 8.79,-0.892 8.339,-1.998 7.865,-2.832 7.807,-2.936 7.748,-3.034 7.689,-3.129 7.554,-3.347 7.419,-3.538 7.286,-3.709 6.896,-4.21 6.513,-4.54 6.13,-4.87 L 5.855,-4.968 C 5.58,-5.065 5.03,-5.26 4.548,-5.047 4.272,-4.926 4.02,-4.672 3.696,-4.292 3.453,-4.007 3.169,-3.649 2.806,-3.225 1.961,-2.236 0.685,-0.88 0,0 Z"
             inkscape:connector-curvature="0" /></g><g
           transform="translate(194.5176,201.5615)"
           id="g76"><path
             id="path78"
             style="fill:#ea8722;fill-opacity:1;fill-rule:evenodd;stroke:none"
             d="M 0,0 C 1.176,1.252 1.375,1.855 1.572,2.46 -0.44,4.01 -2.452,5.56 -4.387,6.458 -4.6,6.557 -4.811,6.647 -5.022,6.729 -7.149,7.56 -9.171,7.5 -10.454,7.152 c -1.282,-0.346 -1.826,-0.98 -2.339,-1.931 -0.513,-0.95 -0.996,-2.218 -0.905,-3.863 0.08,-1.463 0.615,-3.226 1.221,-4.575 0.075,-0.167 0.151,-0.327 0.227,-0.48 0.177,-0.355 0.356,-0.667 0.537,-0.949 0.527,-0.824 1.067,-1.386 1.606,-1.948 l 0.408,-0.189 c 0.408,-0.189 1.225,-0.567 1.996,-0.309 0.439,0.147 0.864,0.5 1.415,1.036 0.414,0.404 0.901,0.91 1.519,1.509 C -3.33,-3.15 -1.176,-1.252 0,0"
             inkscape:connector-curvature="0" /></g><g
           transform="translate(194.5176,201.5615)"
           id="g80"><path
             id="path82"
             style="fill:none;stroke:#2f1305;stroke-width:1.5;stroke-linecap:butt;stroke-linejoin:miter;stroke-miterlimit:2.61299992;stroke-dasharray:none;stroke-opacity:1"
             d="M 0,0 C 1.176,1.252 1.375,1.855 1.572,2.46 -0.44,4.01 -2.452,5.56 -4.387,6.458 -4.6,6.557 -4.811,6.647 -5.022,6.729 -7.149,7.56 -9.171,7.5 -10.454,7.152 c -1.282,-0.346 -1.826,-0.98 -2.339,-1.931 -0.513,-0.95 -0.996,-2.218 -0.905,-3.863 0.08,-1.463 0.615,-3.226 1.221,-4.575 0.075,-0.167 0.151,-0.327 0.227,-0.48 0.177,-0.355 0.356,-0.667 0.537,-0.949 0.527,-0.824 1.067,-1.386 1.606,-1.948 l 0.408,-0.189 c 0.408,-0.189 1.225,-0.567 1.996,-0.309 0.439,0.147 0.864,0.5 1.415,1.036 0.414,0.404 0.901,0.91 1.519,1.509 C -3.33,-3.15 -1.176,-1.252 0,0 Z"
             inkscape:connector-curvature="0" /></g><g
           transform="translate(193.4937,200.4463)"
           id="g84"><path
             id="path86"
             style="fill:#d56728;fill-opacity:1;fill-rule:evenodd;stroke:none"
             d="M 0,0 C 0.769,0.807 0.9,1.198 1.031,1.589 -0.268,2.604 -1.565,3.618 -2.817,4.21 -2.955,4.274 -3.091,4.335 -3.228,4.389 -4.604,4.937 -5.917,4.907 -6.75,4.687 -7.584,4.468 -7.939,4.059 -8.276,3.444 -8.613,2.83 -8.932,2.01 -8.881,0.942 c 0.046,-0.95 0.385,-2.095 0.772,-2.973 0.048,-0.109 0.096,-0.213 0.145,-0.313 0.113,-0.23 0.229,-0.434 0.344,-0.618 0.339,-0.536 0.686,-0.903 1.034,-1.27 l 0.263,-0.124 c 0.265,-0.125 0.793,-0.373 1.294,-0.21 0.286,0.093 0.563,0.32 0.923,0.666 0.271,0.259 0.588,0.586 0.992,0.972 0.94,0.9 2.346,2.121 3.114,2.928"
             inkscape:connector-curvature="0" /></g><g
           transform="translate(193.4937,200.4463)"
           id="g88"><path
             id="path90"
             style="fill:none;stroke:#2f1305;stroke-width:1.5;stroke-linecap:butt;stroke-linejoin:miter;stroke-miterlimit:2.61299992;stroke-dasharray:none;stroke-opacity:1"
             d="M 0,0 C 0.769,0.807 0.9,1.198 1.031,1.589 -0.268,2.604 -1.565,3.618 -2.817,4.21 -2.955,4.274 -3.091,4.335 -3.228,4.389 -4.604,4.937 -5.917,4.907 -6.75,4.687 -7.584,4.468 -7.939,4.059 -8.276,3.444 -8.613,2.83 -8.932,2.01 -8.881,0.942 c 0.046,-0.95 0.385,-2.095 0.772,-2.973 0.048,-0.109 0.096,-0.213 0.145,-0.313 0.113,-0.23 0.229,-0.434 0.344,-0.618 0.339,-0.536 0.686,-0.903 1.034,-1.27 l 0.263,-0.124 c 0.265,-0.125 0.793,-0.373 1.294,-0.21 0.286,0.093 0.563,0.32 0.923,0.666 0.271,0.259 0.588,0.586 0.992,0.972 0.94,0.9 2.346,2.121 3.114,2.928 z"
             inkscape:connector-curvature="0" /></g><g
           transform="translate(186.2422,196.4424)"
           id="g92"><path
             id="path94"
             style="fill:#6e2512;fill-opacity:1;fill-rule:evenodd;stroke:none"
             d="m 0,0 c -0.601,-0.767 -1.163,-1.522 -1.627,-2.145 0.458,-0.209 1.429,-0.501 2.051,-0.293 0.623,0.209 1.238,-0.024 1.827,0.548 0.167,0.163 0.346,0.342 0.539,0.536 0.212,0.129 0.435,0.324 0.698,0.576 0.29,0.278 0.553,0.353 1.271,1.04 0.718,0.686 2.455,2.615 2.978,3.164 0.524,0.55 0.401,0.44 0.538,0.62 C 8.476,4.247 8.119,3.859 8.832,4.617 9.544,5.376 10.125,7.125 10.337,7.771 9.868,8.132 9.399,8.492 8.932,8.847 8.027,8.293 7.173,7.769 6.447,7.317 5.824,6.931 5.294,6.599 4.909,6.348 3.776,5.613 3.875,5.589 4.349,5.551 4.821,5.514 5.668,5.464 5.444,5.153 5.22,4.842 3.925,4.269 2.394,2.763 1.615,1.996 0.775,0.988 0,0"
             inkscape:connector-curvature="0" /></g><g
           transform="translate(196.4971,206.0801)"
           id="g96"><path
             id="path98"
             style="fill:none;stroke:#2f1305;stroke-width:1.5;stroke-linecap:round;stroke-linejoin:round;stroke-miterlimit:2.61299992;stroke-dasharray:none;stroke-opacity:1"
             d="m 0,0 c -2.213,-1.352 -4.426,-2.702 -5.487,-3.39 -1.059,-0.687 -0.967,-0.711 -0.524,-0.746 0.443,-0.034 1.235,-0.081 1.026,-0.372 -0.21,-0.291 -1.422,-0.827 -2.855,-2.237 -1.432,-1.409 -3.087,-3.693 -4.065,-4.997 -0.979,-1.305 -1.282,-1.631 -1.561,-1.875 -0.28,-0.245 -0.536,-0.408 0.466,-0.269 1.001,0.14 3.261,0.583 5.521,1.026"
             inkscape:connector-curvature="0" /></g><g
           transform="translate(234.1777,192.6895)"
           id="g100"><path
             id="path102"
             style="fill:#6e2512;fill-opacity:1;fill-rule:evenodd;stroke:none"
             d="m 0,0 c 0.601,-0.767 1.162,-1.522 1.627,-2.145 -0.458,-0.209 -1.429,-0.501 -2.052,-0.293 -0.622,0.209 -1.237,-0.024 -1.826,0.548 -0.168,0.163 -0.346,0.342 -0.539,0.536 -0.212,0.129 -0.435,0.323 -0.698,0.577 -0.29,0.277 -0.553,0.351 -1.271,1.039 -0.718,0.686 -2.455,2.615 -2.978,3.164 -0.524,0.55 -0.401,0.44 -0.537,0.62 -0.203,0.201 0.155,-0.187 -0.558,0.571 -0.713,0.759 -1.294,2.508 -1.505,3.154 0.469,0.36 0.938,0.721 1.405,1.076 0.905,-0.554 1.759,-1.078 2.485,-1.53 0.623,-0.386 1.152,-0.719 1.538,-0.969 1.133,-0.735 1.034,-0.759 0.56,-0.797 C -4.821,5.514 -5.668,5.464 -5.444,5.153 -5.221,4.842 -3.926,4.27 -2.394,2.763 -1.615,1.996 -0.775,0.988 0,0"
             inkscape:connector-curvature="0" /></g><g
           transform="translate(223.9229,202.3271)"
           id="g104"><path
             id="path106"
             style="fill:none;stroke:#2f1305;stroke-width:1.5;stroke-linecap:round;stroke-linejoin:round;stroke-miterlimit:2.61299992;stroke-dasharray:none;stroke-opacity:1"
             d="M 0,0 C 2.213,-1.352 4.427,-2.703 5.486,-3.39 6.547,-4.077 6.453,-4.101 6.011,-4.136 5.568,-4.17 4.775,-4.217 4.985,-4.508 5.195,-4.8 6.407,-5.335 7.84,-6.745 c 1.432,-1.409 3.087,-3.693 4.065,-4.997 0.979,-1.305 1.282,-1.631 1.561,-1.876 0.279,-0.244 0.536,-0.407 -0.466,-0.268 -1.002,0.14 -3.262,0.583 -5.521,1.026"
             inkscape:connector-curvature="0" /></g><g
           transform="translate(208.4082,205.7705)"
           id="g108"><path
             id="path110"
             style="fill:#6e2512;fill-opacity:1;fill-rule:evenodd;stroke:none"
             d="m 0,0 c -1.865,0.176 -4.109,0.28 -5.606,0.059 -1.498,-0.222 -2.25,-0.771 -2.969,-2.206 -0.718,-1.435 -1.404,-3.757 -0.217,-6.509 1.188,-2.751 4.25,-5.934 5.502,-6.874 1.252,-0.941 0.695,0.36 0.633,1.971 -0.062,1.612 0.371,3.532 0.919,5.246 0.547,1.713 1.209,3.221 3.163,3.924 1.955,0.704 5.202,0.604 7.124,0.509 1.922,-0.096 2.516,-0.186 1.678,0.35 -0.84,0.535 -3.114,1.697 -4.995,2.401 C 3.353,-0.424 1.866,-0.176 0,0"
             inkscape:connector-curvature="0" /></g><g
           transform="translate(208.4082,205.7705)"
           id="g112"><path
             id="path114"
             style="fill:none;stroke:#2f1305;stroke-width:1.5;stroke-linecap:butt;stroke-linejoin:miter;stroke-miterlimit:2.61299992;stroke-dasharray:none;stroke-opacity:1"
             d="m 0,0 c -1.865,0.176 -4.109,0.28 -5.606,0.059 -1.498,-0.222 -2.25,-0.771 -2.969,-2.206 -0.718,-1.435 -1.404,-3.757 -0.217,-6.509 1.188,-2.751 4.25,-5.934 5.502,-6.874 1.252,-0.941 0.695,0.36 0.633,1.971 -0.062,1.612 0.371,3.532 0.919,5.246 0.547,1.713 1.209,3.221 3.163,3.924 1.955,0.704 5.202,0.604 7.124,0.509 1.922,-0.096 2.516,-0.186 1.678,0.35 -0.84,0.535 -3.114,1.697 -4.995,2.401 C 3.353,-0.424 1.866,-0.176 0,0 Z"
             inkscape:connector-curvature="0" /></g><g
           transform="translate(213.3359,204.6318)"
           id="g116"><path
             id="path118"
             style="fill:#6e2512;fill-opacity:1;fill-rule:evenodd;stroke:none"
             d="M 0,0 C -1.174,0.235 -2.592,0.451 -3.559,0.409 -4.525,0.367 -5.04,0.068 -5.591,-0.796 c -0.553,-0.863 -1.142,-2.293 -0.571,-4.121 0.573,-1.827 2.307,-4.053 3.04,-4.733 0.733,-0.681 0.465,0.182 0.533,1.211 0.068,1.027 0.47,2.218 0.932,3.272 0.462,1.053 0.983,1.966 2.271,2.283 1.288,0.318 3.346,0.038 4.56,-0.15 1.215,-0.188 1.588,-0.285 1.09,0.111 C 5.766,-2.526 4.398,-1.638 3.25,-1.065 2.102,-0.492 1.174,-0.236 0,0"
             inkscape:connector-curvature="0" /></g><g
           transform="translate(213.3359,204.6318)"
           id="g120"><path
             id="path122"
             style="fill:none;stroke:#2f1305;stroke-width:1.5;stroke-linecap:butt;stroke-linejoin:miter;stroke-miterlimit:2.61299992;stroke-dasharray:none;stroke-opacity:1"
             d="M 0,0 C -1.174,0.235 -2.592,0.451 -3.559,0.409 -4.525,0.367 -5.04,0.068 -5.591,-0.796 c -0.553,-0.863 -1.142,-2.293 -0.571,-4.121 0.573,-1.827 2.307,-4.053 3.04,-4.733 0.733,-0.681 0.465,0.182 0.533,1.211 0.068,1.027 0.47,2.218 0.932,3.272 0.462,1.053 0.983,1.966 2.271,2.283 1.288,0.318 3.346,0.038 4.56,-0.15 1.215,-0.188 1.588,-0.285 1.09,0.111 C 5.766,-2.526 4.398,-1.638 3.25,-1.065 2.102,-0.492 1.174,-0.236 0,0 Z"
             inkscape:connector-curvature="0" /></g><g
           transform="translate(214.5137,177.8779)"
           id="g124"><path
             id="path126"
             style="fill:none;stroke:#2f1305;stroke-width:1.5;stroke-linecap:round;stroke-linejoin:round;stroke-miterlimit:2.61299992;stroke-dasharray:none;stroke-opacity:1"
             d="M 0,0 C 1.389,0.314 2.776,0.629 3.959,0.785 5.143,0.942 6.122,0.942 7.101,0.942"
             inkscape:connector-curvature="0" /></g><g
           transform="translate(199.1992,177.7559)"
           id="g128"><path
             id="path130"
             style="fill:none;stroke:#2f1305;stroke-width:1.5;stroke-linecap:round;stroke-linejoin:round;stroke-miterlimit:2.61299992;stroke-dasharray:none;stroke-opacity:1"
             d="M 0,0 C -1.303,0.254 -2.606,0.508 -3.747,0.635 -4.888,0.762 -5.866,0.762 -6.845,0.762"
             inkscape:connector-curvature="0" /></g><g
           transform="translate(201.0151,185.041)"
           id="g132"><path
             id="path134"
             style="fill:none;stroke:#2f1305;stroke-width:1.5;stroke-linecap:round;stroke-linejoin:round;stroke-miterlimit:2.61299992;stroke-dasharray:none;stroke-opacity:1"
             d="m 0,0 c 0.113,-0.804 0.226,-1.607 0.166,-2.79 -0.06,-1.183 -0.293,-2.743 -1.001,-3.953 -0.708,-1.209 -1.89,-2.067 -2.013,-2.783 -0.122,-0.716 0.815,-1.29 1.753,-1.864"
             inkscape:connector-curvature="0" /></g><g
           transform="translate(213.1523,190.8662)"
           id="g136"><path
             id="path138"
             style="fill:#2f1305;fill-opacity:1;fill-rule:evenodd;stroke:none"
             d="m 0,0 c -0.324,-0.081 -0.428,-0.02 -0.687,0.208 -0.26,0.229 -0.676,0.621 -0.716,0.958 -0.04,0.337 0.296,0.616 0.882,0.903 C 0.066,2.356 0.904,2.65 2.111,2.932 3.317,3.214 4.893,3.483 6.444,2.544 7.997,1.604 9.525,-0.544 10.241,-1.695 10.956,-2.847 10.857,-3 9.99,-2.278 9.122,-1.557 7.484,0.04 5.926,0.654 4.369,1.269 2.891,0.899 1.879,0.604 0.868,0.307 0.323,0.081 0,0"
             inkscape:connector-curvature="0" /></g><g
           transform="translate(201.3574,190.25)"
           id="g140"><path
             id="path142"
             style="fill:#2f1305;fill-opacity:1;fill-rule:evenodd;stroke:none"
             d="M 0,0 C 0.312,-0.118 0.422,-0.068 0.706,0.128 0.99,0.324 1.449,0.667 1.527,0.997 1.606,1.327 1.305,1.644 0.755,1.996 0.205,2.349 -0.594,2.737 -1.76,3.155 c -1.167,0.419 -2.7,0.867 -4.35,0.113 -1.65,-0.755 -3.415,-2.713 -4.258,-3.775 -0.843,-1.061 -0.763,-1.224 0.182,-0.608 0.945,0.617 2.755,2.015 4.374,2.446 1.618,0.432 3.043,-0.104 4.014,-0.516 C -0.828,0.404 -0.312,0.118 0,0"
             inkscape:connector-curvature="0" /></g><g
           transform="translate(217.2178,186.6348)"
           id="g144"><path
             id="path146"
             style="fill:#ffffff;fill-opacity:1;fill-rule:evenodd;stroke:none"
             d="m 0,0 c 5.079,0.928 6.604,-5.855 4.004,-8.323 0,0 -2.13,0.092 -3.158,0.037 C -0.169,-8.339 -1.882,-8.594 -1.882,-8.594 -3.042,-7.866 -5.058,-0.925 0,0"
             inkscape:connector-curvature="0" /></g><g
           transform="translate(217.2178,186.6348)"
           id="g148"><path
             id="path150"
             style="fill:none;stroke:#2f1305;stroke-width:1.5;stroke-linecap:butt;stroke-linejoin:miter;stroke-miterlimit:2.61299992;stroke-dasharray:none;stroke-opacity:1"
             d="m 0,0 c 5.079,0.928 6.604,-5.855 4.004,-8.323 0,0 -2.13,0.092 -3.158,0.037 C -0.169,-8.339 -1.882,-8.594 -1.882,-8.594 -3.042,-7.866 -5.058,-0.925 0,0 Z"
             inkscape:connector-curvature="0" /></g><g
           transform="translate(216.3066,181.1943)"
           id="g152"><path
             id="path154"
             style="fill:#2f1305;fill-opacity:1;fill-rule:evenodd;stroke:none"
             d="M 0,0 C -0.464,1.572 0.406,3.269 1.944,3.787 3.482,4.307 5.105,3.452 5.568,1.88 6.084,0.133 5.209,-1.233 3.996,-1.826 2.554,-2.531 0.632,-2.144 0,0"
             inkscape:connector-curvature="0" /></g><g
           transform="translate(217.7773,182.4531)"
           id="g156"><path
             id="path158"
             style="fill:#ffffff;fill-opacity:1;fill-rule:evenodd;stroke:none"
             d="m 0,0 c 0.212,-0.054 0.318,-0.381 0.236,-0.732 -0.08,-0.352 -0.318,-0.594 -0.529,-0.541 -0.212,0.052 -0.318,0.38 -0.236,0.732 C -0.449,-0.189 -0.211,0.053 0,0"
             inkscape:connector-curvature="0" /></g><g
           transform="translate(196.3862,186.7256)"
           id="g160"><path
             id="path162"
             style="fill:#ffffff;fill-opacity:1;fill-rule:evenodd;stroke:none"
             d="m 0,0 c 5.157,0.26 5.785,-6.665 2.886,-8.773 0,0 -2.1,0.368 -3.127,0.449 -1.012,0.079 -2.745,0.05 -2.745,0.05 C -4.041,-7.402 -5.135,-0.257 0,0"
             inkscape:connector-curvature="0" /></g><g
           transform="translate(196.3862,186.7256)"
           id="g164"><path
             id="path166"
             style="fill:none;stroke:#2f1305;stroke-width:1.5;stroke-linecap:butt;stroke-linejoin:miter;stroke-miterlimit:2.61299992;stroke-dasharray:none;stroke-opacity:1"
             d="m 0,0 c 5.157,0.26 5.785,-6.665 2.886,-8.773 0,0 -2.1,0.368 -3.127,0.449 -1.012,0.079 -2.745,0.05 -2.745,0.05 C -4.041,-7.402 -5.135,-0.257 0,0 Z"
             inkscape:connector-curvature="0" /></g><g
           transform="translate(194.7158,181.498)"
           id="g168"><path
             id="path170"
             style="fill:#2f1305;fill-opacity:1;fill-rule:evenodd;stroke:none"
             d="M 0,0 C -0.255,1.62 0.828,3.188 2.421,3.502 4.013,3.816 5.511,2.759 5.766,1.139 6.211,-1.69 2.791,-3.389 0.91,-1.698 0.441,-1.274 0.108,-0.687 0,0"
             inkscape:connector-curvature="0" /></g><g
           transform="translate(196.7705,183.9287)"
           id="g172"><path
             id="path174"
             style="fill:#ffffff;fill-opacity:1;fill-rule:evenodd;stroke:none"
             d="M 0,0 C 0.203,-0.08 0.265,-0.419 0.139,-0.757 0.013,-1.095 -0.254,-1.304 -0.457,-1.225 -0.66,-1.144 -0.722,-0.806 -0.596,-0.467 -0.47,-0.129 -0.203,0.08 0,0"
             inkscape:connector-curvature="0" /></g><g
           transform="translate(210.4937,175.3486)"
           id="g176"><path
             id="path178"
             style="fill:#2f1305;fill-opacity:1;fill-rule:evenodd;stroke:none"
             d="M 0,0 C -1.484,0.236 -4.594,0.303 -7.02,0.301 -9.446,0.299 -11.188,0.229 -12.046,0.084 -12.905,-0.061 -12.88,-0.279 -12,-1.09 c 0.881,-0.811 2.617,-2.216 3.763,-2.951 1.147,-0.735 1.703,-0.803 2.232,-0.756 0.528,0.048 1.028,0.209 1.789,0.536 0.76,0.328 1.78,0.822 2.726,1.385 0.946,0.563 1.817,1.195 2.324,1.714 C 1.341,-0.643 1.484,-0.236 0,0"
             inkscape:connector-curvature="0" /></g></g></g><g
       id="g180"><g
         clip-path="url(#clipPath186)"
         id="g182"><g
           transform="translate(237.8838,170.2041)"
           id="g188"><path
             id="path190"
             style="fill:#ea8722;fill-opacity:1;fill-rule:evenodd;stroke:none"
             d="m 0,0 c 0.728,-1.038 1.923,-2.821 3.801,-4.085 1.877,-1.263 4.434,-2.004 6.323,-1.946 1.888,0.057 3.105,0.914 4.612,1.441 1.508,0.528 3.306,0.726 4.63,1.283 1.324,0.557 2.175,1.474 2.526,2.482 0.35,1.008 0.201,2.106 -0.407,3.63 -0.608,1.523 -1.674,3.472 -3.287,4.987 -1.611,1.514 -3.768,2.594 -5.995,2.609 C 9.977,10.418 7.681,9.37 5.848,8.716 4.014,8.061 2.642,7.798 1.536,6.681 0.431,5.563 -0.409,3.591 -0.699,2.459 -0.989,1.328 -0.729,1.037 0,0"
             inkscape:connector-curvature="0" /></g><g
           transform="translate(237.8838,170.2041)"
           id="g192"><path
             id="path194"
             style="fill:none;stroke:#2f1305;stroke-width:1.5;stroke-linecap:butt;stroke-linejoin:miter;stroke-miterlimit:2.61299992;stroke-dasharray:none;stroke-opacity:1"
             d="m 0,0 c 0.728,-1.038 1.923,-2.821 3.801,-4.085 1.877,-1.263 4.434,-2.004 6.323,-1.946 1.888,0.057 3.105,0.914 4.612,1.441 1.508,0.528 3.306,0.726 4.63,1.283 1.324,0.557 2.175,1.474 2.526,2.482 0.35,1.008 0.201,2.106 -0.407,3.63 -0.608,1.523 -1.674,3.472 -3.287,4.987 -1.611,1.514 -3.768,2.594 -5.995,2.609 C 9.977,10.418 7.681,9.37 5.848,8.716 4.014,8.061 2.642,7.798 1.536,6.681 0.431,5.563 -0.409,3.591 -0.699,2.459 -0.989,1.328 -0.729,1.037 0,0 Z"
             inkscape:connector-curvature="0" /></g><g
           transform="translate(251.1504,164.7627)"
           id="g196"><path
             id="path198"
             style="fill:none;stroke:#2f1305;stroke-width:1;stroke-linecap:round;stroke-linejoin:round;stroke-miterlimit:2.61299992;stroke-dasharray:none;stroke-opacity:1"
             d="M 0,0 C 0.432,0.602 0.862,1.203 1.225,1.836 1.587,2.469 1.881,3.132 1.59,4.316 1.299,5.502 0.424,7.21 -0.245,8.17 -0.914,9.131 -1.377,9.343 -1.839,9.556"
             inkscape:connector-curvature="0" /></g><g
           transform="translate(257.0801,166.7041)"
           id="g200"><path
             id="path202"
             style="fill:none;stroke:#2f1305;stroke-width:1;stroke-linecap:round;stroke-linejoin:round;stroke-miterlimit:2.61299992;stroke-dasharray:none;stroke-opacity:1"
             d="M 0,0 C 0.692,0.839 1.385,1.679 1.709,2.813 2.033,3.948 1.988,5.379 1.451,6.557 0.914,7.734 -0.116,8.659 -1.146,9.583"
             inkscape:connector-curvature="0" /></g><g
           transform="translate(185.2314,169.2217)"
           id="g204"><path
             id="path206"
             style="fill:#ea8722;fill-opacity:1;fill-rule:evenodd;stroke:none"
             d="m 0,0 c -0.728,-1.037 -1.924,-2.821 -3.801,-4.084 -1.877,-1.263 -4.435,-2.005 -6.323,-1.947 -1.888,0.058 -3.105,0.915 -4.612,1.442 -1.508,0.527 -3.306,0.726 -4.631,1.282 -1.324,0.558 -2.175,1.475 -2.525,2.483 -0.35,1.008 -0.201,2.106 0.407,3.63 0.608,1.523 1.674,3.472 3.286,4.986 1.612,1.515 3.769,2.595 5.995,2.61 2.227,0.016 4.523,-1.031 6.357,-1.685 1.833,-0.655 3.205,-0.918 4.31,-2.035 C -0.431,5.564 0.409,3.592 0.699,2.46 0.989,1.328 0.728,1.038 0,0"
             inkscape:connector-curvature="0" /></g><g
           transform="translate(185.2314,169.2217)"
           id="g208"><path
             id="path210"
             style="fill:none;stroke:#2f1305;stroke-width:1.5;stroke-linecap:butt;stroke-linejoin:miter;stroke-miterlimit:2.61299992;stroke-dasharray:none;stroke-opacity:1"
             d="m 0,0 c -0.728,-1.037 -1.924,-2.821 -3.801,-4.084 -1.877,-1.263 -4.435,-2.005 -6.323,-1.947 -1.888,0.058 -3.105,0.915 -4.612,1.442 -1.508,0.527 -3.306,0.726 -4.631,1.282 -1.324,0.558 -2.175,1.475 -2.525,2.483 -0.35,1.008 -0.201,2.106 0.407,3.63 0.608,1.523 1.674,3.472 3.286,4.986 1.612,1.515 3.769,2.595 5.995,2.61 2.227,0.016 4.523,-1.031 6.357,-1.685 1.833,-0.655 3.205,-0.918 4.31,-2.035 C -0.431,5.564 0.409,3.592 0.699,2.46 0.989,1.328 0.728,1.038 0,0 Z"
             inkscape:connector-curvature="0" /></g><g
           transform="translate(171.9639,163.7803)"
           id="g212"><path
             id="path214"
             style="fill:none;stroke:#2f1305;stroke-width:1;stroke-linecap:round;stroke-linejoin:round;stroke-miterlimit:2.61299992;stroke-dasharray:none;stroke-opacity:1"
             d="M 0,0 C -0.43,0.603 -0.861,1.204 -1.224,1.837 -1.586,2.47 -1.88,3.132 -1.589,4.317 -1.298,5.503 -0.423,7.211 0.246,8.171 0.915,9.132 1.377,9.344 1.84,9.557"
             inkscape:connector-curvature="0" /></g><g
           transform="translate(166.0356,165.7227)"
           id="g216"><path
             id="path218"
             style="fill:none;stroke:#2f1305;stroke-width:1;stroke-linecap:round;stroke-linejoin:round;stroke-miterlimit:2.61299992;stroke-dasharray:none;stroke-opacity:1"
             d="m 0,0 c -0.693,0.839 -1.386,1.679 -1.71,2.813 -0.324,1.135 -0.28,2.566 0.258,3.744 0.537,1.177 1.567,2.102 2.598,3.026"
             inkscape:connector-curvature="0" /></g></g></g></g></svg>