<?xml version="1.0" encoding="utf-8"?>
<!-- Generator: Adobe Illustrator 24.0.1, SVG Export Plug-In . SVG Version: 6.00 Build 0)  -->
<svg version="1.1" id="Livello_1" xmlns="http://www.w3.org/2000/svg" xmlns:xlink="http://www.w3.org/1999/xlink" x="0px" y="0px"
	 viewBox="0 0 459 281" style="enable-background:new 0 0 459 281;" xml:space="preserve">
<style type="text/css">
	.st0{clip-path:url(#SVGID_2_);fill:#5E6A98;}
	.st1{clip-path:url(#SVGID_4_);fill:#7687C3;}
	.st2{clip-path:url(#SVGID_6_);fill:#7687C3;}
	.st3{clip-path:url(#SVGID_8_);fill:#7687C3;}
	.st4{clip-path:url(#SVGID_10_);fill:#7687C3;}
	.st5{clip-path:url(#SVGID_12_);fill:#7687C3;}
	.st6{clip-path:url(#SVGID_14_);fill:#7687C3;}
	.st7{clip-path:url(#SVGID_16_);fill:#7687C3;}
	.st8{clip-path:url(#SVGID_18_);fill:#7687C3;}
	.st9{fill:#7687C3;}
	.st10{clip-path:url(#SVGID_20_);fill:#7687C3;}
	.st11{clip-path:url(#SVGID_22_);fill:#7687C3;}
	.st12{clip-path:url(#SVGID_24_);fill:#7687C3;}
	.st13{clip-path:url(#SVGID_26_);fill:#7687C3;}
	.st14{clip-path:url(#SVGID_28_);fill:#7687C3;}
	.st15{clip-path:url(#SVGID_30_);fill:#7687C3;}
	.st16{clip-path:url(#SVGID_32_);fill:#7687C3;}
	.st17{clip-path:url(#SVGID_34_);fill:#7687C3;}
	.st18{clip-path:url(#SVGID_36_);fill:#7687C3;}
	.st19{clip-path:url(#SVGID_38_);fill:none;stroke:#7687C3;stroke-width:2;stroke-miterlimit:10;}
</style>
<g>
	<defs>
		<rect id="SVGID_1_" x="-167" y="-95.3" width="841.9" height="595.3"/>
	</defs>
	<clipPath id="SVGID_2_">
		<use xlink:href="#SVGID_1_"  style="overflow:visible;"/>
	</clipPath>
	<path class="st0" d="M316.7,93.3v84.6h-85.7h-1c-47.9,0-86.8-38.8-86.8-86.8S182,4.3,229.9,4.3s86.8,38.8,86.8,86.8V93.3z
		 M229.9,12c-43.6,0-79,35.4-79,79s35.4,79,79,79s79-35.4,79-79S273.5,12,229.9,12"/>
</g>
<g>
	<defs>
		<rect id="SVGID_3_" x="-167" y="-95.3" width="841.9" height="595.3"/>
	</defs>
	<clipPath id="SVGID_4_">
		<use xlink:href="#SVGID_3_"  style="overflow:visible;"/>
	</clipPath>
	<path class="st1" d="M66,264.1c-8.3,8.4-17.3,12.5-26.9,12.5c-9.5,0-17.7-3.4-24.4-10.1C8,259.8,4.6,251.6,4.6,242.1
		c0-9.5,3.4-17.7,10.1-24.4c6.8-6.7,14.9-10.1,24.4-10.1c9.5,0,17.7,3.4,24.4,10.1c6.7,6.8,10.1,14.9,10.1,24.4v30.7
		c0,1.1-0.4,2-1.1,2.7c-0.7,0.7-1.6,1.1-2.7,1.1c-1.1,0-2-0.4-2.7-1.1c-0.8-0.7-1.1-1.6-1.1-2.7C66,272.8,66,264.1,66,264.1z
		 M39.2,215.2c-7.4,0-13.7,2.6-19,7.9c-5.3,5.3-7.9,11.6-7.9,19c0,7.4,2.6,13.7,7.9,19c5.3,5.3,11.6,7.9,19,7.9s13.7-2.6,19-7.9
		c5.2-5.2,7.8-11.6,7.8-19s-2.6-13.8-7.8-19C52.9,217.8,46.6,215.2,39.2,215.2"/>
</g>
<g>
	<defs>
		<rect id="SVGID_5_" x="-167" y="-95.3" width="841.9" height="595.3"/>
	</defs>
	<clipPath id="SVGID_6_">
		<use xlink:href="#SVGID_5_"  style="overflow:visible;"/>
	</clipPath>
	<path class="st2" d="M95.5,240.9L95.5,240.9c-1.8-0.7-3.4-1.4-4.7-2.1c-1.3-0.7-2.3-1.4-3-2.1c-2.8-2.8-4.1-6.2-4.1-9.9
		c0-3.8,1.4-7.2,4.3-10.2c5.9-6,13.7-9,23.2-9c5.1,0,9.9,1.1,14.4,3.2c4.5,2.2,8.5,5.2,12.2,9.2c0.5,0.6,0.7,1.3,0.7,2.2
		c0,1.1-0.4,2-1.1,2.7c-0.8,0.8-1.7,1.1-2.7,1.1c-1,0-1.8-0.3-2.4-1l-1.9-1.9c-5.3-5.3-11.6-7.9-19-7.9c-7.4,0-13.4,2.4-18,7.2
		c-1.2,1.4-1.9,3.2-1.9,5.3c0.1,1.2,0.5,2.3,1.1,3.2c0.7,0.9,1.6,1.6,2.9,2l31.5,10.4h-0.1c1.9,0.7,3.5,1.4,4.8,2.1
		c1.3,0.7,2.2,1.4,2.9,2.1c2.8,2.8,4.2,6.1,4.2,9.9c0,3.9-1.5,7.3-4.4,10.2c-5.9,6-13.6,9-23.1,9c-10.3,0-19.2-4.1-26.5-12.3
		c-0.5-0.6-0.7-1.4-0.7-2.2c0-1.1,0.4-2,1.1-2.7c0.7-0.8,1.6-1.1,2.7-1.1c1,0,1.8,0.3,2.5,1l1.9,1.9c5.3,5.3,11.6,7.9,19,7.9
		c7.4,0,13.4-2.4,17.8-7.1c1.3-1.4,1.9-3.2,1.9-5.3c-0.2-2.6-1.5-4.4-4-5.3L95.5,240.9z"/>
</g>
<g>
	<defs>
		<rect id="SVGID_7_" x="-167" y="-95.3" width="841.9" height="595.3"/>
	</defs>
	<clipPath id="SVGID_8_">
		<use xlink:href="#SVGID_7_"  style="overflow:visible;"/>
	</clipPath>
	<path class="st3" d="M183.8,269c1.1,0,2,0.4,2.7,1.1c0.8,0.7,1.1,1.6,1.1,2.7s-0.4,2-1.1,2.7c-0.8,0.7-1.7,1.1-2.7,1.1
		c-16.2,0-24.3-8.1-24.3-24.3v-37.2h-6.4c-1.1,0-2-0.4-2.7-1.1s-1.1-1.6-1.1-2.7c0-1.1,0.4-2,1.1-2.7c0.8-0.7,1.7-1.1,2.7-1.1h6.4
		v-25.9c0-1.1,0.4-2,1.1-2.7c0.7-0.7,1.6-1.1,2.7-1.1c1.1,0,2,0.4,2.7,1.1c0.8,0.7,1.1,1.6,1.1,2.7v25.9h11.5c1.1,0,2,0.4,2.7,1.1
		c0.8,0.7,1.1,1.6,1.1,2.7s-0.4,2-1.1,2.7c-0.8,0.7-1.7,1.1-2.7,1.1h-11.5v37.2C167.2,263.5,172.8,269,183.8,269"/>
</g>
<g>
	<defs>
		<rect id="SVGID_9_" x="-167" y="-95.3" width="841.9" height="595.3"/>
	</defs>
	<clipPath id="SVGID_10_">
		<use xlink:href="#SVGID_9_"  style="overflow:visible;"/>
	</clipPath>
	<path class="st4" d="M259.8,264.1c-8.3,8.4-17.3,12.5-26.9,12.5c-9.5,0-17.7-3.4-24.4-10.1c-6.8-6.8-10.1-14.9-10.1-24.4
		c0-9.5,3.4-17.7,10.1-24.4c6.8-6.7,14.9-10.1,24.4-10.1c9.5,0,17.7,3.4,24.4,10.1c6.7,6.8,10.1,14.9,10.1,24.4v30.7
		c0,1.1-0.4,2-1.1,2.7c-0.7,0.7-1.6,1.1-2.7,1.1s-2-0.4-2.7-1.1c-0.8-0.7-1.1-1.6-1.1-2.7L259.8,264.1L259.8,264.1z M233,215.2
		c-7.4,0-13.7,2.6-19,7.9c-5.3,5.3-7.9,11.6-7.9,19c0,7.4,2.6,13.7,7.9,19c5.3,5.3,11.6,7.9,19,7.9s13.7-2.6,19-7.9
		c5.2-5.2,7.8-11.6,7.8-19s-2.6-13.8-7.8-19C246.7,217.8,240.4,215.2,233,215.2"/>
</g>
<g>
	<defs>
		<rect id="SVGID_11_" x="-167" y="-95.3" width="841.9" height="595.3"/>
	</defs>
	<clipPath id="SVGID_12_">
		<use xlink:href="#SVGID_11_"  style="overflow:visible;"/>
	</clipPath>
	<path class="st5" d="M277.6,211.4c0-1.1,0.4-2,1.1-2.7c0.7-0.7,1.6-1.1,2.7-1.1c1.1,0,2,0.4,2.7,1.1c0.7,0.7,1.1,1.6,1.1,2.7v8.7
		c8.4-8.4,17.3-12.5,26.9-12.5c5.1,0,9.5,0.8,13.2,2.4c0.7,0.2,1.3,0.6,1.8,1.2c0.7,0.7,1,1.6,1,2.7c0,1.1-0.4,2-1.1,2.7
		c-0.7,0.7-1.6,1.1-2.7,1.1c-0.7,0-1.2-0.1-1.7-0.4c-2.9-1.4-6.4-2.1-10.5-2.1c-7.4,0-13.7,2.6-19,7.9c-5.3,5.2-7.9,11.6-7.9,19
		v30.7c0,1.1-0.4,2-1.1,2.7c-0.7,0.7-1.6,1.1-2.7,1.1s-2-0.4-2.7-1.1c-0.7-0.7-1.1-1.6-1.1-2.7L277.6,211.4L277.6,211.4z"/>
</g>
<g>
	<defs>
		<rect id="SVGID_13_" x="-167" y="-95.3" width="841.9" height="595.3"/>
	</defs>
	<clipPath id="SVGID_14_">
		<use xlink:href="#SVGID_13_"  style="overflow:visible;"/>
	</clipPath>
	<path class="st6" d="M371.5,269c1.1,0,2,0.4,2.7,1.1s1.1,1.6,1.1,2.7s-0.4,2-1.1,2.7c-0.8,0.7-1.7,1.1-2.7,1.1
		c-16.2,0-24.3-8.1-24.3-24.3v-37.2h-6.4c-1.1,0-2-0.4-2.7-1.1c-0.8-0.7-1.1-1.6-1.1-2.7c0-1.1,0.4-2,1.1-2.7
		c0.8-0.7,1.7-1.1,2.7-1.1h6.4v-25.9c0-1.1,0.4-2,1.1-2.7c0.7-0.7,1.6-1.1,2.7-1.1s2,0.4,2.7,1.1c0.8,0.7,1.1,1.6,1.1,2.7v25.9h11.5
		c1.1,0,2,0.4,2.7,1.1c0.8,0.7,1.1,1.6,1.1,2.7s-0.4,2-1.1,2.7c-0.8,0.7-1.7,1.1-2.7,1.1h-11.5v37.2
		C354.9,263.5,360.4,269,371.5,269"/>
</g>
<g>
	<defs>
		<rect id="SVGID_15_" x="-167" y="-95.3" width="841.9" height="595.3"/>
	</defs>
	<clipPath id="SVGID_16_">
		<use xlink:href="#SVGID_15_"  style="overflow:visible;"/>
	</clipPath>
	<path class="st7" d="M440.3,261.8c1.1,0,2,0.4,2.7,1.1c0.7,0.8,1.1,1.7,1.1,2.7c0,1.1-0.3,2-1,2.7c-6.4,5.6-13.9,8.3-22.5,8.3
		c-9.5,0-17.7-3.4-24.4-10.1c-6.7-6.7-10.1-14.9-10.1-24.4c0-9.5,3.4-17.7,10.1-24.4c6.8-6.8,14.9-10.1,24.4-10.1
		c9.5,0,17.7,3.4,24.4,10.1c6.7,6.7,10.1,14.9,10.1,24.4c0,1.1-0.4,2-1.1,2.7c-0.7,0.7-1.6,1.1-2.7,1.1h-57.5
		c1.2,6.2,3.8,11.2,7.8,15.2c5.3,5.3,11.6,7.9,19,7.9c3.4,0,6.5-0.5,9.4-1.6c2.9-1.1,5.5-2.7,7.9-4.7
		C438.6,262.1,439.4,261.8,440.3,261.8 M447.4,238.3c-1.2-6.1-3.7-11.2-7.7-15.2c-5.3-5.3-11.6-7.9-19-7.9c-7.4,0-13.7,2.6-19,7.9
		c-4,4-6.5,9-7.8,15.2H447.4z"/>
</g>
<g>
	<defs>
		<rect id="SVGID_17_" x="-167" y="-95.3" width="841.9" height="595.3"/>
	</defs>
	<clipPath id="SVGID_18_">
		<use xlink:href="#SVGID_17_"  style="overflow:visible;"/>
	</clipPath>
	<polygon class="st8" points="251.2,130.7 259.6,148.5 259.8,148.4 251.5,130.6 	"/>
</g>
<g>
	
		<rect x="227.1" y="67.8" transform="matrix(0.8966 -0.4428 0.4428 0.8966 -14.6327 109.5794)" class="st9" width="0.5" height="36.6"/>
</g>
<g>
	
		<rect x="209.5" y="88.8" transform="matrix(0.2974 -0.9547 0.9547 0.2974 44.882 275.7621)" class="st9" width="0.5" height="37.1"/>
</g>
<g>
	<defs>
		<rect id="SVGID_19_" x="-167" y="-95.3" width="841.9" height="595.3"/>
	</defs>
	<clipPath id="SVGID_20_">
		<use xlink:href="#SVGID_19_"  style="overflow:visible;"/>
	</clipPath>
	<polygon class="st10" points="254.3,105.6 278.5,74.7 277.8,74.2 253.6,105 	"/>
</g>
<g>
	<defs>
		<polyline id="SVGID_21_" points="31.1,-349.7 623.2,-411.7 710.8,425.7 118.8,487.6 		"/>
	</defs>
	<clipPath id="SVGID_22_">
		<use xlink:href="#SVGID_21_"  style="overflow:visible;"/>
	</clipPath>
	
		<rect x="237.9" y="34.2" transform="matrix(0.9946 -0.1041 0.1041 0.9946 -5.7265 25.1862)" class="st11" width="1.1" height="66.6"/>
</g>
<g>
	
		<rect x="201.3" y="49.2" transform="matrix(0.6297 -0.7769 0.7769 0.6297 8.9896 188.5884)" class="st9" width="2.1" height="71.4"/>
</g>
<g>
	<defs>
		<rect id="SVGID_23_" x="-167" y="-95.3" width="841.9" height="595.3"/>
	</defs>
	<clipPath id="SVGID_24_">
		<use xlink:href="#SVGID_23_"  style="overflow:visible;"/>
	</clipPath>
	<path class="st12" d="M233.9,27.1c5.5-0.6,10.4,3.4,11,8.9c0.6,5.5-3.4,10.4-8.9,11c-5.5,0.6-10.4-3.4-11-8.9
		C224.4,32.6,228.4,27.7,233.9,27.1"/>
</g>
<g>
	<defs>
		<rect id="SVGID_25_" x="-167" y="-95.3" width="841.9" height="595.3"/>
	</defs>
	<clipPath id="SVGID_26_">
		<use xlink:href="#SVGID_25_"  style="overflow:visible;"/>
	</clipPath>
	<path class="st13" d="M218.4,65.7c2.3-0.2,4.4,1.4,4.6,3.8c0.2,2.3-1.4,4.4-3.8,4.6s-4.4-1.4-4.6-3.8
		C214.4,68.1,216.1,66,218.4,65.7"/>
</g>
<g>
	<defs>
		<rect id="SVGID_27_" x="-167" y="-95.3" width="841.9" height="595.3"/>
	</defs>
	<clipPath id="SVGID_28_">
		<use xlink:href="#SVGID_27_"  style="overflow:visible;"/>
	</clipPath>
	<path class="st14" d="M258.8,142.7c2.3-0.2,4.4,1.4,4.6,3.8c0.2,2.3-1.4,4.4-3.8,4.6c-2.3,0.2-4.4-1.4-4.6-3.8
		C254.7,145,256.4,142.9,258.8,142.7"/>
</g>
<g>
	<defs>
		<rect id="SVGID_29_" x="-167" y="-95.3" width="841.9" height="595.3"/>
	</defs>
	<clipPath id="SVGID_30_">
		<use xlink:href="#SVGID_29_"  style="overflow:visible;"/>
	</clipPath>
	<path class="st15" d="M190.4,96.9c2.3-0.2,4.4,1.4,4.6,3.8c0.2,2.3-1.4,4.4-3.8,4.6s-4.4-1.4-4.6-3.8
		C186.4,99.3,188,97.2,190.4,96.9"/>
</g>
<g>
	<defs>
		<rect id="SVGID_31_" x="-167" y="-95.3" width="841.9" height="595.3"/>
	</defs>
	<clipPath id="SVGID_32_">
		<use xlink:href="#SVGID_31_"  style="overflow:visible;"/>
	</clipPath>
	<path class="st16" d="M275,70.4c3.6-0.4,6.8,2.2,7.2,5.8s-2.2,6.8-5.8,7.2c-3.6,0.4-6.8-2.2-7.2-5.8C268.8,74,271.4,70.8,275,70.4"
		/>
</g>
<g>
	<defs>
		<rect id="SVGID_33_" x="-167" y="-95.3" width="841.9" height="595.3"/>
	</defs>
	<clipPath id="SVGID_34_">
		<use xlink:href="#SVGID_33_"  style="overflow:visible;"/>
	</clipPath>
	<path class="st17" d="M168.4,65.3c-0.5-4.8,3-9,7.7-9.5c4.8-0.5,9,3,9.5,7.7c0.5,4.8-3,9-7.7,9.5C173.1,73.5,168.9,70,168.4,65.3"
		/>
</g>
<g>
	<defs>
		<rect id="SVGID_35_" x="-167" y="-95.3" width="841.9" height="595.3"/>
	</defs>
	<clipPath id="SVGID_36_">
		<use xlink:href="#SVGID_35_"  style="overflow:visible;"/>
	</clipPath>
	<path class="st18" d="M232.1,117.9c-0.6-6.1,3.8-11.6,9.9-12.2c6.1-0.6,11.6,3.8,12.2,9.9c0.6,6.1-3.8,11.6-9.9,12.2
		C238.2,128.4,232.7,124,232.1,117.9"/>
</g>
<g>
	<defs>
		<rect id="SVGID_37_" x="-167" y="-95.3" width="841.9" height="595.3"/>
	</defs>
	<clipPath id="SVGID_38_">
		<use xlink:href="#SVGID_37_"  style="overflow:visible;"/>
	</clipPath>
	<circle class="st19" cx="243.2" cy="116.7" r="16.2"/>
</g>
</svg>
