<?xml version="1.0" encoding="UTF-8" standalone="no"?>
<!-- Created with Inkscape (http://www.inkscape.org/) -->

<svg
   xmlns:dc="http://purl.org/dc/elements/1.1/"
   xmlns:cc="http://creativecommons.org/ns#"
   xmlns:rdf="http://www.w3.org/1999/02/22-rdf-syntax-ns#"
   xmlns:svg="http://www.w3.org/2000/svg"
   xmlns="http://www.w3.org/2000/svg"
   xmlns:sodipodi="http://sodipodi.sourceforge.net/DTD/sodipodi-0.dtd"
   xmlns:inkscape="http://www.inkscape.org/namespaces/inkscape"
   version="1.1"
   id="svg2178"
   xml:space="preserve"
   width="381.62173"
   height="230.64119"
   viewBox="0 0 381.62173 230.64119"
   sodipodi:docname="astarte-logo-white.svg"
   inkscape:version="0.92.3 (2405546, 2018-03-11)"><metadata
     id="metadata2184"><rdf:RDF><cc:Work
         rdf:about=""><dc:format>image/svg+xml</dc:format><dc:type
           rdf:resource="http://purl.org/dc/dcmitype/StillImage" /><dc:title></dc:title></cc:Work></rdf:RDF></metadata><defs
     id="defs2182"><clipPath
       clipPathUnits="userSpaceOnUse"
       id="clipPath2194"><path
         d="M 0,595.28 H 841.89 V 0 H 0 Z"
         id="path2192"
         inkscape:connector-curvature="0" /></clipPath></defs><sodipodi:namedview
     pagecolor="#000000"
     bordercolor="#666666"
     borderopacity="1"
     objecttolerance="10"
     gridtolerance="10"
     guidetolerance="10"
     inkscape:pageopacity="0"
     inkscape:pageshadow="2"
     inkscape:window-width="2556"
     inkscape:window-height="1416"
     id="namedview2180"
     showgrid="false"
     fit-margin-top="0"
     fit-margin-left="0"
     fit-margin-right="0"
     fit-margin-bottom="0"
     inkscape:zoom="4.0052738"
     inkscape:cx="107.34902"
     inkscape:cy="102.79209"
     inkscape:window-x="0"
     inkscape:window-y="22"
     inkscape:window-maximized="0"
     inkscape:current-layer="g2186" /><g
     id="g2186"
     inkscape:groupmode="layer"
     inkscape:label="LogoBN"
     transform="matrix(1.3333333,0,0,-1.3333333,-335.22772,679.81732)"><g
       id="g2196"
       transform="translate(394.529,504.953)"
       style="fill:#ffffff"><path
         d="m 0,0 c -27.722,0 -50.194,-22.473 -50.194,-50.194 0,-27.722 22.472,-50.195 50.194,-50.195 27.722,0 50.194,22.473 50.194,50.195 C 50.194,-22.473 27.722,0 0,0 m 55.104,-51.589 v -53.71 H 0.645 0 c -30.433,0 -55.104,24.671 -55.104,55.105 0,30.433 24.671,55.104 55.104,55.104 30.433,0 55.104,-24.671 55.104,-55.104 z"
         style="fill:#ffffff;fill-opacity:1;fill-rule:nonzero;stroke:none"
         id="path2198"
         inkscape:connector-curvature="0" /></g><g
       id="g2200"
       transform="translate(273.3768,375.9336)"
       style="fill:#ffffff"><path
         d="m 0,0 c -4.705,0 -8.73,-1.673 -12.076,-5.019 -3.346,-3.345 -5.019,-7.371 -5.019,-12.076 0,-4.705 1.673,-8.73 5.019,-12.076 3.346,-3.345 7.371,-5.018 12.076,-5.018 4.705,0 8.73,1.673 12.076,5.018 3.319,3.32 4.979,7.345 4.979,12.076 0,4.731 -1.66,8.757 -4.979,12.076 C 8.73,-1.673 4.705,0 0,0 M 17.055,-31.092 C 11.775,-36.398 6.09,-39.051 0,-39.051 c -6.064,0 -11.24,2.143 -15.526,6.43 -4.288,4.287 -6.43,9.462 -6.43,15.526 0,6.065 2.142,11.24 6.43,15.527 4.286,4.286 9.462,6.43 15.526,6.43 6.064,0 11.239,-2.144 15.526,-6.43 4.287,-4.287 6.43,-9.462 6.43,-15.527 V -36.62 c 0,-0.68 -0.235,-1.255 -0.705,-1.725 -0.471,-0.471 -1.046,-0.706 -1.726,-0.706 -0.68,0 -1.261,0.235 -1.744,0.706 -0.484,0.47 -0.726,1.045 -0.726,1.725 z"
         style="fill:#ffffff;fill-opacity:1;fill-rule:nonzero;stroke:none"
         id="path2202"
         inkscape:connector-curvature="0" /></g><g
       id="g2204"
       transform="translate(309.1736,359.6231)"
       style="fill:#ffffff"><path
         d="M 0,0 H 0.039 C -1.163,0.444 -2.17,0.882 -2.98,1.313 -3.79,1.745 -4.417,2.196 -4.862,2.666 -6.613,4.47 -7.489,6.574 -7.489,8.979 c 0,2.43 0.915,4.587 2.745,6.469 3.764,3.816 8.678,5.724 14.742,5.724 3.241,0 6.286,-0.686 9.135,-2.058 2.849,-1.372 5.424,-3.313 7.724,-5.823 0.288,-0.365 0.432,-0.823 0.432,-1.372 0,-0.679 -0.242,-1.261 -0.726,-1.745 -0.484,-0.483 -1.065,-0.725 -1.744,-0.725 -0.654,0 -1.164,0.209 -1.53,0.627 l -1.215,1.216 C 18.728,14.638 14.703,16.31 9.998,16.31 5.267,16.31 1.464,14.794 -1.411,11.762 -2.196,10.848 -2.588,9.724 -2.588,8.39 -2.535,7.606 -2.3,6.927 -1.882,6.352 -1.464,5.777 -0.849,5.345 -0.039,5.058 l 20.035,-6.626 h -0.039 c 1.202,-0.445 2.208,-0.883 3.019,-1.314 0.81,-0.431 1.424,-0.882 1.843,-1.352 1.777,-1.778 2.666,-3.882 2.666,-6.313 0,-2.457 -0.928,-4.613 -2.784,-6.469 -3.738,-3.816 -8.639,-5.725 -14.703,-5.725 -6.561,0 -12.181,2.614 -16.859,7.842 -0.288,0.392 -0.432,0.863 -0.432,1.412 0,0.679 0.236,1.261 0.706,1.744 0.471,0.484 1.045,0.726 1.725,0.726 0.628,0 1.15,-0.21 1.569,-0.628 l 1.215,-1.215 c 3.346,-3.346 7.371,-5.019 12.076,-5.019 4.705,0 8.482,1.503 11.331,4.509 0.81,0.915 1.216,2.039 1.216,3.372 -0.132,1.673 -0.981,2.797 -2.549,3.372 z"
         style="fill:#ffffff;fill-opacity:1;fill-rule:nonzero;stroke:none"
         id="path2206"
         inkscape:connector-curvature="0" /></g><g
       id="g2208"
       transform="translate(365.28,341.7444)"
       style="fill:#ffffff"><path
         d="M 0,0 C 0.68,0 1.261,-0.235 1.745,-0.706 2.228,-1.176 2.47,-1.751 2.47,-2.431 2.47,-3.111 2.228,-3.686 1.745,-4.156 1.261,-4.627 0.68,-4.862 0,-4.862 c -10.299,0 -15.448,5.15 -15.448,15.448 v 23.603 h -4.038 c -0.68,0 -1.261,0.235 -1.745,0.706 -0.484,0.47 -0.725,1.045 -0.725,1.725 0,0.68 0.241,1.255 0.725,1.725 0.484,0.471 1.065,0.706 1.745,0.706 h 4.038 v 16.428 c 0,0.68 0.235,1.255 0.706,1.725 0.47,0.471 1.045,0.706 1.725,0.706 0.68,0 1.261,-0.235 1.745,-0.706 0.483,-0.47 0.725,-1.045 0.725,-1.725 V 39.051 h 7.332 c 0.68,0 1.261,-0.235 1.745,-0.706 0.483,-0.47 0.725,-1.045 0.725,-1.725 0,-0.68 -0.242,-1.255 -0.725,-1.725 -0.484,-0.471 -1.065,-0.706 -1.745,-0.706 h -7.332 V 10.586 C -10.547,3.529 -7.032,0 0,0"
         style="fill:#ffffff;fill-opacity:1;fill-rule:nonzero;stroke:none"
         id="path2210"
         inkscape:connector-curvature="0" /></g><g
       id="g2212"
       transform="translate(396.4894,375.9336)"
       style="fill:#ffffff"><path
         d="m 0,0 c -4.705,0 -8.73,-1.673 -12.076,-5.019 -3.346,-3.345 -5.019,-7.371 -5.019,-12.076 0,-4.705 1.673,-8.73 5.019,-12.076 3.346,-3.345 7.371,-5.018 12.076,-5.018 4.705,0 8.73,1.673 12.076,5.018 3.32,3.32 4.979,7.345 4.979,12.076 0,4.731 -1.659,8.757 -4.979,12.076 C 8.73,-1.673 4.705,0 0,0 M 17.055,-31.092 C 11.775,-36.398 6.09,-39.051 0,-39.051 c -6.064,0 -11.24,2.143 -15.526,6.43 -4.288,4.287 -6.43,9.462 -6.43,15.526 0,6.065 2.142,11.24 6.43,15.527 4.286,4.286 9.462,6.43 15.526,6.43 6.064,0 11.239,-2.144 15.526,-6.43 4.287,-4.287 6.43,-9.462 6.43,-15.527 V -36.62 c 0,-0.68 -0.235,-1.255 -0.705,-1.725 -0.471,-0.471 -1.046,-0.706 -1.725,-0.706 -0.68,0 -1.262,0.235 -1.745,0.706 -0.484,0.47 -0.726,1.045 -0.726,1.725 z"
         style="fill:#ffffff;fill-opacity:1;fill-rule:nonzero;stroke:none"
         id="path2214"
         inkscape:connector-curvature="0" /></g><g
       id="g2216"
       transform="translate(424.8366,378.3645)"
       style="fill:#ffffff"><path
         d="m 0,0 c 0,0.68 0.235,1.255 0.706,1.725 0.47,0.471 1.045,0.706 1.725,0.706 0.68,0 1.255,-0.235 1.725,-0.706 C 4.627,1.255 4.862,0.68 4.862,0 v -5.528 c 5.306,5.306 11.004,7.959 17.094,7.959 3.268,0 6.065,-0.51 8.391,-1.529 0.418,-0.157 0.797,-0.406 1.137,-0.745 0.444,-0.445 0.666,-1.02 0.666,-1.725 0,-0.681 -0.235,-1.255 -0.705,-1.725 -0.471,-0.471 -1.046,-0.706 -1.725,-0.706 -0.419,0 -0.785,0.078 -1.098,0.235 -1.83,0.889 -4.052,1.333 -6.666,1.333 -4.705,0 -8.73,-1.673 -12.076,-5.018 -3.345,-3.32 -5.018,-7.345 -5.018,-12.076 v -19.526 c 0,-0.68 -0.235,-1.255 -0.706,-1.725 -0.47,-0.471 -1.045,-0.706 -1.725,-0.706 -0.68,0 -1.255,0.235 -1.725,0.706 C 0.235,-40.306 0,-39.731 0,-39.051 Z"
         style="fill:#ffffff;fill-opacity:1;fill-rule:nonzero;stroke:none"
         id="path2218"
         inkscape:connector-curvature="0" /></g><g
       id="g2220"
       transform="translate(484.4717,341.7444)"
       style="fill:#ffffff"><path
         d="M 0,0 C 0.68,0 1.261,-0.235 1.745,-0.706 2.228,-1.176 2.47,-1.751 2.47,-2.431 2.47,-3.111 2.228,-3.686 1.745,-4.156 1.261,-4.627 0.68,-4.862 0,-4.862 c -10.299,0 -15.448,5.15 -15.448,15.448 v 23.603 h -4.038 c -0.68,0 -1.261,0.235 -1.745,0.706 -0.484,0.47 -0.725,1.045 -0.725,1.725 0,0.68 0.241,1.255 0.725,1.725 0.484,0.471 1.065,0.706 1.745,0.706 h 4.038 v 16.428 c 0,0.68 0.235,1.255 0.706,1.725 0.47,0.471 1.045,0.706 1.725,0.706 0.68,0 1.261,-0.235 1.745,-0.706 0.483,-0.47 0.725,-1.045 0.725,-1.725 V 39.051 h 7.332 c 0.68,0 1.261,-0.235 1.745,-0.706 0.483,-0.47 0.725,-1.045 0.725,-1.725 0,-0.68 -0.242,-1.255 -0.725,-1.725 -0.484,-0.471 -1.065,-0.706 -1.745,-0.706 h -7.332 V 10.586 C -10.547,3.529 -7.031,0 0,0"
         style="fill:#ffffff;fill-opacity:1;fill-rule:nonzero;stroke:none"
         id="path2222"
         inkscape:connector-curvature="0" /></g><g
       id="g2224"
       transform="translate(532.6581,361.2699)"
       style="fill:#ffffff"><path
         d="m 0,0 c -0.732,3.895 -2.366,7.11 -4.901,9.645 -3.346,3.346 -7.371,5.019 -12.076,5.019 -4.705,0 -8.73,-1.673 -12.076,-5.019 C -31.562,7.136 -33.209,3.921 -33.993,0 Z m -4.47,-14.938 c 0.68,0 1.255,-0.242 1.725,-0.726 0.471,-0.483 0.706,-1.065 0.706,-1.744 0,-0.68 -0.209,-1.242 -0.627,-1.686 -4.078,-3.529 -8.848,-5.293 -14.311,-5.293 -6.064,0 -11.24,2.143 -15.526,6.43 -4.287,4.287 -6.43,9.462 -6.43,15.526 0,6.064 2.143,11.24 6.43,15.526 4.286,4.287 9.462,6.43 15.526,6.43 6.064,0 11.24,-2.143 15.526,-6.43 C 2.836,8.809 4.979,3.633 4.979,-2.431 4.979,-3.11 4.744,-3.686 4.274,-4.156 3.803,-4.627 3.228,-4.862 2.549,-4.862 h -36.542 c 0.784,-3.921 2.431,-7.136 4.94,-9.645 3.346,-3.346 7.371,-5.018 12.076,-5.018 2.143,0 4.13,0.346 5.96,1.039 1.829,0.692 3.502,1.692 5.018,2.999 0.445,0.366 0.954,0.549 1.529,0.549"
         style="fill:#ffffff;fill-opacity:1;fill-rule:nonzero;stroke:none"
         id="path2226"
         inkscape:connector-curvature="0" /></g><g
       id="g2228"
       transform="translate(408.071,429.6056)"
       style="fill:#ffffff"><path
         d="m 0,0 5.319,-11.34 0.158,0.082 -5.319,11.34 z"
         style="fill:#ffffff;fill-opacity:1;fill-rule:nonzero;stroke:none"
         id="path2230"
         inkscape:connector-curvature="0" /></g><g
       id="g2232"
       transform="translate(387.6173,468.2531)"
       style="fill:#ffffff"><path
         d="m 0,0 10.293,-20.842 0.299,0.147 L 0.299,0.147 Z"
         style="fill:#ffffff;fill-opacity:1;fill-rule:nonzero;stroke:none"
         id="path2234"
         inkscape:connector-curvature="0" /></g><g
       id="g2236"
       transform="translate(370.4699,447.7467)"
       style="fill:#ffffff"><path
         d="M 0,0 22.484,-7.004 22.585,-6.682 0.1,0.322 Z"
         style="fill:#ffffff;fill-opacity:1;fill-rule:nonzero;stroke:none"
         id="path2238"
         inkscape:connector-curvature="0" /></g><g
       id="g2240"
       transform="translate(409.9982,445.5653)"
       style="fill:#ffffff"><path
         d="M 0,0 15.368,19.581 14.972,19.931 -0.396,0.35 Z"
         style="fill:#ffffff;fill-opacity:1;fill-rule:nonzero;stroke:none"
         id="path2242"
         inkscape:connector-curvature="0" /></g><g
       id="g2244"
       transform="translate(397.3933,490.7461)"
       style="fill:#ffffff"><path
         d="M 0,0 4.401,-42.055 5.11,-41.981 0.709,0.074 Z"
         style="fill:#ffffff;fill-opacity:1;fill-rule:nonzero;stroke:none"
         id="path2246"
         inkscape:connector-curvature="0" /></g><g
       id="g2248"
       transform="translate(358.9878,472.4573)"
       style="fill:#ffffff"><path
         d="m 0,0 35.205,-28.535 0.824,1.017 L 0.824,1.017 Z"
         style="fill:#ffffff;fill-opacity:1;fill-rule:nonzero;stroke:none"
         id="path2250"
         inkscape:connector-curvature="0" /></g><g
       id="g2252"
       transform="translate(397.0702,495.4071)"
       style="fill:#ffffff"><path
         d="M 0,0 C 3.483,0.364 6.602,-2.164 6.966,-5.647 7.331,-9.13 4.803,-12.249 1.32,-12.613 -2.163,-12.978 -5.282,-10.449 -5.647,-6.966 -6.011,-3.483 -3.483,-0.364 0,0"
         style="fill:#ffffff;fill-opacity:1;fill-rule:nonzero;stroke:none"
         id="path2254"
         inkscape:connector-curvature="0" /></g><g
       id="g2256"
       transform="translate(387.2276,470.8485)"
       style="fill:#ffffff"><path
         d="M 0,0 C 1.475,0.154 2.796,-0.916 2.95,-2.391 3.104,-3.866 2.034,-5.187 0.559,-5.341 -0.916,-5.496 -2.237,-4.425 -2.391,-2.95 -2.546,-1.475 -1.475,-0.154 0,0"
         style="fill:#ffffff;fill-opacity:1;fill-rule:nonzero;stroke:none"
         id="path2258"
         inkscape:connector-curvature="0" /></g><g
       id="g2260"
       transform="translate(412.8564,422.0021)"
       style="fill:#ffffff"><path
         d="M 0,0 C 1.475,0.154 2.796,-0.916 2.95,-2.391 3.104,-3.866 2.034,-5.187 0.559,-5.341 -0.916,-5.496 -2.237,-4.425 -2.391,-2.95 -2.546,-1.475 -1.475,-0.154 0,0"
         style="fill:#ffffff;fill-opacity:1;fill-rule:nonzero;stroke:none"
         id="path2262"
         inkscape:connector-curvature="0" /></g><g
       id="g2264"
       transform="translate(369.4141,451.0423)"
       style="fill:#ffffff"><path
         d="M 0,0 C 1.475,0.154 2.796,-0.916 2.95,-2.391 3.104,-3.866 2.034,-5.187 0.559,-5.341 -0.916,-5.496 -2.237,-4.425 -2.391,-2.95 -2.546,-1.475 -1.475,-0.154 0,0"
         style="fill:#ffffff;fill-opacity:1;fill-rule:nonzero;stroke:none"
         id="path2266"
         inkscape:connector-curvature="0" /></g><g
       id="g2268"
       transform="translate(423.2,467.8734)"
       style="fill:#ffffff"><path
         d="m 0,0 c 2.29,0.24 4.341,-1.423 4.581,-3.713 0.239,-2.29 -1.423,-4.341 -3.713,-4.58 -2.29,-0.24 -4.341,1.422 -4.581,3.712 C -3.952,-2.29 -2.29,-0.24 0,0"
         style="fill:#ffffff;fill-opacity:1;fill-rule:nonzero;stroke:none"
         id="path2270"
         inkscape:connector-curvature="0" /></g><g
       id="g2272"
       transform="translate(355.442,471.1615)"
       style="fill:#ffffff"><path
         d="M 0,0 C -0.317,3.028 1.881,5.74 4.909,6.057 7.937,6.374 10.649,4.176 10.966,1.147 11.283,-1.881 9.085,-4.592 6.057,-4.909 3.029,-5.226 0.317,-3.028 0,0"
         style="fill:#ffffff;fill-opacity:1;fill-rule:nonzero;stroke:none"
         id="path2274"
         inkscape:connector-curvature="0" /></g><g
       id="g2276"
       transform="translate(395.9265,437.7497)"
       style="fill:#ffffff"><path
         d="M 0,0 C -0.407,3.888 2.415,7.37 6.303,7.777 10.191,8.183 13.673,5.361 14.08,1.473 14.487,-2.415 11.665,-5.897 7.777,-6.303 3.889,-6.71 0.407,-3.888 0,0"
         style="fill:#ffffff;fill-opacity:1;fill-rule:nonzero;stroke:none"
         id="path2278"
         inkscape:connector-curvature="0" /></g><path
       inkscape:connector-curvature="0"
       id="path2282"
       style="fill:none;stroke:#f0f0f0;stroke-width:2;stroke-linecap:butt;stroke-linejoin:miter;stroke-miterlimit:10;stroke-dasharray:none;stroke-opacity:1"
       d="m 392.7509,437.4174 c -0.59,5.642 3.505,10.694 9.147,11.285 5.642,0.59 10.694,-3.505 11.284,-9.147 0.591,-5.642 -3.504,-10.694 -9.146,-11.285 -5.642,-0.59 -10.695,3.505 -11.285,9.147 z" /></g></svg>